G04 #@! TF.GenerationSoftware,KiCad,Pcbnew,(5.0.2)-1*
G04 #@! TF.CreationDate,2020-05-26T13:11:33-05:00*
G04 #@! TF.ProjectId,Spot_Welder_Hardware,53706f74-5f57-4656-9c64-65725f486172,rev?*
G04 #@! TF.SameCoordinates,Original*
G04 #@! TF.FileFunction,Copper,L2,Bot*
G04 #@! TF.FilePolarity,Positive*
%FSLAX46Y46*%
G04 Gerber Fmt 4.6, Leading zero omitted, Abs format (unit mm)*
G04 Created by KiCad (PCBNEW (5.0.2)-1) date 5/26/2020 1:11:33 PM*
%MOMM*%
%LPD*%
G01*
G04 APERTURE LIST*
G04 #@! TA.AperFunction,ComponentPad*
%ADD10C,18.288000*%
G04 #@! TD*
G04 #@! TA.AperFunction,ComponentPad*
%ADD11R,4.000000X4.000000*%
G04 #@! TD*
G04 #@! TA.AperFunction,ComponentPad*
%ADD12C,4.000000*%
G04 #@! TD*
G04 #@! TA.AperFunction,ComponentPad*
%ADD13C,10.160000*%
G04 #@! TD*
G04 #@! TA.AperFunction,ComponentPad*
%ADD14C,5.080000*%
G04 #@! TD*
G04 #@! TA.AperFunction,ComponentPad*
%ADD15C,1.524000*%
G04 #@! TD*
G04 #@! TA.AperFunction,ComponentPad*
%ADD16R,1.800000X1.800000*%
G04 #@! TD*
G04 #@! TA.AperFunction,ComponentPad*
%ADD17O,1.800000X1.800000*%
G04 #@! TD*
G04 #@! TA.AperFunction,ComponentPad*
%ADD18R,1.700000X1.700000*%
G04 #@! TD*
G04 #@! TA.AperFunction,ComponentPad*
%ADD19O,1.700000X1.700000*%
G04 #@! TD*
G04 #@! TA.AperFunction,ComponentPad*
%ADD20C,2.400000*%
G04 #@! TD*
G04 #@! TA.AperFunction,ComponentPad*
%ADD21O,2.400000X2.400000*%
G04 #@! TD*
G04 #@! TA.AperFunction,ComponentPad*
%ADD22O,2.300000X1.700000*%
G04 #@! TD*
G04 #@! TA.AperFunction,ComponentPad*
%ADD23R,1.600000X1.600000*%
G04 #@! TD*
G04 #@! TA.AperFunction,ComponentPad*
%ADD24O,1.600000X1.600000*%
G04 #@! TD*
G04 #@! TA.AperFunction,ViaPad*
%ADD25C,0.600000*%
G04 #@! TD*
G04 #@! TA.AperFunction,Conductor*
%ADD26C,0.381000*%
G04 #@! TD*
G04 #@! TA.AperFunction,Conductor*
%ADD27C,1.270000*%
G04 #@! TD*
G04 #@! TA.AperFunction,Conductor*
%ADD28C,1.778000*%
G04 #@! TD*
G04 #@! TA.AperFunction,Conductor*
%ADD29C,2.540000*%
G04 #@! TD*
G04 #@! TA.AperFunction,Conductor*
%ADD30C,0.254000*%
G04 #@! TD*
G04 APERTURE END LIST*
D10*
G04 #@! TO.P,REF\002A\002A,1*
G04 #@! TO.N,V+*
X257302000Y-178816000D03*
G04 #@! TD*
D11*
G04 #@! TO.P,C1,1*
G04 #@! TO.N,V+*
X223012000Y-60706000D03*
D12*
G04 #@! TO.P,C1,2*
G04 #@! TO.N,GND*
X233012000Y-60706000D03*
G04 #@! TD*
D11*
G04 #@! TO.P,C2,1*
G04 #@! TO.N,V+*
X254762000Y-28956000D03*
D12*
G04 #@! TO.P,C2,2*
G04 #@! TO.N,GND*
X264762000Y-28956000D03*
G04 #@! TD*
D11*
G04 #@! TO.P,C3,1*
G04 #@! TO.N,V+*
X223012000Y-92456000D03*
D12*
G04 #@! TO.P,C3,2*
G04 #@! TO.N,GND*
X233012000Y-92456000D03*
G04 #@! TD*
D11*
G04 #@! TO.P,C4,1*
G04 #@! TO.N,V+*
X191262000Y-124206000D03*
D12*
G04 #@! TO.P,C4,2*
G04 #@! TO.N,GND*
X201262000Y-124206000D03*
G04 #@! TD*
D11*
G04 #@! TO.P,C5,1*
G04 #@! TO.N,V+*
X223012000Y-124206000D03*
D12*
G04 #@! TO.P,C5,2*
G04 #@! TO.N,GND*
X233012000Y-124206000D03*
G04 #@! TD*
D11*
G04 #@! TO.P,C6,1*
G04 #@! TO.N,V+*
X254762000Y-60706000D03*
D12*
G04 #@! TO.P,C6,2*
G04 #@! TO.N,GND*
X264762000Y-60706000D03*
G04 #@! TD*
D11*
G04 #@! TO.P,C8,1*
G04 #@! TO.N,V+*
X254762000Y-92456000D03*
D12*
G04 #@! TO.P,C8,2*
G04 #@! TO.N,GND*
X264762000Y-92456000D03*
G04 #@! TD*
D11*
G04 #@! TO.P,C9,1*
G04 #@! TO.N,V+*
X191262000Y-60706000D03*
D12*
G04 #@! TO.P,C9,2*
G04 #@! TO.N,GND*
X201262000Y-60706000D03*
G04 #@! TD*
D11*
G04 #@! TO.P,C10,1*
G04 #@! TO.N,V+*
X96012000Y-92456000D03*
D12*
G04 #@! TO.P,C10,2*
G04 #@! TO.N,GND*
X106012000Y-92456000D03*
G04 #@! TD*
D11*
G04 #@! TO.P,C12,1*
G04 #@! TO.N,V+*
X96012000Y-60706000D03*
D12*
G04 #@! TO.P,C12,2*
G04 #@! TO.N,GND*
X106012000Y-60706000D03*
G04 #@! TD*
D11*
G04 #@! TO.P,C13,1*
G04 #@! TO.N,V+*
X64422000Y-92456000D03*
D12*
G04 #@! TO.P,C13,2*
G04 #@! TO.N,GND*
X74422000Y-92456000D03*
G04 #@! TD*
D11*
G04 #@! TO.P,C14,1*
G04 #@! TO.N,V+*
X64262000Y-28956000D03*
D12*
G04 #@! TO.P,C14,2*
G04 #@! TO.N,GND*
X74262000Y-28956000D03*
G04 #@! TD*
D11*
G04 #@! TO.P,C16,1*
G04 #@! TO.N,V+*
X64262000Y-60706000D03*
D12*
G04 #@! TO.P,C16,2*
G04 #@! TO.N,GND*
X74262000Y-60706000D03*
G04 #@! TD*
D11*
G04 #@! TO.P,C17,1*
G04 #@! TO.N,V+*
X32512000Y-28956000D03*
D12*
G04 #@! TO.P,C17,2*
G04 #@! TO.N,GND*
X42512000Y-28956000D03*
G04 #@! TD*
D11*
G04 #@! TO.P,C18,1*
G04 #@! TO.N,V+*
X127762000Y-60706000D03*
D12*
G04 #@! TO.P,C18,2*
G04 #@! TO.N,GND*
X137762000Y-60706000D03*
G04 #@! TD*
D11*
G04 #@! TO.P,C20,1*
G04 #@! TO.N,V+*
X32512000Y-60706000D03*
D12*
G04 #@! TO.P,C20,2*
G04 #@! TO.N,GND*
X42512000Y-60706000D03*
G04 #@! TD*
D11*
G04 #@! TO.P,C21,1*
G04 #@! TO.N,V+*
X96012000Y-28956000D03*
D12*
G04 #@! TO.P,C21,2*
G04 #@! TO.N,GND*
X106012000Y-28956000D03*
G04 #@! TD*
D11*
G04 #@! TO.P,C22,1*
G04 #@! TO.N,V+*
X127762000Y-28956000D03*
D12*
G04 #@! TO.P,C22,2*
G04 #@! TO.N,GND*
X137762000Y-28956000D03*
G04 #@! TD*
D11*
G04 #@! TO.P,C25,1*
G04 #@! TO.N,V+*
X159512000Y-28956000D03*
D12*
G04 #@! TO.P,C25,2*
G04 #@! TO.N,GND*
X169512000Y-28956000D03*
G04 #@! TD*
D11*
G04 #@! TO.P,C26,1*
G04 #@! TO.N,V+*
X127762000Y-92456000D03*
D12*
G04 #@! TO.P,C26,2*
G04 #@! TO.N,GND*
X137762000Y-92456000D03*
G04 #@! TD*
D11*
G04 #@! TO.P,C27,1*
G04 #@! TO.N,V+*
X96172000Y-124206000D03*
D12*
G04 #@! TO.P,C27,2*
G04 #@! TO.N,GND*
X106172000Y-124206000D03*
G04 #@! TD*
D11*
G04 #@! TO.P,C29,1*
G04 #@! TO.N,V+*
X32512000Y-92456000D03*
D12*
G04 #@! TO.P,C29,2*
G04 #@! TO.N,GND*
X42512000Y-92456000D03*
G04 #@! TD*
D11*
G04 #@! TO.P,C30,1*
G04 #@! TO.N,V+*
X159512000Y-60706000D03*
D12*
G04 #@! TO.P,C30,2*
G04 #@! TO.N,GND*
X169512000Y-60706000D03*
G04 #@! TD*
D11*
G04 #@! TO.P,C31,1*
G04 #@! TO.N,V+*
X127762000Y-124206000D03*
D12*
G04 #@! TO.P,C31,2*
G04 #@! TO.N,GND*
X137762000Y-124206000D03*
G04 #@! TD*
D11*
G04 #@! TO.P,C33,1*
G04 #@! TO.N,V+*
X191262000Y-28956000D03*
D12*
G04 #@! TO.P,C33,2*
G04 #@! TO.N,GND*
X201262000Y-28956000D03*
G04 #@! TD*
D11*
G04 #@! TO.P,C34,1*
G04 #@! TO.N,V+*
X159512000Y-124206000D03*
D12*
G04 #@! TO.P,C34,2*
G04 #@! TO.N,GND*
X169512000Y-124206000D03*
G04 #@! TD*
D11*
G04 #@! TO.P,C35,1*
G04 #@! TO.N,V+*
X191262000Y-92456000D03*
D12*
G04 #@! TO.P,C35,2*
G04 #@! TO.N,GND*
X201262000Y-92456000D03*
G04 #@! TD*
D11*
G04 #@! TO.P,C36,1*
G04 #@! TO.N,V+*
X223012000Y-28956000D03*
D12*
G04 #@! TO.P,C36,2*
G04 #@! TO.N,GND*
X233012000Y-28956000D03*
G04 #@! TD*
D11*
G04 #@! TO.P,C37,1*
G04 #@! TO.N,V+*
X159672000Y-92456000D03*
D12*
G04 #@! TO.P,C37,2*
G04 #@! TO.N,GND*
X169672000Y-92456000D03*
G04 #@! TD*
D11*
G04 #@! TO.P,C38,1*
G04 #@! TO.N,V+*
X254762000Y-124206000D03*
D12*
G04 #@! TO.P,C38,2*
G04 #@! TO.N,GND*
X264762000Y-124206000D03*
G04 #@! TD*
D11*
G04 #@! TO.P,C45,1*
G04 #@! TO.N,/Vin*
X64422000Y-124206000D03*
D12*
G04 #@! TO.P,C45,2*
G04 #@! TO.N,GND*
X74422000Y-124206000D03*
G04 #@! TD*
D13*
G04 #@! TO.P,Conn1,1*
G04 #@! TO.N,V+*
X39624000Y-172085000D03*
G04 #@! TD*
G04 #@! TO.P,Conn2,1*
G04 #@! TO.N,Conn_GND*
X26162000Y-172212000D03*
G04 #@! TD*
D14*
G04 #@! TO.P,Conn3,1*
G04 #@! TO.N,Conn_GND*
X37363400Y-160529000D03*
G04 #@! TO.P,Conn3,2*
G04 #@! TO.N,V+*
X37363400Y-152528000D03*
G04 #@! TD*
D15*
G04 #@! TO.P,Conn4,3*
G04 #@! TO.N,GND*
X87122000Y-183896000D03*
G04 #@! TO.P,Conn4,2*
G04 #@! TO.N,Ext_Trigger*
X89662000Y-183896000D03*
G04 #@! TO.P,Conn4,1*
G04 #@! TO.N,+5V*
X92202000Y-183896000D03*
G04 #@! TD*
D16*
G04 #@! TO.P,D13,1*
G04 #@! TO.N,V+*
X224282000Y-184531000D03*
D17*
G04 #@! TO.P,D13,2*
G04 #@! TO.N,VS*
X219202000Y-184531000D03*
G04 #@! TD*
D16*
G04 #@! TO.P,D14,1*
G04 #@! TO.N,V+*
X224282000Y-170561000D03*
D17*
G04 #@! TO.P,D14,2*
G04 #@! TO.N,VS*
X219202000Y-170561000D03*
G04 #@! TD*
D16*
G04 #@! TO.P,D15,1*
G04 #@! TO.N,V+*
X200152000Y-154051000D03*
D17*
G04 #@! TO.P,D15,2*
G04 #@! TO.N,VS*
X200152000Y-159131000D03*
G04 #@! TD*
D16*
G04 #@! TO.P,D16,1*
G04 #@! TO.N,V+*
X177292000Y-171831000D03*
D17*
G04 #@! TO.P,D16,2*
G04 #@! TO.N,VS*
X182372000Y-171831000D03*
G04 #@! TD*
D16*
G04 #@! TO.P,D19,1*
G04 #@! TO.N,V+*
X177292000Y-184531000D03*
D17*
G04 #@! TO.P,D19,2*
G04 #@! TO.N,VS*
X182372000Y-184531000D03*
G04 #@! TD*
D18*
G04 #@! TO.P,J2,1*
G04 #@! TO.N,IC_TX*
X68072000Y-194056000D03*
D19*
G04 #@! TO.P,J2,2*
G04 #@! TO.N,IC_RX*
X68072000Y-191516000D03*
G04 #@! TO.P,J2,3*
G04 #@! TO.N,DTR*
X68072000Y-188976000D03*
G04 #@! TD*
D16*
G04 #@! TO.P,Q3,1*
G04 #@! TO.N,Net-(Q2-Pad3)*
X44196000Y-136525000D03*
D17*
G04 #@! TO.P,Q3,2*
G04 #@! TO.N,GND*
X46736000Y-136525000D03*
G04 #@! TO.P,Q3,3*
G04 #@! TO.N,Power_GND*
X49276000Y-136525000D03*
G04 #@! TD*
D16*
G04 #@! TO.P,Q4,1*
G04 #@! TO.N,Net-(L1-Pad1)*
X224282000Y-178181000D03*
D17*
G04 #@! TO.P,Q4,2*
G04 #@! TO.N,VS*
X221742000Y-178181000D03*
G04 #@! TO.P,Q4,3*
G04 #@! TO.N,GND*
X219202000Y-178181000D03*
G04 #@! TD*
D16*
G04 #@! TO.P,Q5,1*
G04 #@! TO.N,Net-(L2-Pad1)*
X224282000Y-164211000D03*
D17*
G04 #@! TO.P,Q5,2*
G04 #@! TO.N,VS*
X221742000Y-164211000D03*
G04 #@! TO.P,Q5,3*
G04 #@! TO.N,GND*
X219202000Y-164211000D03*
G04 #@! TD*
D16*
G04 #@! TO.P,Q6,1*
G04 #@! TO.N,Net-(L3-Pad1)*
X224282000Y-190881000D03*
D17*
G04 #@! TO.P,Q6,2*
G04 #@! TO.N,VS*
X221742000Y-190881000D03*
G04 #@! TO.P,Q6,3*
G04 #@! TO.N,GND*
X219202000Y-190881000D03*
G04 #@! TD*
D16*
G04 #@! TO.P,Q7,1*
G04 #@! TO.N,Net-(L4-Pad1)*
X212852000Y-154051000D03*
D17*
G04 #@! TO.P,Q7,2*
G04 #@! TO.N,VS*
X212852000Y-156591000D03*
G04 #@! TO.P,Q7,3*
G04 #@! TO.N,GND*
X212852000Y-159131000D03*
G04 #@! TD*
D16*
G04 #@! TO.P,Q8,1*
G04 #@! TO.N,Net-(L5-Pad1)*
X206502000Y-154051000D03*
D17*
G04 #@! TO.P,Q8,2*
G04 #@! TO.N,VS*
X206502000Y-156591000D03*
G04 #@! TO.P,Q8,3*
G04 #@! TO.N,GND*
X206502000Y-159131000D03*
G04 #@! TD*
D16*
G04 #@! TO.P,Q9,1*
G04 #@! TO.N,Net-(L6-Pad1)*
X193802000Y-154051000D03*
D17*
G04 #@! TO.P,Q9,2*
G04 #@! TO.N,VS*
X193802000Y-156591000D03*
G04 #@! TO.P,Q9,3*
G04 #@! TO.N,GND*
X193802000Y-159131000D03*
G04 #@! TD*
D16*
G04 #@! TO.P,Q10,1*
G04 #@! TO.N,Net-(L7-Pad1)*
X187452000Y-154051000D03*
D17*
G04 #@! TO.P,Q10,2*
G04 #@! TO.N,VS*
X187452000Y-156591000D03*
G04 #@! TO.P,Q10,3*
G04 #@! TO.N,GND*
X187452000Y-159131000D03*
G04 #@! TD*
D16*
G04 #@! TO.P,Q11,1*
G04 #@! TO.N,Net-(L8-Pad1)*
X177292000Y-190881000D03*
D17*
G04 #@! TO.P,Q11,2*
G04 #@! TO.N,VS*
X179832000Y-190881000D03*
G04 #@! TO.P,Q11,3*
G04 #@! TO.N,GND*
X182372000Y-190881000D03*
G04 #@! TD*
D16*
G04 #@! TO.P,Q12,1*
G04 #@! TO.N,Net-(L9-Pad1)*
X177292000Y-165481000D03*
D17*
G04 #@! TO.P,Q12,2*
G04 #@! TO.N,VS*
X179832000Y-165481000D03*
G04 #@! TO.P,Q12,3*
G04 #@! TO.N,GND*
X182372000Y-165481000D03*
G04 #@! TD*
D16*
G04 #@! TO.P,Q13,1*
G04 #@! TO.N,Net-(L10-Pad1)*
X177292000Y-178181000D03*
D17*
G04 #@! TO.P,Q13,2*
G04 #@! TO.N,VS*
X179832000Y-178181000D03*
G04 #@! TO.P,Q13,3*
G04 #@! TO.N,GND*
X182372000Y-178181000D03*
G04 #@! TD*
D20*
G04 #@! TO.P,R12,1*
G04 #@! TO.N,Net-(R12-Pad1)*
X51562000Y-128016000D03*
D21*
G04 #@! TO.P,R12,2*
G04 #@! TO.N,Net-(R12-Pad2)*
X21082000Y-128016000D03*
G04 #@! TD*
D20*
G04 #@! TO.P,R13,1*
G04 #@! TO.N,Net-(R13-Pad1)*
X21082000Y-120396000D03*
D21*
G04 #@! TO.P,R13,2*
G04 #@! TO.N,Net-(R12-Pad1)*
X51562000Y-120396000D03*
G04 #@! TD*
D20*
G04 #@! TO.P,R14,1*
G04 #@! TO.N,V+*
X51562000Y-112776000D03*
D21*
G04 #@! TO.P,R14,2*
G04 #@! TO.N,Net-(R13-Pad1)*
X21082000Y-112776000D03*
G04 #@! TD*
D22*
G04 #@! TO.P,SW2,3*
G04 #@! TO.N,Conn_GND*
X22733000Y-135762000D03*
G04 #@! TO.P,SW2,2*
G04 #@! TO.N,Power_GND*
X22733000Y-140462000D03*
G04 #@! TO.P,SW2,1*
G04 #@! TO.N,Net-(R12-Pad2)*
X22733000Y-145162000D03*
G04 #@! TD*
D15*
G04 #@! TO.P,U1,1*
G04 #@! TO.N,/Vin*
X67691000Y-142621000D03*
G04 #@! TO.P,U1,2*
G04 #@! TO.N,GND*
X67691000Y-145161000D03*
G04 #@! TO.P,U1,3*
G04 #@! TO.N,+5V*
X67691000Y-147701000D03*
G04 #@! TD*
D23*
G04 #@! TO.P,U2,1*
G04 #@! TO.N,Reset*
X113792000Y-149606000D03*
D24*
G04 #@! TO.P,U2,15*
G04 #@! TO.N,5V_Ind*
X121412000Y-182626000D03*
G04 #@! TO.P,U2,2*
G04 #@! TO.N,Net-(R24-Pad2)*
X113792000Y-152146000D03*
G04 #@! TO.P,U2,16*
G04 #@! TO.N,7.5V_Ind*
X121412000Y-180086000D03*
G04 #@! TO.P,U2,3*
G04 #@! TO.N,Net-(R25-Pad2)*
X113792000Y-154686000D03*
G04 #@! TO.P,U2,17*
G04 #@! TO.N,10V_Ind*
X121412000Y-177546000D03*
G04 #@! TO.P,U2,4*
G04 #@! TO.N,Net-(U2-Pad4)*
X113792000Y-157226000D03*
G04 #@! TO.P,U2,18*
G04 #@! TO.N,12.5V_Ind*
X121412000Y-175006000D03*
G04 #@! TO.P,U2,5*
G04 #@! TO.N,Net-(U2-Pad5)*
X113792000Y-159766000D03*
G04 #@! TO.P,U2,19*
G04 #@! TO.N,Net-(U2-Pad19)*
X121412000Y-172466000D03*
G04 #@! TO.P,U2,6*
G04 #@! TO.N,Buzzer*
X113792000Y-162306000D03*
G04 #@! TO.P,U2,20*
G04 #@! TO.N,+5V*
X121412000Y-169926000D03*
G04 #@! TO.P,U2,7*
X113792000Y-164846000D03*
G04 #@! TO.P,U2,21*
G04 #@! TO.N,Net-(C40-Pad1)*
X121412000Y-167386000D03*
G04 #@! TO.P,U2,8*
G04 #@! TO.N,GND*
X113792000Y-167386000D03*
G04 #@! TO.P,U2,22*
X121412000Y-164846000D03*
G04 #@! TO.P,U2,9*
G04 #@! TO.N,Net-(C41-Pad1)*
X113792000Y-169926000D03*
G04 #@! TO.P,U2,23*
G04 #@! TO.N,V_Sense*
X121412000Y-162306000D03*
G04 #@! TO.P,U2,10*
G04 #@! TO.N,Net-(C42-Pad1)*
X113792000Y-172466000D03*
G04 #@! TO.P,U2,24*
G04 #@! TO.N,Lead_Sense*
X121412000Y-159766000D03*
G04 #@! TO.P,U2,11*
G04 #@! TO.N,Pulse_Out*
X113792000Y-175006000D03*
G04 #@! TO.P,U2,25*
G04 #@! TO.N,Net-(U2-Pad25)*
X121412000Y-157226000D03*
G04 #@! TO.P,U2,12*
G04 #@! TO.N,Ext_Trigger*
X113792000Y-177546000D03*
G04 #@! TO.P,U2,26*
G04 #@! TO.N,Net-(U2-Pad26)*
X121412000Y-154686000D03*
G04 #@! TO.P,U2,13*
G04 #@! TO.N,Lead_Voltage_Trigger*
X113792000Y-180086000D03*
G04 #@! TO.P,U2,27*
G04 #@! TO.N,Net-(U2-Pad27)*
X121412000Y-152146000D03*
G04 #@! TO.P,U2,14*
G04 #@! TO.N,Net-(U2-Pad14)*
X113792000Y-182626000D03*
G04 #@! TO.P,U2,28*
G04 #@! TO.N,Net-(U2-Pad28)*
X121412000Y-149606000D03*
G04 #@! TD*
D10*
G04 #@! TO.P,REF\002A\002A,1*
G04 #@! TO.N,VS*
X200152000Y-178841400D03*
G04 #@! TD*
D25*
G04 #@! TO.N,+5V*
X223266000Y-195834000D03*
X243586000Y-188468000D03*
X153416000Y-195834000D03*
X153416000Y-194183000D03*
X108966000Y-183388000D03*
X108966000Y-188468000D03*
X135890000Y-195834000D03*
X122428000Y-195834000D03*
X117906800Y-172364400D03*
X117906800Y-174752000D03*
G04 #@! TO.N,V+*
X135042000Y-155263000D03*
X135042000Y-138684000D03*
G04 #@! TO.N,GND*
X156972000Y-180848000D03*
X240284000Y-178308000D03*
X235712000Y-178308000D03*
X235712000Y-164084000D03*
X61214000Y-185928000D03*
X129540000Y-167386000D03*
X140462000Y-167640000D03*
X197104000Y-143764000D03*
X166370000Y-178054000D03*
X162306000Y-178054000D03*
X166370000Y-165862000D03*
X162306000Y-165862000D03*
X175006000Y-160274000D03*
X175006000Y-155956000D03*
X240284000Y-164084000D03*
X203200000Y-146558000D03*
X198628000Y-146558000D03*
X162052000Y-189992000D03*
X161036000Y-189992000D03*
X159766000Y-189992000D03*
X134788000Y-194986000D03*
X148971000Y-182626000D03*
X98044000Y-194945000D03*
X81280000Y-194945000D03*
X64135000Y-185928000D03*
X73152000Y-173990000D03*
X109982000Y-159512000D03*
X39624000Y-192024000D03*
X109982000Y-169672000D03*
X109982000Y-172720000D03*
X148971000Y-189611000D03*
X150289000Y-189611000D03*
X246126000Y-191770000D03*
X243078000Y-184912000D03*
X243078000Y-185928000D03*
X242852000Y-186944000D03*
X240030000Y-187071000D03*
X236728000Y-187071000D03*
X234950000Y-187071000D03*
X130556000Y-148336000D03*
X130556000Y-158750000D03*
X62738000Y-178562000D03*
X78486000Y-140970000D03*
X107137200Y-181305200D03*
G04 #@! TO.N,USB+5V*
X67056000Y-184023000D03*
X62992000Y-184023000D03*
G04 #@! TO.N,DTR*
X70231000Y-170942000D03*
G04 #@! TO.N,Ext_Trigger*
X107384000Y-186055000D03*
G04 #@! TO.N,VS*
X152527000Y-184150000D03*
X137668000Y-149987000D03*
G04 #@! TO.N,IC_TX*
X68580000Y-172466000D03*
G04 #@! TO.N,IC_RX*
X71120000Y-170307000D03*
G04 #@! TO.N,Buzzer*
X137922000Y-163576000D03*
G04 #@! TO.N,Pulse_Out*
X97028000Y-191008000D03*
X37465000Y-187452000D03*
X242570000Y-194310000D03*
X242480501Y-189902501D03*
G04 #@! TD*
D26*
G04 #@! TO.N,+5V*
X243586000Y-195834000D02*
X223266000Y-195834000D01*
X243840000Y-195580000D02*
X243586000Y-195834000D01*
X243586000Y-188468000D02*
X243840000Y-188722000D01*
X243840000Y-188722000D02*
X243840000Y-195580000D01*
X153416000Y-194183000D02*
X153416000Y-195834000D01*
X108966000Y-183388000D02*
X108966000Y-188468000D01*
X135890000Y-195834000D02*
X122428000Y-195834000D01*
X117906800Y-172364400D02*
X117906800Y-174752000D01*
G04 #@! TO.N,V+*
X135042000Y-155263000D02*
X135042000Y-138684000D01*
X135042000Y-138684000D02*
X135042000Y-138598000D01*
D27*
G04 #@! TO.N,GND*
X74422000Y-124206000D02*
X74422000Y-123571000D01*
D28*
X46736000Y-136525000D02*
X46736000Y-130810000D01*
D27*
X141732000Y-187071000D02*
X147066000Y-187071000D01*
D26*
G04 #@! TO.N,USB+5V*
X67056000Y-184023000D02*
X62992000Y-184023000D01*
G04 #@! TO.N,DTR*
X69274081Y-188976000D02*
X70231000Y-188019081D01*
X68072000Y-188976000D02*
X69274081Y-188976000D01*
X70231000Y-188019081D02*
X70231000Y-172210350D01*
X70231000Y-172210350D02*
X70231000Y-170942000D01*
D29*
G04 #@! TO.N,Conn_GND*
X26162000Y-172212000D02*
X26162000Y-171730400D01*
X30480000Y-153645600D02*
X37363400Y-160529000D01*
X30480000Y-167412400D02*
X29718000Y-168174400D01*
X26162000Y-171730400D02*
X29718000Y-168174400D01*
X29718000Y-168174400D02*
X37363400Y-160529000D01*
X30480000Y-153645600D02*
X30480000Y-167412400D01*
X30480000Y-153645600D02*
X30480000Y-147066000D01*
X30480000Y-147066000D02*
X30480000Y-137820400D01*
X28421600Y-135762000D02*
X30480000Y-137820400D01*
X22733000Y-135762000D02*
X28421600Y-135762000D01*
D26*
G04 #@! TO.N,Ext_Trigger*
X89662000Y-185420000D02*
X89662000Y-183896000D01*
X104902000Y-186055000D02*
X90297000Y-186055000D01*
X90297000Y-186055000D02*
X89662000Y-185420000D01*
X104902000Y-186055000D02*
X107384000Y-186055000D01*
G04 #@! TO.N,VS*
X146304000Y-184150000D02*
X152527000Y-184150000D01*
X145796000Y-184150000D02*
X146304000Y-184150000D01*
X144780000Y-183134000D02*
X145796000Y-184150000D01*
X144780000Y-151511000D02*
X144780000Y-183134000D01*
X143256000Y-149987000D02*
X144780000Y-151511000D01*
X137668000Y-149987000D02*
X143256000Y-149987000D01*
G04 #@! TO.N,IC_TX*
X68072000Y-194056000D02*
X66841000Y-194056000D01*
X66841000Y-194056000D02*
X66548000Y-193763000D01*
X68580000Y-185928000D02*
X66548000Y-187960000D01*
X68580000Y-172466000D02*
X68580000Y-185928000D01*
X66548000Y-193763000D02*
X66548000Y-187960000D01*
G04 #@! TO.N,IC_RX*
X68072000Y-191516000D02*
X71120000Y-188468000D01*
X71120000Y-188468000D02*
X71120000Y-170307000D01*
G04 #@! TO.N,Buzzer*
X115062000Y-163576000D02*
X113792000Y-162306000D01*
X137922000Y-163576000D02*
X115062000Y-163576000D01*
G04 #@! TO.N,Pulse_Out*
X97028000Y-195072000D02*
X97028000Y-191008000D01*
X96266000Y-195834000D02*
X97028000Y-195072000D01*
X45847000Y-195834000D02*
X96266000Y-195834000D01*
X37764999Y-187751999D02*
X45847000Y-195834000D01*
X37465000Y-187452000D02*
X37764999Y-187751999D01*
X242570000Y-194310000D02*
X242570000Y-189992000D01*
X242570000Y-189992000D02*
X242480501Y-189902501D01*
D27*
G04 #@! TO.N,Net-(R12-Pad2)*
X19882001Y-129215999D02*
X21082000Y-128016000D01*
X19882001Y-142611001D02*
X19882001Y-129215999D01*
X22433000Y-145162000D02*
X19882001Y-142611001D01*
X22733000Y-145162000D02*
X22433000Y-145162000D01*
G04 #@! TO.N,/Vin*
X64422000Y-124206000D02*
X64422000Y-123751000D01*
G04 #@! TD*
D30*
G04 #@! TO.N,Power_GND*
G36*
X18612001Y-142485926D02*
X18587122Y-142611001D01*
X18612001Y-142736076D01*
X18612001Y-142736080D01*
X18685688Y-143106529D01*
X18966383Y-143526619D01*
X19072422Y-143597472D01*
X20988919Y-145513970D01*
X21034161Y-145741418D01*
X21362375Y-146232625D01*
X21853582Y-146560839D01*
X22286744Y-146647000D01*
X23179256Y-146647000D01*
X23612418Y-146560839D01*
X24103625Y-146232625D01*
X24431839Y-145741418D01*
X24547092Y-145162000D01*
X24431839Y-144582582D01*
X24103625Y-144091375D01*
X23612418Y-143763161D01*
X23179256Y-143677000D01*
X22744051Y-143677000D01*
X21152001Y-142084951D01*
X21152001Y-136824777D01*
X21359572Y-137135428D01*
X21989706Y-137556471D01*
X22545374Y-137667000D01*
X27632524Y-137667000D01*
X28575001Y-138609477D01*
X28575000Y-147253625D01*
X28575001Y-147253630D01*
X28575000Y-153457974D01*
X28575000Y-153457979D01*
X28537680Y-153645600D01*
X28575000Y-153833221D01*
X28575001Y-166623323D01*
X28503635Y-166694689D01*
X28503632Y-166694691D01*
X28290529Y-166907794D01*
X27298784Y-166497000D01*
X25025216Y-166497000D01*
X22924713Y-167367057D01*
X21317057Y-168974713D01*
X20447000Y-171075216D01*
X20447000Y-173348784D01*
X21317057Y-175449287D01*
X22924713Y-177056943D01*
X25025216Y-177927000D01*
X27298784Y-177927000D01*
X29399287Y-177056943D01*
X31006943Y-175449287D01*
X31877000Y-173348784D01*
X31877000Y-171075216D01*
X31824395Y-170948216D01*
X33909000Y-170948216D01*
X33909000Y-173221784D01*
X34779057Y-175322287D01*
X36386713Y-176929943D01*
X38487216Y-177800000D01*
X40760784Y-177800000D01*
X42861287Y-176929943D01*
X44468943Y-175322287D01*
X45339000Y-173221784D01*
X45339000Y-170948216D01*
X44468943Y-168847713D01*
X42861287Y-167240057D01*
X40760784Y-166370000D01*
X38487216Y-166370000D01*
X36386713Y-167240057D01*
X34779057Y-168847713D01*
X33909000Y-170948216D01*
X31824395Y-170948216D01*
X31184091Y-169402386D01*
X31197709Y-169388768D01*
X31197711Y-169388765D01*
X31694366Y-168892110D01*
X31853428Y-168785828D01*
X31959710Y-168626766D01*
X36882477Y-163704000D01*
X37994947Y-163704000D01*
X39161893Y-163220635D01*
X40055035Y-162327493D01*
X40538400Y-161160547D01*
X40538400Y-159897453D01*
X40055035Y-158730507D01*
X39161893Y-157837365D01*
X37994947Y-157354000D01*
X36882477Y-157354000D01*
X32385000Y-152856524D01*
X32385000Y-151896453D01*
X34188400Y-151896453D01*
X34188400Y-153159547D01*
X34671765Y-154326493D01*
X35564907Y-155219635D01*
X36731853Y-155703000D01*
X37994947Y-155703000D01*
X39161893Y-155219635D01*
X40055035Y-154326493D01*
X40538400Y-153159547D01*
X40538400Y-151896453D01*
X40055035Y-150729507D01*
X39161893Y-149836365D01*
X37994947Y-149353000D01*
X36731853Y-149353000D01*
X35564907Y-149836365D01*
X34671765Y-150729507D01*
X34188400Y-151896453D01*
X32385000Y-151896453D01*
X32385000Y-138008020D01*
X32422320Y-137820399D01*
X32385000Y-137632778D01*
X32385000Y-137632774D01*
X32274471Y-137077106D01*
X31853428Y-136446972D01*
X31694366Y-136340690D01*
X29901310Y-134547634D01*
X29795028Y-134388572D01*
X29164894Y-133967529D01*
X28609226Y-133857000D01*
X28609221Y-133857000D01*
X28421600Y-133819680D01*
X28233979Y-133857000D01*
X22545374Y-133857000D01*
X21989706Y-133967529D01*
X21359572Y-134388572D01*
X21152001Y-134699223D01*
X21152001Y-132969000D01*
X45212000Y-132969000D01*
X45212000Y-135000634D01*
X45096000Y-134977560D01*
X43296000Y-134977560D01*
X43048235Y-135026843D01*
X42838191Y-135167191D01*
X42697843Y-135377235D01*
X42648560Y-135625000D01*
X42648560Y-137425000D01*
X42697843Y-137672765D01*
X42838191Y-137882809D01*
X43048235Y-138023157D01*
X43296000Y-138072440D01*
X45096000Y-138072440D01*
X45343765Y-138023157D01*
X45553809Y-137882809D01*
X45693129Y-137674304D01*
X46137073Y-137970938D01*
X46584818Y-138060000D01*
X46641204Y-138060000D01*
X46736000Y-138078856D01*
X46830796Y-138060000D01*
X46887182Y-138060000D01*
X47334927Y-137970938D01*
X47842673Y-137631673D01*
X48181938Y-137123927D01*
X48301072Y-136525000D01*
X48260000Y-136318517D01*
X48260000Y-132969000D01*
X53721000Y-132969000D01*
X53721000Y-182245000D01*
X17474000Y-182245000D01*
X17474000Y-132969000D01*
X18612002Y-132969000D01*
X18612001Y-142485926D01*
X18612001Y-142485926D01*
G37*
X18612001Y-142485926D02*
X18587122Y-142611001D01*
X18612001Y-142736076D01*
X18612001Y-142736080D01*
X18685688Y-143106529D01*
X18966383Y-143526619D01*
X19072422Y-143597472D01*
X20988919Y-145513970D01*
X21034161Y-145741418D01*
X21362375Y-146232625D01*
X21853582Y-146560839D01*
X22286744Y-146647000D01*
X23179256Y-146647000D01*
X23612418Y-146560839D01*
X24103625Y-146232625D01*
X24431839Y-145741418D01*
X24547092Y-145162000D01*
X24431839Y-144582582D01*
X24103625Y-144091375D01*
X23612418Y-143763161D01*
X23179256Y-143677000D01*
X22744051Y-143677000D01*
X21152001Y-142084951D01*
X21152001Y-136824777D01*
X21359572Y-137135428D01*
X21989706Y-137556471D01*
X22545374Y-137667000D01*
X27632524Y-137667000D01*
X28575001Y-138609477D01*
X28575000Y-147253625D01*
X28575001Y-147253630D01*
X28575000Y-153457974D01*
X28575000Y-153457979D01*
X28537680Y-153645600D01*
X28575000Y-153833221D01*
X28575001Y-166623323D01*
X28503635Y-166694689D01*
X28503632Y-166694691D01*
X28290529Y-166907794D01*
X27298784Y-166497000D01*
X25025216Y-166497000D01*
X22924713Y-167367057D01*
X21317057Y-168974713D01*
X20447000Y-171075216D01*
X20447000Y-173348784D01*
X21317057Y-175449287D01*
X22924713Y-177056943D01*
X25025216Y-177927000D01*
X27298784Y-177927000D01*
X29399287Y-177056943D01*
X31006943Y-175449287D01*
X31877000Y-173348784D01*
X31877000Y-171075216D01*
X31824395Y-170948216D01*
X33909000Y-170948216D01*
X33909000Y-173221784D01*
X34779057Y-175322287D01*
X36386713Y-176929943D01*
X38487216Y-177800000D01*
X40760784Y-177800000D01*
X42861287Y-176929943D01*
X44468943Y-175322287D01*
X45339000Y-173221784D01*
X45339000Y-170948216D01*
X44468943Y-168847713D01*
X42861287Y-167240057D01*
X40760784Y-166370000D01*
X38487216Y-166370000D01*
X36386713Y-167240057D01*
X34779057Y-168847713D01*
X33909000Y-170948216D01*
X31824395Y-170948216D01*
X31184091Y-169402386D01*
X31197709Y-169388768D01*
X31197711Y-169388765D01*
X31694366Y-168892110D01*
X31853428Y-168785828D01*
X31959710Y-168626766D01*
X36882477Y-163704000D01*
X37994947Y-163704000D01*
X39161893Y-163220635D01*
X40055035Y-162327493D01*
X40538400Y-161160547D01*
X40538400Y-159897453D01*
X40055035Y-158730507D01*
X39161893Y-157837365D01*
X37994947Y-157354000D01*
X36882477Y-157354000D01*
X32385000Y-152856524D01*
X32385000Y-151896453D01*
X34188400Y-151896453D01*
X34188400Y-153159547D01*
X34671765Y-154326493D01*
X35564907Y-155219635D01*
X36731853Y-155703000D01*
X37994947Y-155703000D01*
X39161893Y-155219635D01*
X40055035Y-154326493D01*
X40538400Y-153159547D01*
X40538400Y-151896453D01*
X40055035Y-150729507D01*
X39161893Y-149836365D01*
X37994947Y-149353000D01*
X36731853Y-149353000D01*
X35564907Y-149836365D01*
X34671765Y-150729507D01*
X34188400Y-151896453D01*
X32385000Y-151896453D01*
X32385000Y-138008020D01*
X32422320Y-137820399D01*
X32385000Y-137632778D01*
X32385000Y-137632774D01*
X32274471Y-137077106D01*
X31853428Y-136446972D01*
X31694366Y-136340690D01*
X29901310Y-134547634D01*
X29795028Y-134388572D01*
X29164894Y-133967529D01*
X28609226Y-133857000D01*
X28609221Y-133857000D01*
X28421600Y-133819680D01*
X28233979Y-133857000D01*
X22545374Y-133857000D01*
X21989706Y-133967529D01*
X21359572Y-134388572D01*
X21152001Y-134699223D01*
X21152001Y-132969000D01*
X45212000Y-132969000D01*
X45212000Y-135000634D01*
X45096000Y-134977560D01*
X43296000Y-134977560D01*
X43048235Y-135026843D01*
X42838191Y-135167191D01*
X42697843Y-135377235D01*
X42648560Y-135625000D01*
X42648560Y-137425000D01*
X42697843Y-137672765D01*
X42838191Y-137882809D01*
X43048235Y-138023157D01*
X43296000Y-138072440D01*
X45096000Y-138072440D01*
X45343765Y-138023157D01*
X45553809Y-137882809D01*
X45693129Y-137674304D01*
X46137073Y-137970938D01*
X46584818Y-138060000D01*
X46641204Y-138060000D01*
X46736000Y-138078856D01*
X46830796Y-138060000D01*
X46887182Y-138060000D01*
X47334927Y-137970938D01*
X47842673Y-137631673D01*
X48181938Y-137123927D01*
X48301072Y-136525000D01*
X48260000Y-136318517D01*
X48260000Y-132969000D01*
X53721000Y-132969000D01*
X53721000Y-182245000D01*
X17474000Y-182245000D01*
X17474000Y-132969000D01*
X18612002Y-132969000D01*
X18612001Y-142485926D01*
G04 #@! TO.N,GND*
G36*
X277228604Y-14492895D02*
X277825782Y-14680039D01*
X278373124Y-14983436D01*
X278848289Y-15390701D01*
X279231852Y-15885188D01*
X279508150Y-16446700D01*
X279668104Y-17060774D01*
X279706000Y-17553270D01*
X279706001Y-192750026D01*
X279639105Y-193408604D01*
X279451961Y-194005782D01*
X279148563Y-194553125D01*
X278741299Y-195028289D01*
X278246812Y-195411852D01*
X277685304Y-195688148D01*
X277071227Y-195848104D01*
X276578730Y-195886000D01*
X244620805Y-195886000D01*
X244665500Y-195661303D01*
X244665500Y-195661298D01*
X244681671Y-195580001D01*
X244665500Y-195498703D01*
X244665500Y-192293393D01*
X274129500Y-192293393D01*
X274129500Y-193278607D01*
X274506524Y-194188825D01*
X275203175Y-194885476D01*
X276113393Y-195262500D01*
X277098607Y-195262500D01*
X278008825Y-194885476D01*
X278705476Y-194188825D01*
X279082500Y-193278607D01*
X279082500Y-192293393D01*
X278705476Y-191383175D01*
X278008825Y-190686524D01*
X277098607Y-190309500D01*
X276113393Y-190309500D01*
X275203175Y-190686524D01*
X274506524Y-191383175D01*
X274129500Y-192293393D01*
X244665500Y-192293393D01*
X244665500Y-188803297D01*
X244681671Y-188721999D01*
X244665500Y-188640702D01*
X244665500Y-188640697D01*
X244617604Y-188399906D01*
X244491915Y-188211800D01*
X244378655Y-187938365D01*
X244115635Y-187675345D01*
X243771983Y-187533000D01*
X243400017Y-187533000D01*
X243056365Y-187675345D01*
X242793345Y-187938365D01*
X242651000Y-188282017D01*
X242651000Y-188653983D01*
X242793345Y-188997635D01*
X242831607Y-189035897D01*
X242666484Y-188967501D01*
X242294518Y-188967501D01*
X241950866Y-189109846D01*
X241687846Y-189372866D01*
X241545501Y-189716518D01*
X241545501Y-190088484D01*
X241687846Y-190432136D01*
X241744501Y-190488791D01*
X241744500Y-193859660D01*
X241635000Y-194124017D01*
X241635000Y-194495983D01*
X241777345Y-194839635D01*
X241946210Y-195008500D01*
X223716340Y-195008500D01*
X223451983Y-194899000D01*
X223080017Y-194899000D01*
X222736365Y-195041345D01*
X222473345Y-195304365D01*
X222331000Y-195648017D01*
X222331000Y-195886000D01*
X154351000Y-195886000D01*
X154351000Y-195648017D01*
X154241500Y-195383660D01*
X154241500Y-194633340D01*
X154351000Y-194368983D01*
X154351000Y-193997017D01*
X154208655Y-193653365D01*
X153945635Y-193390345D01*
X153601983Y-193248000D01*
X153230017Y-193248000D01*
X152886365Y-193390345D01*
X152623345Y-193653365D01*
X152481000Y-193997017D01*
X152481000Y-194368983D01*
X152590500Y-194633341D01*
X152590501Y-195383658D01*
X152481000Y-195648017D01*
X152481000Y-195886000D01*
X145923000Y-195886000D01*
X145923000Y-189981000D01*
X175744560Y-189981000D01*
X175744560Y-191781000D01*
X175793843Y-192028765D01*
X175934191Y-192238809D01*
X176144235Y-192379157D01*
X176392000Y-192428440D01*
X178192000Y-192428440D01*
X178439765Y-192379157D01*
X178649809Y-192238809D01*
X178789129Y-192030304D01*
X179233073Y-192326938D01*
X179680818Y-192416000D01*
X179983182Y-192416000D01*
X180430927Y-192326938D01*
X180938673Y-191987673D01*
X181277938Y-191479927D01*
X181397072Y-190881000D01*
X220176928Y-190881000D01*
X220296062Y-191479927D01*
X220635327Y-191987673D01*
X221143073Y-192326938D01*
X221590818Y-192416000D01*
X221893182Y-192416000D01*
X222340927Y-192326938D01*
X222784871Y-192030304D01*
X222924191Y-192238809D01*
X223134235Y-192379157D01*
X223382000Y-192428440D01*
X225182000Y-192428440D01*
X225429765Y-192379157D01*
X225639809Y-192238809D01*
X225780157Y-192028765D01*
X225829440Y-191781000D01*
X225829440Y-189981000D01*
X225780157Y-189733235D01*
X225639809Y-189523191D01*
X225429765Y-189382843D01*
X225182000Y-189333560D01*
X223382000Y-189333560D01*
X223134235Y-189382843D01*
X222924191Y-189523191D01*
X222784871Y-189731696D01*
X222340927Y-189435062D01*
X221893182Y-189346000D01*
X221590818Y-189346000D01*
X221143073Y-189435062D01*
X220635327Y-189774327D01*
X220296062Y-190282073D01*
X220176928Y-190881000D01*
X181397072Y-190881000D01*
X181277938Y-190282073D01*
X180938673Y-189774327D01*
X180430927Y-189435062D01*
X179983182Y-189346000D01*
X179680818Y-189346000D01*
X179233073Y-189435062D01*
X178789129Y-189731696D01*
X178649809Y-189523191D01*
X178439765Y-189382843D01*
X178192000Y-189333560D01*
X176392000Y-189333560D01*
X176144235Y-189382843D01*
X175934191Y-189523191D01*
X175793843Y-189733235D01*
X175744560Y-189981000D01*
X145923000Y-189981000D01*
X145923000Y-184975500D01*
X152076660Y-184975500D01*
X152341017Y-185085000D01*
X152712983Y-185085000D01*
X153056635Y-184942655D01*
X153319655Y-184679635D01*
X153462000Y-184335983D01*
X153462000Y-183964017D01*
X153324061Y-183631000D01*
X175744560Y-183631000D01*
X175744560Y-185431000D01*
X175793843Y-185678765D01*
X175934191Y-185888809D01*
X176144235Y-186029157D01*
X176392000Y-186078440D01*
X178192000Y-186078440D01*
X178439765Y-186029157D01*
X178649809Y-185888809D01*
X178790157Y-185678765D01*
X178839440Y-185431000D01*
X178839440Y-184531000D01*
X180806928Y-184531000D01*
X180926062Y-185129927D01*
X181265327Y-185637673D01*
X181773073Y-185976938D01*
X182220818Y-186066000D01*
X182523182Y-186066000D01*
X182970927Y-185976938D01*
X183478673Y-185637673D01*
X183817938Y-185129927D01*
X183937072Y-184531000D01*
X183817938Y-183932073D01*
X183478673Y-183424327D01*
X182970927Y-183085062D01*
X182523182Y-182996000D01*
X182220818Y-182996000D01*
X181773073Y-183085062D01*
X181265327Y-183424327D01*
X180926062Y-183932073D01*
X180806928Y-184531000D01*
X178839440Y-184531000D01*
X178839440Y-183631000D01*
X178790157Y-183383235D01*
X178649809Y-183173191D01*
X178439765Y-183032843D01*
X178192000Y-182983560D01*
X176392000Y-182983560D01*
X176144235Y-183032843D01*
X175934191Y-183173191D01*
X175793843Y-183383235D01*
X175744560Y-183631000D01*
X153324061Y-183631000D01*
X153319655Y-183620365D01*
X153056635Y-183357345D01*
X152712983Y-183215000D01*
X152341017Y-183215000D01*
X152076660Y-183324500D01*
X146137933Y-183324500D01*
X145923000Y-183109567D01*
X145923000Y-177281000D01*
X175744560Y-177281000D01*
X175744560Y-179081000D01*
X175793843Y-179328765D01*
X175934191Y-179538809D01*
X176144235Y-179679157D01*
X176392000Y-179728440D01*
X178192000Y-179728440D01*
X178439765Y-179679157D01*
X178649809Y-179538809D01*
X178789129Y-179330304D01*
X179233073Y-179626938D01*
X179680818Y-179716000D01*
X179983182Y-179716000D01*
X180430927Y-179626938D01*
X180938673Y-179287673D01*
X181277938Y-178779927D01*
X181397072Y-178181000D01*
X181277938Y-177582073D01*
X180938673Y-177074327D01*
X180672141Y-176896236D01*
X190373000Y-176896236D01*
X190373000Y-180786564D01*
X191861764Y-184380759D01*
X194612641Y-187131636D01*
X198206836Y-188620400D01*
X202097164Y-188620400D01*
X205691359Y-187131636D01*
X208291995Y-184531000D01*
X217636928Y-184531000D01*
X217756062Y-185129927D01*
X218095327Y-185637673D01*
X218603073Y-185976938D01*
X219050818Y-186066000D01*
X219353182Y-186066000D01*
X219800927Y-185976938D01*
X220308673Y-185637673D01*
X220647938Y-185129927D01*
X220767072Y-184531000D01*
X220647938Y-183932073D01*
X220446768Y-183631000D01*
X222734560Y-183631000D01*
X222734560Y-185431000D01*
X222783843Y-185678765D01*
X222924191Y-185888809D01*
X223134235Y-186029157D01*
X223382000Y-186078440D01*
X225182000Y-186078440D01*
X225429765Y-186029157D01*
X225639809Y-185888809D01*
X225780157Y-185678765D01*
X225829440Y-185431000D01*
X225829440Y-183631000D01*
X225780157Y-183383235D01*
X225639809Y-183173191D01*
X225429765Y-183032843D01*
X225182000Y-182983560D01*
X223382000Y-182983560D01*
X223134235Y-183032843D01*
X222924191Y-183173191D01*
X222783843Y-183383235D01*
X222734560Y-183631000D01*
X220446768Y-183631000D01*
X220308673Y-183424327D01*
X219800927Y-183085062D01*
X219353182Y-182996000D01*
X219050818Y-182996000D01*
X218603073Y-183085062D01*
X218095327Y-183424327D01*
X217756062Y-183932073D01*
X217636928Y-184531000D01*
X208291995Y-184531000D01*
X208442236Y-184380759D01*
X209931000Y-180786564D01*
X209931000Y-178181000D01*
X220176928Y-178181000D01*
X220296062Y-178779927D01*
X220635327Y-179287673D01*
X221143073Y-179626938D01*
X221590818Y-179716000D01*
X221893182Y-179716000D01*
X222340927Y-179626938D01*
X222784871Y-179330304D01*
X222924191Y-179538809D01*
X223134235Y-179679157D01*
X223382000Y-179728440D01*
X225182000Y-179728440D01*
X225429765Y-179679157D01*
X225639809Y-179538809D01*
X225780157Y-179328765D01*
X225829440Y-179081000D01*
X225829440Y-177281000D01*
X225780157Y-177033235D01*
X225671645Y-176870836D01*
X247523000Y-176870836D01*
X247523000Y-180761164D01*
X249011764Y-184355359D01*
X251762641Y-187106236D01*
X255356836Y-188595000D01*
X259247164Y-188595000D01*
X262841359Y-187106236D01*
X265592236Y-184355359D01*
X267081000Y-180761164D01*
X267081000Y-176870836D01*
X265592236Y-173276641D01*
X262841359Y-170525764D01*
X259247164Y-169037000D01*
X255356836Y-169037000D01*
X251762641Y-170525764D01*
X249011764Y-173276641D01*
X247523000Y-176870836D01*
X225671645Y-176870836D01*
X225639809Y-176823191D01*
X225429765Y-176682843D01*
X225182000Y-176633560D01*
X223382000Y-176633560D01*
X223134235Y-176682843D01*
X222924191Y-176823191D01*
X222784871Y-177031696D01*
X222340927Y-176735062D01*
X221893182Y-176646000D01*
X221590818Y-176646000D01*
X221143073Y-176735062D01*
X220635327Y-177074327D01*
X220296062Y-177582073D01*
X220176928Y-178181000D01*
X209931000Y-178181000D01*
X209931000Y-176896236D01*
X208442236Y-173302041D01*
X205701195Y-170561000D01*
X217636928Y-170561000D01*
X217756062Y-171159927D01*
X218095327Y-171667673D01*
X218603073Y-172006938D01*
X219050818Y-172096000D01*
X219353182Y-172096000D01*
X219800927Y-172006938D01*
X220308673Y-171667673D01*
X220647938Y-171159927D01*
X220767072Y-170561000D01*
X220647938Y-169962073D01*
X220446768Y-169661000D01*
X222734560Y-169661000D01*
X222734560Y-171461000D01*
X222783843Y-171708765D01*
X222924191Y-171918809D01*
X223134235Y-172059157D01*
X223382000Y-172108440D01*
X225182000Y-172108440D01*
X225429765Y-172059157D01*
X225639809Y-171918809D01*
X225780157Y-171708765D01*
X225829440Y-171461000D01*
X225829440Y-169661000D01*
X225780157Y-169413235D01*
X225639809Y-169203191D01*
X225429765Y-169062843D01*
X225182000Y-169013560D01*
X223382000Y-169013560D01*
X223134235Y-169062843D01*
X222924191Y-169203191D01*
X222783843Y-169413235D01*
X222734560Y-169661000D01*
X220446768Y-169661000D01*
X220308673Y-169454327D01*
X219800927Y-169115062D01*
X219353182Y-169026000D01*
X219050818Y-169026000D01*
X218603073Y-169115062D01*
X218095327Y-169454327D01*
X217756062Y-169962073D01*
X217636928Y-170561000D01*
X205701195Y-170561000D01*
X205691359Y-170551164D01*
X202097164Y-169062400D01*
X198206836Y-169062400D01*
X194612641Y-170551164D01*
X191861764Y-173302041D01*
X190373000Y-176896236D01*
X180672141Y-176896236D01*
X180430927Y-176735062D01*
X179983182Y-176646000D01*
X179680818Y-176646000D01*
X179233073Y-176735062D01*
X178789129Y-177031696D01*
X178649809Y-176823191D01*
X178439765Y-176682843D01*
X178192000Y-176633560D01*
X176392000Y-176633560D01*
X176144235Y-176682843D01*
X175934191Y-176823191D01*
X175793843Y-177033235D01*
X175744560Y-177281000D01*
X145923000Y-177281000D01*
X145923000Y-170931000D01*
X175744560Y-170931000D01*
X175744560Y-172731000D01*
X175793843Y-172978765D01*
X175934191Y-173188809D01*
X176144235Y-173329157D01*
X176392000Y-173378440D01*
X178192000Y-173378440D01*
X178439765Y-173329157D01*
X178649809Y-173188809D01*
X178790157Y-172978765D01*
X178839440Y-172731000D01*
X178839440Y-171831000D01*
X180806928Y-171831000D01*
X180926062Y-172429927D01*
X181265327Y-172937673D01*
X181773073Y-173276938D01*
X182220818Y-173366000D01*
X182523182Y-173366000D01*
X182970927Y-173276938D01*
X183478673Y-172937673D01*
X183817938Y-172429927D01*
X183937072Y-171831000D01*
X183817938Y-171232073D01*
X183478673Y-170724327D01*
X182970927Y-170385062D01*
X182523182Y-170296000D01*
X182220818Y-170296000D01*
X181773073Y-170385062D01*
X181265327Y-170724327D01*
X180926062Y-171232073D01*
X180806928Y-171831000D01*
X178839440Y-171831000D01*
X178839440Y-170931000D01*
X178790157Y-170683235D01*
X178649809Y-170473191D01*
X178439765Y-170332843D01*
X178192000Y-170283560D01*
X176392000Y-170283560D01*
X176144235Y-170332843D01*
X175934191Y-170473191D01*
X175793843Y-170683235D01*
X175744560Y-170931000D01*
X145923000Y-170931000D01*
X145923000Y-164581000D01*
X175744560Y-164581000D01*
X175744560Y-166381000D01*
X175793843Y-166628765D01*
X175934191Y-166838809D01*
X176144235Y-166979157D01*
X176392000Y-167028440D01*
X178192000Y-167028440D01*
X178439765Y-166979157D01*
X178649809Y-166838809D01*
X178789129Y-166630304D01*
X179233073Y-166926938D01*
X179680818Y-167016000D01*
X179983182Y-167016000D01*
X180430927Y-166926938D01*
X180938673Y-166587673D01*
X181277938Y-166079927D01*
X181397072Y-165481000D01*
X181277938Y-164882073D01*
X180938673Y-164374327D01*
X180694237Y-164211000D01*
X220176928Y-164211000D01*
X220296062Y-164809927D01*
X220635327Y-165317673D01*
X221143073Y-165656938D01*
X221590818Y-165746000D01*
X221893182Y-165746000D01*
X222340927Y-165656938D01*
X222784871Y-165360304D01*
X222924191Y-165568809D01*
X223134235Y-165709157D01*
X223382000Y-165758440D01*
X225182000Y-165758440D01*
X225429765Y-165709157D01*
X225639809Y-165568809D01*
X225780157Y-165358765D01*
X225829440Y-165111000D01*
X225829440Y-163311000D01*
X225780157Y-163063235D01*
X225639809Y-162853191D01*
X225429765Y-162712843D01*
X225182000Y-162663560D01*
X223382000Y-162663560D01*
X223134235Y-162712843D01*
X222924191Y-162853191D01*
X222784871Y-163061696D01*
X222340927Y-162765062D01*
X221893182Y-162676000D01*
X221590818Y-162676000D01*
X221143073Y-162765062D01*
X220635327Y-163104327D01*
X220296062Y-163612073D01*
X220176928Y-164211000D01*
X180694237Y-164211000D01*
X180430927Y-164035062D01*
X179983182Y-163946000D01*
X179680818Y-163946000D01*
X179233073Y-164035062D01*
X178789129Y-164331696D01*
X178649809Y-164123191D01*
X178439765Y-163982843D01*
X178192000Y-163933560D01*
X176392000Y-163933560D01*
X176144235Y-163982843D01*
X175934191Y-164123191D01*
X175793843Y-164333235D01*
X175744560Y-164581000D01*
X145923000Y-164581000D01*
X145923000Y-159131000D01*
X198586928Y-159131000D01*
X198706062Y-159729927D01*
X199045327Y-160237673D01*
X199553073Y-160576938D01*
X200000818Y-160666000D01*
X200303182Y-160666000D01*
X200750927Y-160576938D01*
X201258673Y-160237673D01*
X201597938Y-159729927D01*
X201717072Y-159131000D01*
X201597938Y-158532073D01*
X201258673Y-158024327D01*
X200750927Y-157685062D01*
X200303182Y-157596000D01*
X200000818Y-157596000D01*
X199553073Y-157685062D01*
X199045327Y-158024327D01*
X198706062Y-158532073D01*
X198586928Y-159131000D01*
X145923000Y-159131000D01*
X145923000Y-156591000D01*
X185886928Y-156591000D01*
X186006062Y-157189927D01*
X186345327Y-157697673D01*
X186853073Y-158036938D01*
X187300818Y-158126000D01*
X187603182Y-158126000D01*
X188050927Y-158036938D01*
X188558673Y-157697673D01*
X188897938Y-157189927D01*
X189017072Y-156591000D01*
X192236928Y-156591000D01*
X192356062Y-157189927D01*
X192695327Y-157697673D01*
X193203073Y-158036938D01*
X193650818Y-158126000D01*
X193953182Y-158126000D01*
X194400927Y-158036938D01*
X194908673Y-157697673D01*
X195247938Y-157189927D01*
X195367072Y-156591000D01*
X204936928Y-156591000D01*
X205056062Y-157189927D01*
X205395327Y-157697673D01*
X205903073Y-158036938D01*
X206350818Y-158126000D01*
X206653182Y-158126000D01*
X207100927Y-158036938D01*
X207608673Y-157697673D01*
X207947938Y-157189927D01*
X208067072Y-156591000D01*
X211286928Y-156591000D01*
X211406062Y-157189927D01*
X211745327Y-157697673D01*
X212253073Y-158036938D01*
X212700818Y-158126000D01*
X213003182Y-158126000D01*
X213450927Y-158036938D01*
X213958673Y-157697673D01*
X214297938Y-157189927D01*
X214417072Y-156591000D01*
X214297938Y-155992073D01*
X214001304Y-155548129D01*
X214209809Y-155408809D01*
X214350157Y-155198765D01*
X214399440Y-154951000D01*
X214399440Y-153151000D01*
X214350157Y-152903235D01*
X214209809Y-152693191D01*
X213999765Y-152552843D01*
X213752000Y-152503560D01*
X211952000Y-152503560D01*
X211704235Y-152552843D01*
X211494191Y-152693191D01*
X211353843Y-152903235D01*
X211304560Y-153151000D01*
X211304560Y-154951000D01*
X211353843Y-155198765D01*
X211494191Y-155408809D01*
X211702696Y-155548129D01*
X211406062Y-155992073D01*
X211286928Y-156591000D01*
X208067072Y-156591000D01*
X207947938Y-155992073D01*
X207651304Y-155548129D01*
X207859809Y-155408809D01*
X208000157Y-155198765D01*
X208049440Y-154951000D01*
X208049440Y-153151000D01*
X208000157Y-152903235D01*
X207859809Y-152693191D01*
X207649765Y-152552843D01*
X207402000Y-152503560D01*
X205602000Y-152503560D01*
X205354235Y-152552843D01*
X205144191Y-152693191D01*
X205003843Y-152903235D01*
X204954560Y-153151000D01*
X204954560Y-154951000D01*
X205003843Y-155198765D01*
X205144191Y-155408809D01*
X205352696Y-155548129D01*
X205056062Y-155992073D01*
X204936928Y-156591000D01*
X195367072Y-156591000D01*
X195247938Y-155992073D01*
X194951304Y-155548129D01*
X195159809Y-155408809D01*
X195300157Y-155198765D01*
X195349440Y-154951000D01*
X195349440Y-153151000D01*
X198604560Y-153151000D01*
X198604560Y-154951000D01*
X198653843Y-155198765D01*
X198794191Y-155408809D01*
X199004235Y-155549157D01*
X199252000Y-155598440D01*
X201052000Y-155598440D01*
X201299765Y-155549157D01*
X201509809Y-155408809D01*
X201650157Y-155198765D01*
X201699440Y-154951000D01*
X201699440Y-153151000D01*
X201650157Y-152903235D01*
X201509809Y-152693191D01*
X201299765Y-152552843D01*
X201052000Y-152503560D01*
X199252000Y-152503560D01*
X199004235Y-152552843D01*
X198794191Y-152693191D01*
X198653843Y-152903235D01*
X198604560Y-153151000D01*
X195349440Y-153151000D01*
X195300157Y-152903235D01*
X195159809Y-152693191D01*
X194949765Y-152552843D01*
X194702000Y-152503560D01*
X192902000Y-152503560D01*
X192654235Y-152552843D01*
X192444191Y-152693191D01*
X192303843Y-152903235D01*
X192254560Y-153151000D01*
X192254560Y-154951000D01*
X192303843Y-155198765D01*
X192444191Y-155408809D01*
X192652696Y-155548129D01*
X192356062Y-155992073D01*
X192236928Y-156591000D01*
X189017072Y-156591000D01*
X188897938Y-155992073D01*
X188601304Y-155548129D01*
X188809809Y-155408809D01*
X188950157Y-155198765D01*
X188999440Y-154951000D01*
X188999440Y-153151000D01*
X188950157Y-152903235D01*
X188809809Y-152693191D01*
X188599765Y-152552843D01*
X188352000Y-152503560D01*
X186552000Y-152503560D01*
X186304235Y-152552843D01*
X186094191Y-152693191D01*
X185953843Y-152903235D01*
X185904560Y-153151000D01*
X185904560Y-154951000D01*
X185953843Y-155198765D01*
X186094191Y-155408809D01*
X186302696Y-155548129D01*
X186006062Y-155992073D01*
X185886928Y-156591000D01*
X145923000Y-156591000D01*
X145923000Y-139446000D01*
X145913333Y-139397399D01*
X145885803Y-139356197D01*
X145844601Y-139328667D01*
X145796000Y-139319000D01*
X135867500Y-139319000D01*
X135867500Y-139134340D01*
X135977000Y-138869983D01*
X135977000Y-138498017D01*
X135834655Y-138154365D01*
X135571635Y-137891345D01*
X135227983Y-137749000D01*
X134856017Y-137749000D01*
X134512365Y-137891345D01*
X134249345Y-138154365D01*
X134107000Y-138498017D01*
X134107000Y-138869983D01*
X134216501Y-139134342D01*
X134216501Y-139319000D01*
X77597000Y-139319000D01*
X77597000Y-122206000D01*
X93524560Y-122206000D01*
X93524560Y-126206000D01*
X93573843Y-126453765D01*
X93714191Y-126663809D01*
X93924235Y-126804157D01*
X94172000Y-126853440D01*
X98172000Y-126853440D01*
X98419765Y-126804157D01*
X98629809Y-126663809D01*
X98770157Y-126453765D01*
X98819440Y-126206000D01*
X98819440Y-122206000D01*
X125114560Y-122206000D01*
X125114560Y-126206000D01*
X125163843Y-126453765D01*
X125304191Y-126663809D01*
X125514235Y-126804157D01*
X125762000Y-126853440D01*
X129762000Y-126853440D01*
X130009765Y-126804157D01*
X130219809Y-126663809D01*
X130360157Y-126453765D01*
X130409440Y-126206000D01*
X130409440Y-122206000D01*
X156864560Y-122206000D01*
X156864560Y-126206000D01*
X156913843Y-126453765D01*
X157054191Y-126663809D01*
X157264235Y-126804157D01*
X157512000Y-126853440D01*
X161512000Y-126853440D01*
X161759765Y-126804157D01*
X161969809Y-126663809D01*
X162110157Y-126453765D01*
X162159440Y-126206000D01*
X162159440Y-122206000D01*
X188614560Y-122206000D01*
X188614560Y-126206000D01*
X188663843Y-126453765D01*
X188804191Y-126663809D01*
X189014235Y-126804157D01*
X189262000Y-126853440D01*
X193262000Y-126853440D01*
X193509765Y-126804157D01*
X193719809Y-126663809D01*
X193860157Y-126453765D01*
X193909440Y-126206000D01*
X193909440Y-122206000D01*
X220364560Y-122206000D01*
X220364560Y-126206000D01*
X220413843Y-126453765D01*
X220554191Y-126663809D01*
X220764235Y-126804157D01*
X221012000Y-126853440D01*
X225012000Y-126853440D01*
X225259765Y-126804157D01*
X225469809Y-126663809D01*
X225610157Y-126453765D01*
X225659440Y-126206000D01*
X225659440Y-122206000D01*
X252114560Y-122206000D01*
X252114560Y-126206000D01*
X252163843Y-126453765D01*
X252304191Y-126663809D01*
X252514235Y-126804157D01*
X252762000Y-126853440D01*
X256762000Y-126853440D01*
X257009765Y-126804157D01*
X257219809Y-126663809D01*
X257360157Y-126453765D01*
X257409440Y-126206000D01*
X257409440Y-122206000D01*
X257360157Y-121958235D01*
X257219809Y-121748191D01*
X257009765Y-121607843D01*
X256762000Y-121558560D01*
X252762000Y-121558560D01*
X252514235Y-121607843D01*
X252304191Y-121748191D01*
X252163843Y-121958235D01*
X252114560Y-122206000D01*
X225659440Y-122206000D01*
X225610157Y-121958235D01*
X225469809Y-121748191D01*
X225259765Y-121607843D01*
X225012000Y-121558560D01*
X221012000Y-121558560D01*
X220764235Y-121607843D01*
X220554191Y-121748191D01*
X220413843Y-121958235D01*
X220364560Y-122206000D01*
X193909440Y-122206000D01*
X193860157Y-121958235D01*
X193719809Y-121748191D01*
X193509765Y-121607843D01*
X193262000Y-121558560D01*
X189262000Y-121558560D01*
X189014235Y-121607843D01*
X188804191Y-121748191D01*
X188663843Y-121958235D01*
X188614560Y-122206000D01*
X162159440Y-122206000D01*
X162110157Y-121958235D01*
X161969809Y-121748191D01*
X161759765Y-121607843D01*
X161512000Y-121558560D01*
X157512000Y-121558560D01*
X157264235Y-121607843D01*
X157054191Y-121748191D01*
X156913843Y-121958235D01*
X156864560Y-122206000D01*
X130409440Y-122206000D01*
X130360157Y-121958235D01*
X130219809Y-121748191D01*
X130009765Y-121607843D01*
X129762000Y-121558560D01*
X125762000Y-121558560D01*
X125514235Y-121607843D01*
X125304191Y-121748191D01*
X125163843Y-121958235D01*
X125114560Y-122206000D01*
X98819440Y-122206000D01*
X98770157Y-121958235D01*
X98629809Y-121748191D01*
X98419765Y-121607843D01*
X98172000Y-121558560D01*
X94172000Y-121558560D01*
X93924235Y-121607843D01*
X93714191Y-121748191D01*
X93573843Y-121958235D01*
X93524560Y-122206000D01*
X77597000Y-122206000D01*
X77597000Y-121158000D01*
X77587333Y-121109399D01*
X77559803Y-121068197D01*
X77518601Y-121040667D01*
X77470000Y-121031000D01*
X71374000Y-121031000D01*
X71325399Y-121040667D01*
X71284197Y-121068197D01*
X71256667Y-121109399D01*
X71247000Y-121158000D01*
X71247000Y-139319000D01*
X54483000Y-139319000D01*
X54483000Y-132334000D01*
X54473333Y-132285399D01*
X54445803Y-132244197D01*
X54404601Y-132216667D01*
X54356000Y-132207000D01*
X21152001Y-132207000D01*
X21152001Y-129851000D01*
X21262727Y-129851000D01*
X21797981Y-129744531D01*
X22404961Y-129338961D01*
X22810531Y-128731981D01*
X22952949Y-128016000D01*
X22880345Y-127650996D01*
X49727000Y-127650996D01*
X49727000Y-128381004D01*
X50006362Y-129055444D01*
X50522556Y-129571638D01*
X51196996Y-129851000D01*
X51927004Y-129851000D01*
X52601444Y-129571638D01*
X53117638Y-129055444D01*
X53397000Y-128381004D01*
X53397000Y-127650996D01*
X53117638Y-126976556D01*
X52601444Y-126460362D01*
X51927004Y-126181000D01*
X51196996Y-126181000D01*
X50522556Y-126460362D01*
X50006362Y-126976556D01*
X49727000Y-127650996D01*
X22880345Y-127650996D01*
X22810531Y-127300019D01*
X22404961Y-126693039D01*
X21797981Y-126287469D01*
X21262727Y-126181000D01*
X20901273Y-126181000D01*
X20366019Y-126287469D01*
X19759039Y-126693039D01*
X19353469Y-127300019D01*
X19211051Y-128016000D01*
X19223478Y-128078472D01*
X19072420Y-128229530D01*
X18966384Y-128300381D01*
X18895533Y-128406417D01*
X18895531Y-128406419D01*
X18685689Y-128720470D01*
X18587122Y-129215999D01*
X18612002Y-129341079D01*
X18612002Y-132207000D01*
X17474000Y-132207000D01*
X17474000Y-120030996D01*
X19247000Y-120030996D01*
X19247000Y-120761004D01*
X19526362Y-121435444D01*
X20042556Y-121951638D01*
X20716996Y-122231000D01*
X21447004Y-122231000D01*
X22121444Y-121951638D01*
X22637638Y-121435444D01*
X22917000Y-120761004D01*
X22917000Y-120396000D01*
X49691051Y-120396000D01*
X49833469Y-121111981D01*
X50239039Y-121718961D01*
X50846019Y-122124531D01*
X51381273Y-122231000D01*
X51742727Y-122231000D01*
X51868410Y-122206000D01*
X61774560Y-122206000D01*
X61774560Y-126206000D01*
X61823843Y-126453765D01*
X61964191Y-126663809D01*
X62174235Y-126804157D01*
X62422000Y-126853440D01*
X66422000Y-126853440D01*
X66669765Y-126804157D01*
X66879809Y-126663809D01*
X67020157Y-126453765D01*
X67069440Y-126206000D01*
X67069440Y-122206000D01*
X67020157Y-121958235D01*
X66879809Y-121748191D01*
X66669765Y-121607843D01*
X66422000Y-121558560D01*
X62422000Y-121558560D01*
X62174235Y-121607843D01*
X61964191Y-121748191D01*
X61823843Y-121958235D01*
X61774560Y-122206000D01*
X51868410Y-122206000D01*
X52277981Y-122124531D01*
X52884961Y-121718961D01*
X53290531Y-121111981D01*
X53432949Y-120396000D01*
X53290531Y-119680019D01*
X52884961Y-119073039D01*
X52277981Y-118667469D01*
X51742727Y-118561000D01*
X51381273Y-118561000D01*
X50846019Y-118667469D01*
X50239039Y-119073039D01*
X49833469Y-119680019D01*
X49691051Y-120396000D01*
X22917000Y-120396000D01*
X22917000Y-120030996D01*
X22637638Y-119356556D01*
X22121444Y-118840362D01*
X21447004Y-118561000D01*
X20716996Y-118561000D01*
X20042556Y-118840362D01*
X19526362Y-119356556D01*
X19247000Y-120030996D01*
X17474000Y-120030996D01*
X17474000Y-112776000D01*
X19211051Y-112776000D01*
X19353469Y-113491981D01*
X19759039Y-114098961D01*
X20366019Y-114504531D01*
X20901273Y-114611000D01*
X21262727Y-114611000D01*
X21797981Y-114504531D01*
X22404961Y-114098961D01*
X22810531Y-113491981D01*
X22952949Y-112776000D01*
X22880345Y-112410996D01*
X49727000Y-112410996D01*
X49727000Y-113141004D01*
X50006362Y-113815444D01*
X50522556Y-114331638D01*
X51196996Y-114611000D01*
X51927004Y-114611000D01*
X52601444Y-114331638D01*
X53117638Y-113815444D01*
X53397000Y-113141004D01*
X53397000Y-112410996D01*
X53117638Y-111736556D01*
X52601444Y-111220362D01*
X51927004Y-110941000D01*
X51196996Y-110941000D01*
X50522556Y-111220362D01*
X50006362Y-111736556D01*
X49727000Y-112410996D01*
X22880345Y-112410996D01*
X22810531Y-112060019D01*
X22404961Y-111453039D01*
X21797981Y-111047469D01*
X21262727Y-110941000D01*
X20901273Y-110941000D01*
X20366019Y-111047469D01*
X19759039Y-111453039D01*
X19353469Y-112060019D01*
X19211051Y-112776000D01*
X17474000Y-112776000D01*
X17474000Y-90456000D01*
X29864560Y-90456000D01*
X29864560Y-94456000D01*
X29913843Y-94703765D01*
X30054191Y-94913809D01*
X30264235Y-95054157D01*
X30512000Y-95103440D01*
X34512000Y-95103440D01*
X34759765Y-95054157D01*
X34969809Y-94913809D01*
X35110157Y-94703765D01*
X35159440Y-94456000D01*
X35159440Y-90456000D01*
X61774560Y-90456000D01*
X61774560Y-94456000D01*
X61823843Y-94703765D01*
X61964191Y-94913809D01*
X62174235Y-95054157D01*
X62422000Y-95103440D01*
X66422000Y-95103440D01*
X66669765Y-95054157D01*
X66879809Y-94913809D01*
X67020157Y-94703765D01*
X67069440Y-94456000D01*
X67069440Y-90456000D01*
X93364560Y-90456000D01*
X93364560Y-94456000D01*
X93413843Y-94703765D01*
X93554191Y-94913809D01*
X93764235Y-95054157D01*
X94012000Y-95103440D01*
X98012000Y-95103440D01*
X98259765Y-95054157D01*
X98469809Y-94913809D01*
X98610157Y-94703765D01*
X98659440Y-94456000D01*
X98659440Y-90456000D01*
X125114560Y-90456000D01*
X125114560Y-94456000D01*
X125163843Y-94703765D01*
X125304191Y-94913809D01*
X125514235Y-95054157D01*
X125762000Y-95103440D01*
X129762000Y-95103440D01*
X130009765Y-95054157D01*
X130219809Y-94913809D01*
X130360157Y-94703765D01*
X130409440Y-94456000D01*
X130409440Y-90456000D01*
X157024560Y-90456000D01*
X157024560Y-94456000D01*
X157073843Y-94703765D01*
X157214191Y-94913809D01*
X157424235Y-95054157D01*
X157672000Y-95103440D01*
X161672000Y-95103440D01*
X161919765Y-95054157D01*
X162129809Y-94913809D01*
X162270157Y-94703765D01*
X162319440Y-94456000D01*
X162319440Y-90456000D01*
X188614560Y-90456000D01*
X188614560Y-94456000D01*
X188663843Y-94703765D01*
X188804191Y-94913809D01*
X189014235Y-95054157D01*
X189262000Y-95103440D01*
X193262000Y-95103440D01*
X193509765Y-95054157D01*
X193719809Y-94913809D01*
X193860157Y-94703765D01*
X193909440Y-94456000D01*
X193909440Y-90456000D01*
X220364560Y-90456000D01*
X220364560Y-94456000D01*
X220413843Y-94703765D01*
X220554191Y-94913809D01*
X220764235Y-95054157D01*
X221012000Y-95103440D01*
X225012000Y-95103440D01*
X225259765Y-95054157D01*
X225469809Y-94913809D01*
X225610157Y-94703765D01*
X225659440Y-94456000D01*
X225659440Y-90456000D01*
X252114560Y-90456000D01*
X252114560Y-94456000D01*
X252163843Y-94703765D01*
X252304191Y-94913809D01*
X252514235Y-95054157D01*
X252762000Y-95103440D01*
X256762000Y-95103440D01*
X257009765Y-95054157D01*
X257219809Y-94913809D01*
X257360157Y-94703765D01*
X257409440Y-94456000D01*
X257409440Y-90456000D01*
X257360157Y-90208235D01*
X257219809Y-89998191D01*
X257009765Y-89857843D01*
X256762000Y-89808560D01*
X252762000Y-89808560D01*
X252514235Y-89857843D01*
X252304191Y-89998191D01*
X252163843Y-90208235D01*
X252114560Y-90456000D01*
X225659440Y-90456000D01*
X225610157Y-90208235D01*
X225469809Y-89998191D01*
X225259765Y-89857843D01*
X225012000Y-89808560D01*
X221012000Y-89808560D01*
X220764235Y-89857843D01*
X220554191Y-89998191D01*
X220413843Y-90208235D01*
X220364560Y-90456000D01*
X193909440Y-90456000D01*
X193860157Y-90208235D01*
X193719809Y-89998191D01*
X193509765Y-89857843D01*
X193262000Y-89808560D01*
X189262000Y-89808560D01*
X189014235Y-89857843D01*
X188804191Y-89998191D01*
X188663843Y-90208235D01*
X188614560Y-90456000D01*
X162319440Y-90456000D01*
X162270157Y-90208235D01*
X162129809Y-89998191D01*
X161919765Y-89857843D01*
X161672000Y-89808560D01*
X157672000Y-89808560D01*
X157424235Y-89857843D01*
X157214191Y-89998191D01*
X157073843Y-90208235D01*
X157024560Y-90456000D01*
X130409440Y-90456000D01*
X130360157Y-90208235D01*
X130219809Y-89998191D01*
X130009765Y-89857843D01*
X129762000Y-89808560D01*
X125762000Y-89808560D01*
X125514235Y-89857843D01*
X125304191Y-89998191D01*
X125163843Y-90208235D01*
X125114560Y-90456000D01*
X98659440Y-90456000D01*
X98610157Y-90208235D01*
X98469809Y-89998191D01*
X98259765Y-89857843D01*
X98012000Y-89808560D01*
X94012000Y-89808560D01*
X93764235Y-89857843D01*
X93554191Y-89998191D01*
X93413843Y-90208235D01*
X93364560Y-90456000D01*
X67069440Y-90456000D01*
X67020157Y-90208235D01*
X66879809Y-89998191D01*
X66669765Y-89857843D01*
X66422000Y-89808560D01*
X62422000Y-89808560D01*
X62174235Y-89857843D01*
X61964191Y-89998191D01*
X61823843Y-90208235D01*
X61774560Y-90456000D01*
X35159440Y-90456000D01*
X35110157Y-90208235D01*
X34969809Y-89998191D01*
X34759765Y-89857843D01*
X34512000Y-89808560D01*
X30512000Y-89808560D01*
X30264235Y-89857843D01*
X30054191Y-89998191D01*
X29913843Y-90208235D01*
X29864560Y-90456000D01*
X17474000Y-90456000D01*
X17474000Y-76037593D01*
X146164300Y-76037593D01*
X146164300Y-77022807D01*
X146541324Y-77933025D01*
X147237975Y-78629676D01*
X148148193Y-79006700D01*
X149133407Y-79006700D01*
X150043625Y-78629676D01*
X150740276Y-77933025D01*
X151117300Y-77022807D01*
X151117300Y-76037593D01*
X150740276Y-75127375D01*
X150043625Y-74430724D01*
X149133407Y-74053700D01*
X148148193Y-74053700D01*
X147237975Y-74430724D01*
X146541324Y-75127375D01*
X146164300Y-76037593D01*
X17474000Y-76037593D01*
X17474000Y-58706000D01*
X29864560Y-58706000D01*
X29864560Y-62706000D01*
X29913843Y-62953765D01*
X30054191Y-63163809D01*
X30264235Y-63304157D01*
X30512000Y-63353440D01*
X34512000Y-63353440D01*
X34759765Y-63304157D01*
X34969809Y-63163809D01*
X35110157Y-62953765D01*
X35159440Y-62706000D01*
X35159440Y-58706000D01*
X61614560Y-58706000D01*
X61614560Y-62706000D01*
X61663843Y-62953765D01*
X61804191Y-63163809D01*
X62014235Y-63304157D01*
X62262000Y-63353440D01*
X66262000Y-63353440D01*
X66509765Y-63304157D01*
X66719809Y-63163809D01*
X66860157Y-62953765D01*
X66909440Y-62706000D01*
X66909440Y-58706000D01*
X93364560Y-58706000D01*
X93364560Y-62706000D01*
X93413843Y-62953765D01*
X93554191Y-63163809D01*
X93764235Y-63304157D01*
X94012000Y-63353440D01*
X98012000Y-63353440D01*
X98259765Y-63304157D01*
X98469809Y-63163809D01*
X98610157Y-62953765D01*
X98659440Y-62706000D01*
X98659440Y-58706000D01*
X125114560Y-58706000D01*
X125114560Y-62706000D01*
X125163843Y-62953765D01*
X125304191Y-63163809D01*
X125514235Y-63304157D01*
X125762000Y-63353440D01*
X129762000Y-63353440D01*
X130009765Y-63304157D01*
X130219809Y-63163809D01*
X130360157Y-62953765D01*
X130409440Y-62706000D01*
X130409440Y-58706000D01*
X156864560Y-58706000D01*
X156864560Y-62706000D01*
X156913843Y-62953765D01*
X157054191Y-63163809D01*
X157264235Y-63304157D01*
X157512000Y-63353440D01*
X161512000Y-63353440D01*
X161759765Y-63304157D01*
X161969809Y-63163809D01*
X162110157Y-62953765D01*
X162159440Y-62706000D01*
X162159440Y-58706000D01*
X188614560Y-58706000D01*
X188614560Y-62706000D01*
X188663843Y-62953765D01*
X188804191Y-63163809D01*
X189014235Y-63304157D01*
X189262000Y-63353440D01*
X193262000Y-63353440D01*
X193509765Y-63304157D01*
X193719809Y-63163809D01*
X193860157Y-62953765D01*
X193909440Y-62706000D01*
X193909440Y-58706000D01*
X220364560Y-58706000D01*
X220364560Y-62706000D01*
X220413843Y-62953765D01*
X220554191Y-63163809D01*
X220764235Y-63304157D01*
X221012000Y-63353440D01*
X225012000Y-63353440D01*
X225259765Y-63304157D01*
X225469809Y-63163809D01*
X225610157Y-62953765D01*
X225659440Y-62706000D01*
X225659440Y-58706000D01*
X252114560Y-58706000D01*
X252114560Y-62706000D01*
X252163843Y-62953765D01*
X252304191Y-63163809D01*
X252514235Y-63304157D01*
X252762000Y-63353440D01*
X256762000Y-63353440D01*
X257009765Y-63304157D01*
X257219809Y-63163809D01*
X257360157Y-62953765D01*
X257409440Y-62706000D01*
X257409440Y-58706000D01*
X257360157Y-58458235D01*
X257219809Y-58248191D01*
X257009765Y-58107843D01*
X256762000Y-58058560D01*
X252762000Y-58058560D01*
X252514235Y-58107843D01*
X252304191Y-58248191D01*
X252163843Y-58458235D01*
X252114560Y-58706000D01*
X225659440Y-58706000D01*
X225610157Y-58458235D01*
X225469809Y-58248191D01*
X225259765Y-58107843D01*
X225012000Y-58058560D01*
X221012000Y-58058560D01*
X220764235Y-58107843D01*
X220554191Y-58248191D01*
X220413843Y-58458235D01*
X220364560Y-58706000D01*
X193909440Y-58706000D01*
X193860157Y-58458235D01*
X193719809Y-58248191D01*
X193509765Y-58107843D01*
X193262000Y-58058560D01*
X189262000Y-58058560D01*
X189014235Y-58107843D01*
X188804191Y-58248191D01*
X188663843Y-58458235D01*
X188614560Y-58706000D01*
X162159440Y-58706000D01*
X162110157Y-58458235D01*
X161969809Y-58248191D01*
X161759765Y-58107843D01*
X161512000Y-58058560D01*
X157512000Y-58058560D01*
X157264235Y-58107843D01*
X157054191Y-58248191D01*
X156913843Y-58458235D01*
X156864560Y-58706000D01*
X130409440Y-58706000D01*
X130360157Y-58458235D01*
X130219809Y-58248191D01*
X130009765Y-58107843D01*
X129762000Y-58058560D01*
X125762000Y-58058560D01*
X125514235Y-58107843D01*
X125304191Y-58248191D01*
X125163843Y-58458235D01*
X125114560Y-58706000D01*
X98659440Y-58706000D01*
X98610157Y-58458235D01*
X98469809Y-58248191D01*
X98259765Y-58107843D01*
X98012000Y-58058560D01*
X94012000Y-58058560D01*
X93764235Y-58107843D01*
X93554191Y-58248191D01*
X93413843Y-58458235D01*
X93364560Y-58706000D01*
X66909440Y-58706000D01*
X66860157Y-58458235D01*
X66719809Y-58248191D01*
X66509765Y-58107843D01*
X66262000Y-58058560D01*
X62262000Y-58058560D01*
X62014235Y-58107843D01*
X61804191Y-58248191D01*
X61663843Y-58458235D01*
X61614560Y-58706000D01*
X35159440Y-58706000D01*
X35110157Y-58458235D01*
X34969809Y-58248191D01*
X34759765Y-58107843D01*
X34512000Y-58058560D01*
X30512000Y-58058560D01*
X30264235Y-58107843D01*
X30054191Y-58248191D01*
X29913843Y-58458235D01*
X29864560Y-58706000D01*
X17474000Y-58706000D01*
X17474000Y-26956000D01*
X29864560Y-26956000D01*
X29864560Y-30956000D01*
X29913843Y-31203765D01*
X30054191Y-31413809D01*
X30264235Y-31554157D01*
X30512000Y-31603440D01*
X34512000Y-31603440D01*
X34759765Y-31554157D01*
X34969809Y-31413809D01*
X35110157Y-31203765D01*
X35159440Y-30956000D01*
X35159440Y-26956000D01*
X61614560Y-26956000D01*
X61614560Y-30956000D01*
X61663843Y-31203765D01*
X61804191Y-31413809D01*
X62014235Y-31554157D01*
X62262000Y-31603440D01*
X66262000Y-31603440D01*
X66509765Y-31554157D01*
X66719809Y-31413809D01*
X66860157Y-31203765D01*
X66909440Y-30956000D01*
X66909440Y-26956000D01*
X93364560Y-26956000D01*
X93364560Y-30956000D01*
X93413843Y-31203765D01*
X93554191Y-31413809D01*
X93764235Y-31554157D01*
X94012000Y-31603440D01*
X98012000Y-31603440D01*
X98259765Y-31554157D01*
X98469809Y-31413809D01*
X98610157Y-31203765D01*
X98659440Y-30956000D01*
X98659440Y-26956000D01*
X125114560Y-26956000D01*
X125114560Y-30956000D01*
X125163843Y-31203765D01*
X125304191Y-31413809D01*
X125514235Y-31554157D01*
X125762000Y-31603440D01*
X129762000Y-31603440D01*
X130009765Y-31554157D01*
X130219809Y-31413809D01*
X130360157Y-31203765D01*
X130409440Y-30956000D01*
X130409440Y-26956000D01*
X156864560Y-26956000D01*
X156864560Y-30956000D01*
X156913843Y-31203765D01*
X157054191Y-31413809D01*
X157264235Y-31554157D01*
X157512000Y-31603440D01*
X161512000Y-31603440D01*
X161759765Y-31554157D01*
X161969809Y-31413809D01*
X162110157Y-31203765D01*
X162159440Y-30956000D01*
X162159440Y-26956000D01*
X188614560Y-26956000D01*
X188614560Y-30956000D01*
X188663843Y-31203765D01*
X188804191Y-31413809D01*
X189014235Y-31554157D01*
X189262000Y-31603440D01*
X193262000Y-31603440D01*
X193509765Y-31554157D01*
X193719809Y-31413809D01*
X193860157Y-31203765D01*
X193909440Y-30956000D01*
X193909440Y-26956000D01*
X220364560Y-26956000D01*
X220364560Y-30956000D01*
X220413843Y-31203765D01*
X220554191Y-31413809D01*
X220764235Y-31554157D01*
X221012000Y-31603440D01*
X225012000Y-31603440D01*
X225259765Y-31554157D01*
X225469809Y-31413809D01*
X225610157Y-31203765D01*
X225659440Y-30956000D01*
X225659440Y-26956000D01*
X252114560Y-26956000D01*
X252114560Y-30956000D01*
X252163843Y-31203765D01*
X252304191Y-31413809D01*
X252514235Y-31554157D01*
X252762000Y-31603440D01*
X256762000Y-31603440D01*
X257009765Y-31554157D01*
X257219809Y-31413809D01*
X257360157Y-31203765D01*
X257409440Y-30956000D01*
X257409440Y-26956000D01*
X257360157Y-26708235D01*
X257219809Y-26498191D01*
X257009765Y-26357843D01*
X256762000Y-26308560D01*
X252762000Y-26308560D01*
X252514235Y-26357843D01*
X252304191Y-26498191D01*
X252163843Y-26708235D01*
X252114560Y-26956000D01*
X225659440Y-26956000D01*
X225610157Y-26708235D01*
X225469809Y-26498191D01*
X225259765Y-26357843D01*
X225012000Y-26308560D01*
X221012000Y-26308560D01*
X220764235Y-26357843D01*
X220554191Y-26498191D01*
X220413843Y-26708235D01*
X220364560Y-26956000D01*
X193909440Y-26956000D01*
X193860157Y-26708235D01*
X193719809Y-26498191D01*
X193509765Y-26357843D01*
X193262000Y-26308560D01*
X189262000Y-26308560D01*
X189014235Y-26357843D01*
X188804191Y-26498191D01*
X188663843Y-26708235D01*
X188614560Y-26956000D01*
X162159440Y-26956000D01*
X162110157Y-26708235D01*
X161969809Y-26498191D01*
X161759765Y-26357843D01*
X161512000Y-26308560D01*
X157512000Y-26308560D01*
X157264235Y-26357843D01*
X157054191Y-26498191D01*
X156913843Y-26708235D01*
X156864560Y-26956000D01*
X130409440Y-26956000D01*
X130360157Y-26708235D01*
X130219809Y-26498191D01*
X130009765Y-26357843D01*
X129762000Y-26308560D01*
X125762000Y-26308560D01*
X125514235Y-26357843D01*
X125304191Y-26498191D01*
X125163843Y-26708235D01*
X125114560Y-26956000D01*
X98659440Y-26956000D01*
X98610157Y-26708235D01*
X98469809Y-26498191D01*
X98259765Y-26357843D01*
X98012000Y-26308560D01*
X94012000Y-26308560D01*
X93764235Y-26357843D01*
X93554191Y-26498191D01*
X93413843Y-26708235D01*
X93364560Y-26956000D01*
X66909440Y-26956000D01*
X66860157Y-26708235D01*
X66719809Y-26498191D01*
X66509765Y-26357843D01*
X66262000Y-26308560D01*
X62262000Y-26308560D01*
X62014235Y-26357843D01*
X61804191Y-26498191D01*
X61663843Y-26708235D01*
X61614560Y-26956000D01*
X35159440Y-26956000D01*
X35110157Y-26708235D01*
X34969809Y-26498191D01*
X34759765Y-26357843D01*
X34512000Y-26308560D01*
X30512000Y-26308560D01*
X30264235Y-26357843D01*
X30054191Y-26498191D01*
X29913843Y-26708235D01*
X29864560Y-26956000D01*
X17474000Y-26956000D01*
X17474000Y-17561964D01*
X17527690Y-17033393D01*
X18097500Y-17033393D01*
X18097500Y-18018607D01*
X18474524Y-18928825D01*
X19171175Y-19625476D01*
X20081393Y-20002500D01*
X21066607Y-20002500D01*
X21976825Y-19625476D01*
X22673476Y-18928825D01*
X23050500Y-18018607D01*
X23050500Y-17033393D01*
X274129500Y-17033393D01*
X274129500Y-18018607D01*
X274506524Y-18928825D01*
X275203175Y-19625476D01*
X276113393Y-20002500D01*
X277098607Y-20002500D01*
X278008825Y-19625476D01*
X278705476Y-18928825D01*
X279082500Y-18018607D01*
X279082500Y-17033393D01*
X278705476Y-16123175D01*
X278008825Y-15426524D01*
X277098607Y-15049500D01*
X276113393Y-15049500D01*
X275203175Y-15426524D01*
X274506524Y-16123175D01*
X274129500Y-17033393D01*
X23050500Y-17033393D01*
X22673476Y-16123175D01*
X21976825Y-15426524D01*
X21066607Y-15049500D01*
X20081393Y-15049500D01*
X19171175Y-15426524D01*
X18474524Y-16123175D01*
X18097500Y-17033393D01*
X17527690Y-17033393D01*
X17540895Y-16903396D01*
X17728039Y-16306218D01*
X18031436Y-15758876D01*
X18438701Y-15283711D01*
X18933188Y-14900148D01*
X19494700Y-14623850D01*
X20108774Y-14463896D01*
X20601270Y-14426000D01*
X276570036Y-14426000D01*
X277228604Y-14492895D01*
X277228604Y-14492895D01*
G37*
X277228604Y-14492895D02*
X277825782Y-14680039D01*
X278373124Y-14983436D01*
X278848289Y-15390701D01*
X279231852Y-15885188D01*
X279508150Y-16446700D01*
X279668104Y-17060774D01*
X279706000Y-17553270D01*
X279706001Y-192750026D01*
X279639105Y-193408604D01*
X279451961Y-194005782D01*
X279148563Y-194553125D01*
X278741299Y-195028289D01*
X278246812Y-195411852D01*
X277685304Y-195688148D01*
X277071227Y-195848104D01*
X276578730Y-195886000D01*
X244620805Y-195886000D01*
X244665500Y-195661303D01*
X244665500Y-195661298D01*
X244681671Y-195580001D01*
X244665500Y-195498703D01*
X244665500Y-192293393D01*
X274129500Y-192293393D01*
X274129500Y-193278607D01*
X274506524Y-194188825D01*
X275203175Y-194885476D01*
X276113393Y-195262500D01*
X277098607Y-195262500D01*
X278008825Y-194885476D01*
X278705476Y-194188825D01*
X279082500Y-193278607D01*
X279082500Y-192293393D01*
X278705476Y-191383175D01*
X278008825Y-190686524D01*
X277098607Y-190309500D01*
X276113393Y-190309500D01*
X275203175Y-190686524D01*
X274506524Y-191383175D01*
X274129500Y-192293393D01*
X244665500Y-192293393D01*
X244665500Y-188803297D01*
X244681671Y-188721999D01*
X244665500Y-188640702D01*
X244665500Y-188640697D01*
X244617604Y-188399906D01*
X244491915Y-188211800D01*
X244378655Y-187938365D01*
X244115635Y-187675345D01*
X243771983Y-187533000D01*
X243400017Y-187533000D01*
X243056365Y-187675345D01*
X242793345Y-187938365D01*
X242651000Y-188282017D01*
X242651000Y-188653983D01*
X242793345Y-188997635D01*
X242831607Y-189035897D01*
X242666484Y-188967501D01*
X242294518Y-188967501D01*
X241950866Y-189109846D01*
X241687846Y-189372866D01*
X241545501Y-189716518D01*
X241545501Y-190088484D01*
X241687846Y-190432136D01*
X241744501Y-190488791D01*
X241744500Y-193859660D01*
X241635000Y-194124017D01*
X241635000Y-194495983D01*
X241777345Y-194839635D01*
X241946210Y-195008500D01*
X223716340Y-195008500D01*
X223451983Y-194899000D01*
X223080017Y-194899000D01*
X222736365Y-195041345D01*
X222473345Y-195304365D01*
X222331000Y-195648017D01*
X222331000Y-195886000D01*
X154351000Y-195886000D01*
X154351000Y-195648017D01*
X154241500Y-195383660D01*
X154241500Y-194633340D01*
X154351000Y-194368983D01*
X154351000Y-193997017D01*
X154208655Y-193653365D01*
X153945635Y-193390345D01*
X153601983Y-193248000D01*
X153230017Y-193248000D01*
X152886365Y-193390345D01*
X152623345Y-193653365D01*
X152481000Y-193997017D01*
X152481000Y-194368983D01*
X152590500Y-194633341D01*
X152590501Y-195383658D01*
X152481000Y-195648017D01*
X152481000Y-195886000D01*
X145923000Y-195886000D01*
X145923000Y-189981000D01*
X175744560Y-189981000D01*
X175744560Y-191781000D01*
X175793843Y-192028765D01*
X175934191Y-192238809D01*
X176144235Y-192379157D01*
X176392000Y-192428440D01*
X178192000Y-192428440D01*
X178439765Y-192379157D01*
X178649809Y-192238809D01*
X178789129Y-192030304D01*
X179233073Y-192326938D01*
X179680818Y-192416000D01*
X179983182Y-192416000D01*
X180430927Y-192326938D01*
X180938673Y-191987673D01*
X181277938Y-191479927D01*
X181397072Y-190881000D01*
X220176928Y-190881000D01*
X220296062Y-191479927D01*
X220635327Y-191987673D01*
X221143073Y-192326938D01*
X221590818Y-192416000D01*
X221893182Y-192416000D01*
X222340927Y-192326938D01*
X222784871Y-192030304D01*
X222924191Y-192238809D01*
X223134235Y-192379157D01*
X223382000Y-192428440D01*
X225182000Y-192428440D01*
X225429765Y-192379157D01*
X225639809Y-192238809D01*
X225780157Y-192028765D01*
X225829440Y-191781000D01*
X225829440Y-189981000D01*
X225780157Y-189733235D01*
X225639809Y-189523191D01*
X225429765Y-189382843D01*
X225182000Y-189333560D01*
X223382000Y-189333560D01*
X223134235Y-189382843D01*
X222924191Y-189523191D01*
X222784871Y-189731696D01*
X222340927Y-189435062D01*
X221893182Y-189346000D01*
X221590818Y-189346000D01*
X221143073Y-189435062D01*
X220635327Y-189774327D01*
X220296062Y-190282073D01*
X220176928Y-190881000D01*
X181397072Y-190881000D01*
X181277938Y-190282073D01*
X180938673Y-189774327D01*
X180430927Y-189435062D01*
X179983182Y-189346000D01*
X179680818Y-189346000D01*
X179233073Y-189435062D01*
X178789129Y-189731696D01*
X178649809Y-189523191D01*
X178439765Y-189382843D01*
X178192000Y-189333560D01*
X176392000Y-189333560D01*
X176144235Y-189382843D01*
X175934191Y-189523191D01*
X175793843Y-189733235D01*
X175744560Y-189981000D01*
X145923000Y-189981000D01*
X145923000Y-184975500D01*
X152076660Y-184975500D01*
X152341017Y-185085000D01*
X152712983Y-185085000D01*
X153056635Y-184942655D01*
X153319655Y-184679635D01*
X153462000Y-184335983D01*
X153462000Y-183964017D01*
X153324061Y-183631000D01*
X175744560Y-183631000D01*
X175744560Y-185431000D01*
X175793843Y-185678765D01*
X175934191Y-185888809D01*
X176144235Y-186029157D01*
X176392000Y-186078440D01*
X178192000Y-186078440D01*
X178439765Y-186029157D01*
X178649809Y-185888809D01*
X178790157Y-185678765D01*
X178839440Y-185431000D01*
X178839440Y-184531000D01*
X180806928Y-184531000D01*
X180926062Y-185129927D01*
X181265327Y-185637673D01*
X181773073Y-185976938D01*
X182220818Y-186066000D01*
X182523182Y-186066000D01*
X182970927Y-185976938D01*
X183478673Y-185637673D01*
X183817938Y-185129927D01*
X183937072Y-184531000D01*
X183817938Y-183932073D01*
X183478673Y-183424327D01*
X182970927Y-183085062D01*
X182523182Y-182996000D01*
X182220818Y-182996000D01*
X181773073Y-183085062D01*
X181265327Y-183424327D01*
X180926062Y-183932073D01*
X180806928Y-184531000D01*
X178839440Y-184531000D01*
X178839440Y-183631000D01*
X178790157Y-183383235D01*
X178649809Y-183173191D01*
X178439765Y-183032843D01*
X178192000Y-182983560D01*
X176392000Y-182983560D01*
X176144235Y-183032843D01*
X175934191Y-183173191D01*
X175793843Y-183383235D01*
X175744560Y-183631000D01*
X153324061Y-183631000D01*
X153319655Y-183620365D01*
X153056635Y-183357345D01*
X152712983Y-183215000D01*
X152341017Y-183215000D01*
X152076660Y-183324500D01*
X146137933Y-183324500D01*
X145923000Y-183109567D01*
X145923000Y-177281000D01*
X175744560Y-177281000D01*
X175744560Y-179081000D01*
X175793843Y-179328765D01*
X175934191Y-179538809D01*
X176144235Y-179679157D01*
X176392000Y-179728440D01*
X178192000Y-179728440D01*
X178439765Y-179679157D01*
X178649809Y-179538809D01*
X178789129Y-179330304D01*
X179233073Y-179626938D01*
X179680818Y-179716000D01*
X179983182Y-179716000D01*
X180430927Y-179626938D01*
X180938673Y-179287673D01*
X181277938Y-178779927D01*
X181397072Y-178181000D01*
X181277938Y-177582073D01*
X180938673Y-177074327D01*
X180672141Y-176896236D01*
X190373000Y-176896236D01*
X190373000Y-180786564D01*
X191861764Y-184380759D01*
X194612641Y-187131636D01*
X198206836Y-188620400D01*
X202097164Y-188620400D01*
X205691359Y-187131636D01*
X208291995Y-184531000D01*
X217636928Y-184531000D01*
X217756062Y-185129927D01*
X218095327Y-185637673D01*
X218603073Y-185976938D01*
X219050818Y-186066000D01*
X219353182Y-186066000D01*
X219800927Y-185976938D01*
X220308673Y-185637673D01*
X220647938Y-185129927D01*
X220767072Y-184531000D01*
X220647938Y-183932073D01*
X220446768Y-183631000D01*
X222734560Y-183631000D01*
X222734560Y-185431000D01*
X222783843Y-185678765D01*
X222924191Y-185888809D01*
X223134235Y-186029157D01*
X223382000Y-186078440D01*
X225182000Y-186078440D01*
X225429765Y-186029157D01*
X225639809Y-185888809D01*
X225780157Y-185678765D01*
X225829440Y-185431000D01*
X225829440Y-183631000D01*
X225780157Y-183383235D01*
X225639809Y-183173191D01*
X225429765Y-183032843D01*
X225182000Y-182983560D01*
X223382000Y-182983560D01*
X223134235Y-183032843D01*
X222924191Y-183173191D01*
X222783843Y-183383235D01*
X222734560Y-183631000D01*
X220446768Y-183631000D01*
X220308673Y-183424327D01*
X219800927Y-183085062D01*
X219353182Y-182996000D01*
X219050818Y-182996000D01*
X218603073Y-183085062D01*
X218095327Y-183424327D01*
X217756062Y-183932073D01*
X217636928Y-184531000D01*
X208291995Y-184531000D01*
X208442236Y-184380759D01*
X209931000Y-180786564D01*
X209931000Y-178181000D01*
X220176928Y-178181000D01*
X220296062Y-178779927D01*
X220635327Y-179287673D01*
X221143073Y-179626938D01*
X221590818Y-179716000D01*
X221893182Y-179716000D01*
X222340927Y-179626938D01*
X222784871Y-179330304D01*
X222924191Y-179538809D01*
X223134235Y-179679157D01*
X223382000Y-179728440D01*
X225182000Y-179728440D01*
X225429765Y-179679157D01*
X225639809Y-179538809D01*
X225780157Y-179328765D01*
X225829440Y-179081000D01*
X225829440Y-177281000D01*
X225780157Y-177033235D01*
X225671645Y-176870836D01*
X247523000Y-176870836D01*
X247523000Y-180761164D01*
X249011764Y-184355359D01*
X251762641Y-187106236D01*
X255356836Y-188595000D01*
X259247164Y-188595000D01*
X262841359Y-187106236D01*
X265592236Y-184355359D01*
X267081000Y-180761164D01*
X267081000Y-176870836D01*
X265592236Y-173276641D01*
X262841359Y-170525764D01*
X259247164Y-169037000D01*
X255356836Y-169037000D01*
X251762641Y-170525764D01*
X249011764Y-173276641D01*
X247523000Y-176870836D01*
X225671645Y-176870836D01*
X225639809Y-176823191D01*
X225429765Y-176682843D01*
X225182000Y-176633560D01*
X223382000Y-176633560D01*
X223134235Y-176682843D01*
X222924191Y-176823191D01*
X222784871Y-177031696D01*
X222340927Y-176735062D01*
X221893182Y-176646000D01*
X221590818Y-176646000D01*
X221143073Y-176735062D01*
X220635327Y-177074327D01*
X220296062Y-177582073D01*
X220176928Y-178181000D01*
X209931000Y-178181000D01*
X209931000Y-176896236D01*
X208442236Y-173302041D01*
X205701195Y-170561000D01*
X217636928Y-170561000D01*
X217756062Y-171159927D01*
X218095327Y-171667673D01*
X218603073Y-172006938D01*
X219050818Y-172096000D01*
X219353182Y-172096000D01*
X219800927Y-172006938D01*
X220308673Y-171667673D01*
X220647938Y-171159927D01*
X220767072Y-170561000D01*
X220647938Y-169962073D01*
X220446768Y-169661000D01*
X222734560Y-169661000D01*
X222734560Y-171461000D01*
X222783843Y-171708765D01*
X222924191Y-171918809D01*
X223134235Y-172059157D01*
X223382000Y-172108440D01*
X225182000Y-172108440D01*
X225429765Y-172059157D01*
X225639809Y-171918809D01*
X225780157Y-171708765D01*
X225829440Y-171461000D01*
X225829440Y-169661000D01*
X225780157Y-169413235D01*
X225639809Y-169203191D01*
X225429765Y-169062843D01*
X225182000Y-169013560D01*
X223382000Y-169013560D01*
X223134235Y-169062843D01*
X222924191Y-169203191D01*
X222783843Y-169413235D01*
X222734560Y-169661000D01*
X220446768Y-169661000D01*
X220308673Y-169454327D01*
X219800927Y-169115062D01*
X219353182Y-169026000D01*
X219050818Y-169026000D01*
X218603073Y-169115062D01*
X218095327Y-169454327D01*
X217756062Y-169962073D01*
X217636928Y-170561000D01*
X205701195Y-170561000D01*
X205691359Y-170551164D01*
X202097164Y-169062400D01*
X198206836Y-169062400D01*
X194612641Y-170551164D01*
X191861764Y-173302041D01*
X190373000Y-176896236D01*
X180672141Y-176896236D01*
X180430927Y-176735062D01*
X179983182Y-176646000D01*
X179680818Y-176646000D01*
X179233073Y-176735062D01*
X178789129Y-177031696D01*
X178649809Y-176823191D01*
X178439765Y-176682843D01*
X178192000Y-176633560D01*
X176392000Y-176633560D01*
X176144235Y-176682843D01*
X175934191Y-176823191D01*
X175793843Y-177033235D01*
X175744560Y-177281000D01*
X145923000Y-177281000D01*
X145923000Y-170931000D01*
X175744560Y-170931000D01*
X175744560Y-172731000D01*
X175793843Y-172978765D01*
X175934191Y-173188809D01*
X176144235Y-173329157D01*
X176392000Y-173378440D01*
X178192000Y-173378440D01*
X178439765Y-173329157D01*
X178649809Y-173188809D01*
X178790157Y-172978765D01*
X178839440Y-172731000D01*
X178839440Y-171831000D01*
X180806928Y-171831000D01*
X180926062Y-172429927D01*
X181265327Y-172937673D01*
X181773073Y-173276938D01*
X182220818Y-173366000D01*
X182523182Y-173366000D01*
X182970927Y-173276938D01*
X183478673Y-172937673D01*
X183817938Y-172429927D01*
X183937072Y-171831000D01*
X183817938Y-171232073D01*
X183478673Y-170724327D01*
X182970927Y-170385062D01*
X182523182Y-170296000D01*
X182220818Y-170296000D01*
X181773073Y-170385062D01*
X181265327Y-170724327D01*
X180926062Y-171232073D01*
X180806928Y-171831000D01*
X178839440Y-171831000D01*
X178839440Y-170931000D01*
X178790157Y-170683235D01*
X178649809Y-170473191D01*
X178439765Y-170332843D01*
X178192000Y-170283560D01*
X176392000Y-170283560D01*
X176144235Y-170332843D01*
X175934191Y-170473191D01*
X175793843Y-170683235D01*
X175744560Y-170931000D01*
X145923000Y-170931000D01*
X145923000Y-164581000D01*
X175744560Y-164581000D01*
X175744560Y-166381000D01*
X175793843Y-166628765D01*
X175934191Y-166838809D01*
X176144235Y-166979157D01*
X176392000Y-167028440D01*
X178192000Y-167028440D01*
X178439765Y-166979157D01*
X178649809Y-166838809D01*
X178789129Y-166630304D01*
X179233073Y-166926938D01*
X179680818Y-167016000D01*
X179983182Y-167016000D01*
X180430927Y-166926938D01*
X180938673Y-166587673D01*
X181277938Y-166079927D01*
X181397072Y-165481000D01*
X181277938Y-164882073D01*
X180938673Y-164374327D01*
X180694237Y-164211000D01*
X220176928Y-164211000D01*
X220296062Y-164809927D01*
X220635327Y-165317673D01*
X221143073Y-165656938D01*
X221590818Y-165746000D01*
X221893182Y-165746000D01*
X222340927Y-165656938D01*
X222784871Y-165360304D01*
X222924191Y-165568809D01*
X223134235Y-165709157D01*
X223382000Y-165758440D01*
X225182000Y-165758440D01*
X225429765Y-165709157D01*
X225639809Y-165568809D01*
X225780157Y-165358765D01*
X225829440Y-165111000D01*
X225829440Y-163311000D01*
X225780157Y-163063235D01*
X225639809Y-162853191D01*
X225429765Y-162712843D01*
X225182000Y-162663560D01*
X223382000Y-162663560D01*
X223134235Y-162712843D01*
X222924191Y-162853191D01*
X222784871Y-163061696D01*
X222340927Y-162765062D01*
X221893182Y-162676000D01*
X221590818Y-162676000D01*
X221143073Y-162765062D01*
X220635327Y-163104327D01*
X220296062Y-163612073D01*
X220176928Y-164211000D01*
X180694237Y-164211000D01*
X180430927Y-164035062D01*
X179983182Y-163946000D01*
X179680818Y-163946000D01*
X179233073Y-164035062D01*
X178789129Y-164331696D01*
X178649809Y-164123191D01*
X178439765Y-163982843D01*
X178192000Y-163933560D01*
X176392000Y-163933560D01*
X176144235Y-163982843D01*
X175934191Y-164123191D01*
X175793843Y-164333235D01*
X175744560Y-164581000D01*
X145923000Y-164581000D01*
X145923000Y-159131000D01*
X198586928Y-159131000D01*
X198706062Y-159729927D01*
X199045327Y-160237673D01*
X199553073Y-160576938D01*
X200000818Y-160666000D01*
X200303182Y-160666000D01*
X200750927Y-160576938D01*
X201258673Y-160237673D01*
X201597938Y-159729927D01*
X201717072Y-159131000D01*
X201597938Y-158532073D01*
X201258673Y-158024327D01*
X200750927Y-157685062D01*
X200303182Y-157596000D01*
X200000818Y-157596000D01*
X199553073Y-157685062D01*
X199045327Y-158024327D01*
X198706062Y-158532073D01*
X198586928Y-159131000D01*
X145923000Y-159131000D01*
X145923000Y-156591000D01*
X185886928Y-156591000D01*
X186006062Y-157189927D01*
X186345327Y-157697673D01*
X186853073Y-158036938D01*
X187300818Y-158126000D01*
X187603182Y-158126000D01*
X188050927Y-158036938D01*
X188558673Y-157697673D01*
X188897938Y-157189927D01*
X189017072Y-156591000D01*
X192236928Y-156591000D01*
X192356062Y-157189927D01*
X192695327Y-157697673D01*
X193203073Y-158036938D01*
X193650818Y-158126000D01*
X193953182Y-158126000D01*
X194400927Y-158036938D01*
X194908673Y-157697673D01*
X195247938Y-157189927D01*
X195367072Y-156591000D01*
X204936928Y-156591000D01*
X205056062Y-157189927D01*
X205395327Y-157697673D01*
X205903073Y-158036938D01*
X206350818Y-158126000D01*
X206653182Y-158126000D01*
X207100927Y-158036938D01*
X207608673Y-157697673D01*
X207947938Y-157189927D01*
X208067072Y-156591000D01*
X211286928Y-156591000D01*
X211406062Y-157189927D01*
X211745327Y-157697673D01*
X212253073Y-158036938D01*
X212700818Y-158126000D01*
X213003182Y-158126000D01*
X213450927Y-158036938D01*
X213958673Y-157697673D01*
X214297938Y-157189927D01*
X214417072Y-156591000D01*
X214297938Y-155992073D01*
X214001304Y-155548129D01*
X214209809Y-155408809D01*
X214350157Y-155198765D01*
X214399440Y-154951000D01*
X214399440Y-153151000D01*
X214350157Y-152903235D01*
X214209809Y-152693191D01*
X213999765Y-152552843D01*
X213752000Y-152503560D01*
X211952000Y-152503560D01*
X211704235Y-152552843D01*
X211494191Y-152693191D01*
X211353843Y-152903235D01*
X211304560Y-153151000D01*
X211304560Y-154951000D01*
X211353843Y-155198765D01*
X211494191Y-155408809D01*
X211702696Y-155548129D01*
X211406062Y-155992073D01*
X211286928Y-156591000D01*
X208067072Y-156591000D01*
X207947938Y-155992073D01*
X207651304Y-155548129D01*
X207859809Y-155408809D01*
X208000157Y-155198765D01*
X208049440Y-154951000D01*
X208049440Y-153151000D01*
X208000157Y-152903235D01*
X207859809Y-152693191D01*
X207649765Y-152552843D01*
X207402000Y-152503560D01*
X205602000Y-152503560D01*
X205354235Y-152552843D01*
X205144191Y-152693191D01*
X205003843Y-152903235D01*
X204954560Y-153151000D01*
X204954560Y-154951000D01*
X205003843Y-155198765D01*
X205144191Y-155408809D01*
X205352696Y-155548129D01*
X205056062Y-155992073D01*
X204936928Y-156591000D01*
X195367072Y-156591000D01*
X195247938Y-155992073D01*
X194951304Y-155548129D01*
X195159809Y-155408809D01*
X195300157Y-155198765D01*
X195349440Y-154951000D01*
X195349440Y-153151000D01*
X198604560Y-153151000D01*
X198604560Y-154951000D01*
X198653843Y-155198765D01*
X198794191Y-155408809D01*
X199004235Y-155549157D01*
X199252000Y-155598440D01*
X201052000Y-155598440D01*
X201299765Y-155549157D01*
X201509809Y-155408809D01*
X201650157Y-155198765D01*
X201699440Y-154951000D01*
X201699440Y-153151000D01*
X201650157Y-152903235D01*
X201509809Y-152693191D01*
X201299765Y-152552843D01*
X201052000Y-152503560D01*
X199252000Y-152503560D01*
X199004235Y-152552843D01*
X198794191Y-152693191D01*
X198653843Y-152903235D01*
X198604560Y-153151000D01*
X195349440Y-153151000D01*
X195300157Y-152903235D01*
X195159809Y-152693191D01*
X194949765Y-152552843D01*
X194702000Y-152503560D01*
X192902000Y-152503560D01*
X192654235Y-152552843D01*
X192444191Y-152693191D01*
X192303843Y-152903235D01*
X192254560Y-153151000D01*
X192254560Y-154951000D01*
X192303843Y-155198765D01*
X192444191Y-155408809D01*
X192652696Y-155548129D01*
X192356062Y-155992073D01*
X192236928Y-156591000D01*
X189017072Y-156591000D01*
X188897938Y-155992073D01*
X188601304Y-155548129D01*
X188809809Y-155408809D01*
X188950157Y-155198765D01*
X188999440Y-154951000D01*
X188999440Y-153151000D01*
X188950157Y-152903235D01*
X188809809Y-152693191D01*
X188599765Y-152552843D01*
X188352000Y-152503560D01*
X186552000Y-152503560D01*
X186304235Y-152552843D01*
X186094191Y-152693191D01*
X185953843Y-152903235D01*
X185904560Y-153151000D01*
X185904560Y-154951000D01*
X185953843Y-155198765D01*
X186094191Y-155408809D01*
X186302696Y-155548129D01*
X186006062Y-155992073D01*
X185886928Y-156591000D01*
X145923000Y-156591000D01*
X145923000Y-139446000D01*
X145913333Y-139397399D01*
X145885803Y-139356197D01*
X145844601Y-139328667D01*
X145796000Y-139319000D01*
X135867500Y-139319000D01*
X135867500Y-139134340D01*
X135977000Y-138869983D01*
X135977000Y-138498017D01*
X135834655Y-138154365D01*
X135571635Y-137891345D01*
X135227983Y-137749000D01*
X134856017Y-137749000D01*
X134512365Y-137891345D01*
X134249345Y-138154365D01*
X134107000Y-138498017D01*
X134107000Y-138869983D01*
X134216501Y-139134342D01*
X134216501Y-139319000D01*
X77597000Y-139319000D01*
X77597000Y-122206000D01*
X93524560Y-122206000D01*
X93524560Y-126206000D01*
X93573843Y-126453765D01*
X93714191Y-126663809D01*
X93924235Y-126804157D01*
X94172000Y-126853440D01*
X98172000Y-126853440D01*
X98419765Y-126804157D01*
X98629809Y-126663809D01*
X98770157Y-126453765D01*
X98819440Y-126206000D01*
X98819440Y-122206000D01*
X125114560Y-122206000D01*
X125114560Y-126206000D01*
X125163843Y-126453765D01*
X125304191Y-126663809D01*
X125514235Y-126804157D01*
X125762000Y-126853440D01*
X129762000Y-126853440D01*
X130009765Y-126804157D01*
X130219809Y-126663809D01*
X130360157Y-126453765D01*
X130409440Y-126206000D01*
X130409440Y-122206000D01*
X156864560Y-122206000D01*
X156864560Y-126206000D01*
X156913843Y-126453765D01*
X157054191Y-126663809D01*
X157264235Y-126804157D01*
X157512000Y-126853440D01*
X161512000Y-126853440D01*
X161759765Y-126804157D01*
X161969809Y-126663809D01*
X162110157Y-126453765D01*
X162159440Y-126206000D01*
X162159440Y-122206000D01*
X188614560Y-122206000D01*
X188614560Y-126206000D01*
X188663843Y-126453765D01*
X188804191Y-126663809D01*
X189014235Y-126804157D01*
X189262000Y-126853440D01*
X193262000Y-126853440D01*
X193509765Y-126804157D01*
X193719809Y-126663809D01*
X193860157Y-126453765D01*
X193909440Y-126206000D01*
X193909440Y-122206000D01*
X220364560Y-122206000D01*
X220364560Y-126206000D01*
X220413843Y-126453765D01*
X220554191Y-126663809D01*
X220764235Y-126804157D01*
X221012000Y-126853440D01*
X225012000Y-126853440D01*
X225259765Y-126804157D01*
X225469809Y-126663809D01*
X225610157Y-126453765D01*
X225659440Y-126206000D01*
X225659440Y-122206000D01*
X252114560Y-122206000D01*
X252114560Y-126206000D01*
X252163843Y-126453765D01*
X252304191Y-126663809D01*
X252514235Y-126804157D01*
X252762000Y-126853440D01*
X256762000Y-126853440D01*
X257009765Y-126804157D01*
X257219809Y-126663809D01*
X257360157Y-126453765D01*
X257409440Y-126206000D01*
X257409440Y-122206000D01*
X257360157Y-121958235D01*
X257219809Y-121748191D01*
X257009765Y-121607843D01*
X256762000Y-121558560D01*
X252762000Y-121558560D01*
X252514235Y-121607843D01*
X252304191Y-121748191D01*
X252163843Y-121958235D01*
X252114560Y-122206000D01*
X225659440Y-122206000D01*
X225610157Y-121958235D01*
X225469809Y-121748191D01*
X225259765Y-121607843D01*
X225012000Y-121558560D01*
X221012000Y-121558560D01*
X220764235Y-121607843D01*
X220554191Y-121748191D01*
X220413843Y-121958235D01*
X220364560Y-122206000D01*
X193909440Y-122206000D01*
X193860157Y-121958235D01*
X193719809Y-121748191D01*
X193509765Y-121607843D01*
X193262000Y-121558560D01*
X189262000Y-121558560D01*
X189014235Y-121607843D01*
X188804191Y-121748191D01*
X188663843Y-121958235D01*
X188614560Y-122206000D01*
X162159440Y-122206000D01*
X162110157Y-121958235D01*
X161969809Y-121748191D01*
X161759765Y-121607843D01*
X161512000Y-121558560D01*
X157512000Y-121558560D01*
X157264235Y-121607843D01*
X157054191Y-121748191D01*
X156913843Y-121958235D01*
X156864560Y-122206000D01*
X130409440Y-122206000D01*
X130360157Y-121958235D01*
X130219809Y-121748191D01*
X130009765Y-121607843D01*
X129762000Y-121558560D01*
X125762000Y-121558560D01*
X125514235Y-121607843D01*
X125304191Y-121748191D01*
X125163843Y-121958235D01*
X125114560Y-122206000D01*
X98819440Y-122206000D01*
X98770157Y-121958235D01*
X98629809Y-121748191D01*
X98419765Y-121607843D01*
X98172000Y-121558560D01*
X94172000Y-121558560D01*
X93924235Y-121607843D01*
X93714191Y-121748191D01*
X93573843Y-121958235D01*
X93524560Y-122206000D01*
X77597000Y-122206000D01*
X77597000Y-121158000D01*
X77587333Y-121109399D01*
X77559803Y-121068197D01*
X77518601Y-121040667D01*
X77470000Y-121031000D01*
X71374000Y-121031000D01*
X71325399Y-121040667D01*
X71284197Y-121068197D01*
X71256667Y-121109399D01*
X71247000Y-121158000D01*
X71247000Y-139319000D01*
X54483000Y-139319000D01*
X54483000Y-132334000D01*
X54473333Y-132285399D01*
X54445803Y-132244197D01*
X54404601Y-132216667D01*
X54356000Y-132207000D01*
X21152001Y-132207000D01*
X21152001Y-129851000D01*
X21262727Y-129851000D01*
X21797981Y-129744531D01*
X22404961Y-129338961D01*
X22810531Y-128731981D01*
X22952949Y-128016000D01*
X22880345Y-127650996D01*
X49727000Y-127650996D01*
X49727000Y-128381004D01*
X50006362Y-129055444D01*
X50522556Y-129571638D01*
X51196996Y-129851000D01*
X51927004Y-129851000D01*
X52601444Y-129571638D01*
X53117638Y-129055444D01*
X53397000Y-128381004D01*
X53397000Y-127650996D01*
X53117638Y-126976556D01*
X52601444Y-126460362D01*
X51927004Y-126181000D01*
X51196996Y-126181000D01*
X50522556Y-126460362D01*
X50006362Y-126976556D01*
X49727000Y-127650996D01*
X22880345Y-127650996D01*
X22810531Y-127300019D01*
X22404961Y-126693039D01*
X21797981Y-126287469D01*
X21262727Y-126181000D01*
X20901273Y-126181000D01*
X20366019Y-126287469D01*
X19759039Y-126693039D01*
X19353469Y-127300019D01*
X19211051Y-128016000D01*
X19223478Y-128078472D01*
X19072420Y-128229530D01*
X18966384Y-128300381D01*
X18895533Y-128406417D01*
X18895531Y-128406419D01*
X18685689Y-128720470D01*
X18587122Y-129215999D01*
X18612002Y-129341079D01*
X18612002Y-132207000D01*
X17474000Y-132207000D01*
X17474000Y-120030996D01*
X19247000Y-120030996D01*
X19247000Y-120761004D01*
X19526362Y-121435444D01*
X20042556Y-121951638D01*
X20716996Y-122231000D01*
X21447004Y-122231000D01*
X22121444Y-121951638D01*
X22637638Y-121435444D01*
X22917000Y-120761004D01*
X22917000Y-120396000D01*
X49691051Y-120396000D01*
X49833469Y-121111981D01*
X50239039Y-121718961D01*
X50846019Y-122124531D01*
X51381273Y-122231000D01*
X51742727Y-122231000D01*
X51868410Y-122206000D01*
X61774560Y-122206000D01*
X61774560Y-126206000D01*
X61823843Y-126453765D01*
X61964191Y-126663809D01*
X62174235Y-126804157D01*
X62422000Y-126853440D01*
X66422000Y-126853440D01*
X66669765Y-126804157D01*
X66879809Y-126663809D01*
X67020157Y-126453765D01*
X67069440Y-126206000D01*
X67069440Y-122206000D01*
X67020157Y-121958235D01*
X66879809Y-121748191D01*
X66669765Y-121607843D01*
X66422000Y-121558560D01*
X62422000Y-121558560D01*
X62174235Y-121607843D01*
X61964191Y-121748191D01*
X61823843Y-121958235D01*
X61774560Y-122206000D01*
X51868410Y-122206000D01*
X52277981Y-122124531D01*
X52884961Y-121718961D01*
X53290531Y-121111981D01*
X53432949Y-120396000D01*
X53290531Y-119680019D01*
X52884961Y-119073039D01*
X52277981Y-118667469D01*
X51742727Y-118561000D01*
X51381273Y-118561000D01*
X50846019Y-118667469D01*
X50239039Y-119073039D01*
X49833469Y-119680019D01*
X49691051Y-120396000D01*
X22917000Y-120396000D01*
X22917000Y-120030996D01*
X22637638Y-119356556D01*
X22121444Y-118840362D01*
X21447004Y-118561000D01*
X20716996Y-118561000D01*
X20042556Y-118840362D01*
X19526362Y-119356556D01*
X19247000Y-120030996D01*
X17474000Y-120030996D01*
X17474000Y-112776000D01*
X19211051Y-112776000D01*
X19353469Y-113491981D01*
X19759039Y-114098961D01*
X20366019Y-114504531D01*
X20901273Y-114611000D01*
X21262727Y-114611000D01*
X21797981Y-114504531D01*
X22404961Y-114098961D01*
X22810531Y-113491981D01*
X22952949Y-112776000D01*
X22880345Y-112410996D01*
X49727000Y-112410996D01*
X49727000Y-113141004D01*
X50006362Y-113815444D01*
X50522556Y-114331638D01*
X51196996Y-114611000D01*
X51927004Y-114611000D01*
X52601444Y-114331638D01*
X53117638Y-113815444D01*
X53397000Y-113141004D01*
X53397000Y-112410996D01*
X53117638Y-111736556D01*
X52601444Y-111220362D01*
X51927004Y-110941000D01*
X51196996Y-110941000D01*
X50522556Y-111220362D01*
X50006362Y-111736556D01*
X49727000Y-112410996D01*
X22880345Y-112410996D01*
X22810531Y-112060019D01*
X22404961Y-111453039D01*
X21797981Y-111047469D01*
X21262727Y-110941000D01*
X20901273Y-110941000D01*
X20366019Y-111047469D01*
X19759039Y-111453039D01*
X19353469Y-112060019D01*
X19211051Y-112776000D01*
X17474000Y-112776000D01*
X17474000Y-90456000D01*
X29864560Y-90456000D01*
X29864560Y-94456000D01*
X29913843Y-94703765D01*
X30054191Y-94913809D01*
X30264235Y-95054157D01*
X30512000Y-95103440D01*
X34512000Y-95103440D01*
X34759765Y-95054157D01*
X34969809Y-94913809D01*
X35110157Y-94703765D01*
X35159440Y-94456000D01*
X35159440Y-90456000D01*
X61774560Y-90456000D01*
X61774560Y-94456000D01*
X61823843Y-94703765D01*
X61964191Y-94913809D01*
X62174235Y-95054157D01*
X62422000Y-95103440D01*
X66422000Y-95103440D01*
X66669765Y-95054157D01*
X66879809Y-94913809D01*
X67020157Y-94703765D01*
X67069440Y-94456000D01*
X67069440Y-90456000D01*
X93364560Y-90456000D01*
X93364560Y-94456000D01*
X93413843Y-94703765D01*
X93554191Y-94913809D01*
X93764235Y-95054157D01*
X94012000Y-95103440D01*
X98012000Y-95103440D01*
X98259765Y-95054157D01*
X98469809Y-94913809D01*
X98610157Y-94703765D01*
X98659440Y-94456000D01*
X98659440Y-90456000D01*
X125114560Y-90456000D01*
X125114560Y-94456000D01*
X125163843Y-94703765D01*
X125304191Y-94913809D01*
X125514235Y-95054157D01*
X125762000Y-95103440D01*
X129762000Y-95103440D01*
X130009765Y-95054157D01*
X130219809Y-94913809D01*
X130360157Y-94703765D01*
X130409440Y-94456000D01*
X130409440Y-90456000D01*
X157024560Y-90456000D01*
X157024560Y-94456000D01*
X157073843Y-94703765D01*
X157214191Y-94913809D01*
X157424235Y-95054157D01*
X157672000Y-95103440D01*
X161672000Y-95103440D01*
X161919765Y-95054157D01*
X162129809Y-94913809D01*
X162270157Y-94703765D01*
X162319440Y-94456000D01*
X162319440Y-90456000D01*
X188614560Y-90456000D01*
X188614560Y-94456000D01*
X188663843Y-94703765D01*
X188804191Y-94913809D01*
X189014235Y-95054157D01*
X189262000Y-95103440D01*
X193262000Y-95103440D01*
X193509765Y-95054157D01*
X193719809Y-94913809D01*
X193860157Y-94703765D01*
X193909440Y-94456000D01*
X193909440Y-90456000D01*
X220364560Y-90456000D01*
X220364560Y-94456000D01*
X220413843Y-94703765D01*
X220554191Y-94913809D01*
X220764235Y-95054157D01*
X221012000Y-95103440D01*
X225012000Y-95103440D01*
X225259765Y-95054157D01*
X225469809Y-94913809D01*
X225610157Y-94703765D01*
X225659440Y-94456000D01*
X225659440Y-90456000D01*
X252114560Y-90456000D01*
X252114560Y-94456000D01*
X252163843Y-94703765D01*
X252304191Y-94913809D01*
X252514235Y-95054157D01*
X252762000Y-95103440D01*
X256762000Y-95103440D01*
X257009765Y-95054157D01*
X257219809Y-94913809D01*
X257360157Y-94703765D01*
X257409440Y-94456000D01*
X257409440Y-90456000D01*
X257360157Y-90208235D01*
X257219809Y-89998191D01*
X257009765Y-89857843D01*
X256762000Y-89808560D01*
X252762000Y-89808560D01*
X252514235Y-89857843D01*
X252304191Y-89998191D01*
X252163843Y-90208235D01*
X252114560Y-90456000D01*
X225659440Y-90456000D01*
X225610157Y-90208235D01*
X225469809Y-89998191D01*
X225259765Y-89857843D01*
X225012000Y-89808560D01*
X221012000Y-89808560D01*
X220764235Y-89857843D01*
X220554191Y-89998191D01*
X220413843Y-90208235D01*
X220364560Y-90456000D01*
X193909440Y-90456000D01*
X193860157Y-90208235D01*
X193719809Y-89998191D01*
X193509765Y-89857843D01*
X193262000Y-89808560D01*
X189262000Y-89808560D01*
X189014235Y-89857843D01*
X188804191Y-89998191D01*
X188663843Y-90208235D01*
X188614560Y-90456000D01*
X162319440Y-90456000D01*
X162270157Y-90208235D01*
X162129809Y-89998191D01*
X161919765Y-89857843D01*
X161672000Y-89808560D01*
X157672000Y-89808560D01*
X157424235Y-89857843D01*
X157214191Y-89998191D01*
X157073843Y-90208235D01*
X157024560Y-90456000D01*
X130409440Y-90456000D01*
X130360157Y-90208235D01*
X130219809Y-89998191D01*
X130009765Y-89857843D01*
X129762000Y-89808560D01*
X125762000Y-89808560D01*
X125514235Y-89857843D01*
X125304191Y-89998191D01*
X125163843Y-90208235D01*
X125114560Y-90456000D01*
X98659440Y-90456000D01*
X98610157Y-90208235D01*
X98469809Y-89998191D01*
X98259765Y-89857843D01*
X98012000Y-89808560D01*
X94012000Y-89808560D01*
X93764235Y-89857843D01*
X93554191Y-89998191D01*
X93413843Y-90208235D01*
X93364560Y-90456000D01*
X67069440Y-90456000D01*
X67020157Y-90208235D01*
X66879809Y-89998191D01*
X66669765Y-89857843D01*
X66422000Y-89808560D01*
X62422000Y-89808560D01*
X62174235Y-89857843D01*
X61964191Y-89998191D01*
X61823843Y-90208235D01*
X61774560Y-90456000D01*
X35159440Y-90456000D01*
X35110157Y-90208235D01*
X34969809Y-89998191D01*
X34759765Y-89857843D01*
X34512000Y-89808560D01*
X30512000Y-89808560D01*
X30264235Y-89857843D01*
X30054191Y-89998191D01*
X29913843Y-90208235D01*
X29864560Y-90456000D01*
X17474000Y-90456000D01*
X17474000Y-76037593D01*
X146164300Y-76037593D01*
X146164300Y-77022807D01*
X146541324Y-77933025D01*
X147237975Y-78629676D01*
X148148193Y-79006700D01*
X149133407Y-79006700D01*
X150043625Y-78629676D01*
X150740276Y-77933025D01*
X151117300Y-77022807D01*
X151117300Y-76037593D01*
X150740276Y-75127375D01*
X150043625Y-74430724D01*
X149133407Y-74053700D01*
X148148193Y-74053700D01*
X147237975Y-74430724D01*
X146541324Y-75127375D01*
X146164300Y-76037593D01*
X17474000Y-76037593D01*
X17474000Y-58706000D01*
X29864560Y-58706000D01*
X29864560Y-62706000D01*
X29913843Y-62953765D01*
X30054191Y-63163809D01*
X30264235Y-63304157D01*
X30512000Y-63353440D01*
X34512000Y-63353440D01*
X34759765Y-63304157D01*
X34969809Y-63163809D01*
X35110157Y-62953765D01*
X35159440Y-62706000D01*
X35159440Y-58706000D01*
X61614560Y-58706000D01*
X61614560Y-62706000D01*
X61663843Y-62953765D01*
X61804191Y-63163809D01*
X62014235Y-63304157D01*
X62262000Y-63353440D01*
X66262000Y-63353440D01*
X66509765Y-63304157D01*
X66719809Y-63163809D01*
X66860157Y-62953765D01*
X66909440Y-62706000D01*
X66909440Y-58706000D01*
X93364560Y-58706000D01*
X93364560Y-62706000D01*
X93413843Y-62953765D01*
X93554191Y-63163809D01*
X93764235Y-63304157D01*
X94012000Y-63353440D01*
X98012000Y-63353440D01*
X98259765Y-63304157D01*
X98469809Y-63163809D01*
X98610157Y-62953765D01*
X98659440Y-62706000D01*
X98659440Y-58706000D01*
X125114560Y-58706000D01*
X125114560Y-62706000D01*
X125163843Y-62953765D01*
X125304191Y-63163809D01*
X125514235Y-63304157D01*
X125762000Y-63353440D01*
X129762000Y-63353440D01*
X130009765Y-63304157D01*
X130219809Y-63163809D01*
X130360157Y-62953765D01*
X130409440Y-62706000D01*
X130409440Y-58706000D01*
X156864560Y-58706000D01*
X156864560Y-62706000D01*
X156913843Y-62953765D01*
X157054191Y-63163809D01*
X157264235Y-63304157D01*
X157512000Y-63353440D01*
X161512000Y-63353440D01*
X161759765Y-63304157D01*
X161969809Y-63163809D01*
X162110157Y-62953765D01*
X162159440Y-62706000D01*
X162159440Y-58706000D01*
X188614560Y-58706000D01*
X188614560Y-62706000D01*
X188663843Y-62953765D01*
X188804191Y-63163809D01*
X189014235Y-63304157D01*
X189262000Y-63353440D01*
X193262000Y-63353440D01*
X193509765Y-63304157D01*
X193719809Y-63163809D01*
X193860157Y-62953765D01*
X193909440Y-62706000D01*
X193909440Y-58706000D01*
X220364560Y-58706000D01*
X220364560Y-62706000D01*
X220413843Y-62953765D01*
X220554191Y-63163809D01*
X220764235Y-63304157D01*
X221012000Y-63353440D01*
X225012000Y-63353440D01*
X225259765Y-63304157D01*
X225469809Y-63163809D01*
X225610157Y-62953765D01*
X225659440Y-62706000D01*
X225659440Y-58706000D01*
X252114560Y-58706000D01*
X252114560Y-62706000D01*
X252163843Y-62953765D01*
X252304191Y-63163809D01*
X252514235Y-63304157D01*
X252762000Y-63353440D01*
X256762000Y-63353440D01*
X257009765Y-63304157D01*
X257219809Y-63163809D01*
X257360157Y-62953765D01*
X257409440Y-62706000D01*
X257409440Y-58706000D01*
X257360157Y-58458235D01*
X257219809Y-58248191D01*
X257009765Y-58107843D01*
X256762000Y-58058560D01*
X252762000Y-58058560D01*
X252514235Y-58107843D01*
X252304191Y-58248191D01*
X252163843Y-58458235D01*
X252114560Y-58706000D01*
X225659440Y-58706000D01*
X225610157Y-58458235D01*
X225469809Y-58248191D01*
X225259765Y-58107843D01*
X225012000Y-58058560D01*
X221012000Y-58058560D01*
X220764235Y-58107843D01*
X220554191Y-58248191D01*
X220413843Y-58458235D01*
X220364560Y-58706000D01*
X193909440Y-58706000D01*
X193860157Y-58458235D01*
X193719809Y-58248191D01*
X193509765Y-58107843D01*
X193262000Y-58058560D01*
X189262000Y-58058560D01*
X189014235Y-58107843D01*
X188804191Y-58248191D01*
X188663843Y-58458235D01*
X188614560Y-58706000D01*
X162159440Y-58706000D01*
X162110157Y-58458235D01*
X161969809Y-58248191D01*
X161759765Y-58107843D01*
X161512000Y-58058560D01*
X157512000Y-58058560D01*
X157264235Y-58107843D01*
X157054191Y-58248191D01*
X156913843Y-58458235D01*
X156864560Y-58706000D01*
X130409440Y-58706000D01*
X130360157Y-58458235D01*
X130219809Y-58248191D01*
X130009765Y-58107843D01*
X129762000Y-58058560D01*
X125762000Y-58058560D01*
X125514235Y-58107843D01*
X125304191Y-58248191D01*
X125163843Y-58458235D01*
X125114560Y-58706000D01*
X98659440Y-58706000D01*
X98610157Y-58458235D01*
X98469809Y-58248191D01*
X98259765Y-58107843D01*
X98012000Y-58058560D01*
X94012000Y-58058560D01*
X93764235Y-58107843D01*
X93554191Y-58248191D01*
X93413843Y-58458235D01*
X93364560Y-58706000D01*
X66909440Y-58706000D01*
X66860157Y-58458235D01*
X66719809Y-58248191D01*
X66509765Y-58107843D01*
X66262000Y-58058560D01*
X62262000Y-58058560D01*
X62014235Y-58107843D01*
X61804191Y-58248191D01*
X61663843Y-58458235D01*
X61614560Y-58706000D01*
X35159440Y-58706000D01*
X35110157Y-58458235D01*
X34969809Y-58248191D01*
X34759765Y-58107843D01*
X34512000Y-58058560D01*
X30512000Y-58058560D01*
X30264235Y-58107843D01*
X30054191Y-58248191D01*
X29913843Y-58458235D01*
X29864560Y-58706000D01*
X17474000Y-58706000D01*
X17474000Y-26956000D01*
X29864560Y-26956000D01*
X29864560Y-30956000D01*
X29913843Y-31203765D01*
X30054191Y-31413809D01*
X30264235Y-31554157D01*
X30512000Y-31603440D01*
X34512000Y-31603440D01*
X34759765Y-31554157D01*
X34969809Y-31413809D01*
X35110157Y-31203765D01*
X35159440Y-30956000D01*
X35159440Y-26956000D01*
X61614560Y-26956000D01*
X61614560Y-30956000D01*
X61663843Y-31203765D01*
X61804191Y-31413809D01*
X62014235Y-31554157D01*
X62262000Y-31603440D01*
X66262000Y-31603440D01*
X66509765Y-31554157D01*
X66719809Y-31413809D01*
X66860157Y-31203765D01*
X66909440Y-30956000D01*
X66909440Y-26956000D01*
X93364560Y-26956000D01*
X93364560Y-30956000D01*
X93413843Y-31203765D01*
X93554191Y-31413809D01*
X93764235Y-31554157D01*
X94012000Y-31603440D01*
X98012000Y-31603440D01*
X98259765Y-31554157D01*
X98469809Y-31413809D01*
X98610157Y-31203765D01*
X98659440Y-30956000D01*
X98659440Y-26956000D01*
X125114560Y-26956000D01*
X125114560Y-30956000D01*
X125163843Y-31203765D01*
X125304191Y-31413809D01*
X125514235Y-31554157D01*
X125762000Y-31603440D01*
X129762000Y-31603440D01*
X130009765Y-31554157D01*
X130219809Y-31413809D01*
X130360157Y-31203765D01*
X130409440Y-30956000D01*
X130409440Y-26956000D01*
X156864560Y-26956000D01*
X156864560Y-30956000D01*
X156913843Y-31203765D01*
X157054191Y-31413809D01*
X157264235Y-31554157D01*
X157512000Y-31603440D01*
X161512000Y-31603440D01*
X161759765Y-31554157D01*
X161969809Y-31413809D01*
X162110157Y-31203765D01*
X162159440Y-30956000D01*
X162159440Y-26956000D01*
X188614560Y-26956000D01*
X188614560Y-30956000D01*
X188663843Y-31203765D01*
X188804191Y-31413809D01*
X189014235Y-31554157D01*
X189262000Y-31603440D01*
X193262000Y-31603440D01*
X193509765Y-31554157D01*
X193719809Y-31413809D01*
X193860157Y-31203765D01*
X193909440Y-30956000D01*
X193909440Y-26956000D01*
X220364560Y-26956000D01*
X220364560Y-30956000D01*
X220413843Y-31203765D01*
X220554191Y-31413809D01*
X220764235Y-31554157D01*
X221012000Y-31603440D01*
X225012000Y-31603440D01*
X225259765Y-31554157D01*
X225469809Y-31413809D01*
X225610157Y-31203765D01*
X225659440Y-30956000D01*
X225659440Y-26956000D01*
X252114560Y-26956000D01*
X252114560Y-30956000D01*
X252163843Y-31203765D01*
X252304191Y-31413809D01*
X252514235Y-31554157D01*
X252762000Y-31603440D01*
X256762000Y-31603440D01*
X257009765Y-31554157D01*
X257219809Y-31413809D01*
X257360157Y-31203765D01*
X257409440Y-30956000D01*
X257409440Y-26956000D01*
X257360157Y-26708235D01*
X257219809Y-26498191D01*
X257009765Y-26357843D01*
X256762000Y-26308560D01*
X252762000Y-26308560D01*
X252514235Y-26357843D01*
X252304191Y-26498191D01*
X252163843Y-26708235D01*
X252114560Y-26956000D01*
X225659440Y-26956000D01*
X225610157Y-26708235D01*
X225469809Y-26498191D01*
X225259765Y-26357843D01*
X225012000Y-26308560D01*
X221012000Y-26308560D01*
X220764235Y-26357843D01*
X220554191Y-26498191D01*
X220413843Y-26708235D01*
X220364560Y-26956000D01*
X193909440Y-26956000D01*
X193860157Y-26708235D01*
X193719809Y-26498191D01*
X193509765Y-26357843D01*
X193262000Y-26308560D01*
X189262000Y-26308560D01*
X189014235Y-26357843D01*
X188804191Y-26498191D01*
X188663843Y-26708235D01*
X188614560Y-26956000D01*
X162159440Y-26956000D01*
X162110157Y-26708235D01*
X161969809Y-26498191D01*
X161759765Y-26357843D01*
X161512000Y-26308560D01*
X157512000Y-26308560D01*
X157264235Y-26357843D01*
X157054191Y-26498191D01*
X156913843Y-26708235D01*
X156864560Y-26956000D01*
X130409440Y-26956000D01*
X130360157Y-26708235D01*
X130219809Y-26498191D01*
X130009765Y-26357843D01*
X129762000Y-26308560D01*
X125762000Y-26308560D01*
X125514235Y-26357843D01*
X125304191Y-26498191D01*
X125163843Y-26708235D01*
X125114560Y-26956000D01*
X98659440Y-26956000D01*
X98610157Y-26708235D01*
X98469809Y-26498191D01*
X98259765Y-26357843D01*
X98012000Y-26308560D01*
X94012000Y-26308560D01*
X93764235Y-26357843D01*
X93554191Y-26498191D01*
X93413843Y-26708235D01*
X93364560Y-26956000D01*
X66909440Y-26956000D01*
X66860157Y-26708235D01*
X66719809Y-26498191D01*
X66509765Y-26357843D01*
X66262000Y-26308560D01*
X62262000Y-26308560D01*
X62014235Y-26357843D01*
X61804191Y-26498191D01*
X61663843Y-26708235D01*
X61614560Y-26956000D01*
X35159440Y-26956000D01*
X35110157Y-26708235D01*
X34969809Y-26498191D01*
X34759765Y-26357843D01*
X34512000Y-26308560D01*
X30512000Y-26308560D01*
X30264235Y-26357843D01*
X30054191Y-26498191D01*
X29913843Y-26708235D01*
X29864560Y-26956000D01*
X17474000Y-26956000D01*
X17474000Y-17561964D01*
X17527690Y-17033393D01*
X18097500Y-17033393D01*
X18097500Y-18018607D01*
X18474524Y-18928825D01*
X19171175Y-19625476D01*
X20081393Y-20002500D01*
X21066607Y-20002500D01*
X21976825Y-19625476D01*
X22673476Y-18928825D01*
X23050500Y-18018607D01*
X23050500Y-17033393D01*
X274129500Y-17033393D01*
X274129500Y-18018607D01*
X274506524Y-18928825D01*
X275203175Y-19625476D01*
X276113393Y-20002500D01*
X277098607Y-20002500D01*
X278008825Y-19625476D01*
X278705476Y-18928825D01*
X279082500Y-18018607D01*
X279082500Y-17033393D01*
X278705476Y-16123175D01*
X278008825Y-15426524D01*
X277098607Y-15049500D01*
X276113393Y-15049500D01*
X275203175Y-15426524D01*
X274506524Y-16123175D01*
X274129500Y-17033393D01*
X23050500Y-17033393D01*
X22673476Y-16123175D01*
X21976825Y-15426524D01*
X21066607Y-15049500D01*
X20081393Y-15049500D01*
X19171175Y-15426524D01*
X18474524Y-16123175D01*
X18097500Y-17033393D01*
X17527690Y-17033393D01*
X17540895Y-16903396D01*
X17728039Y-16306218D01*
X18031436Y-15758876D01*
X18438701Y-15283711D01*
X18933188Y-14900148D01*
X19494700Y-14623850D01*
X20108774Y-14463896D01*
X20601270Y-14426000D01*
X276570036Y-14426000D01*
X277228604Y-14492895D01*
G36*
X76835000Y-139954000D02*
X76844667Y-140002601D01*
X76872197Y-140043803D01*
X76913399Y-140071333D01*
X76962000Y-140081000D01*
X134216501Y-140081000D01*
X134216500Y-154812660D01*
X134107000Y-155077017D01*
X134107000Y-155448983D01*
X134249345Y-155792635D01*
X134512365Y-156055655D01*
X134856017Y-156198000D01*
X135227983Y-156198000D01*
X135571635Y-156055655D01*
X135834655Y-155792635D01*
X135977000Y-155448983D01*
X135977000Y-155077017D01*
X135867500Y-154812660D01*
X135867500Y-140081000D01*
X145161000Y-140081000D01*
X145161000Y-150724566D01*
X143897209Y-149460777D01*
X143851152Y-149391848D01*
X143578094Y-149209396D01*
X143337303Y-149161500D01*
X143337301Y-149161500D01*
X143256000Y-149145328D01*
X143174699Y-149161500D01*
X138118340Y-149161500D01*
X137853983Y-149052000D01*
X137482017Y-149052000D01*
X137138365Y-149194345D01*
X136875345Y-149457365D01*
X136733000Y-149801017D01*
X136733000Y-150172983D01*
X136875345Y-150516635D01*
X137138365Y-150779655D01*
X137482017Y-150922000D01*
X137853983Y-150922000D01*
X138118340Y-150812500D01*
X142914068Y-150812500D01*
X143954500Y-151852934D01*
X143954501Y-183052694D01*
X143938328Y-183134000D01*
X144002397Y-183456094D01*
X144184849Y-183729152D01*
X144253775Y-183775207D01*
X145154793Y-184676226D01*
X145161000Y-184685515D01*
X145161000Y-195886000D01*
X136825000Y-195886000D01*
X136825000Y-195648017D01*
X136682655Y-195304365D01*
X136419635Y-195041345D01*
X136075983Y-194899000D01*
X135704017Y-194899000D01*
X135439660Y-195008500D01*
X122878340Y-195008500D01*
X122613983Y-194899000D01*
X122242017Y-194899000D01*
X121898365Y-195041345D01*
X121635345Y-195304365D01*
X121493000Y-195648017D01*
X121493000Y-195886000D01*
X97381433Y-195886000D01*
X97554226Y-195713207D01*
X97623152Y-195667152D01*
X97752650Y-195473345D01*
X97805604Y-195394095D01*
X97869672Y-195072000D01*
X97853500Y-194990697D01*
X97853500Y-191458340D01*
X97963000Y-191193983D01*
X97963000Y-190822017D01*
X97820655Y-190478365D01*
X97557635Y-190215345D01*
X97213983Y-190073000D01*
X96842017Y-190073000D01*
X96498365Y-190215345D01*
X96235345Y-190478365D01*
X96093000Y-190822017D01*
X96093000Y-191193983D01*
X96202501Y-191458342D01*
X96202500Y-194730067D01*
X95924068Y-195008500D01*
X69549052Y-195008500D01*
X69569440Y-194906000D01*
X69569440Y-193206000D01*
X69520157Y-192958235D01*
X69379809Y-192748191D01*
X69169765Y-192607843D01*
X69124381Y-192598816D01*
X69142625Y-192586625D01*
X69470839Y-192095418D01*
X69477373Y-192062567D01*
X83492000Y-192062567D01*
X83492000Y-193001433D01*
X83851289Y-193868833D01*
X84515167Y-194532711D01*
X85382567Y-194892000D01*
X86321433Y-194892000D01*
X87188833Y-194532711D01*
X87852711Y-193868833D01*
X88212000Y-193001433D01*
X88212000Y-192062567D01*
X91112000Y-192062567D01*
X91112000Y-193001433D01*
X91471289Y-193868833D01*
X92135167Y-194532711D01*
X93002567Y-194892000D01*
X93941433Y-194892000D01*
X94808833Y-194532711D01*
X95472711Y-193868833D01*
X95832000Y-193001433D01*
X95832000Y-192062567D01*
X95472711Y-191195167D01*
X94808833Y-190531289D01*
X93941433Y-190172000D01*
X93002567Y-190172000D01*
X92135167Y-190531289D01*
X91471289Y-191195167D01*
X91112000Y-192062567D01*
X88212000Y-192062567D01*
X87852711Y-191195167D01*
X87188833Y-190531289D01*
X86321433Y-190172000D01*
X85382567Y-190172000D01*
X84515167Y-190531289D01*
X83851289Y-191195167D01*
X83492000Y-192062567D01*
X69477373Y-192062567D01*
X69586092Y-191516000D01*
X69528578Y-191226855D01*
X71646226Y-189109207D01*
X71715152Y-189063152D01*
X71897604Y-188790094D01*
X71945500Y-188549303D01*
X71945500Y-188549302D01*
X71961672Y-188468000D01*
X71945500Y-188386699D01*
X71945500Y-183618119D01*
X88265000Y-183618119D01*
X88265000Y-184173881D01*
X88477680Y-184687337D01*
X88836500Y-185046157D01*
X88836500Y-185338698D01*
X88820328Y-185420000D01*
X88836500Y-185501301D01*
X88836500Y-185501302D01*
X88884396Y-185742093D01*
X89066848Y-186015152D01*
X89135777Y-186061209D01*
X89655793Y-186581226D01*
X89701848Y-186650152D01*
X89770773Y-186696206D01*
X89974906Y-186832604D01*
X90297000Y-186896672D01*
X90378303Y-186880500D01*
X106933660Y-186880500D01*
X107198017Y-186990000D01*
X107569983Y-186990000D01*
X107913635Y-186847655D01*
X108140501Y-186620789D01*
X108140501Y-188017658D01*
X108031000Y-188282017D01*
X108031000Y-188653983D01*
X108173345Y-188997635D01*
X108436365Y-189260655D01*
X108780017Y-189403000D01*
X109151983Y-189403000D01*
X109495635Y-189260655D01*
X109758655Y-188997635D01*
X109901000Y-188653983D01*
X109901000Y-188282017D01*
X109791500Y-188017660D01*
X109791500Y-183838340D01*
X109901000Y-183573983D01*
X109901000Y-183202017D01*
X109758655Y-182858365D01*
X109495635Y-182595345D01*
X109151983Y-182453000D01*
X108780017Y-182453000D01*
X108436365Y-182595345D01*
X108173345Y-182858365D01*
X108031000Y-183202017D01*
X108031000Y-183573983D01*
X108140500Y-183838340D01*
X108140500Y-185489210D01*
X107913635Y-185262345D01*
X107569983Y-185120000D01*
X107198017Y-185120000D01*
X106933660Y-185229500D01*
X92633184Y-185229500D01*
X92993337Y-185080320D01*
X93386320Y-184687337D01*
X93599000Y-184173881D01*
X93599000Y-183618119D01*
X93386320Y-183104663D01*
X92993337Y-182711680D01*
X92479881Y-182499000D01*
X91924119Y-182499000D01*
X91410663Y-182711680D01*
X91017680Y-183104663D01*
X90932000Y-183311513D01*
X90846320Y-183104663D01*
X90453337Y-182711680D01*
X89939881Y-182499000D01*
X89384119Y-182499000D01*
X88870663Y-182711680D01*
X88477680Y-183104663D01*
X88265000Y-183618119D01*
X71945500Y-183618119D01*
X71945500Y-170757340D01*
X72055000Y-170492983D01*
X72055000Y-170121017D01*
X71974222Y-169926000D01*
X112328887Y-169926000D01*
X112440260Y-170485909D01*
X112757423Y-170960577D01*
X113109758Y-171196000D01*
X112757423Y-171431423D01*
X112440260Y-171906091D01*
X112328887Y-172466000D01*
X112440260Y-173025909D01*
X112757423Y-173500577D01*
X113109758Y-173736000D01*
X112757423Y-173971423D01*
X112440260Y-174446091D01*
X112328887Y-175006000D01*
X112440260Y-175565909D01*
X112757423Y-176040577D01*
X113109758Y-176276000D01*
X112757423Y-176511423D01*
X112440260Y-176986091D01*
X112328887Y-177546000D01*
X112440260Y-178105909D01*
X112757423Y-178580577D01*
X113109758Y-178816000D01*
X112757423Y-179051423D01*
X112440260Y-179526091D01*
X112328887Y-180086000D01*
X112440260Y-180645909D01*
X112757423Y-181120577D01*
X113109758Y-181356000D01*
X112757423Y-181591423D01*
X112440260Y-182066091D01*
X112328887Y-182626000D01*
X112440260Y-183185909D01*
X112757423Y-183660577D01*
X113232091Y-183977740D01*
X113650667Y-184061000D01*
X113933333Y-184061000D01*
X114351909Y-183977740D01*
X114826577Y-183660577D01*
X115143740Y-183185909D01*
X115255113Y-182626000D01*
X115143740Y-182066091D01*
X114826577Y-181591423D01*
X114474242Y-181356000D01*
X114826577Y-181120577D01*
X115143740Y-180645909D01*
X115255113Y-180086000D01*
X115143740Y-179526091D01*
X114826577Y-179051423D01*
X114474242Y-178816000D01*
X114826577Y-178580577D01*
X115143740Y-178105909D01*
X115255113Y-177546000D01*
X115143740Y-176986091D01*
X114826577Y-176511423D01*
X114474242Y-176276000D01*
X114826577Y-176040577D01*
X115143740Y-175565909D01*
X115255113Y-175006000D01*
X115143740Y-174446091D01*
X114826577Y-173971423D01*
X114474242Y-173736000D01*
X114826577Y-173500577D01*
X115143740Y-173025909D01*
X115255113Y-172466000D01*
X115197910Y-172178417D01*
X116971800Y-172178417D01*
X116971800Y-172550383D01*
X117081300Y-172814740D01*
X117081301Y-174301658D01*
X116971800Y-174566017D01*
X116971800Y-174937983D01*
X117114145Y-175281635D01*
X117377165Y-175544655D01*
X117720817Y-175687000D01*
X118092783Y-175687000D01*
X118436435Y-175544655D01*
X118699455Y-175281635D01*
X118841800Y-174937983D01*
X118841800Y-174566017D01*
X118732300Y-174301660D01*
X118732300Y-172814740D01*
X118841800Y-172550383D01*
X118841800Y-172178417D01*
X118699455Y-171834765D01*
X118436435Y-171571745D01*
X118092783Y-171429400D01*
X117720817Y-171429400D01*
X117377165Y-171571745D01*
X117114145Y-171834765D01*
X116971800Y-172178417D01*
X115197910Y-172178417D01*
X115143740Y-171906091D01*
X114826577Y-171431423D01*
X114474242Y-171196000D01*
X114826577Y-170960577D01*
X115143740Y-170485909D01*
X115255113Y-169926000D01*
X115143740Y-169366091D01*
X114826577Y-168891423D01*
X114351909Y-168574260D01*
X113933333Y-168491000D01*
X113650667Y-168491000D01*
X113232091Y-168574260D01*
X112757423Y-168891423D01*
X112440260Y-169366091D01*
X112328887Y-169926000D01*
X71974222Y-169926000D01*
X71912655Y-169777365D01*
X71649635Y-169514345D01*
X71305983Y-169372000D01*
X70934017Y-169372000D01*
X70590365Y-169514345D01*
X70327345Y-169777365D01*
X70232227Y-170007000D01*
X70045017Y-170007000D01*
X69701365Y-170149345D01*
X69438345Y-170412365D01*
X69296000Y-170756017D01*
X69296000Y-171127983D01*
X69405501Y-171392341D01*
X69405500Y-172015660D01*
X69372655Y-171936365D01*
X69109635Y-171673345D01*
X68765983Y-171531000D01*
X68394017Y-171531000D01*
X68050365Y-171673345D01*
X67787345Y-171936365D01*
X67645000Y-172280017D01*
X67645000Y-172651983D01*
X67754500Y-172916340D01*
X67754501Y-183399211D01*
X67585635Y-183230345D01*
X67241983Y-183088000D01*
X66870017Y-183088000D01*
X66605660Y-183197500D01*
X63442340Y-183197500D01*
X63177983Y-183088000D01*
X62806017Y-183088000D01*
X62462365Y-183230345D01*
X62199345Y-183493365D01*
X62057000Y-183837017D01*
X62057000Y-184208983D01*
X62199345Y-184552635D01*
X62462365Y-184815655D01*
X62806017Y-184958000D01*
X63177983Y-184958000D01*
X63442340Y-184848500D01*
X66605660Y-184848500D01*
X66870017Y-184958000D01*
X67241983Y-184958000D01*
X67585635Y-184815655D01*
X67754501Y-184646789D01*
X67754501Y-185586066D01*
X66021775Y-187318793D01*
X65952849Y-187364848D01*
X65906794Y-187433774D01*
X65770397Y-187637906D01*
X65706328Y-187960000D01*
X65722501Y-188041306D01*
X65722500Y-193681698D01*
X65706328Y-193763000D01*
X65722500Y-193844301D01*
X65722500Y-193844302D01*
X65770396Y-194085093D01*
X65952848Y-194358152D01*
X66021777Y-194404209D01*
X66199791Y-194582223D01*
X66245848Y-194651152D01*
X66518906Y-194833604D01*
X66574560Y-194844674D01*
X66574560Y-194906000D01*
X66594948Y-195008500D01*
X46188934Y-195008500D01*
X42690614Y-191510180D01*
X56527000Y-191510180D01*
X56527000Y-191941820D01*
X56692182Y-192340603D01*
X56997397Y-192645818D01*
X57396180Y-192811000D01*
X57827820Y-192811000D01*
X58226603Y-192645818D01*
X58531818Y-192340603D01*
X58697000Y-191941820D01*
X58697000Y-191510180D01*
X60927000Y-191510180D01*
X60927000Y-191941820D01*
X61092182Y-192340603D01*
X61397397Y-192645818D01*
X61796180Y-192811000D01*
X62227820Y-192811000D01*
X62626603Y-192645818D01*
X62931818Y-192340603D01*
X63097000Y-191941820D01*
X63097000Y-191510180D01*
X62931818Y-191111397D01*
X62626603Y-190806182D01*
X62227820Y-190641000D01*
X61796180Y-190641000D01*
X61397397Y-190806182D01*
X61092182Y-191111397D01*
X60927000Y-191510180D01*
X58697000Y-191510180D01*
X58531818Y-191111397D01*
X58226603Y-190806182D01*
X57827820Y-190641000D01*
X57396180Y-190641000D01*
X56997397Y-190806182D01*
X56692182Y-191111397D01*
X56527000Y-191510180D01*
X42690614Y-191510180D01*
X38367156Y-187186724D01*
X38257655Y-186922365D01*
X37994635Y-186659345D01*
X37650983Y-186517000D01*
X37279017Y-186517000D01*
X36935365Y-186659345D01*
X36672345Y-186922365D01*
X36530000Y-187266017D01*
X36530000Y-187637983D01*
X36672345Y-187981635D01*
X36935365Y-188244655D01*
X37199724Y-188354156D01*
X44731566Y-195886000D01*
X20609964Y-195886000D01*
X19951396Y-195819105D01*
X19354218Y-195631961D01*
X18806875Y-195328563D01*
X18331711Y-194921299D01*
X17948148Y-194426812D01*
X17671852Y-193865304D01*
X17511896Y-193251227D01*
X17474000Y-192758730D01*
X17474000Y-192293393D01*
X18097500Y-192293393D01*
X18097500Y-193278607D01*
X18474524Y-194188825D01*
X19171175Y-194885476D01*
X20081393Y-195262500D01*
X21066607Y-195262500D01*
X21976825Y-194885476D01*
X22673476Y-194188825D01*
X23050500Y-193278607D01*
X23050500Y-192293393D01*
X22673476Y-191383175D01*
X21976825Y-190686524D01*
X21066607Y-190309500D01*
X20081393Y-190309500D01*
X19171175Y-190686524D01*
X18474524Y-191383175D01*
X18097500Y-192293393D01*
X17474000Y-192293393D01*
X17474000Y-183007000D01*
X54356000Y-183007000D01*
X54404601Y-182997333D01*
X54445803Y-182969803D01*
X54473333Y-182928601D01*
X54483000Y-182880000D01*
X54483000Y-167386000D01*
X119948887Y-167386000D01*
X120060260Y-167945909D01*
X120377423Y-168420577D01*
X120729758Y-168656000D01*
X120377423Y-168891423D01*
X120060260Y-169366091D01*
X119948887Y-169926000D01*
X120060260Y-170485909D01*
X120377423Y-170960577D01*
X120729758Y-171196000D01*
X120377423Y-171431423D01*
X120060260Y-171906091D01*
X119948887Y-172466000D01*
X120060260Y-173025909D01*
X120377423Y-173500577D01*
X120729758Y-173736000D01*
X120377423Y-173971423D01*
X120060260Y-174446091D01*
X119948887Y-175006000D01*
X120060260Y-175565909D01*
X120377423Y-176040577D01*
X120729758Y-176276000D01*
X120377423Y-176511423D01*
X120060260Y-176986091D01*
X119948887Y-177546000D01*
X120060260Y-178105909D01*
X120377423Y-178580577D01*
X120729758Y-178816000D01*
X120377423Y-179051423D01*
X120060260Y-179526091D01*
X119948887Y-180086000D01*
X120060260Y-180645909D01*
X120377423Y-181120577D01*
X120729758Y-181356000D01*
X120377423Y-181591423D01*
X120060260Y-182066091D01*
X119948887Y-182626000D01*
X120060260Y-183185909D01*
X120377423Y-183660577D01*
X120852091Y-183977740D01*
X121270667Y-184061000D01*
X121553333Y-184061000D01*
X121971909Y-183977740D01*
X122446577Y-183660577D01*
X122763740Y-183185909D01*
X122875113Y-182626000D01*
X122763740Y-182066091D01*
X122446577Y-181591423D01*
X122094242Y-181356000D01*
X122446577Y-181120577D01*
X122763740Y-180645909D01*
X122875113Y-180086000D01*
X122763740Y-179526091D01*
X122446577Y-179051423D01*
X122094242Y-178816000D01*
X122446577Y-178580577D01*
X122763740Y-178105909D01*
X122875113Y-177546000D01*
X122763740Y-176986091D01*
X122446577Y-176511423D01*
X122094242Y-176276000D01*
X122446577Y-176040577D01*
X122763740Y-175565909D01*
X122875113Y-175006000D01*
X122763740Y-174446091D01*
X122446577Y-173971423D01*
X122094242Y-173736000D01*
X122446577Y-173500577D01*
X122763740Y-173025909D01*
X122875113Y-172466000D01*
X122763740Y-171906091D01*
X122446577Y-171431423D01*
X122094242Y-171196000D01*
X122446577Y-170960577D01*
X122763740Y-170485909D01*
X122875113Y-169926000D01*
X122763740Y-169366091D01*
X122446577Y-168891423D01*
X122094242Y-168656000D01*
X122446577Y-168420577D01*
X122763740Y-167945909D01*
X122875113Y-167386000D01*
X122763740Y-166826091D01*
X122446577Y-166351423D01*
X121971909Y-166034260D01*
X121553333Y-165951000D01*
X121270667Y-165951000D01*
X120852091Y-166034260D01*
X120377423Y-166351423D01*
X120060260Y-166826091D01*
X119948887Y-167386000D01*
X54483000Y-167386000D01*
X54483000Y-152146000D01*
X112328887Y-152146000D01*
X112440260Y-152705909D01*
X112757423Y-153180577D01*
X113109758Y-153416000D01*
X112757423Y-153651423D01*
X112440260Y-154126091D01*
X112328887Y-154686000D01*
X112440260Y-155245909D01*
X112757423Y-155720577D01*
X113109758Y-155956000D01*
X112757423Y-156191423D01*
X112440260Y-156666091D01*
X112328887Y-157226000D01*
X112440260Y-157785909D01*
X112757423Y-158260577D01*
X113109758Y-158496000D01*
X112757423Y-158731423D01*
X112440260Y-159206091D01*
X112328887Y-159766000D01*
X112440260Y-160325909D01*
X112757423Y-160800577D01*
X113109758Y-161036000D01*
X112757423Y-161271423D01*
X112440260Y-161746091D01*
X112328887Y-162306000D01*
X112440260Y-162865909D01*
X112757423Y-163340577D01*
X113109758Y-163576000D01*
X112757423Y-163811423D01*
X112440260Y-164286091D01*
X112328887Y-164846000D01*
X112440260Y-165405909D01*
X112757423Y-165880577D01*
X113232091Y-166197740D01*
X113650667Y-166281000D01*
X113933333Y-166281000D01*
X114351909Y-166197740D01*
X114826577Y-165880577D01*
X115143740Y-165405909D01*
X115255113Y-164846000D01*
X115166696Y-164401500D01*
X137471660Y-164401500D01*
X137736017Y-164511000D01*
X138107983Y-164511000D01*
X138451635Y-164368655D01*
X138714655Y-164105635D01*
X138857000Y-163761983D01*
X138857000Y-163390017D01*
X138714655Y-163046365D01*
X138451635Y-162783345D01*
X138107983Y-162641000D01*
X137736017Y-162641000D01*
X137471660Y-162750500D01*
X122786696Y-162750500D01*
X122875113Y-162306000D01*
X122763740Y-161746091D01*
X122446577Y-161271423D01*
X122094242Y-161036000D01*
X122446577Y-160800577D01*
X122763740Y-160325909D01*
X122875113Y-159766000D01*
X122763740Y-159206091D01*
X122446577Y-158731423D01*
X122094242Y-158496000D01*
X122446577Y-158260577D01*
X122763740Y-157785909D01*
X122875113Y-157226000D01*
X122763740Y-156666091D01*
X122446577Y-156191423D01*
X122094242Y-155956000D01*
X122446577Y-155720577D01*
X122763740Y-155245909D01*
X122875113Y-154686000D01*
X122763740Y-154126091D01*
X122446577Y-153651423D01*
X122094242Y-153416000D01*
X122446577Y-153180577D01*
X122763740Y-152705909D01*
X122875113Y-152146000D01*
X122763740Y-151586091D01*
X122446577Y-151111423D01*
X122094242Y-150876000D01*
X122446577Y-150640577D01*
X122763740Y-150165909D01*
X122875113Y-149606000D01*
X122763740Y-149046091D01*
X122446577Y-148571423D01*
X121971909Y-148254260D01*
X121553333Y-148171000D01*
X121270667Y-148171000D01*
X120852091Y-148254260D01*
X120377423Y-148571423D01*
X120060260Y-149046091D01*
X119948887Y-149606000D01*
X120060260Y-150165909D01*
X120377423Y-150640577D01*
X120729758Y-150876000D01*
X120377423Y-151111423D01*
X120060260Y-151586091D01*
X119948887Y-152146000D01*
X120060260Y-152705909D01*
X120377423Y-153180577D01*
X120729758Y-153416000D01*
X120377423Y-153651423D01*
X120060260Y-154126091D01*
X119948887Y-154686000D01*
X120060260Y-155245909D01*
X120377423Y-155720577D01*
X120729758Y-155956000D01*
X120377423Y-156191423D01*
X120060260Y-156666091D01*
X119948887Y-157226000D01*
X120060260Y-157785909D01*
X120377423Y-158260577D01*
X120729758Y-158496000D01*
X120377423Y-158731423D01*
X120060260Y-159206091D01*
X119948887Y-159766000D01*
X120060260Y-160325909D01*
X120377423Y-160800577D01*
X120729758Y-161036000D01*
X120377423Y-161271423D01*
X120060260Y-161746091D01*
X119948887Y-162306000D01*
X120037304Y-162750500D01*
X115403933Y-162750500D01*
X115206056Y-162552624D01*
X115255113Y-162306000D01*
X115143740Y-161746091D01*
X114826577Y-161271423D01*
X114474242Y-161036000D01*
X114826577Y-160800577D01*
X115143740Y-160325909D01*
X115255113Y-159766000D01*
X115143740Y-159206091D01*
X114826577Y-158731423D01*
X114474242Y-158496000D01*
X114826577Y-158260577D01*
X115143740Y-157785909D01*
X115255113Y-157226000D01*
X115143740Y-156666091D01*
X114826577Y-156191423D01*
X114474242Y-155956000D01*
X114826577Y-155720577D01*
X115143740Y-155245909D01*
X115255113Y-154686000D01*
X115143740Y-154126091D01*
X114826577Y-153651423D01*
X114474242Y-153416000D01*
X114826577Y-153180577D01*
X115143740Y-152705909D01*
X115255113Y-152146000D01*
X115143740Y-151586091D01*
X114826577Y-151111423D01*
X114705894Y-151030785D01*
X114839765Y-151004157D01*
X115049809Y-150863809D01*
X115190157Y-150653765D01*
X115239440Y-150406000D01*
X115239440Y-148806000D01*
X115190157Y-148558235D01*
X115049809Y-148348191D01*
X114839765Y-148207843D01*
X114592000Y-148158560D01*
X112992000Y-148158560D01*
X112744235Y-148207843D01*
X112534191Y-148348191D01*
X112393843Y-148558235D01*
X112344560Y-148806000D01*
X112344560Y-150406000D01*
X112393843Y-150653765D01*
X112534191Y-150863809D01*
X112744235Y-151004157D01*
X112878106Y-151030785D01*
X112757423Y-151111423D01*
X112440260Y-151586091D01*
X112328887Y-152146000D01*
X54483000Y-152146000D01*
X54483000Y-147423119D01*
X66294000Y-147423119D01*
X66294000Y-147978881D01*
X66506680Y-148492337D01*
X66899663Y-148885320D01*
X67413119Y-149098000D01*
X67968881Y-149098000D01*
X68482337Y-148885320D01*
X68875320Y-148492337D01*
X69088000Y-147978881D01*
X69088000Y-147423119D01*
X68875320Y-146909663D01*
X68482337Y-146516680D01*
X67968881Y-146304000D01*
X67413119Y-146304000D01*
X66899663Y-146516680D01*
X66506680Y-146909663D01*
X66294000Y-147423119D01*
X54483000Y-147423119D01*
X54483000Y-142343119D01*
X66294000Y-142343119D01*
X66294000Y-142898881D01*
X66506680Y-143412337D01*
X66899663Y-143805320D01*
X67413119Y-144018000D01*
X67968881Y-144018000D01*
X68482337Y-143805320D01*
X68875320Y-143412337D01*
X69088000Y-142898881D01*
X69088000Y-142343119D01*
X68875320Y-141829663D01*
X68482337Y-141436680D01*
X67968881Y-141224000D01*
X67413119Y-141224000D01*
X66899663Y-141436680D01*
X66506680Y-141829663D01*
X66294000Y-142343119D01*
X54483000Y-142343119D01*
X54483000Y-140081000D01*
X71882000Y-140081000D01*
X71930601Y-140071333D01*
X71971803Y-140043803D01*
X71999333Y-140002601D01*
X72009000Y-139954000D01*
X72009000Y-121793000D01*
X76835000Y-121793000D01*
X76835000Y-139954000D01*
X76835000Y-139954000D01*
G37*
X76835000Y-139954000D02*
X76844667Y-140002601D01*
X76872197Y-140043803D01*
X76913399Y-140071333D01*
X76962000Y-140081000D01*
X134216501Y-140081000D01*
X134216500Y-154812660D01*
X134107000Y-155077017D01*
X134107000Y-155448983D01*
X134249345Y-155792635D01*
X134512365Y-156055655D01*
X134856017Y-156198000D01*
X135227983Y-156198000D01*
X135571635Y-156055655D01*
X135834655Y-155792635D01*
X135977000Y-155448983D01*
X135977000Y-155077017D01*
X135867500Y-154812660D01*
X135867500Y-140081000D01*
X145161000Y-140081000D01*
X145161000Y-150724566D01*
X143897209Y-149460777D01*
X143851152Y-149391848D01*
X143578094Y-149209396D01*
X143337303Y-149161500D01*
X143337301Y-149161500D01*
X143256000Y-149145328D01*
X143174699Y-149161500D01*
X138118340Y-149161500D01*
X137853983Y-149052000D01*
X137482017Y-149052000D01*
X137138365Y-149194345D01*
X136875345Y-149457365D01*
X136733000Y-149801017D01*
X136733000Y-150172983D01*
X136875345Y-150516635D01*
X137138365Y-150779655D01*
X137482017Y-150922000D01*
X137853983Y-150922000D01*
X138118340Y-150812500D01*
X142914068Y-150812500D01*
X143954500Y-151852934D01*
X143954501Y-183052694D01*
X143938328Y-183134000D01*
X144002397Y-183456094D01*
X144184849Y-183729152D01*
X144253775Y-183775207D01*
X145154793Y-184676226D01*
X145161000Y-184685515D01*
X145161000Y-195886000D01*
X136825000Y-195886000D01*
X136825000Y-195648017D01*
X136682655Y-195304365D01*
X136419635Y-195041345D01*
X136075983Y-194899000D01*
X135704017Y-194899000D01*
X135439660Y-195008500D01*
X122878340Y-195008500D01*
X122613983Y-194899000D01*
X122242017Y-194899000D01*
X121898365Y-195041345D01*
X121635345Y-195304365D01*
X121493000Y-195648017D01*
X121493000Y-195886000D01*
X97381433Y-195886000D01*
X97554226Y-195713207D01*
X97623152Y-195667152D01*
X97752650Y-195473345D01*
X97805604Y-195394095D01*
X97869672Y-195072000D01*
X97853500Y-194990697D01*
X97853500Y-191458340D01*
X97963000Y-191193983D01*
X97963000Y-190822017D01*
X97820655Y-190478365D01*
X97557635Y-190215345D01*
X97213983Y-190073000D01*
X96842017Y-190073000D01*
X96498365Y-190215345D01*
X96235345Y-190478365D01*
X96093000Y-190822017D01*
X96093000Y-191193983D01*
X96202501Y-191458342D01*
X96202500Y-194730067D01*
X95924068Y-195008500D01*
X69549052Y-195008500D01*
X69569440Y-194906000D01*
X69569440Y-193206000D01*
X69520157Y-192958235D01*
X69379809Y-192748191D01*
X69169765Y-192607843D01*
X69124381Y-192598816D01*
X69142625Y-192586625D01*
X69470839Y-192095418D01*
X69477373Y-192062567D01*
X83492000Y-192062567D01*
X83492000Y-193001433D01*
X83851289Y-193868833D01*
X84515167Y-194532711D01*
X85382567Y-194892000D01*
X86321433Y-194892000D01*
X87188833Y-194532711D01*
X87852711Y-193868833D01*
X88212000Y-193001433D01*
X88212000Y-192062567D01*
X91112000Y-192062567D01*
X91112000Y-193001433D01*
X91471289Y-193868833D01*
X92135167Y-194532711D01*
X93002567Y-194892000D01*
X93941433Y-194892000D01*
X94808833Y-194532711D01*
X95472711Y-193868833D01*
X95832000Y-193001433D01*
X95832000Y-192062567D01*
X95472711Y-191195167D01*
X94808833Y-190531289D01*
X93941433Y-190172000D01*
X93002567Y-190172000D01*
X92135167Y-190531289D01*
X91471289Y-191195167D01*
X91112000Y-192062567D01*
X88212000Y-192062567D01*
X87852711Y-191195167D01*
X87188833Y-190531289D01*
X86321433Y-190172000D01*
X85382567Y-190172000D01*
X84515167Y-190531289D01*
X83851289Y-191195167D01*
X83492000Y-192062567D01*
X69477373Y-192062567D01*
X69586092Y-191516000D01*
X69528578Y-191226855D01*
X71646226Y-189109207D01*
X71715152Y-189063152D01*
X71897604Y-188790094D01*
X71945500Y-188549303D01*
X71945500Y-188549302D01*
X71961672Y-188468000D01*
X71945500Y-188386699D01*
X71945500Y-183618119D01*
X88265000Y-183618119D01*
X88265000Y-184173881D01*
X88477680Y-184687337D01*
X88836500Y-185046157D01*
X88836500Y-185338698D01*
X88820328Y-185420000D01*
X88836500Y-185501301D01*
X88836500Y-185501302D01*
X88884396Y-185742093D01*
X89066848Y-186015152D01*
X89135777Y-186061209D01*
X89655793Y-186581226D01*
X89701848Y-186650152D01*
X89770773Y-186696206D01*
X89974906Y-186832604D01*
X90297000Y-186896672D01*
X90378303Y-186880500D01*
X106933660Y-186880500D01*
X107198017Y-186990000D01*
X107569983Y-186990000D01*
X107913635Y-186847655D01*
X108140501Y-186620789D01*
X108140501Y-188017658D01*
X108031000Y-188282017D01*
X108031000Y-188653983D01*
X108173345Y-188997635D01*
X108436365Y-189260655D01*
X108780017Y-189403000D01*
X109151983Y-189403000D01*
X109495635Y-189260655D01*
X109758655Y-188997635D01*
X109901000Y-188653983D01*
X109901000Y-188282017D01*
X109791500Y-188017660D01*
X109791500Y-183838340D01*
X109901000Y-183573983D01*
X109901000Y-183202017D01*
X109758655Y-182858365D01*
X109495635Y-182595345D01*
X109151983Y-182453000D01*
X108780017Y-182453000D01*
X108436365Y-182595345D01*
X108173345Y-182858365D01*
X108031000Y-183202017D01*
X108031000Y-183573983D01*
X108140500Y-183838340D01*
X108140500Y-185489210D01*
X107913635Y-185262345D01*
X107569983Y-185120000D01*
X107198017Y-185120000D01*
X106933660Y-185229500D01*
X92633184Y-185229500D01*
X92993337Y-185080320D01*
X93386320Y-184687337D01*
X93599000Y-184173881D01*
X93599000Y-183618119D01*
X93386320Y-183104663D01*
X92993337Y-182711680D01*
X92479881Y-182499000D01*
X91924119Y-182499000D01*
X91410663Y-182711680D01*
X91017680Y-183104663D01*
X90932000Y-183311513D01*
X90846320Y-183104663D01*
X90453337Y-182711680D01*
X89939881Y-182499000D01*
X89384119Y-182499000D01*
X88870663Y-182711680D01*
X88477680Y-183104663D01*
X88265000Y-183618119D01*
X71945500Y-183618119D01*
X71945500Y-170757340D01*
X72055000Y-170492983D01*
X72055000Y-170121017D01*
X71974222Y-169926000D01*
X112328887Y-169926000D01*
X112440260Y-170485909D01*
X112757423Y-170960577D01*
X113109758Y-171196000D01*
X112757423Y-171431423D01*
X112440260Y-171906091D01*
X112328887Y-172466000D01*
X112440260Y-173025909D01*
X112757423Y-173500577D01*
X113109758Y-173736000D01*
X112757423Y-173971423D01*
X112440260Y-174446091D01*
X112328887Y-175006000D01*
X112440260Y-175565909D01*
X112757423Y-176040577D01*
X113109758Y-176276000D01*
X112757423Y-176511423D01*
X112440260Y-176986091D01*
X112328887Y-177546000D01*
X112440260Y-178105909D01*
X112757423Y-178580577D01*
X113109758Y-178816000D01*
X112757423Y-179051423D01*
X112440260Y-179526091D01*
X112328887Y-180086000D01*
X112440260Y-180645909D01*
X112757423Y-181120577D01*
X113109758Y-181356000D01*
X112757423Y-181591423D01*
X112440260Y-182066091D01*
X112328887Y-182626000D01*
X112440260Y-183185909D01*
X112757423Y-183660577D01*
X113232091Y-183977740D01*
X113650667Y-184061000D01*
X113933333Y-184061000D01*
X114351909Y-183977740D01*
X114826577Y-183660577D01*
X115143740Y-183185909D01*
X115255113Y-182626000D01*
X115143740Y-182066091D01*
X114826577Y-181591423D01*
X114474242Y-181356000D01*
X114826577Y-181120577D01*
X115143740Y-180645909D01*
X115255113Y-180086000D01*
X115143740Y-179526091D01*
X114826577Y-179051423D01*
X114474242Y-178816000D01*
X114826577Y-178580577D01*
X115143740Y-178105909D01*
X115255113Y-177546000D01*
X115143740Y-176986091D01*
X114826577Y-176511423D01*
X114474242Y-176276000D01*
X114826577Y-176040577D01*
X115143740Y-175565909D01*
X115255113Y-175006000D01*
X115143740Y-174446091D01*
X114826577Y-173971423D01*
X114474242Y-173736000D01*
X114826577Y-173500577D01*
X115143740Y-173025909D01*
X115255113Y-172466000D01*
X115197910Y-172178417D01*
X116971800Y-172178417D01*
X116971800Y-172550383D01*
X117081300Y-172814740D01*
X117081301Y-174301658D01*
X116971800Y-174566017D01*
X116971800Y-174937983D01*
X117114145Y-175281635D01*
X117377165Y-175544655D01*
X117720817Y-175687000D01*
X118092783Y-175687000D01*
X118436435Y-175544655D01*
X118699455Y-175281635D01*
X118841800Y-174937983D01*
X118841800Y-174566017D01*
X118732300Y-174301660D01*
X118732300Y-172814740D01*
X118841800Y-172550383D01*
X118841800Y-172178417D01*
X118699455Y-171834765D01*
X118436435Y-171571745D01*
X118092783Y-171429400D01*
X117720817Y-171429400D01*
X117377165Y-171571745D01*
X117114145Y-171834765D01*
X116971800Y-172178417D01*
X115197910Y-172178417D01*
X115143740Y-171906091D01*
X114826577Y-171431423D01*
X114474242Y-171196000D01*
X114826577Y-170960577D01*
X115143740Y-170485909D01*
X115255113Y-169926000D01*
X115143740Y-169366091D01*
X114826577Y-168891423D01*
X114351909Y-168574260D01*
X113933333Y-168491000D01*
X113650667Y-168491000D01*
X113232091Y-168574260D01*
X112757423Y-168891423D01*
X112440260Y-169366091D01*
X112328887Y-169926000D01*
X71974222Y-169926000D01*
X71912655Y-169777365D01*
X71649635Y-169514345D01*
X71305983Y-169372000D01*
X70934017Y-169372000D01*
X70590365Y-169514345D01*
X70327345Y-169777365D01*
X70232227Y-170007000D01*
X70045017Y-170007000D01*
X69701365Y-170149345D01*
X69438345Y-170412365D01*
X69296000Y-170756017D01*
X69296000Y-171127983D01*
X69405501Y-171392341D01*
X69405500Y-172015660D01*
X69372655Y-171936365D01*
X69109635Y-171673345D01*
X68765983Y-171531000D01*
X68394017Y-171531000D01*
X68050365Y-171673345D01*
X67787345Y-171936365D01*
X67645000Y-172280017D01*
X67645000Y-172651983D01*
X67754500Y-172916340D01*
X67754501Y-183399211D01*
X67585635Y-183230345D01*
X67241983Y-183088000D01*
X66870017Y-183088000D01*
X66605660Y-183197500D01*
X63442340Y-183197500D01*
X63177983Y-183088000D01*
X62806017Y-183088000D01*
X62462365Y-183230345D01*
X62199345Y-183493365D01*
X62057000Y-183837017D01*
X62057000Y-184208983D01*
X62199345Y-184552635D01*
X62462365Y-184815655D01*
X62806017Y-184958000D01*
X63177983Y-184958000D01*
X63442340Y-184848500D01*
X66605660Y-184848500D01*
X66870017Y-184958000D01*
X67241983Y-184958000D01*
X67585635Y-184815655D01*
X67754501Y-184646789D01*
X67754501Y-185586066D01*
X66021775Y-187318793D01*
X65952849Y-187364848D01*
X65906794Y-187433774D01*
X65770397Y-187637906D01*
X65706328Y-187960000D01*
X65722501Y-188041306D01*
X65722500Y-193681698D01*
X65706328Y-193763000D01*
X65722500Y-193844301D01*
X65722500Y-193844302D01*
X65770396Y-194085093D01*
X65952848Y-194358152D01*
X66021777Y-194404209D01*
X66199791Y-194582223D01*
X66245848Y-194651152D01*
X66518906Y-194833604D01*
X66574560Y-194844674D01*
X66574560Y-194906000D01*
X66594948Y-195008500D01*
X46188934Y-195008500D01*
X42690614Y-191510180D01*
X56527000Y-191510180D01*
X56527000Y-191941820D01*
X56692182Y-192340603D01*
X56997397Y-192645818D01*
X57396180Y-192811000D01*
X57827820Y-192811000D01*
X58226603Y-192645818D01*
X58531818Y-192340603D01*
X58697000Y-191941820D01*
X58697000Y-191510180D01*
X60927000Y-191510180D01*
X60927000Y-191941820D01*
X61092182Y-192340603D01*
X61397397Y-192645818D01*
X61796180Y-192811000D01*
X62227820Y-192811000D01*
X62626603Y-192645818D01*
X62931818Y-192340603D01*
X63097000Y-191941820D01*
X63097000Y-191510180D01*
X62931818Y-191111397D01*
X62626603Y-190806182D01*
X62227820Y-190641000D01*
X61796180Y-190641000D01*
X61397397Y-190806182D01*
X61092182Y-191111397D01*
X60927000Y-191510180D01*
X58697000Y-191510180D01*
X58531818Y-191111397D01*
X58226603Y-190806182D01*
X57827820Y-190641000D01*
X57396180Y-190641000D01*
X56997397Y-190806182D01*
X56692182Y-191111397D01*
X56527000Y-191510180D01*
X42690614Y-191510180D01*
X38367156Y-187186724D01*
X38257655Y-186922365D01*
X37994635Y-186659345D01*
X37650983Y-186517000D01*
X37279017Y-186517000D01*
X36935365Y-186659345D01*
X36672345Y-186922365D01*
X36530000Y-187266017D01*
X36530000Y-187637983D01*
X36672345Y-187981635D01*
X36935365Y-188244655D01*
X37199724Y-188354156D01*
X44731566Y-195886000D01*
X20609964Y-195886000D01*
X19951396Y-195819105D01*
X19354218Y-195631961D01*
X18806875Y-195328563D01*
X18331711Y-194921299D01*
X17948148Y-194426812D01*
X17671852Y-193865304D01*
X17511896Y-193251227D01*
X17474000Y-192758730D01*
X17474000Y-192293393D01*
X18097500Y-192293393D01*
X18097500Y-193278607D01*
X18474524Y-194188825D01*
X19171175Y-194885476D01*
X20081393Y-195262500D01*
X21066607Y-195262500D01*
X21976825Y-194885476D01*
X22673476Y-194188825D01*
X23050500Y-193278607D01*
X23050500Y-192293393D01*
X22673476Y-191383175D01*
X21976825Y-190686524D01*
X21066607Y-190309500D01*
X20081393Y-190309500D01*
X19171175Y-190686524D01*
X18474524Y-191383175D01*
X18097500Y-192293393D01*
X17474000Y-192293393D01*
X17474000Y-183007000D01*
X54356000Y-183007000D01*
X54404601Y-182997333D01*
X54445803Y-182969803D01*
X54473333Y-182928601D01*
X54483000Y-182880000D01*
X54483000Y-167386000D01*
X119948887Y-167386000D01*
X120060260Y-167945909D01*
X120377423Y-168420577D01*
X120729758Y-168656000D01*
X120377423Y-168891423D01*
X120060260Y-169366091D01*
X119948887Y-169926000D01*
X120060260Y-170485909D01*
X120377423Y-170960577D01*
X120729758Y-171196000D01*
X120377423Y-171431423D01*
X120060260Y-171906091D01*
X119948887Y-172466000D01*
X120060260Y-173025909D01*
X120377423Y-173500577D01*
X120729758Y-173736000D01*
X120377423Y-173971423D01*
X120060260Y-174446091D01*
X119948887Y-175006000D01*
X120060260Y-175565909D01*
X120377423Y-176040577D01*
X120729758Y-176276000D01*
X120377423Y-176511423D01*
X120060260Y-176986091D01*
X119948887Y-177546000D01*
X120060260Y-178105909D01*
X120377423Y-178580577D01*
X120729758Y-178816000D01*
X120377423Y-179051423D01*
X120060260Y-179526091D01*
X119948887Y-180086000D01*
X120060260Y-180645909D01*
X120377423Y-181120577D01*
X120729758Y-181356000D01*
X120377423Y-181591423D01*
X120060260Y-182066091D01*
X119948887Y-182626000D01*
X120060260Y-183185909D01*
X120377423Y-183660577D01*
X120852091Y-183977740D01*
X121270667Y-184061000D01*
X121553333Y-184061000D01*
X121971909Y-183977740D01*
X122446577Y-183660577D01*
X122763740Y-183185909D01*
X122875113Y-182626000D01*
X122763740Y-182066091D01*
X122446577Y-181591423D01*
X122094242Y-181356000D01*
X122446577Y-181120577D01*
X122763740Y-180645909D01*
X122875113Y-180086000D01*
X122763740Y-179526091D01*
X122446577Y-179051423D01*
X122094242Y-178816000D01*
X122446577Y-178580577D01*
X122763740Y-178105909D01*
X122875113Y-177546000D01*
X122763740Y-176986091D01*
X122446577Y-176511423D01*
X122094242Y-176276000D01*
X122446577Y-176040577D01*
X122763740Y-175565909D01*
X122875113Y-175006000D01*
X122763740Y-174446091D01*
X122446577Y-173971423D01*
X122094242Y-173736000D01*
X122446577Y-173500577D01*
X122763740Y-173025909D01*
X122875113Y-172466000D01*
X122763740Y-171906091D01*
X122446577Y-171431423D01*
X122094242Y-171196000D01*
X122446577Y-170960577D01*
X122763740Y-170485909D01*
X122875113Y-169926000D01*
X122763740Y-169366091D01*
X122446577Y-168891423D01*
X122094242Y-168656000D01*
X122446577Y-168420577D01*
X122763740Y-167945909D01*
X122875113Y-167386000D01*
X122763740Y-166826091D01*
X122446577Y-166351423D01*
X121971909Y-166034260D01*
X121553333Y-165951000D01*
X121270667Y-165951000D01*
X120852091Y-166034260D01*
X120377423Y-166351423D01*
X120060260Y-166826091D01*
X119948887Y-167386000D01*
X54483000Y-167386000D01*
X54483000Y-152146000D01*
X112328887Y-152146000D01*
X112440260Y-152705909D01*
X112757423Y-153180577D01*
X113109758Y-153416000D01*
X112757423Y-153651423D01*
X112440260Y-154126091D01*
X112328887Y-154686000D01*
X112440260Y-155245909D01*
X112757423Y-155720577D01*
X113109758Y-155956000D01*
X112757423Y-156191423D01*
X112440260Y-156666091D01*
X112328887Y-157226000D01*
X112440260Y-157785909D01*
X112757423Y-158260577D01*
X113109758Y-158496000D01*
X112757423Y-158731423D01*
X112440260Y-159206091D01*
X112328887Y-159766000D01*
X112440260Y-160325909D01*
X112757423Y-160800577D01*
X113109758Y-161036000D01*
X112757423Y-161271423D01*
X112440260Y-161746091D01*
X112328887Y-162306000D01*
X112440260Y-162865909D01*
X112757423Y-163340577D01*
X113109758Y-163576000D01*
X112757423Y-163811423D01*
X112440260Y-164286091D01*
X112328887Y-164846000D01*
X112440260Y-165405909D01*
X112757423Y-165880577D01*
X113232091Y-166197740D01*
X113650667Y-166281000D01*
X113933333Y-166281000D01*
X114351909Y-166197740D01*
X114826577Y-165880577D01*
X115143740Y-165405909D01*
X115255113Y-164846000D01*
X115166696Y-164401500D01*
X137471660Y-164401500D01*
X137736017Y-164511000D01*
X138107983Y-164511000D01*
X138451635Y-164368655D01*
X138714655Y-164105635D01*
X138857000Y-163761983D01*
X138857000Y-163390017D01*
X138714655Y-163046365D01*
X138451635Y-162783345D01*
X138107983Y-162641000D01*
X137736017Y-162641000D01*
X137471660Y-162750500D01*
X122786696Y-162750500D01*
X122875113Y-162306000D01*
X122763740Y-161746091D01*
X122446577Y-161271423D01*
X122094242Y-161036000D01*
X122446577Y-160800577D01*
X122763740Y-160325909D01*
X122875113Y-159766000D01*
X122763740Y-159206091D01*
X122446577Y-158731423D01*
X122094242Y-158496000D01*
X122446577Y-158260577D01*
X122763740Y-157785909D01*
X122875113Y-157226000D01*
X122763740Y-156666091D01*
X122446577Y-156191423D01*
X122094242Y-155956000D01*
X122446577Y-155720577D01*
X122763740Y-155245909D01*
X122875113Y-154686000D01*
X122763740Y-154126091D01*
X122446577Y-153651423D01*
X122094242Y-153416000D01*
X122446577Y-153180577D01*
X122763740Y-152705909D01*
X122875113Y-152146000D01*
X122763740Y-151586091D01*
X122446577Y-151111423D01*
X122094242Y-150876000D01*
X122446577Y-150640577D01*
X122763740Y-150165909D01*
X122875113Y-149606000D01*
X122763740Y-149046091D01*
X122446577Y-148571423D01*
X121971909Y-148254260D01*
X121553333Y-148171000D01*
X121270667Y-148171000D01*
X120852091Y-148254260D01*
X120377423Y-148571423D01*
X120060260Y-149046091D01*
X119948887Y-149606000D01*
X120060260Y-150165909D01*
X120377423Y-150640577D01*
X120729758Y-150876000D01*
X120377423Y-151111423D01*
X120060260Y-151586091D01*
X119948887Y-152146000D01*
X120060260Y-152705909D01*
X120377423Y-153180577D01*
X120729758Y-153416000D01*
X120377423Y-153651423D01*
X120060260Y-154126091D01*
X119948887Y-154686000D01*
X120060260Y-155245909D01*
X120377423Y-155720577D01*
X120729758Y-155956000D01*
X120377423Y-156191423D01*
X120060260Y-156666091D01*
X119948887Y-157226000D01*
X120060260Y-157785909D01*
X120377423Y-158260577D01*
X120729758Y-158496000D01*
X120377423Y-158731423D01*
X120060260Y-159206091D01*
X119948887Y-159766000D01*
X120060260Y-160325909D01*
X120377423Y-160800577D01*
X120729758Y-161036000D01*
X120377423Y-161271423D01*
X120060260Y-161746091D01*
X119948887Y-162306000D01*
X120037304Y-162750500D01*
X115403933Y-162750500D01*
X115206056Y-162552624D01*
X115255113Y-162306000D01*
X115143740Y-161746091D01*
X114826577Y-161271423D01*
X114474242Y-161036000D01*
X114826577Y-160800577D01*
X115143740Y-160325909D01*
X115255113Y-159766000D01*
X115143740Y-159206091D01*
X114826577Y-158731423D01*
X114474242Y-158496000D01*
X114826577Y-158260577D01*
X115143740Y-157785909D01*
X115255113Y-157226000D01*
X115143740Y-156666091D01*
X114826577Y-156191423D01*
X114474242Y-155956000D01*
X114826577Y-155720577D01*
X115143740Y-155245909D01*
X115255113Y-154686000D01*
X115143740Y-154126091D01*
X114826577Y-153651423D01*
X114474242Y-153416000D01*
X114826577Y-153180577D01*
X115143740Y-152705909D01*
X115255113Y-152146000D01*
X115143740Y-151586091D01*
X114826577Y-151111423D01*
X114705894Y-151030785D01*
X114839765Y-151004157D01*
X115049809Y-150863809D01*
X115190157Y-150653765D01*
X115239440Y-150406000D01*
X115239440Y-148806000D01*
X115190157Y-148558235D01*
X115049809Y-148348191D01*
X114839765Y-148207843D01*
X114592000Y-148158560D01*
X112992000Y-148158560D01*
X112744235Y-148207843D01*
X112534191Y-148348191D01*
X112393843Y-148558235D01*
X112344560Y-148806000D01*
X112344560Y-150406000D01*
X112393843Y-150653765D01*
X112534191Y-150863809D01*
X112744235Y-151004157D01*
X112878106Y-151030785D01*
X112757423Y-151111423D01*
X112440260Y-151586091D01*
X112328887Y-152146000D01*
X54483000Y-152146000D01*
X54483000Y-147423119D01*
X66294000Y-147423119D01*
X66294000Y-147978881D01*
X66506680Y-148492337D01*
X66899663Y-148885320D01*
X67413119Y-149098000D01*
X67968881Y-149098000D01*
X68482337Y-148885320D01*
X68875320Y-148492337D01*
X69088000Y-147978881D01*
X69088000Y-147423119D01*
X68875320Y-146909663D01*
X68482337Y-146516680D01*
X67968881Y-146304000D01*
X67413119Y-146304000D01*
X66899663Y-146516680D01*
X66506680Y-146909663D01*
X66294000Y-147423119D01*
X54483000Y-147423119D01*
X54483000Y-142343119D01*
X66294000Y-142343119D01*
X66294000Y-142898881D01*
X66506680Y-143412337D01*
X66899663Y-143805320D01*
X67413119Y-144018000D01*
X67968881Y-144018000D01*
X68482337Y-143805320D01*
X68875320Y-143412337D01*
X69088000Y-142898881D01*
X69088000Y-142343119D01*
X68875320Y-141829663D01*
X68482337Y-141436680D01*
X67968881Y-141224000D01*
X67413119Y-141224000D01*
X66899663Y-141436680D01*
X66506680Y-141829663D01*
X66294000Y-142343119D01*
X54483000Y-142343119D01*
X54483000Y-140081000D01*
X71882000Y-140081000D01*
X71930601Y-140071333D01*
X71971803Y-140043803D01*
X71999333Y-140002601D01*
X72009000Y-139954000D01*
X72009000Y-121793000D01*
X76835000Y-121793000D01*
X76835000Y-139954000D01*
G04 #@! TD*
M02*
