G04 #@! TF.GenerationSoftware,KiCad,Pcbnew,(5.0.2)-1*
G04 #@! TF.CreationDate,2020-05-26T13:11:33-05:00*
G04 #@! TF.ProjectId,Spot_Welder_Hardware,53706f74-5f57-4656-9c64-65725f486172,rev?*
G04 #@! TF.SameCoordinates,Original*
G04 #@! TF.FileFunction,Soldermask,Bot*
G04 #@! TF.FilePolarity,Negative*
%FSLAX46Y46*%
G04 Gerber Fmt 4.6, Leading zero omitted, Abs format (unit mm)*
G04 Created by KiCad (PCBNEW (5.0.2)-1) date 5/26/2020 1:11:33 PM*
%MOMM*%
%LPD*%
G01*
G04 APERTURE LIST*
%ADD10C,0.100000*%
G04 APERTURE END LIST*
D10*
G36*
X69122000Y-195106000D02*
X67022000Y-195106000D01*
X67022000Y-193006000D01*
X69122000Y-193006000D01*
X69122000Y-195106000D01*
X69122000Y-195106000D01*
G37*
G36*
X277201483Y-190822953D02*
X277573012Y-190976845D01*
X277907383Y-191200265D01*
X278191735Y-191484617D01*
X278415155Y-191818988D01*
X278569047Y-192190517D01*
X278647500Y-192584928D01*
X278647500Y-192987072D01*
X278569047Y-193381483D01*
X278415155Y-193753012D01*
X278191735Y-194087383D01*
X277907383Y-194371735D01*
X277573012Y-194595155D01*
X277201483Y-194749047D01*
X276807072Y-194827500D01*
X276404928Y-194827500D01*
X276010517Y-194749047D01*
X275638988Y-194595155D01*
X275304617Y-194371735D01*
X275020265Y-194087383D01*
X274796845Y-193753012D01*
X274642953Y-193381483D01*
X274564500Y-192987072D01*
X274564500Y-192584928D01*
X274642953Y-192190517D01*
X274796845Y-191818988D01*
X275020265Y-191484617D01*
X275304617Y-191200265D01*
X275638988Y-190976845D01*
X276010517Y-190822953D01*
X276404928Y-190744500D01*
X276807072Y-190744500D01*
X277201483Y-190822953D01*
X277201483Y-190822953D01*
G37*
G36*
X21169483Y-190822953D02*
X21541012Y-190976845D01*
X21875383Y-191200265D01*
X22159735Y-191484617D01*
X22383155Y-191818988D01*
X22537047Y-192190517D01*
X22615500Y-192584928D01*
X22615500Y-192987072D01*
X22537047Y-193381483D01*
X22383155Y-193753012D01*
X22159735Y-194087383D01*
X21875383Y-194371735D01*
X21541012Y-194595155D01*
X21169483Y-194749047D01*
X20775072Y-194827500D01*
X20372928Y-194827500D01*
X19978517Y-194749047D01*
X19606988Y-194595155D01*
X19272617Y-194371735D01*
X18988265Y-194087383D01*
X18764845Y-193753012D01*
X18610953Y-193381483D01*
X18532500Y-192987072D01*
X18532500Y-192584928D01*
X18610953Y-192190517D01*
X18764845Y-191818988D01*
X18988265Y-191484617D01*
X19272617Y-191200265D01*
X19606988Y-190976845D01*
X19978517Y-190822953D01*
X20372928Y-190744500D01*
X20775072Y-190744500D01*
X21169483Y-190822953D01*
X21169483Y-190822953D01*
G37*
G36*
X86413499Y-190680976D02*
X86413501Y-190680977D01*
X86413502Y-190680977D01*
X86763829Y-190826087D01*
X86763830Y-190826088D01*
X87079119Y-191036757D01*
X87347243Y-191304881D01*
X87347245Y-191304884D01*
X87557913Y-191620171D01*
X87682007Y-191919762D01*
X87703024Y-191970501D01*
X87777000Y-192342403D01*
X87777000Y-192721597D01*
X87720429Y-193006000D01*
X87703023Y-193093502D01*
X87557913Y-193443829D01*
X87557912Y-193443830D01*
X87347243Y-193759119D01*
X87079119Y-194027243D01*
X87079116Y-194027245D01*
X86763829Y-194237913D01*
X86413502Y-194383023D01*
X86413501Y-194383023D01*
X86413499Y-194383024D01*
X86041597Y-194457000D01*
X85662403Y-194457000D01*
X85290501Y-194383024D01*
X85290499Y-194383023D01*
X85290498Y-194383023D01*
X84940171Y-194237913D01*
X84624884Y-194027245D01*
X84624881Y-194027243D01*
X84356757Y-193759119D01*
X84146088Y-193443830D01*
X84146087Y-193443829D01*
X84000977Y-193093502D01*
X83983572Y-193006000D01*
X83927000Y-192721597D01*
X83927000Y-192342403D01*
X84000976Y-191970501D01*
X84021993Y-191919762D01*
X84146087Y-191620171D01*
X84356755Y-191304884D01*
X84356757Y-191304881D01*
X84624881Y-191036757D01*
X84940170Y-190826088D01*
X84940171Y-190826087D01*
X85290498Y-190680977D01*
X85290499Y-190680977D01*
X85290501Y-190680976D01*
X85662403Y-190607000D01*
X86041597Y-190607000D01*
X86413499Y-190680976D01*
X86413499Y-190680976D01*
G37*
G36*
X94033499Y-190680976D02*
X94033501Y-190680977D01*
X94033502Y-190680977D01*
X94383829Y-190826087D01*
X94383830Y-190826088D01*
X94699119Y-191036757D01*
X94967243Y-191304881D01*
X94967245Y-191304884D01*
X95177913Y-191620171D01*
X95302007Y-191919762D01*
X95323024Y-191970501D01*
X95397000Y-192342403D01*
X95397000Y-192721597D01*
X95340429Y-193006000D01*
X95323023Y-193093502D01*
X95177913Y-193443829D01*
X95177912Y-193443830D01*
X94967243Y-193759119D01*
X94699119Y-194027243D01*
X94699116Y-194027245D01*
X94383829Y-194237913D01*
X94033502Y-194383023D01*
X94033501Y-194383023D01*
X94033499Y-194383024D01*
X93661597Y-194457000D01*
X93282403Y-194457000D01*
X92910501Y-194383024D01*
X92910499Y-194383023D01*
X92910498Y-194383023D01*
X92560171Y-194237913D01*
X92244884Y-194027245D01*
X92244881Y-194027243D01*
X91976757Y-193759119D01*
X91766088Y-193443830D01*
X91766087Y-193443829D01*
X91620977Y-193093502D01*
X91603572Y-193006000D01*
X91547000Y-192721597D01*
X91547000Y-192342403D01*
X91620976Y-191970501D01*
X91641993Y-191919762D01*
X91766087Y-191620171D01*
X91976755Y-191304884D01*
X91976757Y-191304881D01*
X92244881Y-191036757D01*
X92560170Y-190826088D01*
X92560171Y-190826087D01*
X92910498Y-190680977D01*
X92910499Y-190680977D01*
X92910501Y-190680976D01*
X93282403Y-190607000D01*
X93661597Y-190607000D01*
X94033499Y-190680976D01*
X94033499Y-190680976D01*
G37*
G36*
X68200707Y-190473596D02*
X68277836Y-190481193D01*
X68409787Y-190521220D01*
X68475763Y-190541233D01*
X68658172Y-190638733D01*
X68818054Y-190769946D01*
X68949267Y-190929828D01*
X69046767Y-191112237D01*
X69046767Y-191112238D01*
X69106807Y-191310164D01*
X69127080Y-191516000D01*
X69106807Y-191721836D01*
X69077337Y-191818987D01*
X69046767Y-191919763D01*
X68949267Y-192102172D01*
X68818054Y-192262054D01*
X68658172Y-192393267D01*
X68475763Y-192490767D01*
X68409787Y-192510780D01*
X68277836Y-192550807D01*
X68200707Y-192558403D01*
X68123580Y-192566000D01*
X68020420Y-192566000D01*
X67943293Y-192558403D01*
X67866164Y-192550807D01*
X67734213Y-192510780D01*
X67668237Y-192490767D01*
X67485828Y-192393267D01*
X67325946Y-192262054D01*
X67194733Y-192102172D01*
X67097233Y-191919763D01*
X67066663Y-191818987D01*
X67037193Y-191721836D01*
X67016920Y-191516000D01*
X67037193Y-191310164D01*
X67097233Y-191112238D01*
X67097233Y-191112237D01*
X67194733Y-190929828D01*
X67325946Y-190769946D01*
X67485828Y-190638733D01*
X67668237Y-190541233D01*
X67734213Y-190521220D01*
X67866164Y-190481193D01*
X67943293Y-190473596D01*
X68020420Y-190466000D01*
X68123580Y-190466000D01*
X68200707Y-190473596D01*
X68200707Y-190473596D01*
G37*
G36*
X62159738Y-191092653D02*
X62201598Y-191100979D01*
X62228777Y-191112237D01*
X62319890Y-191149977D01*
X62426354Y-191221114D01*
X62516886Y-191311646D01*
X62588023Y-191418110D01*
X62637021Y-191536403D01*
X62662000Y-191661979D01*
X62662000Y-191790021D01*
X62656238Y-191818987D01*
X62637021Y-191915598D01*
X62622670Y-191950245D01*
X62588023Y-192033890D01*
X62516886Y-192140354D01*
X62426354Y-192230886D01*
X62319890Y-192302023D01*
X62236245Y-192336670D01*
X62201598Y-192351021D01*
X62159738Y-192359347D01*
X62076021Y-192376000D01*
X61947979Y-192376000D01*
X61864262Y-192359347D01*
X61822402Y-192351021D01*
X61787755Y-192336670D01*
X61704110Y-192302023D01*
X61597646Y-192230886D01*
X61507114Y-192140354D01*
X61435977Y-192033890D01*
X61401330Y-191950245D01*
X61386979Y-191915598D01*
X61367762Y-191818987D01*
X61362000Y-191790021D01*
X61362000Y-191661979D01*
X61386979Y-191536403D01*
X61435977Y-191418110D01*
X61507114Y-191311646D01*
X61597646Y-191221114D01*
X61704110Y-191149977D01*
X61795223Y-191112237D01*
X61822402Y-191100979D01*
X61864262Y-191092653D01*
X61947979Y-191076000D01*
X62076021Y-191076000D01*
X62159738Y-191092653D01*
X62159738Y-191092653D01*
G37*
G36*
X57759738Y-191092653D02*
X57801598Y-191100979D01*
X57828777Y-191112237D01*
X57919890Y-191149977D01*
X58026354Y-191221114D01*
X58116886Y-191311646D01*
X58188023Y-191418110D01*
X58237021Y-191536403D01*
X58262000Y-191661979D01*
X58262000Y-191790021D01*
X58256238Y-191818987D01*
X58237021Y-191915598D01*
X58222670Y-191950245D01*
X58188023Y-192033890D01*
X58116886Y-192140354D01*
X58026354Y-192230886D01*
X57919890Y-192302023D01*
X57836245Y-192336670D01*
X57801598Y-192351021D01*
X57759738Y-192359347D01*
X57676021Y-192376000D01*
X57547979Y-192376000D01*
X57464262Y-192359347D01*
X57422402Y-192351021D01*
X57387755Y-192336670D01*
X57304110Y-192302023D01*
X57197646Y-192230886D01*
X57107114Y-192140354D01*
X57035977Y-192033890D01*
X57001330Y-191950245D01*
X56986979Y-191915598D01*
X56967762Y-191818987D01*
X56962000Y-191790021D01*
X56962000Y-191661979D01*
X56986979Y-191536403D01*
X57035977Y-191418110D01*
X57107114Y-191311646D01*
X57197646Y-191221114D01*
X57304110Y-191149977D01*
X57395223Y-191112237D01*
X57422402Y-191100979D01*
X57464262Y-191092653D01*
X57547979Y-191076000D01*
X57676021Y-191076000D01*
X57759738Y-191092653D01*
X57759738Y-191092653D01*
G37*
G36*
X180047639Y-189796916D02*
X180254986Y-189859815D01*
X180254988Y-189859816D01*
X180446084Y-189961958D01*
X180613581Y-190099419D01*
X180751042Y-190266916D01*
X180853184Y-190458012D01*
X180853185Y-190458014D01*
X180916084Y-190665361D01*
X180937322Y-190881000D01*
X180916084Y-191096639D01*
X180884650Y-191200263D01*
X180853184Y-191303988D01*
X180751042Y-191495084D01*
X180613581Y-191662581D01*
X180446084Y-191800042D01*
X180254988Y-191902184D01*
X180254986Y-191902185D01*
X180047639Y-191965084D01*
X179886038Y-191981000D01*
X179777962Y-191981000D01*
X179616361Y-191965084D01*
X179409014Y-191902185D01*
X179409012Y-191902184D01*
X179217916Y-191800042D01*
X179050419Y-191662581D01*
X178912958Y-191495084D01*
X178810816Y-191303988D01*
X178779351Y-191200263D01*
X178747916Y-191096639D01*
X178726678Y-190881000D01*
X178747916Y-190665361D01*
X178810815Y-190458014D01*
X178810816Y-190458012D01*
X178912958Y-190266916D01*
X179050419Y-190099419D01*
X179217916Y-189961958D01*
X179409012Y-189859816D01*
X179409014Y-189859815D01*
X179616361Y-189796916D01*
X179777962Y-189781000D01*
X179886038Y-189781000D01*
X180047639Y-189796916D01*
X180047639Y-189796916D01*
G37*
G36*
X225382000Y-191981000D02*
X223182000Y-191981000D01*
X223182000Y-189781000D01*
X225382000Y-189781000D01*
X225382000Y-191981000D01*
X225382000Y-191981000D01*
G37*
G36*
X221957639Y-189796916D02*
X222164986Y-189859815D01*
X222164988Y-189859816D01*
X222356084Y-189961958D01*
X222523581Y-190099419D01*
X222661042Y-190266916D01*
X222763184Y-190458012D01*
X222763185Y-190458014D01*
X222826084Y-190665361D01*
X222847322Y-190881000D01*
X222826084Y-191096639D01*
X222794650Y-191200263D01*
X222763184Y-191303988D01*
X222661042Y-191495084D01*
X222523581Y-191662581D01*
X222356084Y-191800042D01*
X222164988Y-191902184D01*
X222164986Y-191902185D01*
X221957639Y-191965084D01*
X221796038Y-191981000D01*
X221687962Y-191981000D01*
X221526361Y-191965084D01*
X221319014Y-191902185D01*
X221319012Y-191902184D01*
X221127916Y-191800042D01*
X220960419Y-191662581D01*
X220822958Y-191495084D01*
X220720816Y-191303988D01*
X220689351Y-191200263D01*
X220657916Y-191096639D01*
X220636678Y-190881000D01*
X220657916Y-190665361D01*
X220720815Y-190458014D01*
X220720816Y-190458012D01*
X220822958Y-190266916D01*
X220960419Y-190099419D01*
X221127916Y-189961958D01*
X221319012Y-189859816D01*
X221319014Y-189859815D01*
X221526361Y-189796916D01*
X221687962Y-189781000D01*
X221796038Y-189781000D01*
X221957639Y-189796916D01*
X221957639Y-189796916D01*
G37*
G36*
X219417639Y-189796916D02*
X219624986Y-189859815D01*
X219624988Y-189859816D01*
X219816084Y-189961958D01*
X219983581Y-190099419D01*
X220121042Y-190266916D01*
X220223184Y-190458012D01*
X220223185Y-190458014D01*
X220286084Y-190665361D01*
X220307322Y-190881000D01*
X220286084Y-191096639D01*
X220254650Y-191200263D01*
X220223184Y-191303988D01*
X220121042Y-191495084D01*
X219983581Y-191662581D01*
X219816084Y-191800042D01*
X219624988Y-191902184D01*
X219624986Y-191902185D01*
X219417639Y-191965084D01*
X219256038Y-191981000D01*
X219147962Y-191981000D01*
X218986361Y-191965084D01*
X218779014Y-191902185D01*
X218779012Y-191902184D01*
X218587916Y-191800042D01*
X218420419Y-191662581D01*
X218282958Y-191495084D01*
X218180816Y-191303988D01*
X218149351Y-191200263D01*
X218117916Y-191096639D01*
X218096678Y-190881000D01*
X218117916Y-190665361D01*
X218180815Y-190458014D01*
X218180816Y-190458012D01*
X218282958Y-190266916D01*
X218420419Y-190099419D01*
X218587916Y-189961958D01*
X218779012Y-189859816D01*
X218779014Y-189859815D01*
X218986361Y-189796916D01*
X219147962Y-189781000D01*
X219256038Y-189781000D01*
X219417639Y-189796916D01*
X219417639Y-189796916D01*
G37*
G36*
X178392000Y-191981000D02*
X176192000Y-191981000D01*
X176192000Y-189781000D01*
X178392000Y-189781000D01*
X178392000Y-191981000D01*
X178392000Y-191981000D01*
G37*
G36*
X182587639Y-189796916D02*
X182794986Y-189859815D01*
X182794988Y-189859816D01*
X182986084Y-189961958D01*
X183153581Y-190099419D01*
X183291042Y-190266916D01*
X183393184Y-190458012D01*
X183393185Y-190458014D01*
X183456084Y-190665361D01*
X183477322Y-190881000D01*
X183456084Y-191096639D01*
X183424650Y-191200263D01*
X183393184Y-191303988D01*
X183291042Y-191495084D01*
X183153581Y-191662581D01*
X182986084Y-191800042D01*
X182794988Y-191902184D01*
X182794986Y-191902185D01*
X182587639Y-191965084D01*
X182426038Y-191981000D01*
X182317962Y-191981000D01*
X182156361Y-191965084D01*
X181949014Y-191902185D01*
X181949012Y-191902184D01*
X181757916Y-191800042D01*
X181590419Y-191662581D01*
X181452958Y-191495084D01*
X181350816Y-191303988D01*
X181319351Y-191200263D01*
X181287916Y-191096639D01*
X181266678Y-190881000D01*
X181287916Y-190665361D01*
X181350815Y-190458014D01*
X181350816Y-190458012D01*
X181452958Y-190266916D01*
X181590419Y-190099419D01*
X181757916Y-189961958D01*
X181949012Y-189859816D01*
X181949014Y-189859815D01*
X182156361Y-189796916D01*
X182317962Y-189781000D01*
X182426038Y-189781000D01*
X182587639Y-189796916D01*
X182587639Y-189796916D01*
G37*
G36*
X68200707Y-187933596D02*
X68277836Y-187941193D01*
X68409787Y-187981220D01*
X68475763Y-188001233D01*
X68658172Y-188098733D01*
X68818054Y-188229946D01*
X68949267Y-188389828D01*
X69046767Y-188572237D01*
X69046767Y-188572238D01*
X69106807Y-188770164D01*
X69127080Y-188976000D01*
X69106807Y-189181836D01*
X69066780Y-189313787D01*
X69046767Y-189379763D01*
X68949267Y-189562172D01*
X68818054Y-189722054D01*
X68658172Y-189853267D01*
X68475763Y-189950767D01*
X68409787Y-189970780D01*
X68277836Y-190010807D01*
X68200707Y-190018404D01*
X68123580Y-190026000D01*
X68020420Y-190026000D01*
X67943293Y-190018404D01*
X67866164Y-190010807D01*
X67734213Y-189970780D01*
X67668237Y-189950767D01*
X67485828Y-189853267D01*
X67325946Y-189722054D01*
X67194733Y-189562172D01*
X67097233Y-189379763D01*
X67077220Y-189313787D01*
X67037193Y-189181836D01*
X67016920Y-188976000D01*
X67037193Y-188770164D01*
X67097233Y-188572238D01*
X67097233Y-188572237D01*
X67194733Y-188389828D01*
X67325946Y-188229946D01*
X67485828Y-188098733D01*
X67668237Y-188001233D01*
X67734213Y-187981220D01*
X67866164Y-187941193D01*
X67943293Y-187933596D01*
X68020420Y-187926000D01*
X68123580Y-187926000D01*
X68200707Y-187933596D01*
X68200707Y-187933596D01*
G37*
G36*
X201285539Y-169539815D02*
X202877544Y-169856484D01*
X204578044Y-170560854D01*
X206108453Y-171583441D01*
X207409959Y-172884947D01*
X208432546Y-174415356D01*
X209136916Y-176115856D01*
X209421389Y-177546000D01*
X209490948Y-177895695D01*
X209496000Y-177921096D01*
X209496000Y-179761704D01*
X209136916Y-181566944D01*
X208432546Y-183267444D01*
X207409959Y-184797853D01*
X206108453Y-186099359D01*
X204578044Y-187121946D01*
X202877544Y-187826316D01*
X201329193Y-188134302D01*
X201072305Y-188185400D01*
X199231695Y-188185400D01*
X198974807Y-188134302D01*
X197426456Y-187826316D01*
X195725956Y-187121946D01*
X194195547Y-186099359D01*
X192894041Y-184797853D01*
X191871454Y-183267444D01*
X191167084Y-181566944D01*
X190808000Y-179761704D01*
X190808000Y-177921096D01*
X190813053Y-177895695D01*
X190882611Y-177546000D01*
X191167084Y-176115856D01*
X191871454Y-174415356D01*
X192894041Y-172884947D01*
X194195547Y-171583441D01*
X195725956Y-170560854D01*
X197426456Y-169856484D01*
X199018461Y-169539815D01*
X199231695Y-169497400D01*
X201072305Y-169497400D01*
X201285539Y-169539815D01*
X201285539Y-169539815D01*
G37*
G36*
X258349999Y-169497400D02*
X260027544Y-169831084D01*
X261728044Y-170535454D01*
X263258453Y-171558041D01*
X264559959Y-172859547D01*
X265582546Y-174389956D01*
X266286916Y-176090456D01*
X266565700Y-177492000D01*
X266646000Y-177895695D01*
X266646000Y-179736305D01*
X266615435Y-179889966D01*
X266286916Y-181541544D01*
X265582546Y-183242044D01*
X264559959Y-184772453D01*
X263258453Y-186073959D01*
X261728044Y-187096546D01*
X260027544Y-187800916D01*
X258530314Y-188098733D01*
X258222305Y-188160000D01*
X256381695Y-188160000D01*
X256073686Y-188098733D01*
X254576456Y-187800916D01*
X252875956Y-187096546D01*
X251345547Y-186073959D01*
X250044041Y-184772453D01*
X249021454Y-183242044D01*
X248317084Y-181541544D01*
X247988565Y-179889966D01*
X247958000Y-179736305D01*
X247958000Y-177895695D01*
X248038300Y-177492000D01*
X248317084Y-176090456D01*
X249021454Y-174389956D01*
X250044041Y-172859547D01*
X251345547Y-171558041D01*
X252875956Y-170535454D01*
X254576456Y-169831084D01*
X256254001Y-169497400D01*
X256381695Y-169472000D01*
X258222305Y-169472000D01*
X258349999Y-169497400D01*
X258349999Y-169497400D01*
G37*
G36*
X225382000Y-185631000D02*
X223182000Y-185631000D01*
X223182000Y-183431000D01*
X225382000Y-183431000D01*
X225382000Y-185631000D01*
X225382000Y-185631000D01*
G37*
G36*
X219417639Y-183446916D02*
X219624986Y-183509815D01*
X219624988Y-183509816D01*
X219816084Y-183611958D01*
X219983581Y-183749419D01*
X220121042Y-183916916D01*
X220223184Y-184108012D01*
X220223185Y-184108014D01*
X220286084Y-184315361D01*
X220307322Y-184531000D01*
X220286084Y-184746639D01*
X220263517Y-184821032D01*
X220223184Y-184953988D01*
X220121042Y-185145084D01*
X219983581Y-185312581D01*
X219816084Y-185450042D01*
X219624988Y-185552184D01*
X219624986Y-185552185D01*
X219417639Y-185615084D01*
X219256038Y-185631000D01*
X219147962Y-185631000D01*
X218986361Y-185615084D01*
X218779014Y-185552185D01*
X218779012Y-185552184D01*
X218587916Y-185450042D01*
X218420419Y-185312581D01*
X218282958Y-185145084D01*
X218180816Y-184953988D01*
X218140484Y-184821032D01*
X218117916Y-184746639D01*
X218096678Y-184531000D01*
X218117916Y-184315361D01*
X218180815Y-184108014D01*
X218180816Y-184108012D01*
X218282958Y-183916916D01*
X218420419Y-183749419D01*
X218587916Y-183611958D01*
X218779012Y-183509816D01*
X218779014Y-183509815D01*
X218986361Y-183446916D01*
X219147962Y-183431000D01*
X219256038Y-183431000D01*
X219417639Y-183446916D01*
X219417639Y-183446916D01*
G37*
G36*
X178392000Y-185631000D02*
X176192000Y-185631000D01*
X176192000Y-183431000D01*
X178392000Y-183431000D01*
X178392000Y-185631000D01*
X178392000Y-185631000D01*
G37*
G36*
X182587639Y-183446916D02*
X182794986Y-183509815D01*
X182794988Y-183509816D01*
X182986084Y-183611958D01*
X183153581Y-183749419D01*
X183291042Y-183916916D01*
X183393184Y-184108012D01*
X183393185Y-184108014D01*
X183456084Y-184315361D01*
X183477322Y-184531000D01*
X183456084Y-184746639D01*
X183433517Y-184821032D01*
X183393184Y-184953988D01*
X183291042Y-185145084D01*
X183153581Y-185312581D01*
X182986084Y-185450042D01*
X182794988Y-185552184D01*
X182794986Y-185552185D01*
X182587639Y-185615084D01*
X182426038Y-185631000D01*
X182317962Y-185631000D01*
X182156361Y-185615084D01*
X181949014Y-185552185D01*
X181949012Y-185552184D01*
X181757916Y-185450042D01*
X181590419Y-185312581D01*
X181452958Y-185145084D01*
X181350816Y-184953988D01*
X181310484Y-184821032D01*
X181287916Y-184746639D01*
X181266678Y-184531000D01*
X181287916Y-184315361D01*
X181350815Y-184108014D01*
X181350816Y-184108012D01*
X181452958Y-183916916D01*
X181590419Y-183749419D01*
X181757916Y-183611958D01*
X181949012Y-183509816D01*
X181949014Y-183509815D01*
X182156361Y-183446916D01*
X182317962Y-183431000D01*
X182426038Y-183431000D01*
X182587639Y-183446916D01*
X182587639Y-183446916D01*
G37*
G36*
X87402603Y-182970968D02*
X87402606Y-182970969D01*
X87402605Y-182970969D01*
X87577678Y-183043486D01*
X87577679Y-183043487D01*
X87735241Y-183148767D01*
X87869233Y-183282759D01*
X87869234Y-183282761D01*
X87974514Y-183440322D01*
X88003299Y-183509816D01*
X88047032Y-183615397D01*
X88084000Y-183801250D01*
X88084000Y-183990750D01*
X88047032Y-184176603D01*
X88047031Y-184176605D01*
X87974514Y-184351678D01*
X87974513Y-184351679D01*
X87869233Y-184509241D01*
X87735241Y-184643233D01*
X87655923Y-184696232D01*
X87577678Y-184748514D01*
X87458562Y-184797853D01*
X87402603Y-184821032D01*
X87216750Y-184858000D01*
X87027250Y-184858000D01*
X86841397Y-184821032D01*
X86785438Y-184797853D01*
X86666322Y-184748514D01*
X86588077Y-184696232D01*
X86508759Y-184643233D01*
X86374767Y-184509241D01*
X86269487Y-184351679D01*
X86269486Y-184351678D01*
X86196969Y-184176605D01*
X86196968Y-184176603D01*
X86160000Y-183990750D01*
X86160000Y-183801250D01*
X86196968Y-183615397D01*
X86240701Y-183509816D01*
X86269486Y-183440322D01*
X86374766Y-183282761D01*
X86374767Y-183282759D01*
X86508759Y-183148767D01*
X86666321Y-183043487D01*
X86666322Y-183043486D01*
X86841395Y-182970969D01*
X86841394Y-182970969D01*
X86841397Y-182970968D01*
X87027250Y-182934000D01*
X87216750Y-182934000D01*
X87402603Y-182970968D01*
X87402603Y-182970968D01*
G37*
G36*
X89942603Y-182970968D02*
X89942606Y-182970969D01*
X89942605Y-182970969D01*
X90117678Y-183043486D01*
X90117679Y-183043487D01*
X90275241Y-183148767D01*
X90409233Y-183282759D01*
X90409234Y-183282761D01*
X90514514Y-183440322D01*
X90543299Y-183509816D01*
X90587032Y-183615397D01*
X90624000Y-183801250D01*
X90624000Y-183990750D01*
X90587032Y-184176603D01*
X90587031Y-184176605D01*
X90514514Y-184351678D01*
X90514513Y-184351679D01*
X90409233Y-184509241D01*
X90275241Y-184643233D01*
X90195923Y-184696232D01*
X90117678Y-184748514D01*
X89998562Y-184797853D01*
X89942603Y-184821032D01*
X89756750Y-184858000D01*
X89567250Y-184858000D01*
X89381397Y-184821032D01*
X89325438Y-184797853D01*
X89206322Y-184748514D01*
X89128077Y-184696232D01*
X89048759Y-184643233D01*
X88914767Y-184509241D01*
X88809487Y-184351679D01*
X88809486Y-184351678D01*
X88736969Y-184176605D01*
X88736968Y-184176603D01*
X88700000Y-183990750D01*
X88700000Y-183801250D01*
X88736968Y-183615397D01*
X88780701Y-183509816D01*
X88809486Y-183440322D01*
X88914766Y-183282761D01*
X88914767Y-183282759D01*
X89048759Y-183148767D01*
X89206321Y-183043487D01*
X89206322Y-183043486D01*
X89381395Y-182970969D01*
X89381394Y-182970969D01*
X89381397Y-182970968D01*
X89567250Y-182934000D01*
X89756750Y-182934000D01*
X89942603Y-182970968D01*
X89942603Y-182970968D01*
G37*
G36*
X92482603Y-182970968D02*
X92482606Y-182970969D01*
X92482605Y-182970969D01*
X92657678Y-183043486D01*
X92657679Y-183043487D01*
X92815241Y-183148767D01*
X92949233Y-183282759D01*
X92949234Y-183282761D01*
X93054514Y-183440322D01*
X93083299Y-183509816D01*
X93127032Y-183615397D01*
X93164000Y-183801250D01*
X93164000Y-183990750D01*
X93127032Y-184176603D01*
X93127031Y-184176605D01*
X93054514Y-184351678D01*
X93054513Y-184351679D01*
X92949233Y-184509241D01*
X92815241Y-184643233D01*
X92735923Y-184696232D01*
X92657678Y-184748514D01*
X92538562Y-184797853D01*
X92482603Y-184821032D01*
X92296750Y-184858000D01*
X92107250Y-184858000D01*
X91921397Y-184821032D01*
X91865438Y-184797853D01*
X91746322Y-184748514D01*
X91668077Y-184696232D01*
X91588759Y-184643233D01*
X91454767Y-184509241D01*
X91349487Y-184351679D01*
X91349486Y-184351678D01*
X91276969Y-184176605D01*
X91276968Y-184176603D01*
X91240000Y-183990750D01*
X91240000Y-183801250D01*
X91276968Y-183615397D01*
X91320701Y-183509816D01*
X91349486Y-183440322D01*
X91454766Y-183282761D01*
X91454767Y-183282759D01*
X91588759Y-183148767D01*
X91746321Y-183043487D01*
X91746322Y-183043486D01*
X91921395Y-182970969D01*
X91921394Y-182970969D01*
X91921397Y-182970968D01*
X92107250Y-182934000D01*
X92296750Y-182934000D01*
X92482603Y-182970968D01*
X92482603Y-182970968D01*
G37*
G36*
X121608030Y-181640469D02*
X121608033Y-181640470D01*
X121608034Y-181640470D01*
X121796535Y-181697651D01*
X121796537Y-181697652D01*
X121970260Y-181790509D01*
X122122528Y-181915472D01*
X122247491Y-182067740D01*
X122340348Y-182241463D01*
X122397531Y-182429970D01*
X122416838Y-182626000D01*
X122397531Y-182822030D01*
X122397530Y-182822033D01*
X122397530Y-182822034D01*
X122363566Y-182934000D01*
X122340348Y-183010537D01*
X122247491Y-183184260D01*
X122122528Y-183336528D01*
X121970260Y-183461491D01*
X121970258Y-183461492D01*
X121796535Y-183554349D01*
X121608034Y-183611530D01*
X121608033Y-183611530D01*
X121608030Y-183611531D01*
X121461124Y-183626000D01*
X121362876Y-183626000D01*
X121215970Y-183611531D01*
X121215967Y-183611530D01*
X121215966Y-183611530D01*
X121027465Y-183554349D01*
X120853742Y-183461492D01*
X120853740Y-183461491D01*
X120701472Y-183336528D01*
X120576509Y-183184260D01*
X120483652Y-183010537D01*
X120460435Y-182934000D01*
X120426470Y-182822034D01*
X120426470Y-182822033D01*
X120426469Y-182822030D01*
X120407162Y-182626000D01*
X120426469Y-182429970D01*
X120483652Y-182241463D01*
X120576509Y-182067740D01*
X120701472Y-181915472D01*
X120853740Y-181790509D01*
X121027463Y-181697652D01*
X121027465Y-181697651D01*
X121215966Y-181640470D01*
X121215967Y-181640470D01*
X121215970Y-181640469D01*
X121362876Y-181626000D01*
X121461124Y-181626000D01*
X121608030Y-181640469D01*
X121608030Y-181640469D01*
G37*
G36*
X113988030Y-181640469D02*
X113988033Y-181640470D01*
X113988034Y-181640470D01*
X114176535Y-181697651D01*
X114176537Y-181697652D01*
X114350260Y-181790509D01*
X114502528Y-181915472D01*
X114627491Y-182067740D01*
X114720348Y-182241463D01*
X114777531Y-182429970D01*
X114796838Y-182626000D01*
X114777531Y-182822030D01*
X114777530Y-182822033D01*
X114777530Y-182822034D01*
X114743566Y-182934000D01*
X114720348Y-183010537D01*
X114627491Y-183184260D01*
X114502528Y-183336528D01*
X114350260Y-183461491D01*
X114350258Y-183461492D01*
X114176535Y-183554349D01*
X113988034Y-183611530D01*
X113988033Y-183611530D01*
X113988030Y-183611531D01*
X113841124Y-183626000D01*
X113742876Y-183626000D01*
X113595970Y-183611531D01*
X113595967Y-183611530D01*
X113595966Y-183611530D01*
X113407465Y-183554349D01*
X113233742Y-183461492D01*
X113233740Y-183461491D01*
X113081472Y-183336528D01*
X112956509Y-183184260D01*
X112863652Y-183010537D01*
X112840435Y-182934000D01*
X112806470Y-182822034D01*
X112806470Y-182822033D01*
X112806469Y-182822030D01*
X112787162Y-182626000D01*
X112806469Y-182429970D01*
X112863652Y-182241463D01*
X112956509Y-182067740D01*
X113081472Y-181915472D01*
X113233740Y-181790509D01*
X113407463Y-181697652D01*
X113407465Y-181697651D01*
X113595966Y-181640470D01*
X113595967Y-181640470D01*
X113595970Y-181640469D01*
X113742876Y-181626000D01*
X113841124Y-181626000D01*
X113988030Y-181640469D01*
X113988030Y-181640469D01*
G37*
G36*
X113988030Y-179100469D02*
X113988033Y-179100470D01*
X113988034Y-179100470D01*
X114176535Y-179157651D01*
X114176537Y-179157652D01*
X114350260Y-179250509D01*
X114502528Y-179375472D01*
X114627491Y-179527740D01*
X114627492Y-179527742D01*
X114720349Y-179701465D01*
X114777530Y-179889966D01*
X114777531Y-179889970D01*
X114796838Y-180086000D01*
X114777531Y-180282030D01*
X114720348Y-180470537D01*
X114627491Y-180644260D01*
X114502528Y-180796528D01*
X114350260Y-180921491D01*
X114350258Y-180921492D01*
X114176535Y-181014349D01*
X113988034Y-181071530D01*
X113988033Y-181071530D01*
X113988030Y-181071531D01*
X113841124Y-181086000D01*
X113742876Y-181086000D01*
X113595970Y-181071531D01*
X113595967Y-181071530D01*
X113595966Y-181071530D01*
X113407465Y-181014349D01*
X113233742Y-180921492D01*
X113233740Y-180921491D01*
X113081472Y-180796528D01*
X112956509Y-180644260D01*
X112863652Y-180470537D01*
X112806469Y-180282030D01*
X112787162Y-180086000D01*
X112806469Y-179889970D01*
X112806470Y-179889966D01*
X112863651Y-179701465D01*
X112956508Y-179527742D01*
X112956509Y-179527740D01*
X113081472Y-179375472D01*
X113233740Y-179250509D01*
X113407463Y-179157652D01*
X113407465Y-179157651D01*
X113595966Y-179100470D01*
X113595967Y-179100470D01*
X113595970Y-179100469D01*
X113742876Y-179086000D01*
X113841124Y-179086000D01*
X113988030Y-179100469D01*
X113988030Y-179100469D01*
G37*
G36*
X121608030Y-179100469D02*
X121608033Y-179100470D01*
X121608034Y-179100470D01*
X121796535Y-179157651D01*
X121796537Y-179157652D01*
X121970260Y-179250509D01*
X122122528Y-179375472D01*
X122247491Y-179527740D01*
X122247492Y-179527742D01*
X122340349Y-179701465D01*
X122397530Y-179889966D01*
X122397531Y-179889970D01*
X122416838Y-180086000D01*
X122397531Y-180282030D01*
X122340348Y-180470537D01*
X122247491Y-180644260D01*
X122122528Y-180796528D01*
X121970260Y-180921491D01*
X121970258Y-180921492D01*
X121796535Y-181014349D01*
X121608034Y-181071530D01*
X121608033Y-181071530D01*
X121608030Y-181071531D01*
X121461124Y-181086000D01*
X121362876Y-181086000D01*
X121215970Y-181071531D01*
X121215967Y-181071530D01*
X121215966Y-181071530D01*
X121027465Y-181014349D01*
X120853742Y-180921492D01*
X120853740Y-180921491D01*
X120701472Y-180796528D01*
X120576509Y-180644260D01*
X120483652Y-180470537D01*
X120426469Y-180282030D01*
X120407162Y-180086000D01*
X120426469Y-179889970D01*
X120426470Y-179889966D01*
X120483651Y-179701465D01*
X120576508Y-179527742D01*
X120576509Y-179527740D01*
X120701472Y-179375472D01*
X120853740Y-179250509D01*
X121027463Y-179157652D01*
X121027465Y-179157651D01*
X121215966Y-179100470D01*
X121215967Y-179100470D01*
X121215970Y-179100469D01*
X121362876Y-179086000D01*
X121461124Y-179086000D01*
X121608030Y-179100469D01*
X121608030Y-179100469D01*
G37*
G36*
X178392000Y-179281000D02*
X176192000Y-179281000D01*
X176192000Y-177081000D01*
X178392000Y-177081000D01*
X178392000Y-179281000D01*
X178392000Y-179281000D01*
G37*
G36*
X182587639Y-177096916D02*
X182794986Y-177159815D01*
X182794988Y-177159816D01*
X182986084Y-177261958D01*
X183153581Y-177399419D01*
X183291042Y-177566916D01*
X183384644Y-177742034D01*
X183393185Y-177758014D01*
X183456084Y-177965361D01*
X183477322Y-178181000D01*
X183456084Y-178396639D01*
X183415165Y-178531530D01*
X183393184Y-178603988D01*
X183291042Y-178795084D01*
X183153581Y-178962581D01*
X182986084Y-179100042D01*
X182794988Y-179202184D01*
X182794986Y-179202185D01*
X182587639Y-179265084D01*
X182426038Y-179281000D01*
X182317962Y-179281000D01*
X182156361Y-179265084D01*
X181949014Y-179202185D01*
X181949012Y-179202184D01*
X181757916Y-179100042D01*
X181590419Y-178962581D01*
X181452958Y-178795084D01*
X181350816Y-178603988D01*
X181328836Y-178531530D01*
X181287916Y-178396639D01*
X181266678Y-178181000D01*
X181287916Y-177965361D01*
X181350815Y-177758014D01*
X181359356Y-177742034D01*
X181452958Y-177566916D01*
X181590419Y-177399419D01*
X181757916Y-177261958D01*
X181949012Y-177159816D01*
X181949014Y-177159815D01*
X182156361Y-177096916D01*
X182317962Y-177081000D01*
X182426038Y-177081000D01*
X182587639Y-177096916D01*
X182587639Y-177096916D01*
G37*
G36*
X219417639Y-177096916D02*
X219624986Y-177159815D01*
X219624988Y-177159816D01*
X219816084Y-177261958D01*
X219983581Y-177399419D01*
X220121042Y-177566916D01*
X220214644Y-177742034D01*
X220223185Y-177758014D01*
X220286084Y-177965361D01*
X220307322Y-178181000D01*
X220286084Y-178396639D01*
X220245165Y-178531530D01*
X220223184Y-178603988D01*
X220121042Y-178795084D01*
X219983581Y-178962581D01*
X219816084Y-179100042D01*
X219624988Y-179202184D01*
X219624986Y-179202185D01*
X219417639Y-179265084D01*
X219256038Y-179281000D01*
X219147962Y-179281000D01*
X218986361Y-179265084D01*
X218779014Y-179202185D01*
X218779012Y-179202184D01*
X218587916Y-179100042D01*
X218420419Y-178962581D01*
X218282958Y-178795084D01*
X218180816Y-178603988D01*
X218158836Y-178531530D01*
X218117916Y-178396639D01*
X218096678Y-178181000D01*
X218117916Y-177965361D01*
X218180815Y-177758014D01*
X218189356Y-177742034D01*
X218282958Y-177566916D01*
X218420419Y-177399419D01*
X218587916Y-177261958D01*
X218779012Y-177159816D01*
X218779014Y-177159815D01*
X218986361Y-177096916D01*
X219147962Y-177081000D01*
X219256038Y-177081000D01*
X219417639Y-177096916D01*
X219417639Y-177096916D01*
G37*
G36*
X180047639Y-177096916D02*
X180254986Y-177159815D01*
X180254988Y-177159816D01*
X180446084Y-177261958D01*
X180613581Y-177399419D01*
X180751042Y-177566916D01*
X180844644Y-177742034D01*
X180853185Y-177758014D01*
X180916084Y-177965361D01*
X180937322Y-178181000D01*
X180916084Y-178396639D01*
X180875165Y-178531530D01*
X180853184Y-178603988D01*
X180751042Y-178795084D01*
X180613581Y-178962581D01*
X180446084Y-179100042D01*
X180254988Y-179202184D01*
X180254986Y-179202185D01*
X180047639Y-179265084D01*
X179886038Y-179281000D01*
X179777962Y-179281000D01*
X179616361Y-179265084D01*
X179409014Y-179202185D01*
X179409012Y-179202184D01*
X179217916Y-179100042D01*
X179050419Y-178962581D01*
X178912958Y-178795084D01*
X178810816Y-178603988D01*
X178788836Y-178531530D01*
X178747916Y-178396639D01*
X178726678Y-178181000D01*
X178747916Y-177965361D01*
X178810815Y-177758014D01*
X178819356Y-177742034D01*
X178912958Y-177566916D01*
X179050419Y-177399419D01*
X179217916Y-177261958D01*
X179409012Y-177159816D01*
X179409014Y-177159815D01*
X179616361Y-177096916D01*
X179777962Y-177081000D01*
X179886038Y-177081000D01*
X180047639Y-177096916D01*
X180047639Y-177096916D01*
G37*
G36*
X221957639Y-177096916D02*
X222164986Y-177159815D01*
X222164988Y-177159816D01*
X222356084Y-177261958D01*
X222523581Y-177399419D01*
X222661042Y-177566916D01*
X222754644Y-177742034D01*
X222763185Y-177758014D01*
X222826084Y-177965361D01*
X222847322Y-178181000D01*
X222826084Y-178396639D01*
X222785165Y-178531530D01*
X222763184Y-178603988D01*
X222661042Y-178795084D01*
X222523581Y-178962581D01*
X222356084Y-179100042D01*
X222164988Y-179202184D01*
X222164986Y-179202185D01*
X221957639Y-179265084D01*
X221796038Y-179281000D01*
X221687962Y-179281000D01*
X221526361Y-179265084D01*
X221319014Y-179202185D01*
X221319012Y-179202184D01*
X221127916Y-179100042D01*
X220960419Y-178962581D01*
X220822958Y-178795084D01*
X220720816Y-178603988D01*
X220698836Y-178531530D01*
X220657916Y-178396639D01*
X220636678Y-178181000D01*
X220657916Y-177965361D01*
X220720815Y-177758014D01*
X220729356Y-177742034D01*
X220822958Y-177566916D01*
X220960419Y-177399419D01*
X221127916Y-177261958D01*
X221319012Y-177159816D01*
X221319014Y-177159815D01*
X221526361Y-177096916D01*
X221687962Y-177081000D01*
X221796038Y-177081000D01*
X221957639Y-177096916D01*
X221957639Y-177096916D01*
G37*
G36*
X225382000Y-179281000D02*
X223182000Y-179281000D01*
X223182000Y-177081000D01*
X225382000Y-177081000D01*
X225382000Y-179281000D01*
X225382000Y-179281000D01*
G37*
G36*
X121608030Y-176560469D02*
X121608033Y-176560470D01*
X121608034Y-176560470D01*
X121796535Y-176617651D01*
X121796537Y-176617652D01*
X121970260Y-176710509D01*
X122122528Y-176835472D01*
X122247491Y-176987740D01*
X122247492Y-176987742D01*
X122340349Y-177161465D01*
X122370833Y-177261958D01*
X122397531Y-177349970D01*
X122416838Y-177546000D01*
X122397531Y-177742030D01*
X122397530Y-177742033D01*
X122397530Y-177742034D01*
X122343213Y-177921095D01*
X122340348Y-177930537D01*
X122247491Y-178104260D01*
X122122528Y-178256528D01*
X121970260Y-178381491D01*
X121970258Y-178381492D01*
X121796535Y-178474349D01*
X121608034Y-178531530D01*
X121608033Y-178531530D01*
X121608030Y-178531531D01*
X121461124Y-178546000D01*
X121362876Y-178546000D01*
X121215970Y-178531531D01*
X121215967Y-178531530D01*
X121215966Y-178531530D01*
X121027465Y-178474349D01*
X120853742Y-178381492D01*
X120853740Y-178381491D01*
X120701472Y-178256528D01*
X120576509Y-178104260D01*
X120483652Y-177930537D01*
X120480788Y-177921095D01*
X120426470Y-177742034D01*
X120426470Y-177742033D01*
X120426469Y-177742030D01*
X120407162Y-177546000D01*
X120426469Y-177349970D01*
X120453167Y-177261958D01*
X120483651Y-177161465D01*
X120576508Y-176987742D01*
X120576509Y-176987740D01*
X120701472Y-176835472D01*
X120853740Y-176710509D01*
X121027463Y-176617652D01*
X121027465Y-176617651D01*
X121215966Y-176560470D01*
X121215967Y-176560470D01*
X121215970Y-176560469D01*
X121362876Y-176546000D01*
X121461124Y-176546000D01*
X121608030Y-176560469D01*
X121608030Y-176560469D01*
G37*
G36*
X113988030Y-176560469D02*
X113988033Y-176560470D01*
X113988034Y-176560470D01*
X114176535Y-176617651D01*
X114176537Y-176617652D01*
X114350260Y-176710509D01*
X114502528Y-176835472D01*
X114627491Y-176987740D01*
X114627492Y-176987742D01*
X114720349Y-177161465D01*
X114750833Y-177261958D01*
X114777531Y-177349970D01*
X114796838Y-177546000D01*
X114777531Y-177742030D01*
X114777530Y-177742033D01*
X114777530Y-177742034D01*
X114723213Y-177921095D01*
X114720348Y-177930537D01*
X114627491Y-178104260D01*
X114502528Y-178256528D01*
X114350260Y-178381491D01*
X114350258Y-178381492D01*
X114176535Y-178474349D01*
X113988034Y-178531530D01*
X113988033Y-178531530D01*
X113988030Y-178531531D01*
X113841124Y-178546000D01*
X113742876Y-178546000D01*
X113595970Y-178531531D01*
X113595967Y-178531530D01*
X113595966Y-178531530D01*
X113407465Y-178474349D01*
X113233742Y-178381492D01*
X113233740Y-178381491D01*
X113081472Y-178256528D01*
X112956509Y-178104260D01*
X112863652Y-177930537D01*
X112860788Y-177921095D01*
X112806470Y-177742034D01*
X112806470Y-177742033D01*
X112806469Y-177742030D01*
X112787162Y-177546000D01*
X112806469Y-177349970D01*
X112833167Y-177261958D01*
X112863651Y-177161465D01*
X112956508Y-176987742D01*
X112956509Y-176987740D01*
X113081472Y-176835472D01*
X113233740Y-176710509D01*
X113407463Y-176617652D01*
X113407465Y-176617651D01*
X113595966Y-176560470D01*
X113595967Y-176560470D01*
X113595970Y-176560469D01*
X113742876Y-176546000D01*
X113841124Y-176546000D01*
X113988030Y-176560469D01*
X113988030Y-176560469D01*
G37*
G36*
X26827195Y-166960874D02*
X27702119Y-167134907D01*
X28663018Y-167532924D01*
X29527804Y-168110756D01*
X30263244Y-168846196D01*
X30841076Y-169710982D01*
X31239093Y-170671881D01*
X31339186Y-171175084D01*
X31429776Y-171630508D01*
X31442000Y-171691965D01*
X31442000Y-172732035D01*
X31239093Y-173752119D01*
X30841076Y-174713018D01*
X30263244Y-175577804D01*
X29527804Y-176313244D01*
X28663018Y-176891076D01*
X27702119Y-177289093D01*
X26827195Y-177463126D01*
X26682036Y-177492000D01*
X25641964Y-177492000D01*
X25496805Y-177463126D01*
X24621881Y-177289093D01*
X23660982Y-176891076D01*
X22796196Y-176313244D01*
X22060756Y-175577804D01*
X21482924Y-174713018D01*
X21084907Y-173752119D01*
X20882000Y-172732035D01*
X20882000Y-171691965D01*
X20894225Y-171630508D01*
X20984814Y-171175084D01*
X21084907Y-170671881D01*
X21482924Y-169710982D01*
X22060756Y-168846196D01*
X22796196Y-168110756D01*
X23660982Y-167532924D01*
X24621881Y-167134907D01*
X25496805Y-166960874D01*
X25641964Y-166932000D01*
X26682036Y-166932000D01*
X26827195Y-166960874D01*
X26827195Y-166960874D01*
G37*
G36*
X40258357Y-166827740D02*
X41164119Y-167007907D01*
X42125018Y-167405924D01*
X42989804Y-167983756D01*
X43725244Y-168719196D01*
X44303076Y-169583982D01*
X44701093Y-170544881D01*
X44826448Y-171175084D01*
X44902624Y-171558044D01*
X44904000Y-171564965D01*
X44904000Y-172605035D01*
X44701093Y-173625119D01*
X44303076Y-174586018D01*
X43725244Y-175450804D01*
X42989804Y-176186244D01*
X42125018Y-176764076D01*
X41164119Y-177162093D01*
X40289195Y-177336126D01*
X40144036Y-177365000D01*
X39103964Y-177365000D01*
X38958805Y-177336126D01*
X38083881Y-177162093D01*
X37122982Y-176764076D01*
X36258196Y-176186244D01*
X35522756Y-175450804D01*
X34944924Y-174586018D01*
X34546907Y-173625119D01*
X34344000Y-172605035D01*
X34344000Y-171564965D01*
X34345377Y-171558044D01*
X34421552Y-171175084D01*
X34546907Y-170544881D01*
X34944924Y-169583982D01*
X35522756Y-168719196D01*
X36258196Y-167983756D01*
X37122982Y-167405924D01*
X38083881Y-167007907D01*
X38989643Y-166827740D01*
X39103964Y-166805000D01*
X40144036Y-166805000D01*
X40258357Y-166827740D01*
X40258357Y-166827740D01*
G37*
G36*
X113988030Y-174020469D02*
X113988033Y-174020470D01*
X113988034Y-174020470D01*
X114176535Y-174077651D01*
X114176537Y-174077652D01*
X114350260Y-174170509D01*
X114502528Y-174295472D01*
X114627491Y-174447740D01*
X114627492Y-174447742D01*
X114720349Y-174621465D01*
X114748121Y-174713018D01*
X114777531Y-174809970D01*
X114796838Y-175006000D01*
X114777531Y-175202030D01*
X114720348Y-175390537D01*
X114627491Y-175564260D01*
X114502528Y-175716528D01*
X114350260Y-175841491D01*
X114350258Y-175841492D01*
X114176535Y-175934349D01*
X113988034Y-175991530D01*
X113988033Y-175991530D01*
X113988030Y-175991531D01*
X113841124Y-176006000D01*
X113742876Y-176006000D01*
X113595970Y-175991531D01*
X113595967Y-175991530D01*
X113595966Y-175991530D01*
X113407465Y-175934349D01*
X113233742Y-175841492D01*
X113233740Y-175841491D01*
X113081472Y-175716528D01*
X112956509Y-175564260D01*
X112863652Y-175390537D01*
X112806469Y-175202030D01*
X112787162Y-175006000D01*
X112806469Y-174809970D01*
X112835879Y-174713018D01*
X112863651Y-174621465D01*
X112956508Y-174447742D01*
X112956509Y-174447740D01*
X113081472Y-174295472D01*
X113233740Y-174170509D01*
X113407463Y-174077652D01*
X113407465Y-174077651D01*
X113595966Y-174020470D01*
X113595967Y-174020470D01*
X113595970Y-174020469D01*
X113742876Y-174006000D01*
X113841124Y-174006000D01*
X113988030Y-174020469D01*
X113988030Y-174020469D01*
G37*
G36*
X121608030Y-174020469D02*
X121608033Y-174020470D01*
X121608034Y-174020470D01*
X121796535Y-174077651D01*
X121796537Y-174077652D01*
X121970260Y-174170509D01*
X122122528Y-174295472D01*
X122247491Y-174447740D01*
X122247492Y-174447742D01*
X122340349Y-174621465D01*
X122368121Y-174713018D01*
X122397531Y-174809970D01*
X122416838Y-175006000D01*
X122397531Y-175202030D01*
X122340348Y-175390537D01*
X122247491Y-175564260D01*
X122122528Y-175716528D01*
X121970260Y-175841491D01*
X121970258Y-175841492D01*
X121796535Y-175934349D01*
X121608034Y-175991530D01*
X121608033Y-175991530D01*
X121608030Y-175991531D01*
X121461124Y-176006000D01*
X121362876Y-176006000D01*
X121215970Y-175991531D01*
X121215967Y-175991530D01*
X121215966Y-175991530D01*
X121027465Y-175934349D01*
X120853742Y-175841492D01*
X120853740Y-175841491D01*
X120701472Y-175716528D01*
X120576509Y-175564260D01*
X120483652Y-175390537D01*
X120426469Y-175202030D01*
X120407162Y-175006000D01*
X120426469Y-174809970D01*
X120455879Y-174713018D01*
X120483651Y-174621465D01*
X120576508Y-174447742D01*
X120576509Y-174447740D01*
X120701472Y-174295472D01*
X120853740Y-174170509D01*
X121027463Y-174077652D01*
X121027465Y-174077651D01*
X121215966Y-174020470D01*
X121215967Y-174020470D01*
X121215970Y-174020469D01*
X121362876Y-174006000D01*
X121461124Y-174006000D01*
X121608030Y-174020469D01*
X121608030Y-174020469D01*
G37*
G36*
X121608030Y-171480469D02*
X121608033Y-171480470D01*
X121608034Y-171480470D01*
X121796535Y-171537651D01*
X121796537Y-171537652D01*
X121970260Y-171630509D01*
X122122528Y-171755472D01*
X122247491Y-171907740D01*
X122247492Y-171907742D01*
X122340349Y-172081465D01*
X122392683Y-172253988D01*
X122397531Y-172269970D01*
X122416838Y-172466000D01*
X122397531Y-172662030D01*
X122340348Y-172850537D01*
X122247491Y-173024260D01*
X122122528Y-173176528D01*
X121970260Y-173301491D01*
X121970258Y-173301492D01*
X121796535Y-173394349D01*
X121608034Y-173451530D01*
X121608033Y-173451530D01*
X121608030Y-173451531D01*
X121461124Y-173466000D01*
X121362876Y-173466000D01*
X121215970Y-173451531D01*
X121215967Y-173451530D01*
X121215966Y-173451530D01*
X121027465Y-173394349D01*
X120853742Y-173301492D01*
X120853740Y-173301491D01*
X120701472Y-173176528D01*
X120576509Y-173024260D01*
X120483652Y-172850537D01*
X120426469Y-172662030D01*
X120407162Y-172466000D01*
X120426469Y-172269970D01*
X120431317Y-172253988D01*
X120483651Y-172081465D01*
X120576508Y-171907742D01*
X120576509Y-171907740D01*
X120701472Y-171755472D01*
X120853740Y-171630509D01*
X121027463Y-171537652D01*
X121027465Y-171537651D01*
X121215966Y-171480470D01*
X121215967Y-171480470D01*
X121215970Y-171480469D01*
X121362876Y-171466000D01*
X121461124Y-171466000D01*
X121608030Y-171480469D01*
X121608030Y-171480469D01*
G37*
G36*
X113988030Y-171480469D02*
X113988033Y-171480470D01*
X113988034Y-171480470D01*
X114176535Y-171537651D01*
X114176537Y-171537652D01*
X114350260Y-171630509D01*
X114502528Y-171755472D01*
X114627491Y-171907740D01*
X114627492Y-171907742D01*
X114720349Y-172081465D01*
X114772683Y-172253988D01*
X114777531Y-172269970D01*
X114796838Y-172466000D01*
X114777531Y-172662030D01*
X114720348Y-172850537D01*
X114627491Y-173024260D01*
X114502528Y-173176528D01*
X114350260Y-173301491D01*
X114350258Y-173301492D01*
X114176535Y-173394349D01*
X113988034Y-173451530D01*
X113988033Y-173451530D01*
X113988030Y-173451531D01*
X113841124Y-173466000D01*
X113742876Y-173466000D01*
X113595970Y-173451531D01*
X113595967Y-173451530D01*
X113595966Y-173451530D01*
X113407465Y-173394349D01*
X113233742Y-173301492D01*
X113233740Y-173301491D01*
X113081472Y-173176528D01*
X112956509Y-173024260D01*
X112863652Y-172850537D01*
X112806469Y-172662030D01*
X112787162Y-172466000D01*
X112806469Y-172269970D01*
X112811317Y-172253988D01*
X112863651Y-172081465D01*
X112956508Y-171907742D01*
X112956509Y-171907740D01*
X113081472Y-171755472D01*
X113233740Y-171630509D01*
X113407463Y-171537652D01*
X113407465Y-171537651D01*
X113595966Y-171480470D01*
X113595967Y-171480470D01*
X113595970Y-171480469D01*
X113742876Y-171466000D01*
X113841124Y-171466000D01*
X113988030Y-171480469D01*
X113988030Y-171480469D01*
G37*
G36*
X178392000Y-172931000D02*
X176192000Y-172931000D01*
X176192000Y-170731000D01*
X178392000Y-170731000D01*
X178392000Y-172931000D01*
X178392000Y-172931000D01*
G37*
G36*
X182587639Y-170746916D02*
X182794986Y-170809815D01*
X182794988Y-170809816D01*
X182986084Y-170911958D01*
X183153581Y-171049419D01*
X183291042Y-171216916D01*
X183393184Y-171408012D01*
X183393185Y-171408014D01*
X183456084Y-171615361D01*
X183463629Y-171691965D01*
X183477322Y-171831000D01*
X183456084Y-172046638D01*
X183393184Y-172253988D01*
X183291042Y-172445084D01*
X183153581Y-172612581D01*
X182986084Y-172750042D01*
X182798073Y-172850535D01*
X182794986Y-172852185D01*
X182587639Y-172915084D01*
X182426038Y-172931000D01*
X182317962Y-172931000D01*
X182156361Y-172915084D01*
X181949014Y-172852185D01*
X181945927Y-172850535D01*
X181757916Y-172750042D01*
X181590419Y-172612581D01*
X181452958Y-172445084D01*
X181350816Y-172253988D01*
X181287916Y-172046638D01*
X181266678Y-171831000D01*
X181280371Y-171691965D01*
X181287916Y-171615361D01*
X181350815Y-171408014D01*
X181350816Y-171408012D01*
X181452958Y-171216916D01*
X181590419Y-171049419D01*
X181757916Y-170911958D01*
X181949012Y-170809816D01*
X181949014Y-170809815D01*
X182156361Y-170746916D01*
X182317962Y-170731000D01*
X182426038Y-170731000D01*
X182587639Y-170746916D01*
X182587639Y-170746916D01*
G37*
G36*
X225382000Y-171661000D02*
X223182000Y-171661000D01*
X223182000Y-169461000D01*
X225382000Y-169461000D01*
X225382000Y-171661000D01*
X225382000Y-171661000D01*
G37*
G36*
X219417639Y-169476916D02*
X219624986Y-169539815D01*
X219624988Y-169539816D01*
X219816084Y-169641958D01*
X219983581Y-169779419D01*
X220121042Y-169946916D01*
X220214644Y-170122034D01*
X220223185Y-170138014D01*
X220286084Y-170345361D01*
X220307322Y-170561000D01*
X220286084Y-170776639D01*
X220245035Y-170911958D01*
X220223184Y-170983988D01*
X220121042Y-171175084D01*
X219983581Y-171342581D01*
X219816084Y-171480042D01*
X219624988Y-171582184D01*
X219624986Y-171582185D01*
X219417639Y-171645084D01*
X219256038Y-171661000D01*
X219147962Y-171661000D01*
X218986361Y-171645084D01*
X218779014Y-171582185D01*
X218779012Y-171582184D01*
X218587916Y-171480042D01*
X218420419Y-171342581D01*
X218282958Y-171175084D01*
X218180816Y-170983988D01*
X218158966Y-170911958D01*
X218117916Y-170776639D01*
X218096678Y-170561000D01*
X218117916Y-170345361D01*
X218180815Y-170138014D01*
X218189356Y-170122034D01*
X218282958Y-169946916D01*
X218420419Y-169779419D01*
X218587916Y-169641958D01*
X218779012Y-169539816D01*
X218779014Y-169539815D01*
X218986361Y-169476916D01*
X219147962Y-169461000D01*
X219256038Y-169461000D01*
X219417639Y-169476916D01*
X219417639Y-169476916D01*
G37*
G36*
X121608030Y-168940469D02*
X121608033Y-168940470D01*
X121608034Y-168940470D01*
X121796535Y-168997651D01*
X121796537Y-168997652D01*
X121970260Y-169090509D01*
X122122528Y-169215472D01*
X122247491Y-169367740D01*
X122340348Y-169541463D01*
X122397531Y-169729970D01*
X122416838Y-169926000D01*
X122397531Y-170122030D01*
X122397530Y-170122033D01*
X122397530Y-170122034D01*
X122392683Y-170138014D01*
X122340348Y-170310537D01*
X122247491Y-170484260D01*
X122122528Y-170636528D01*
X121970260Y-170761491D01*
X121970258Y-170761492D01*
X121796535Y-170854349D01*
X121608034Y-170911530D01*
X121608033Y-170911530D01*
X121608030Y-170911531D01*
X121461124Y-170926000D01*
X121362876Y-170926000D01*
X121215970Y-170911531D01*
X121215967Y-170911530D01*
X121215966Y-170911530D01*
X121027465Y-170854349D01*
X120853742Y-170761492D01*
X120853740Y-170761491D01*
X120701472Y-170636528D01*
X120576509Y-170484260D01*
X120483652Y-170310537D01*
X120431318Y-170138014D01*
X120426470Y-170122034D01*
X120426470Y-170122033D01*
X120426469Y-170122030D01*
X120407162Y-169926000D01*
X120426469Y-169729970D01*
X120483652Y-169541463D01*
X120576509Y-169367740D01*
X120701472Y-169215472D01*
X120853740Y-169090509D01*
X121027463Y-168997652D01*
X121027465Y-168997651D01*
X121215966Y-168940470D01*
X121215967Y-168940470D01*
X121215970Y-168940469D01*
X121362876Y-168926000D01*
X121461124Y-168926000D01*
X121608030Y-168940469D01*
X121608030Y-168940469D01*
G37*
G36*
X113988030Y-168940469D02*
X113988033Y-168940470D01*
X113988034Y-168940470D01*
X114176535Y-168997651D01*
X114176537Y-168997652D01*
X114350260Y-169090509D01*
X114502528Y-169215472D01*
X114627491Y-169367740D01*
X114720348Y-169541463D01*
X114777531Y-169729970D01*
X114796838Y-169926000D01*
X114777531Y-170122030D01*
X114777530Y-170122033D01*
X114777530Y-170122034D01*
X114772683Y-170138014D01*
X114720348Y-170310537D01*
X114627491Y-170484260D01*
X114502528Y-170636528D01*
X114350260Y-170761491D01*
X114350258Y-170761492D01*
X114176535Y-170854349D01*
X113988034Y-170911530D01*
X113988033Y-170911530D01*
X113988030Y-170911531D01*
X113841124Y-170926000D01*
X113742876Y-170926000D01*
X113595970Y-170911531D01*
X113595967Y-170911530D01*
X113595966Y-170911530D01*
X113407465Y-170854349D01*
X113233742Y-170761492D01*
X113233740Y-170761491D01*
X113081472Y-170636528D01*
X112956509Y-170484260D01*
X112863652Y-170310537D01*
X112811318Y-170138014D01*
X112806470Y-170122034D01*
X112806470Y-170122033D01*
X112806469Y-170122030D01*
X112787162Y-169926000D01*
X112806469Y-169729970D01*
X112863652Y-169541463D01*
X112956509Y-169367740D01*
X113081472Y-169215472D01*
X113233740Y-169090509D01*
X113407463Y-168997652D01*
X113407465Y-168997651D01*
X113595966Y-168940470D01*
X113595967Y-168940470D01*
X113595970Y-168940469D01*
X113742876Y-168926000D01*
X113841124Y-168926000D01*
X113988030Y-168940469D01*
X113988030Y-168940469D01*
G37*
G36*
X113988030Y-166400469D02*
X113988033Y-166400470D01*
X113988034Y-166400470D01*
X114176535Y-166457651D01*
X114176537Y-166457652D01*
X114350260Y-166550509D01*
X114502528Y-166675472D01*
X114627491Y-166827740D01*
X114720348Y-167001463D01*
X114777531Y-167189970D01*
X114796838Y-167386000D01*
X114777531Y-167582030D01*
X114720348Y-167770537D01*
X114627491Y-167944260D01*
X114502528Y-168096528D01*
X114350260Y-168221491D01*
X114350258Y-168221492D01*
X114176535Y-168314349D01*
X113988034Y-168371530D01*
X113988033Y-168371530D01*
X113988030Y-168371531D01*
X113841124Y-168386000D01*
X113742876Y-168386000D01*
X113595970Y-168371531D01*
X113595967Y-168371530D01*
X113595966Y-168371530D01*
X113407465Y-168314349D01*
X113233742Y-168221492D01*
X113233740Y-168221491D01*
X113081472Y-168096528D01*
X112956509Y-167944260D01*
X112863652Y-167770537D01*
X112806469Y-167582030D01*
X112787162Y-167386000D01*
X112806469Y-167189970D01*
X112863652Y-167001463D01*
X112956509Y-166827740D01*
X113081472Y-166675472D01*
X113233740Y-166550509D01*
X113407463Y-166457652D01*
X113407465Y-166457651D01*
X113595966Y-166400470D01*
X113595967Y-166400470D01*
X113595970Y-166400469D01*
X113742876Y-166386000D01*
X113841124Y-166386000D01*
X113988030Y-166400469D01*
X113988030Y-166400469D01*
G37*
G36*
X121608030Y-166400469D02*
X121608033Y-166400470D01*
X121608034Y-166400470D01*
X121796535Y-166457651D01*
X121796537Y-166457652D01*
X121970260Y-166550509D01*
X122122528Y-166675472D01*
X122247491Y-166827740D01*
X122340348Y-167001463D01*
X122397531Y-167189970D01*
X122416838Y-167386000D01*
X122397531Y-167582030D01*
X122340348Y-167770537D01*
X122247491Y-167944260D01*
X122122528Y-168096528D01*
X121970260Y-168221491D01*
X121970258Y-168221492D01*
X121796535Y-168314349D01*
X121608034Y-168371530D01*
X121608033Y-168371530D01*
X121608030Y-168371531D01*
X121461124Y-168386000D01*
X121362876Y-168386000D01*
X121215970Y-168371531D01*
X121215967Y-168371530D01*
X121215966Y-168371530D01*
X121027465Y-168314349D01*
X120853742Y-168221492D01*
X120853740Y-168221491D01*
X120701472Y-168096528D01*
X120576509Y-167944260D01*
X120483652Y-167770537D01*
X120426469Y-167582030D01*
X120407162Y-167386000D01*
X120426469Y-167189970D01*
X120483652Y-167001463D01*
X120576509Y-166827740D01*
X120701472Y-166675472D01*
X120853740Y-166550509D01*
X121027463Y-166457652D01*
X121027465Y-166457651D01*
X121215966Y-166400470D01*
X121215967Y-166400470D01*
X121215970Y-166400469D01*
X121362876Y-166386000D01*
X121461124Y-166386000D01*
X121608030Y-166400469D01*
X121608030Y-166400469D01*
G37*
G36*
X178392000Y-166581000D02*
X176192000Y-166581000D01*
X176192000Y-164381000D01*
X178392000Y-164381000D01*
X178392000Y-166581000D01*
X178392000Y-166581000D01*
G37*
G36*
X180047639Y-164396916D02*
X180254986Y-164459815D01*
X180254988Y-164459816D01*
X180446084Y-164561958D01*
X180613581Y-164699419D01*
X180751042Y-164866916D01*
X180844644Y-165042034D01*
X180853185Y-165058014D01*
X180916084Y-165265361D01*
X180937322Y-165481000D01*
X180916084Y-165696639D01*
X180875165Y-165831530D01*
X180853184Y-165903988D01*
X180751042Y-166095084D01*
X180613581Y-166262581D01*
X180446084Y-166400042D01*
X180254988Y-166502184D01*
X180254986Y-166502185D01*
X180047639Y-166565084D01*
X179886038Y-166581000D01*
X179777962Y-166581000D01*
X179616361Y-166565084D01*
X179409014Y-166502185D01*
X179409012Y-166502184D01*
X179217916Y-166400042D01*
X179050419Y-166262581D01*
X178912958Y-166095084D01*
X178810816Y-165903988D01*
X178788836Y-165831530D01*
X178747916Y-165696639D01*
X178726678Y-165481000D01*
X178747916Y-165265361D01*
X178810815Y-165058014D01*
X178819356Y-165042034D01*
X178912958Y-164866916D01*
X179050419Y-164699419D01*
X179217916Y-164561958D01*
X179409012Y-164459816D01*
X179409014Y-164459815D01*
X179616361Y-164396916D01*
X179777962Y-164381000D01*
X179886038Y-164381000D01*
X180047639Y-164396916D01*
X180047639Y-164396916D01*
G37*
G36*
X182587639Y-164396916D02*
X182794986Y-164459815D01*
X182794988Y-164459816D01*
X182986084Y-164561958D01*
X183153581Y-164699419D01*
X183291042Y-164866916D01*
X183384644Y-165042034D01*
X183393185Y-165058014D01*
X183456084Y-165265361D01*
X183477322Y-165481000D01*
X183456084Y-165696639D01*
X183415165Y-165831530D01*
X183393184Y-165903988D01*
X183291042Y-166095084D01*
X183153581Y-166262581D01*
X182986084Y-166400042D01*
X182794988Y-166502184D01*
X182794986Y-166502185D01*
X182587639Y-166565084D01*
X182426038Y-166581000D01*
X182317962Y-166581000D01*
X182156361Y-166565084D01*
X181949014Y-166502185D01*
X181949012Y-166502184D01*
X181757916Y-166400042D01*
X181590419Y-166262581D01*
X181452958Y-166095084D01*
X181350816Y-165903988D01*
X181328836Y-165831530D01*
X181287916Y-165696639D01*
X181266678Y-165481000D01*
X181287916Y-165265361D01*
X181350815Y-165058014D01*
X181359356Y-165042034D01*
X181452958Y-164866916D01*
X181590419Y-164699419D01*
X181757916Y-164561958D01*
X181949012Y-164459816D01*
X181949014Y-164459815D01*
X182156361Y-164396916D01*
X182317962Y-164381000D01*
X182426038Y-164381000D01*
X182587639Y-164396916D01*
X182587639Y-164396916D01*
G37*
G36*
X113988030Y-163860469D02*
X113988033Y-163860470D01*
X113988034Y-163860470D01*
X114176535Y-163917651D01*
X114176537Y-163917652D01*
X114350260Y-164010509D01*
X114502528Y-164135472D01*
X114627491Y-164287740D01*
X114627492Y-164287742D01*
X114720349Y-164461465D01*
X114772683Y-164633988D01*
X114777531Y-164649970D01*
X114796838Y-164846000D01*
X114777531Y-165042030D01*
X114777530Y-165042033D01*
X114777530Y-165042034D01*
X114772683Y-165058014D01*
X114720348Y-165230537D01*
X114627491Y-165404260D01*
X114502528Y-165556528D01*
X114350260Y-165681491D01*
X114350258Y-165681492D01*
X114176535Y-165774349D01*
X113988034Y-165831530D01*
X113988033Y-165831530D01*
X113988030Y-165831531D01*
X113841124Y-165846000D01*
X113742876Y-165846000D01*
X113595970Y-165831531D01*
X113595967Y-165831530D01*
X113595966Y-165831530D01*
X113407465Y-165774349D01*
X113233742Y-165681492D01*
X113233740Y-165681491D01*
X113081472Y-165556528D01*
X112956509Y-165404260D01*
X112863652Y-165230537D01*
X112811318Y-165058014D01*
X112806470Y-165042034D01*
X112806470Y-165042033D01*
X112806469Y-165042030D01*
X112787162Y-164846000D01*
X112806469Y-164649970D01*
X112811317Y-164633988D01*
X112863651Y-164461465D01*
X112956508Y-164287742D01*
X112956509Y-164287740D01*
X113081472Y-164135472D01*
X113233740Y-164010509D01*
X113407463Y-163917652D01*
X113407465Y-163917651D01*
X113595966Y-163860470D01*
X113595967Y-163860470D01*
X113595970Y-163860469D01*
X113742876Y-163846000D01*
X113841124Y-163846000D01*
X113988030Y-163860469D01*
X113988030Y-163860469D01*
G37*
G36*
X121608030Y-163860469D02*
X121608033Y-163860470D01*
X121608034Y-163860470D01*
X121796535Y-163917651D01*
X121796537Y-163917652D01*
X121970260Y-164010509D01*
X122122528Y-164135472D01*
X122247491Y-164287740D01*
X122247492Y-164287742D01*
X122340349Y-164461465D01*
X122392683Y-164633988D01*
X122397531Y-164649970D01*
X122416838Y-164846000D01*
X122397531Y-165042030D01*
X122397530Y-165042033D01*
X122397530Y-165042034D01*
X122392683Y-165058014D01*
X122340348Y-165230537D01*
X122247491Y-165404260D01*
X122122528Y-165556528D01*
X121970260Y-165681491D01*
X121970258Y-165681492D01*
X121796535Y-165774349D01*
X121608034Y-165831530D01*
X121608033Y-165831530D01*
X121608030Y-165831531D01*
X121461124Y-165846000D01*
X121362876Y-165846000D01*
X121215970Y-165831531D01*
X121215967Y-165831530D01*
X121215966Y-165831530D01*
X121027465Y-165774349D01*
X120853742Y-165681492D01*
X120853740Y-165681491D01*
X120701472Y-165556528D01*
X120576509Y-165404260D01*
X120483652Y-165230537D01*
X120431318Y-165058014D01*
X120426470Y-165042034D01*
X120426470Y-165042033D01*
X120426469Y-165042030D01*
X120407162Y-164846000D01*
X120426469Y-164649970D01*
X120431317Y-164633988D01*
X120483651Y-164461465D01*
X120576508Y-164287742D01*
X120576509Y-164287740D01*
X120701472Y-164135472D01*
X120853740Y-164010509D01*
X121027463Y-163917652D01*
X121027465Y-163917651D01*
X121215966Y-163860470D01*
X121215967Y-163860470D01*
X121215970Y-163860469D01*
X121362876Y-163846000D01*
X121461124Y-163846000D01*
X121608030Y-163860469D01*
X121608030Y-163860469D01*
G37*
G36*
X221957639Y-163126916D02*
X222164986Y-163189815D01*
X222164988Y-163189816D01*
X222356084Y-163291958D01*
X222523581Y-163429419D01*
X222661042Y-163596916D01*
X222763184Y-163788012D01*
X222763185Y-163788014D01*
X222826084Y-163995361D01*
X222847322Y-164211000D01*
X222826084Y-164426639D01*
X222785035Y-164561958D01*
X222763184Y-164633988D01*
X222661042Y-164825084D01*
X222523581Y-164992581D01*
X222356084Y-165130042D01*
X222168073Y-165230535D01*
X222164986Y-165232185D01*
X221957639Y-165295084D01*
X221796038Y-165311000D01*
X221687962Y-165311000D01*
X221526361Y-165295084D01*
X221319014Y-165232185D01*
X221315927Y-165230535D01*
X221127916Y-165130042D01*
X220960419Y-164992581D01*
X220822958Y-164825084D01*
X220720816Y-164633988D01*
X220698966Y-164561958D01*
X220657916Y-164426639D01*
X220636678Y-164211000D01*
X220657916Y-163995361D01*
X220720815Y-163788014D01*
X220720816Y-163788012D01*
X220822958Y-163596916D01*
X220960419Y-163429419D01*
X221127916Y-163291958D01*
X221319012Y-163189816D01*
X221319014Y-163189815D01*
X221526361Y-163126916D01*
X221687962Y-163111000D01*
X221796038Y-163111000D01*
X221957639Y-163126916D01*
X221957639Y-163126916D01*
G37*
G36*
X225382000Y-165311000D02*
X223182000Y-165311000D01*
X223182000Y-163111000D01*
X225382000Y-163111000D01*
X225382000Y-165311000D01*
X225382000Y-165311000D01*
G37*
G36*
X219417639Y-163126916D02*
X219624986Y-163189815D01*
X219624988Y-163189816D01*
X219816084Y-163291958D01*
X219983581Y-163429419D01*
X220121042Y-163596916D01*
X220223184Y-163788012D01*
X220223185Y-163788014D01*
X220286084Y-163995361D01*
X220307322Y-164211000D01*
X220286084Y-164426639D01*
X220245035Y-164561958D01*
X220223184Y-164633988D01*
X220121042Y-164825084D01*
X219983581Y-164992581D01*
X219816084Y-165130042D01*
X219628073Y-165230535D01*
X219624986Y-165232185D01*
X219417639Y-165295084D01*
X219256038Y-165311000D01*
X219147962Y-165311000D01*
X218986361Y-165295084D01*
X218779014Y-165232185D01*
X218775927Y-165230535D01*
X218587916Y-165130042D01*
X218420419Y-164992581D01*
X218282958Y-164825084D01*
X218180816Y-164633988D01*
X218158966Y-164561958D01*
X218117916Y-164426639D01*
X218096678Y-164211000D01*
X218117916Y-163995361D01*
X218180815Y-163788014D01*
X218180816Y-163788012D01*
X218282958Y-163596916D01*
X218420419Y-163429419D01*
X218587916Y-163291958D01*
X218779012Y-163189816D01*
X218779014Y-163189815D01*
X218986361Y-163126916D01*
X219147962Y-163111000D01*
X219256038Y-163111000D01*
X219417639Y-163126916D01*
X219417639Y-163126916D01*
G37*
G36*
X113988030Y-161320469D02*
X113988033Y-161320470D01*
X113988034Y-161320470D01*
X114176535Y-161377651D01*
X114176537Y-161377652D01*
X114350260Y-161470509D01*
X114502528Y-161595472D01*
X114627491Y-161747740D01*
X114720348Y-161921463D01*
X114777531Y-162109970D01*
X114796838Y-162306000D01*
X114777531Y-162502030D01*
X114777530Y-162502033D01*
X114777530Y-162502034D01*
X114730432Y-162657297D01*
X114720348Y-162690537D01*
X114627491Y-162864260D01*
X114502528Y-163016528D01*
X114350260Y-163141491D01*
X114350258Y-163141492D01*
X114176535Y-163234349D01*
X113988034Y-163291530D01*
X113988033Y-163291530D01*
X113988030Y-163291531D01*
X113841124Y-163306000D01*
X113742876Y-163306000D01*
X113595970Y-163291531D01*
X113595967Y-163291530D01*
X113595966Y-163291530D01*
X113407465Y-163234349D01*
X113233742Y-163141492D01*
X113233740Y-163141491D01*
X113081472Y-163016528D01*
X112956509Y-162864260D01*
X112863652Y-162690537D01*
X112853569Y-162657297D01*
X112806470Y-162502034D01*
X112806470Y-162502033D01*
X112806469Y-162502030D01*
X112787162Y-162306000D01*
X112806469Y-162109970D01*
X112863652Y-161921463D01*
X112956509Y-161747740D01*
X113081472Y-161595472D01*
X113233740Y-161470509D01*
X113407463Y-161377652D01*
X113407465Y-161377651D01*
X113595966Y-161320470D01*
X113595967Y-161320470D01*
X113595970Y-161320469D01*
X113742876Y-161306000D01*
X113841124Y-161306000D01*
X113988030Y-161320469D01*
X113988030Y-161320469D01*
G37*
G36*
X121608030Y-161320469D02*
X121608033Y-161320470D01*
X121608034Y-161320470D01*
X121796535Y-161377651D01*
X121796537Y-161377652D01*
X121970260Y-161470509D01*
X122122528Y-161595472D01*
X122247491Y-161747740D01*
X122340348Y-161921463D01*
X122397531Y-162109970D01*
X122416838Y-162306000D01*
X122397531Y-162502030D01*
X122397530Y-162502033D01*
X122397530Y-162502034D01*
X122350432Y-162657297D01*
X122340348Y-162690537D01*
X122247491Y-162864260D01*
X122122528Y-163016528D01*
X121970260Y-163141491D01*
X121970258Y-163141492D01*
X121796535Y-163234349D01*
X121608034Y-163291530D01*
X121608033Y-163291530D01*
X121608030Y-163291531D01*
X121461124Y-163306000D01*
X121362876Y-163306000D01*
X121215970Y-163291531D01*
X121215967Y-163291530D01*
X121215966Y-163291530D01*
X121027465Y-163234349D01*
X120853742Y-163141492D01*
X120853740Y-163141491D01*
X120701472Y-163016528D01*
X120576509Y-162864260D01*
X120483652Y-162690537D01*
X120473569Y-162657297D01*
X120426470Y-162502034D01*
X120426470Y-162502033D01*
X120426469Y-162502030D01*
X120407162Y-162306000D01*
X120426469Y-162109970D01*
X120483652Y-161921463D01*
X120576509Y-161747740D01*
X120701472Y-161595472D01*
X120853740Y-161470509D01*
X121027463Y-161377652D01*
X121027465Y-161377651D01*
X121215966Y-161320470D01*
X121215967Y-161320470D01*
X121215970Y-161320469D01*
X121362876Y-161306000D01*
X121461124Y-161306000D01*
X121608030Y-161320469D01*
X121608030Y-161320469D01*
G37*
G36*
X37986175Y-157859197D02*
X38162629Y-157894296D01*
X38661277Y-158100843D01*
X38848587Y-158226000D01*
X39110051Y-158400705D01*
X39491695Y-158782349D01*
X39491697Y-158782352D01*
X39791557Y-159231123D01*
X39998104Y-159729771D01*
X40001150Y-159745084D01*
X40082127Y-160152184D01*
X40103400Y-160259134D01*
X40103400Y-160798866D01*
X39998104Y-161328229D01*
X39791557Y-161826877D01*
X39728356Y-161921463D01*
X39491695Y-162275651D01*
X39110051Y-162657295D01*
X39110048Y-162657297D01*
X38661277Y-162957157D01*
X38162629Y-163163704D01*
X38031359Y-163189815D01*
X37633268Y-163269000D01*
X37093532Y-163269000D01*
X36695441Y-163189815D01*
X36564171Y-163163704D01*
X36065523Y-162957157D01*
X35616752Y-162657297D01*
X35616749Y-162657295D01*
X35235105Y-162275651D01*
X34998444Y-161921463D01*
X34935243Y-161826877D01*
X34728696Y-161328229D01*
X34623400Y-160798866D01*
X34623400Y-160259134D01*
X34644674Y-160152184D01*
X34725650Y-159745084D01*
X34728696Y-159729771D01*
X34935243Y-159231123D01*
X35235103Y-158782352D01*
X35235105Y-158782349D01*
X35616749Y-158400705D01*
X35878213Y-158226000D01*
X36065523Y-158100843D01*
X36564171Y-157894296D01*
X36740625Y-157859197D01*
X37093532Y-157789000D01*
X37633268Y-157789000D01*
X37986175Y-157859197D01*
X37986175Y-157859197D01*
G37*
G36*
X113988030Y-158780469D02*
X113988033Y-158780470D01*
X113988034Y-158780470D01*
X114176535Y-158837651D01*
X114176537Y-158837652D01*
X114350260Y-158930509D01*
X114502528Y-159055472D01*
X114627491Y-159207740D01*
X114627492Y-159207742D01*
X114720349Y-159381465D01*
X114772683Y-159553988D01*
X114777531Y-159569970D01*
X114796838Y-159766000D01*
X114777531Y-159962030D01*
X114720348Y-160150537D01*
X114627491Y-160324260D01*
X114502528Y-160476528D01*
X114350260Y-160601491D01*
X114350258Y-160601492D01*
X114176535Y-160694349D01*
X113988034Y-160751530D01*
X113988033Y-160751530D01*
X113988030Y-160751531D01*
X113841124Y-160766000D01*
X113742876Y-160766000D01*
X113595970Y-160751531D01*
X113595967Y-160751530D01*
X113595966Y-160751530D01*
X113407465Y-160694349D01*
X113233742Y-160601492D01*
X113233740Y-160601491D01*
X113081472Y-160476528D01*
X112956509Y-160324260D01*
X112863652Y-160150537D01*
X112806469Y-159962030D01*
X112787162Y-159766000D01*
X112806469Y-159569970D01*
X112811317Y-159553988D01*
X112863651Y-159381465D01*
X112956508Y-159207742D01*
X112956509Y-159207740D01*
X113081472Y-159055472D01*
X113233740Y-158930509D01*
X113407463Y-158837652D01*
X113407465Y-158837651D01*
X113595966Y-158780470D01*
X113595967Y-158780470D01*
X113595970Y-158780469D01*
X113742876Y-158766000D01*
X113841124Y-158766000D01*
X113988030Y-158780469D01*
X113988030Y-158780469D01*
G37*
G36*
X121608030Y-158780469D02*
X121608033Y-158780470D01*
X121608034Y-158780470D01*
X121796535Y-158837651D01*
X121796537Y-158837652D01*
X121970260Y-158930509D01*
X122122528Y-159055472D01*
X122247491Y-159207740D01*
X122247492Y-159207742D01*
X122340349Y-159381465D01*
X122392683Y-159553988D01*
X122397531Y-159569970D01*
X122416838Y-159766000D01*
X122397531Y-159962030D01*
X122340348Y-160150537D01*
X122247491Y-160324260D01*
X122122528Y-160476528D01*
X121970260Y-160601491D01*
X121970258Y-160601492D01*
X121796535Y-160694349D01*
X121608034Y-160751530D01*
X121608033Y-160751530D01*
X121608030Y-160751531D01*
X121461124Y-160766000D01*
X121362876Y-160766000D01*
X121215970Y-160751531D01*
X121215967Y-160751530D01*
X121215966Y-160751530D01*
X121027465Y-160694349D01*
X120853742Y-160601492D01*
X120853740Y-160601491D01*
X120701472Y-160476528D01*
X120576509Y-160324260D01*
X120483652Y-160150537D01*
X120426469Y-159962030D01*
X120407162Y-159766000D01*
X120426469Y-159569970D01*
X120431317Y-159553988D01*
X120483651Y-159381465D01*
X120576508Y-159207742D01*
X120576509Y-159207740D01*
X120701472Y-159055472D01*
X120853740Y-158930509D01*
X121027463Y-158837652D01*
X121027465Y-158837651D01*
X121215966Y-158780470D01*
X121215967Y-158780470D01*
X121215970Y-158780469D01*
X121362876Y-158766000D01*
X121461124Y-158766000D01*
X121608030Y-158780469D01*
X121608030Y-158780469D01*
G37*
G36*
X213067639Y-158046916D02*
X213274986Y-158109815D01*
X213274988Y-158109816D01*
X213466084Y-158211958D01*
X213633581Y-158349419D01*
X213771042Y-158516916D01*
X213873184Y-158708012D01*
X213873185Y-158708014D01*
X213912511Y-158837652D01*
X213936084Y-158915362D01*
X213957322Y-159131000D01*
X213936084Y-159346638D01*
X213873184Y-159553988D01*
X213771042Y-159745084D01*
X213633581Y-159912581D01*
X213466084Y-160050042D01*
X213278073Y-160150535D01*
X213274986Y-160152185D01*
X213067639Y-160215084D01*
X212906038Y-160231000D01*
X212797962Y-160231000D01*
X212636361Y-160215084D01*
X212429014Y-160152185D01*
X212425927Y-160150535D01*
X212237916Y-160050042D01*
X212070419Y-159912581D01*
X211932958Y-159745084D01*
X211830816Y-159553988D01*
X211767916Y-159346638D01*
X211746678Y-159131000D01*
X211767916Y-158915362D01*
X211791489Y-158837652D01*
X211830815Y-158708014D01*
X211830816Y-158708012D01*
X211932958Y-158516916D01*
X212070419Y-158349419D01*
X212237916Y-158211958D01*
X212429012Y-158109816D01*
X212429014Y-158109815D01*
X212636361Y-158046916D01*
X212797962Y-158031000D01*
X212906038Y-158031000D01*
X213067639Y-158046916D01*
X213067639Y-158046916D01*
G37*
G36*
X194017639Y-158046916D02*
X194224986Y-158109815D01*
X194224988Y-158109816D01*
X194416084Y-158211958D01*
X194583581Y-158349419D01*
X194721042Y-158516916D01*
X194823184Y-158708012D01*
X194823185Y-158708014D01*
X194862511Y-158837652D01*
X194886084Y-158915362D01*
X194907322Y-159131000D01*
X194886084Y-159346638D01*
X194823184Y-159553988D01*
X194721042Y-159745084D01*
X194583581Y-159912581D01*
X194416084Y-160050042D01*
X194228073Y-160150535D01*
X194224986Y-160152185D01*
X194017639Y-160215084D01*
X193856038Y-160231000D01*
X193747962Y-160231000D01*
X193586361Y-160215084D01*
X193379014Y-160152185D01*
X193375927Y-160150535D01*
X193187916Y-160050042D01*
X193020419Y-159912581D01*
X192882958Y-159745084D01*
X192780816Y-159553988D01*
X192717916Y-159346638D01*
X192696678Y-159131000D01*
X192717916Y-158915362D01*
X192741489Y-158837652D01*
X192780815Y-158708014D01*
X192780816Y-158708012D01*
X192882958Y-158516916D01*
X193020419Y-158349419D01*
X193187916Y-158211958D01*
X193379012Y-158109816D01*
X193379014Y-158109815D01*
X193586361Y-158046916D01*
X193747962Y-158031000D01*
X193856038Y-158031000D01*
X194017639Y-158046916D01*
X194017639Y-158046916D01*
G37*
G36*
X200367639Y-158046916D02*
X200574986Y-158109815D01*
X200574988Y-158109816D01*
X200766084Y-158211958D01*
X200933581Y-158349419D01*
X201071042Y-158516916D01*
X201173184Y-158708012D01*
X201173185Y-158708014D01*
X201212511Y-158837652D01*
X201236084Y-158915362D01*
X201257322Y-159131000D01*
X201236084Y-159346638D01*
X201173184Y-159553988D01*
X201071042Y-159745084D01*
X200933581Y-159912581D01*
X200766084Y-160050042D01*
X200578073Y-160150535D01*
X200574986Y-160152185D01*
X200367639Y-160215084D01*
X200206038Y-160231000D01*
X200097962Y-160231000D01*
X199936361Y-160215084D01*
X199729014Y-160152185D01*
X199725927Y-160150535D01*
X199537916Y-160050042D01*
X199370419Y-159912581D01*
X199232958Y-159745084D01*
X199130816Y-159553988D01*
X199067916Y-159346638D01*
X199046678Y-159131000D01*
X199067916Y-158915362D01*
X199091489Y-158837652D01*
X199130815Y-158708014D01*
X199130816Y-158708012D01*
X199232958Y-158516916D01*
X199370419Y-158349419D01*
X199537916Y-158211958D01*
X199729012Y-158109816D01*
X199729014Y-158109815D01*
X199936361Y-158046916D01*
X200097962Y-158031000D01*
X200206038Y-158031000D01*
X200367639Y-158046916D01*
X200367639Y-158046916D01*
G37*
G36*
X206717639Y-158046916D02*
X206924986Y-158109815D01*
X206924988Y-158109816D01*
X207116084Y-158211958D01*
X207283581Y-158349419D01*
X207421042Y-158516916D01*
X207523184Y-158708012D01*
X207523185Y-158708014D01*
X207562511Y-158837652D01*
X207586084Y-158915362D01*
X207607322Y-159131000D01*
X207586084Y-159346638D01*
X207523184Y-159553988D01*
X207421042Y-159745084D01*
X207283581Y-159912581D01*
X207116084Y-160050042D01*
X206928073Y-160150535D01*
X206924986Y-160152185D01*
X206717639Y-160215084D01*
X206556038Y-160231000D01*
X206447962Y-160231000D01*
X206286361Y-160215084D01*
X206079014Y-160152185D01*
X206075927Y-160150535D01*
X205887916Y-160050042D01*
X205720419Y-159912581D01*
X205582958Y-159745084D01*
X205480816Y-159553988D01*
X205417916Y-159346638D01*
X205396678Y-159131000D01*
X205417916Y-158915362D01*
X205441489Y-158837652D01*
X205480815Y-158708014D01*
X205480816Y-158708012D01*
X205582958Y-158516916D01*
X205720419Y-158349419D01*
X205887916Y-158211958D01*
X206079012Y-158109816D01*
X206079014Y-158109815D01*
X206286361Y-158046916D01*
X206447962Y-158031000D01*
X206556038Y-158031000D01*
X206717639Y-158046916D01*
X206717639Y-158046916D01*
G37*
G36*
X187667639Y-158046916D02*
X187874986Y-158109815D01*
X187874988Y-158109816D01*
X188066084Y-158211958D01*
X188233581Y-158349419D01*
X188371042Y-158516916D01*
X188473184Y-158708012D01*
X188473185Y-158708014D01*
X188512511Y-158837652D01*
X188536084Y-158915362D01*
X188557322Y-159131000D01*
X188536084Y-159346638D01*
X188473184Y-159553988D01*
X188371042Y-159745084D01*
X188233581Y-159912581D01*
X188066084Y-160050042D01*
X187878073Y-160150535D01*
X187874986Y-160152185D01*
X187667639Y-160215084D01*
X187506038Y-160231000D01*
X187397962Y-160231000D01*
X187236361Y-160215084D01*
X187029014Y-160152185D01*
X187025927Y-160150535D01*
X186837916Y-160050042D01*
X186670419Y-159912581D01*
X186532958Y-159745084D01*
X186430816Y-159553988D01*
X186367916Y-159346638D01*
X186346678Y-159131000D01*
X186367916Y-158915362D01*
X186391489Y-158837652D01*
X186430815Y-158708014D01*
X186430816Y-158708012D01*
X186532958Y-158516916D01*
X186670419Y-158349419D01*
X186837916Y-158211958D01*
X187029012Y-158109816D01*
X187029014Y-158109815D01*
X187236361Y-158046916D01*
X187397962Y-158031000D01*
X187506038Y-158031000D01*
X187667639Y-158046916D01*
X187667639Y-158046916D01*
G37*
G36*
X121608030Y-156240469D02*
X121608033Y-156240470D01*
X121608034Y-156240470D01*
X121796535Y-156297651D01*
X121796537Y-156297652D01*
X121970260Y-156390509D01*
X122122528Y-156515472D01*
X122247491Y-156667740D01*
X122247492Y-156667742D01*
X122340349Y-156841465D01*
X122392683Y-157013988D01*
X122397531Y-157029970D01*
X122416838Y-157226000D01*
X122397531Y-157422030D01*
X122340348Y-157610537D01*
X122247491Y-157784260D01*
X122122528Y-157936528D01*
X121970260Y-158061491D01*
X121970258Y-158061492D01*
X121796535Y-158154349D01*
X121608034Y-158211530D01*
X121608033Y-158211530D01*
X121608030Y-158211531D01*
X121461124Y-158226000D01*
X121362876Y-158226000D01*
X121215970Y-158211531D01*
X121215967Y-158211530D01*
X121215966Y-158211530D01*
X121027465Y-158154349D01*
X120853742Y-158061492D01*
X120853740Y-158061491D01*
X120701472Y-157936528D01*
X120576509Y-157784260D01*
X120483652Y-157610537D01*
X120426469Y-157422030D01*
X120407162Y-157226000D01*
X120426469Y-157029970D01*
X120431317Y-157013988D01*
X120483651Y-156841465D01*
X120576508Y-156667742D01*
X120576509Y-156667740D01*
X120701472Y-156515472D01*
X120853740Y-156390509D01*
X121027463Y-156297652D01*
X121027465Y-156297651D01*
X121215966Y-156240470D01*
X121215967Y-156240470D01*
X121215970Y-156240469D01*
X121362876Y-156226000D01*
X121461124Y-156226000D01*
X121608030Y-156240469D01*
X121608030Y-156240469D01*
G37*
G36*
X113988030Y-156240469D02*
X113988033Y-156240470D01*
X113988034Y-156240470D01*
X114176535Y-156297651D01*
X114176537Y-156297652D01*
X114350260Y-156390509D01*
X114502528Y-156515472D01*
X114627491Y-156667740D01*
X114627492Y-156667742D01*
X114720349Y-156841465D01*
X114772683Y-157013988D01*
X114777531Y-157029970D01*
X114796838Y-157226000D01*
X114777531Y-157422030D01*
X114720348Y-157610537D01*
X114627491Y-157784260D01*
X114502528Y-157936528D01*
X114350260Y-158061491D01*
X114350258Y-158061492D01*
X114176535Y-158154349D01*
X113988034Y-158211530D01*
X113988033Y-158211530D01*
X113988030Y-158211531D01*
X113841124Y-158226000D01*
X113742876Y-158226000D01*
X113595970Y-158211531D01*
X113595967Y-158211530D01*
X113595966Y-158211530D01*
X113407465Y-158154349D01*
X113233742Y-158061492D01*
X113233740Y-158061491D01*
X113081472Y-157936528D01*
X112956509Y-157784260D01*
X112863652Y-157610537D01*
X112806469Y-157422030D01*
X112787162Y-157226000D01*
X112806469Y-157029970D01*
X112811317Y-157013988D01*
X112863651Y-156841465D01*
X112956508Y-156667742D01*
X112956509Y-156667740D01*
X113081472Y-156515472D01*
X113233740Y-156390509D01*
X113407463Y-156297652D01*
X113407465Y-156297651D01*
X113595966Y-156240470D01*
X113595967Y-156240470D01*
X113595970Y-156240469D01*
X113742876Y-156226000D01*
X113841124Y-156226000D01*
X113988030Y-156240469D01*
X113988030Y-156240469D01*
G37*
G36*
X187667639Y-155506916D02*
X187874986Y-155569815D01*
X187874988Y-155569816D01*
X188066084Y-155671958D01*
X188233581Y-155809419D01*
X188371042Y-155976916D01*
X188473184Y-156168012D01*
X188473185Y-156168014D01*
X188512511Y-156297652D01*
X188536084Y-156375362D01*
X188557322Y-156591000D01*
X188536084Y-156806638D01*
X188473184Y-157013988D01*
X188371042Y-157205084D01*
X188233581Y-157372581D01*
X188066084Y-157510042D01*
X187878073Y-157610535D01*
X187874986Y-157612185D01*
X187667639Y-157675084D01*
X187506038Y-157691000D01*
X187397962Y-157691000D01*
X187236361Y-157675084D01*
X187029014Y-157612185D01*
X187025927Y-157610535D01*
X186837916Y-157510042D01*
X186670419Y-157372581D01*
X186532958Y-157205084D01*
X186430816Y-157013988D01*
X186367916Y-156806638D01*
X186346678Y-156591000D01*
X186367916Y-156375362D01*
X186391489Y-156297652D01*
X186430815Y-156168014D01*
X186430816Y-156168012D01*
X186532958Y-155976916D01*
X186670419Y-155809419D01*
X186837916Y-155671958D01*
X187029012Y-155569816D01*
X187029014Y-155569815D01*
X187236361Y-155506916D01*
X187397962Y-155491000D01*
X187506038Y-155491000D01*
X187667639Y-155506916D01*
X187667639Y-155506916D01*
G37*
G36*
X213067639Y-155506916D02*
X213274986Y-155569815D01*
X213274988Y-155569816D01*
X213466084Y-155671958D01*
X213633581Y-155809419D01*
X213771042Y-155976916D01*
X213873184Y-156168012D01*
X213873185Y-156168014D01*
X213912511Y-156297652D01*
X213936084Y-156375362D01*
X213957322Y-156591000D01*
X213936084Y-156806638D01*
X213873184Y-157013988D01*
X213771042Y-157205084D01*
X213633581Y-157372581D01*
X213466084Y-157510042D01*
X213278073Y-157610535D01*
X213274986Y-157612185D01*
X213067639Y-157675084D01*
X212906038Y-157691000D01*
X212797962Y-157691000D01*
X212636361Y-157675084D01*
X212429014Y-157612185D01*
X212425927Y-157610535D01*
X212237916Y-157510042D01*
X212070419Y-157372581D01*
X211932958Y-157205084D01*
X211830816Y-157013988D01*
X211767916Y-156806638D01*
X211746678Y-156591000D01*
X211767916Y-156375362D01*
X211791489Y-156297652D01*
X211830815Y-156168014D01*
X211830816Y-156168012D01*
X211932958Y-155976916D01*
X212070419Y-155809419D01*
X212237916Y-155671958D01*
X212429012Y-155569816D01*
X212429014Y-155569815D01*
X212636361Y-155506916D01*
X212797962Y-155491000D01*
X212906038Y-155491000D01*
X213067639Y-155506916D01*
X213067639Y-155506916D01*
G37*
G36*
X206717639Y-155506916D02*
X206924986Y-155569815D01*
X206924988Y-155569816D01*
X207116084Y-155671958D01*
X207283581Y-155809419D01*
X207421042Y-155976916D01*
X207523184Y-156168012D01*
X207523185Y-156168014D01*
X207562511Y-156297652D01*
X207586084Y-156375362D01*
X207607322Y-156591000D01*
X207586084Y-156806638D01*
X207523184Y-157013988D01*
X207421042Y-157205084D01*
X207283581Y-157372581D01*
X207116084Y-157510042D01*
X206928073Y-157610535D01*
X206924986Y-157612185D01*
X206717639Y-157675084D01*
X206556038Y-157691000D01*
X206447962Y-157691000D01*
X206286361Y-157675084D01*
X206079014Y-157612185D01*
X206075927Y-157610535D01*
X205887916Y-157510042D01*
X205720419Y-157372581D01*
X205582958Y-157205084D01*
X205480816Y-157013988D01*
X205417916Y-156806638D01*
X205396678Y-156591000D01*
X205417916Y-156375362D01*
X205441489Y-156297652D01*
X205480815Y-156168014D01*
X205480816Y-156168012D01*
X205582958Y-155976916D01*
X205720419Y-155809419D01*
X205887916Y-155671958D01*
X206079012Y-155569816D01*
X206079014Y-155569815D01*
X206286361Y-155506916D01*
X206447962Y-155491000D01*
X206556038Y-155491000D01*
X206717639Y-155506916D01*
X206717639Y-155506916D01*
G37*
G36*
X194017639Y-155506916D02*
X194224986Y-155569815D01*
X194224988Y-155569816D01*
X194416084Y-155671958D01*
X194583581Y-155809419D01*
X194721042Y-155976916D01*
X194823184Y-156168012D01*
X194823185Y-156168014D01*
X194862511Y-156297652D01*
X194886084Y-156375362D01*
X194907322Y-156591000D01*
X194886084Y-156806638D01*
X194823184Y-157013988D01*
X194721042Y-157205084D01*
X194583581Y-157372581D01*
X194416084Y-157510042D01*
X194228073Y-157610535D01*
X194224986Y-157612185D01*
X194017639Y-157675084D01*
X193856038Y-157691000D01*
X193747962Y-157691000D01*
X193586361Y-157675084D01*
X193379014Y-157612185D01*
X193375927Y-157610535D01*
X193187916Y-157510042D01*
X193020419Y-157372581D01*
X192882958Y-157205084D01*
X192780816Y-157013988D01*
X192717916Y-156806638D01*
X192696678Y-156591000D01*
X192717916Y-156375362D01*
X192741489Y-156297652D01*
X192780815Y-156168014D01*
X192780816Y-156168012D01*
X192882958Y-155976916D01*
X193020419Y-155809419D01*
X193187916Y-155671958D01*
X193379012Y-155569816D01*
X193379014Y-155569815D01*
X193586361Y-155506916D01*
X193747962Y-155491000D01*
X193856038Y-155491000D01*
X194017639Y-155506916D01*
X194017639Y-155506916D01*
G37*
G36*
X121608030Y-153700469D02*
X121608033Y-153700470D01*
X121608034Y-153700470D01*
X121796535Y-153757651D01*
X121796537Y-153757652D01*
X121970260Y-153850509D01*
X122122528Y-153975472D01*
X122247491Y-154127740D01*
X122340348Y-154301463D01*
X122397531Y-154489970D01*
X122416838Y-154686000D01*
X122397531Y-154882030D01*
X122340348Y-155070537D01*
X122247491Y-155244260D01*
X122122528Y-155396528D01*
X121970260Y-155521491D01*
X121970258Y-155521492D01*
X121796535Y-155614349D01*
X121608034Y-155671530D01*
X121608033Y-155671530D01*
X121608030Y-155671531D01*
X121461124Y-155686000D01*
X121362876Y-155686000D01*
X121215970Y-155671531D01*
X121215967Y-155671530D01*
X121215966Y-155671530D01*
X121027465Y-155614349D01*
X120853742Y-155521492D01*
X120853740Y-155521491D01*
X120701472Y-155396528D01*
X120576509Y-155244260D01*
X120483652Y-155070537D01*
X120426469Y-154882030D01*
X120407162Y-154686000D01*
X120426469Y-154489970D01*
X120483652Y-154301463D01*
X120576509Y-154127740D01*
X120701472Y-153975472D01*
X120853740Y-153850509D01*
X121027463Y-153757652D01*
X121027465Y-153757651D01*
X121215966Y-153700470D01*
X121215967Y-153700470D01*
X121215970Y-153700469D01*
X121362876Y-153686000D01*
X121461124Y-153686000D01*
X121608030Y-153700469D01*
X121608030Y-153700469D01*
G37*
G36*
X113988030Y-153700469D02*
X113988033Y-153700470D01*
X113988034Y-153700470D01*
X114176535Y-153757651D01*
X114176537Y-153757652D01*
X114350260Y-153850509D01*
X114502528Y-153975472D01*
X114627491Y-154127740D01*
X114720348Y-154301463D01*
X114777531Y-154489970D01*
X114796838Y-154686000D01*
X114777531Y-154882030D01*
X114720348Y-155070537D01*
X114627491Y-155244260D01*
X114502528Y-155396528D01*
X114350260Y-155521491D01*
X114350258Y-155521492D01*
X114176535Y-155614349D01*
X113988034Y-155671530D01*
X113988033Y-155671530D01*
X113988030Y-155671531D01*
X113841124Y-155686000D01*
X113742876Y-155686000D01*
X113595970Y-155671531D01*
X113595967Y-155671530D01*
X113595966Y-155671530D01*
X113407465Y-155614349D01*
X113233742Y-155521492D01*
X113233740Y-155521491D01*
X113081472Y-155396528D01*
X112956509Y-155244260D01*
X112863652Y-155070537D01*
X112806469Y-154882030D01*
X112787162Y-154686000D01*
X112806469Y-154489970D01*
X112863652Y-154301463D01*
X112956509Y-154127740D01*
X113081472Y-153975472D01*
X113233740Y-153850509D01*
X113407463Y-153757652D01*
X113407465Y-153757651D01*
X113595966Y-153700470D01*
X113595967Y-153700470D01*
X113595970Y-153700469D01*
X113742876Y-153686000D01*
X113841124Y-153686000D01*
X113988030Y-153700469D01*
X113988030Y-153700469D01*
G37*
G36*
X37986175Y-149858197D02*
X38162629Y-149893296D01*
X38661277Y-150099843D01*
X38985568Y-150316528D01*
X39110051Y-150399705D01*
X39491695Y-150781349D01*
X39491697Y-150781352D01*
X39791557Y-151230123D01*
X39998104Y-151728771D01*
X39998104Y-151728772D01*
X40103400Y-152258132D01*
X40103400Y-152797868D01*
X40072940Y-152951000D01*
X39998104Y-153327229D01*
X39791557Y-153825877D01*
X39493719Y-154271621D01*
X39491695Y-154274651D01*
X39110051Y-154656295D01*
X39110048Y-154656297D01*
X38661277Y-154956157D01*
X38162629Y-155162704D01*
X37986175Y-155197803D01*
X37633268Y-155268000D01*
X37093532Y-155268000D01*
X36740625Y-155197803D01*
X36564171Y-155162704D01*
X36065523Y-154956157D01*
X35616752Y-154656297D01*
X35616749Y-154656295D01*
X35235105Y-154274651D01*
X35233081Y-154271621D01*
X34935243Y-153825877D01*
X34728696Y-153327229D01*
X34653860Y-152951000D01*
X34623400Y-152797868D01*
X34623400Y-152258132D01*
X34728696Y-151728772D01*
X34728696Y-151728771D01*
X34935243Y-151230123D01*
X35235103Y-150781352D01*
X35235105Y-150781349D01*
X35616749Y-150399705D01*
X35741232Y-150316528D01*
X36065523Y-150099843D01*
X36564171Y-149893296D01*
X36740625Y-149858197D01*
X37093532Y-149788000D01*
X37633268Y-149788000D01*
X37986175Y-149858197D01*
X37986175Y-149858197D01*
G37*
G36*
X213952000Y-155151000D02*
X211752000Y-155151000D01*
X211752000Y-152951000D01*
X213952000Y-152951000D01*
X213952000Y-155151000D01*
X213952000Y-155151000D01*
G37*
G36*
X207602000Y-155151000D02*
X205402000Y-155151000D01*
X205402000Y-152951000D01*
X207602000Y-152951000D01*
X207602000Y-155151000D01*
X207602000Y-155151000D01*
G37*
G36*
X194902000Y-155151000D02*
X192702000Y-155151000D01*
X192702000Y-152951000D01*
X194902000Y-152951000D01*
X194902000Y-155151000D01*
X194902000Y-155151000D01*
G37*
G36*
X188552000Y-155151000D02*
X186352000Y-155151000D01*
X186352000Y-152951000D01*
X188552000Y-152951000D01*
X188552000Y-155151000D01*
X188552000Y-155151000D01*
G37*
G36*
X201252000Y-155151000D02*
X199052000Y-155151000D01*
X199052000Y-152951000D01*
X201252000Y-152951000D01*
X201252000Y-155151000D01*
X201252000Y-155151000D01*
G37*
G36*
X113988030Y-151160469D02*
X113988033Y-151160470D01*
X113988034Y-151160470D01*
X114176535Y-151217651D01*
X114176537Y-151217652D01*
X114350260Y-151310509D01*
X114502528Y-151435472D01*
X114627491Y-151587740D01*
X114720348Y-151761463D01*
X114777531Y-151949970D01*
X114796838Y-152146000D01*
X114777531Y-152342030D01*
X114720348Y-152530537D01*
X114627491Y-152704260D01*
X114502528Y-152856528D01*
X114350260Y-152981491D01*
X114350258Y-152981492D01*
X114176535Y-153074349D01*
X113988034Y-153131530D01*
X113988033Y-153131530D01*
X113988030Y-153131531D01*
X113841124Y-153146000D01*
X113742876Y-153146000D01*
X113595970Y-153131531D01*
X113595967Y-153131530D01*
X113595966Y-153131530D01*
X113407465Y-153074349D01*
X113233742Y-152981492D01*
X113233740Y-152981491D01*
X113081472Y-152856528D01*
X112956509Y-152704260D01*
X112863652Y-152530537D01*
X112806469Y-152342030D01*
X112787162Y-152146000D01*
X112806469Y-151949970D01*
X112863652Y-151761463D01*
X112956509Y-151587740D01*
X113081472Y-151435472D01*
X113233740Y-151310509D01*
X113407463Y-151217652D01*
X113407465Y-151217651D01*
X113595966Y-151160470D01*
X113595967Y-151160470D01*
X113595970Y-151160469D01*
X113742876Y-151146000D01*
X113841124Y-151146000D01*
X113988030Y-151160469D01*
X113988030Y-151160469D01*
G37*
G36*
X121608030Y-151160469D02*
X121608033Y-151160470D01*
X121608034Y-151160470D01*
X121796535Y-151217651D01*
X121796537Y-151217652D01*
X121970260Y-151310509D01*
X122122528Y-151435472D01*
X122247491Y-151587740D01*
X122340348Y-151761463D01*
X122397531Y-151949970D01*
X122416838Y-152146000D01*
X122397531Y-152342030D01*
X122340348Y-152530537D01*
X122247491Y-152704260D01*
X122122528Y-152856528D01*
X121970260Y-152981491D01*
X121970258Y-152981492D01*
X121796535Y-153074349D01*
X121608034Y-153131530D01*
X121608033Y-153131530D01*
X121608030Y-153131531D01*
X121461124Y-153146000D01*
X121362876Y-153146000D01*
X121215970Y-153131531D01*
X121215967Y-153131530D01*
X121215966Y-153131530D01*
X121027465Y-153074349D01*
X120853742Y-152981492D01*
X120853740Y-152981491D01*
X120701472Y-152856528D01*
X120576509Y-152704260D01*
X120483652Y-152530537D01*
X120426469Y-152342030D01*
X120407162Y-152146000D01*
X120426469Y-151949970D01*
X120483652Y-151761463D01*
X120576509Y-151587740D01*
X120701472Y-151435472D01*
X120853740Y-151310509D01*
X121027463Y-151217652D01*
X121027465Y-151217651D01*
X121215966Y-151160470D01*
X121215967Y-151160470D01*
X121215970Y-151160469D01*
X121362876Y-151146000D01*
X121461124Y-151146000D01*
X121608030Y-151160469D01*
X121608030Y-151160469D01*
G37*
G36*
X121608030Y-148620469D02*
X121608033Y-148620470D01*
X121608034Y-148620470D01*
X121796535Y-148677651D01*
X121796537Y-148677652D01*
X121970260Y-148770509D01*
X122122528Y-148895472D01*
X122247491Y-149047740D01*
X122340348Y-149221463D01*
X122397531Y-149409970D01*
X122416838Y-149606000D01*
X122397531Y-149802030D01*
X122340348Y-149990537D01*
X122247491Y-150164260D01*
X122122528Y-150316528D01*
X121970260Y-150441491D01*
X121970258Y-150441492D01*
X121796535Y-150534349D01*
X121608034Y-150591530D01*
X121608033Y-150591530D01*
X121608030Y-150591531D01*
X121461124Y-150606000D01*
X121362876Y-150606000D01*
X121215970Y-150591531D01*
X121215967Y-150591530D01*
X121215966Y-150591530D01*
X121027465Y-150534349D01*
X120853742Y-150441492D01*
X120853740Y-150441491D01*
X120701472Y-150316528D01*
X120576509Y-150164260D01*
X120483652Y-149990537D01*
X120426469Y-149802030D01*
X120407162Y-149606000D01*
X120426469Y-149409970D01*
X120483652Y-149221463D01*
X120576509Y-149047740D01*
X120701472Y-148895472D01*
X120853740Y-148770509D01*
X121027463Y-148677652D01*
X121027465Y-148677651D01*
X121215966Y-148620470D01*
X121215967Y-148620470D01*
X121215970Y-148620469D01*
X121362876Y-148606000D01*
X121461124Y-148606000D01*
X121608030Y-148620469D01*
X121608030Y-148620469D01*
G37*
G36*
X114792000Y-150606000D02*
X112792000Y-150606000D01*
X112792000Y-148606000D01*
X114792000Y-148606000D01*
X114792000Y-150606000D01*
X114792000Y-150606000D01*
G37*
G36*
X67971603Y-146775968D02*
X67971606Y-146775969D01*
X67971605Y-146775969D01*
X68146678Y-146848486D01*
X68146679Y-146848487D01*
X68304241Y-146953767D01*
X68438233Y-147087759D01*
X68438234Y-147087761D01*
X68543514Y-147245322D01*
X68599603Y-147380734D01*
X68616032Y-147420397D01*
X68653000Y-147606250D01*
X68653000Y-147795750D01*
X68616032Y-147981603D01*
X68616031Y-147981605D01*
X68543514Y-148156678D01*
X68543513Y-148156679D01*
X68438233Y-148314241D01*
X68304241Y-148448233D01*
X68224923Y-148501232D01*
X68146678Y-148553514D01*
X68011266Y-148609603D01*
X67971603Y-148626032D01*
X67785750Y-148663000D01*
X67596250Y-148663000D01*
X67410397Y-148626032D01*
X67370734Y-148609603D01*
X67235322Y-148553514D01*
X67157077Y-148501232D01*
X67077759Y-148448233D01*
X66943767Y-148314241D01*
X66838487Y-148156679D01*
X66838486Y-148156678D01*
X66765969Y-147981605D01*
X66765968Y-147981603D01*
X66729000Y-147795750D01*
X66729000Y-147606250D01*
X66765968Y-147420397D01*
X66782397Y-147380734D01*
X66838486Y-147245322D01*
X66943766Y-147087761D01*
X66943767Y-147087759D01*
X67077759Y-146953767D01*
X67235321Y-146848487D01*
X67235322Y-146848486D01*
X67410395Y-146775969D01*
X67410394Y-146775969D01*
X67410397Y-146775968D01*
X67596250Y-146739000D01*
X67785750Y-146739000D01*
X67971603Y-146775968D01*
X67971603Y-146775968D01*
G37*
G36*
X23161707Y-144119596D02*
X23238836Y-144127193D01*
X23370787Y-144167220D01*
X23436763Y-144187233D01*
X23619172Y-144284733D01*
X23779054Y-144415946D01*
X23910267Y-144575828D01*
X24007767Y-144758237D01*
X24007767Y-144758238D01*
X24067807Y-144956164D01*
X24088080Y-145162000D01*
X24067807Y-145367836D01*
X24045430Y-145441603D01*
X24007767Y-145565763D01*
X23910267Y-145748172D01*
X23779054Y-145908054D01*
X23619172Y-146039267D01*
X23436763Y-146136767D01*
X23370787Y-146156780D01*
X23238836Y-146196807D01*
X23161707Y-146204404D01*
X23084580Y-146212000D01*
X22381420Y-146212000D01*
X22304293Y-146204404D01*
X22227164Y-146196807D01*
X22095213Y-146156780D01*
X22029237Y-146136767D01*
X21846828Y-146039267D01*
X21686946Y-145908054D01*
X21555733Y-145748172D01*
X21458233Y-145565763D01*
X21420570Y-145441603D01*
X21398193Y-145367836D01*
X21377920Y-145162000D01*
X21398193Y-144956164D01*
X21458233Y-144758238D01*
X21458233Y-144758237D01*
X21555733Y-144575828D01*
X21686946Y-144415946D01*
X21846828Y-144284733D01*
X22029237Y-144187233D01*
X22095213Y-144167220D01*
X22227164Y-144127193D01*
X22304293Y-144119596D01*
X22381420Y-144112000D01*
X23084580Y-144112000D01*
X23161707Y-144119596D01*
X23161707Y-144119596D01*
G37*
G36*
X67971603Y-144235968D02*
X67971606Y-144235969D01*
X67971605Y-144235969D01*
X68146678Y-144308486D01*
X68146679Y-144308487D01*
X68304241Y-144413767D01*
X68438233Y-144547759D01*
X68438234Y-144547761D01*
X68543514Y-144705322D01*
X68565432Y-144758237D01*
X68616032Y-144880397D01*
X68653000Y-145066250D01*
X68653000Y-145255750D01*
X68616032Y-145441603D01*
X68616031Y-145441605D01*
X68543514Y-145616678D01*
X68543513Y-145616679D01*
X68438233Y-145774241D01*
X68304241Y-145908233D01*
X68224923Y-145961232D01*
X68146678Y-146013514D01*
X68011266Y-146069603D01*
X67971603Y-146086032D01*
X67785750Y-146123000D01*
X67596250Y-146123000D01*
X67410397Y-146086032D01*
X67370734Y-146069603D01*
X67235322Y-146013514D01*
X67157077Y-145961232D01*
X67077759Y-145908233D01*
X66943767Y-145774241D01*
X66838487Y-145616679D01*
X66838486Y-145616678D01*
X66765969Y-145441605D01*
X66765968Y-145441603D01*
X66729000Y-145255750D01*
X66729000Y-145066250D01*
X66765968Y-144880397D01*
X66816568Y-144758237D01*
X66838486Y-144705322D01*
X66943766Y-144547761D01*
X66943767Y-144547759D01*
X67077759Y-144413767D01*
X67235321Y-144308487D01*
X67235322Y-144308486D01*
X67410395Y-144235969D01*
X67410394Y-144235969D01*
X67410397Y-144235968D01*
X67596250Y-144199000D01*
X67785750Y-144199000D01*
X67971603Y-144235968D01*
X67971603Y-144235968D01*
G37*
G36*
X67971603Y-141695968D02*
X67971606Y-141695969D01*
X67971605Y-141695969D01*
X68146678Y-141768486D01*
X68146679Y-141768487D01*
X68304241Y-141873767D01*
X68438233Y-142007759D01*
X68438234Y-142007761D01*
X68543514Y-142165322D01*
X68599603Y-142300734D01*
X68616032Y-142340397D01*
X68653000Y-142526250D01*
X68653000Y-142715750D01*
X68616032Y-142901603D01*
X68616031Y-142901605D01*
X68543514Y-143076678D01*
X68543513Y-143076679D01*
X68438233Y-143234241D01*
X68304241Y-143368233D01*
X68224923Y-143421232D01*
X68146678Y-143473514D01*
X68011266Y-143529603D01*
X67971603Y-143546032D01*
X67785750Y-143583000D01*
X67596250Y-143583000D01*
X67410397Y-143546032D01*
X67370734Y-143529603D01*
X67235322Y-143473514D01*
X67157077Y-143421232D01*
X67077759Y-143368233D01*
X66943767Y-143234241D01*
X66838487Y-143076679D01*
X66838486Y-143076678D01*
X66765969Y-142901605D01*
X66765968Y-142901603D01*
X66729000Y-142715750D01*
X66729000Y-142526250D01*
X66765968Y-142340397D01*
X66782397Y-142300734D01*
X66838486Y-142165322D01*
X66943766Y-142007761D01*
X66943767Y-142007759D01*
X67077759Y-141873767D01*
X67235321Y-141768487D01*
X67235322Y-141768486D01*
X67410395Y-141695969D01*
X67410394Y-141695969D01*
X67410397Y-141695968D01*
X67596250Y-141659000D01*
X67785750Y-141659000D01*
X67971603Y-141695968D01*
X67971603Y-141695968D01*
G37*
G36*
X23161707Y-139419596D02*
X23238836Y-139427193D01*
X23370787Y-139467220D01*
X23436763Y-139487233D01*
X23619172Y-139584733D01*
X23779054Y-139715946D01*
X23910267Y-139875828D01*
X24007767Y-140058237D01*
X24007767Y-140058238D01*
X24067807Y-140256164D01*
X24088080Y-140462000D01*
X24067807Y-140667836D01*
X24027780Y-140799787D01*
X24007767Y-140865763D01*
X23910267Y-141048172D01*
X23779054Y-141208054D01*
X23619172Y-141339267D01*
X23436763Y-141436767D01*
X23370787Y-141456780D01*
X23238836Y-141496807D01*
X23161707Y-141504403D01*
X23084580Y-141512000D01*
X22381420Y-141512000D01*
X22304293Y-141504403D01*
X22227164Y-141496807D01*
X22095213Y-141456780D01*
X22029237Y-141436767D01*
X21846828Y-141339267D01*
X21686946Y-141208054D01*
X21555733Y-141048172D01*
X21458233Y-140865763D01*
X21438220Y-140799787D01*
X21398193Y-140667836D01*
X21377920Y-140462000D01*
X21398193Y-140256164D01*
X21458233Y-140058238D01*
X21458233Y-140058237D01*
X21555733Y-139875828D01*
X21686946Y-139715946D01*
X21846828Y-139584733D01*
X22029237Y-139487233D01*
X22095213Y-139467220D01*
X22227164Y-139427193D01*
X22304293Y-139419596D01*
X22381420Y-139412000D01*
X23084580Y-139412000D01*
X23161707Y-139419596D01*
X23161707Y-139419596D01*
G37*
G36*
X49491639Y-135440916D02*
X49698986Y-135503815D01*
X49698988Y-135503816D01*
X49890084Y-135605958D01*
X50057581Y-135743419D01*
X50195042Y-135910916D01*
X50297184Y-136102012D01*
X50297185Y-136102014D01*
X50360084Y-136309361D01*
X50381322Y-136525000D01*
X50360084Y-136740639D01*
X50338437Y-136812000D01*
X50297184Y-136947988D01*
X50195042Y-137139084D01*
X50057581Y-137306581D01*
X49890084Y-137444042D01*
X49698988Y-137546184D01*
X49698986Y-137546185D01*
X49491639Y-137609084D01*
X49330038Y-137625000D01*
X49221962Y-137625000D01*
X49060361Y-137609084D01*
X48853014Y-137546185D01*
X48853012Y-137546184D01*
X48661916Y-137444042D01*
X48494419Y-137306581D01*
X48356958Y-137139084D01*
X48254816Y-136947988D01*
X48213564Y-136812000D01*
X48191916Y-136740639D01*
X48170678Y-136525000D01*
X48191916Y-136309361D01*
X48254815Y-136102014D01*
X48254816Y-136102012D01*
X48356958Y-135910916D01*
X48494419Y-135743419D01*
X48661916Y-135605958D01*
X48853012Y-135503816D01*
X48853014Y-135503815D01*
X49060361Y-135440916D01*
X49221962Y-135425000D01*
X49330038Y-135425000D01*
X49491639Y-135440916D01*
X49491639Y-135440916D01*
G37*
G36*
X46951639Y-135440916D02*
X47158986Y-135503815D01*
X47158988Y-135503816D01*
X47350084Y-135605958D01*
X47517581Y-135743419D01*
X47655042Y-135910916D01*
X47757184Y-136102012D01*
X47757185Y-136102014D01*
X47820084Y-136309361D01*
X47841322Y-136525000D01*
X47820084Y-136740639D01*
X47798437Y-136812000D01*
X47757184Y-136947988D01*
X47655042Y-137139084D01*
X47517581Y-137306581D01*
X47350084Y-137444042D01*
X47158988Y-137546184D01*
X47158986Y-137546185D01*
X46951639Y-137609084D01*
X46790038Y-137625000D01*
X46681962Y-137625000D01*
X46520361Y-137609084D01*
X46313014Y-137546185D01*
X46313012Y-137546184D01*
X46121916Y-137444042D01*
X45954419Y-137306581D01*
X45816958Y-137139084D01*
X45714816Y-136947988D01*
X45673564Y-136812000D01*
X45651916Y-136740639D01*
X45630678Y-136525000D01*
X45651916Y-136309361D01*
X45714815Y-136102014D01*
X45714816Y-136102012D01*
X45816958Y-135910916D01*
X45954419Y-135743419D01*
X46121916Y-135605958D01*
X46313012Y-135503816D01*
X46313014Y-135503815D01*
X46520361Y-135440916D01*
X46681962Y-135425000D01*
X46790038Y-135425000D01*
X46951639Y-135440916D01*
X46951639Y-135440916D01*
G37*
G36*
X45296000Y-137625000D02*
X43096000Y-137625000D01*
X43096000Y-135425000D01*
X45296000Y-135425000D01*
X45296000Y-137625000D01*
X45296000Y-137625000D01*
G37*
G36*
X23161707Y-134719596D02*
X23238836Y-134727193D01*
X23370787Y-134767220D01*
X23436763Y-134787233D01*
X23619172Y-134884733D01*
X23779054Y-135015946D01*
X23910267Y-135175828D01*
X24007767Y-135358237D01*
X24007767Y-135358238D01*
X24067807Y-135556164D01*
X24088080Y-135762000D01*
X24067807Y-135967836D01*
X24027780Y-136099787D01*
X24007767Y-136165763D01*
X23910267Y-136348172D01*
X23779054Y-136508054D01*
X23619172Y-136639267D01*
X23436763Y-136736767D01*
X23423998Y-136740639D01*
X23238836Y-136796807D01*
X23161707Y-136804404D01*
X23084580Y-136812000D01*
X22381420Y-136812000D01*
X22304293Y-136804404D01*
X22227164Y-136796807D01*
X22042002Y-136740639D01*
X22029237Y-136736767D01*
X21846828Y-136639267D01*
X21686946Y-136508054D01*
X21555733Y-136348172D01*
X21458233Y-136165763D01*
X21438220Y-136099787D01*
X21398193Y-135967836D01*
X21377920Y-135762000D01*
X21398193Y-135556164D01*
X21458233Y-135358238D01*
X21458233Y-135358237D01*
X21555733Y-135175828D01*
X21686946Y-135015946D01*
X21846828Y-134884733D01*
X22029237Y-134787233D01*
X22095213Y-134767220D01*
X22227164Y-134727193D01*
X22304293Y-134719596D01*
X22381420Y-134712000D01*
X23084580Y-134712000D01*
X23161707Y-134719596D01*
X23161707Y-134719596D01*
G37*
G36*
X51801727Y-126636257D02*
X51970365Y-126669801D01*
X52225149Y-126775336D01*
X52331369Y-126846310D01*
X52454451Y-126928551D01*
X52649449Y-127123549D01*
X52802665Y-127352853D01*
X52908199Y-127607636D01*
X52962000Y-127878111D01*
X52962000Y-128153889D01*
X52908199Y-128424364D01*
X52802665Y-128679147D01*
X52649449Y-128908451D01*
X52454451Y-129103449D01*
X52454448Y-129103451D01*
X52225149Y-129256664D01*
X51970365Y-129362199D01*
X51835126Y-129389100D01*
X51699889Y-129416000D01*
X51424111Y-129416000D01*
X51288874Y-129389100D01*
X51153635Y-129362199D01*
X50898851Y-129256664D01*
X50669552Y-129103451D01*
X50669549Y-129103449D01*
X50474551Y-128908451D01*
X50321335Y-128679147D01*
X50215801Y-128424364D01*
X50162000Y-128153889D01*
X50162000Y-127878111D01*
X50215801Y-127607636D01*
X50321335Y-127352853D01*
X50474551Y-127123549D01*
X50669549Y-126928551D01*
X50792631Y-126846310D01*
X50898851Y-126775336D01*
X51153635Y-126669801D01*
X51322273Y-126636257D01*
X51424111Y-126616000D01*
X51699889Y-126616000D01*
X51801727Y-126636257D01*
X51801727Y-126636257D01*
G37*
G36*
X21356448Y-126636257D02*
X21620349Y-126716310D01*
X21863562Y-126846310D01*
X22076739Y-127021261D01*
X22251690Y-127234438D01*
X22381690Y-127477651D01*
X22461743Y-127741552D01*
X22488774Y-128016000D01*
X22461743Y-128290448D01*
X22381690Y-128554349D01*
X22251690Y-128797562D01*
X22076739Y-129010739D01*
X21863562Y-129185690D01*
X21620349Y-129315690D01*
X21356448Y-129395743D01*
X21150777Y-129416000D01*
X21013223Y-129416000D01*
X20807552Y-129395743D01*
X20543651Y-129315690D01*
X20300438Y-129185690D01*
X20087261Y-129010739D01*
X19912310Y-128797562D01*
X19782310Y-128554349D01*
X19702257Y-128290448D01*
X19675226Y-128016000D01*
X19702257Y-127741552D01*
X19782310Y-127477651D01*
X19912310Y-127234438D01*
X20087261Y-127021261D01*
X20300438Y-126846310D01*
X20543651Y-126716310D01*
X20807552Y-126636257D01*
X21013223Y-126616000D01*
X21150777Y-126616000D01*
X21356448Y-126636257D01*
X21356448Y-126636257D01*
G37*
G36*
X193462000Y-126406000D02*
X189062000Y-126406000D01*
X189062000Y-122006000D01*
X193462000Y-122006000D01*
X193462000Y-126406000D01*
X193462000Y-126406000D01*
G37*
G36*
X233653716Y-122090544D02*
X234054090Y-122256384D01*
X234414421Y-122497150D01*
X234720850Y-122803579D01*
X234961616Y-123163910D01*
X235127456Y-123564284D01*
X235212000Y-123989317D01*
X235212000Y-124422683D01*
X235127456Y-124847716D01*
X234961616Y-125248090D01*
X234720850Y-125608421D01*
X234414421Y-125914850D01*
X234054090Y-126155616D01*
X233653716Y-126321456D01*
X233228683Y-126406000D01*
X232795317Y-126406000D01*
X232370284Y-126321456D01*
X231969910Y-126155616D01*
X231609579Y-125914850D01*
X231303150Y-125608421D01*
X231062384Y-125248090D01*
X230896544Y-124847716D01*
X230812000Y-124422683D01*
X230812000Y-123989317D01*
X230896544Y-123564284D01*
X231062384Y-123163910D01*
X231303150Y-122803579D01*
X231609579Y-122497150D01*
X231969910Y-122256384D01*
X232370284Y-122090544D01*
X232795317Y-122006000D01*
X233228683Y-122006000D01*
X233653716Y-122090544D01*
X233653716Y-122090544D01*
G37*
G36*
X225212000Y-126406000D02*
X220812000Y-126406000D01*
X220812000Y-122006000D01*
X225212000Y-122006000D01*
X225212000Y-126406000D01*
X225212000Y-126406000D01*
G37*
G36*
X265403716Y-122090544D02*
X265804090Y-122256384D01*
X266164421Y-122497150D01*
X266470850Y-122803579D01*
X266711616Y-123163910D01*
X266877456Y-123564284D01*
X266962000Y-123989317D01*
X266962000Y-124422683D01*
X266877456Y-124847716D01*
X266711616Y-125248090D01*
X266470850Y-125608421D01*
X266164421Y-125914850D01*
X265804090Y-126155616D01*
X265403716Y-126321456D01*
X264978683Y-126406000D01*
X264545317Y-126406000D01*
X264120284Y-126321456D01*
X263719910Y-126155616D01*
X263359579Y-125914850D01*
X263053150Y-125608421D01*
X262812384Y-125248090D01*
X262646544Y-124847716D01*
X262562000Y-124422683D01*
X262562000Y-123989317D01*
X262646544Y-123564284D01*
X262812384Y-123163910D01*
X263053150Y-122803579D01*
X263359579Y-122497150D01*
X263719910Y-122256384D01*
X264120284Y-122090544D01*
X264545317Y-122006000D01*
X264978683Y-122006000D01*
X265403716Y-122090544D01*
X265403716Y-122090544D01*
G37*
G36*
X256962000Y-126406000D02*
X252562000Y-126406000D01*
X252562000Y-122006000D01*
X256962000Y-122006000D01*
X256962000Y-126406000D01*
X256962000Y-126406000D01*
G37*
G36*
X75063716Y-122090544D02*
X75464090Y-122256384D01*
X75824421Y-122497150D01*
X76130850Y-122803579D01*
X76371616Y-123163910D01*
X76537456Y-123564284D01*
X76622000Y-123989317D01*
X76622000Y-124422683D01*
X76537456Y-124847716D01*
X76371616Y-125248090D01*
X76130850Y-125608421D01*
X75824421Y-125914850D01*
X75464090Y-126155616D01*
X75063716Y-126321456D01*
X74638683Y-126406000D01*
X74205317Y-126406000D01*
X73780284Y-126321456D01*
X73379910Y-126155616D01*
X73019579Y-125914850D01*
X72713150Y-125608421D01*
X72472384Y-125248090D01*
X72306544Y-124847716D01*
X72222000Y-124422683D01*
X72222000Y-123989317D01*
X72306544Y-123564284D01*
X72472384Y-123163910D01*
X72713150Y-122803579D01*
X73019579Y-122497150D01*
X73379910Y-122256384D01*
X73780284Y-122090544D01*
X74205317Y-122006000D01*
X74638683Y-122006000D01*
X75063716Y-122090544D01*
X75063716Y-122090544D01*
G37*
G36*
X170153716Y-122090544D02*
X170554090Y-122256384D01*
X170914421Y-122497150D01*
X171220850Y-122803579D01*
X171461616Y-123163910D01*
X171627456Y-123564284D01*
X171712000Y-123989317D01*
X171712000Y-124422683D01*
X171627456Y-124847716D01*
X171461616Y-125248090D01*
X171220850Y-125608421D01*
X170914421Y-125914850D01*
X170554090Y-126155616D01*
X170153716Y-126321456D01*
X169728683Y-126406000D01*
X169295317Y-126406000D01*
X168870284Y-126321456D01*
X168469910Y-126155616D01*
X168109579Y-125914850D01*
X167803150Y-125608421D01*
X167562384Y-125248090D01*
X167396544Y-124847716D01*
X167312000Y-124422683D01*
X167312000Y-123989317D01*
X167396544Y-123564284D01*
X167562384Y-123163910D01*
X167803150Y-122803579D01*
X168109579Y-122497150D01*
X168469910Y-122256384D01*
X168870284Y-122090544D01*
X169295317Y-122006000D01*
X169728683Y-122006000D01*
X170153716Y-122090544D01*
X170153716Y-122090544D01*
G37*
G36*
X98372000Y-126406000D02*
X93972000Y-126406000D01*
X93972000Y-122006000D01*
X98372000Y-122006000D01*
X98372000Y-126406000D01*
X98372000Y-126406000D01*
G37*
G36*
X138403716Y-122090544D02*
X138804090Y-122256384D01*
X139164421Y-122497150D01*
X139470850Y-122803579D01*
X139711616Y-123163910D01*
X139877456Y-123564284D01*
X139962000Y-123989317D01*
X139962000Y-124422683D01*
X139877456Y-124847716D01*
X139711616Y-125248090D01*
X139470850Y-125608421D01*
X139164421Y-125914850D01*
X138804090Y-126155616D01*
X138403716Y-126321456D01*
X137978683Y-126406000D01*
X137545317Y-126406000D01*
X137120284Y-126321456D01*
X136719910Y-126155616D01*
X136359579Y-125914850D01*
X136053150Y-125608421D01*
X135812384Y-125248090D01*
X135646544Y-124847716D01*
X135562000Y-124422683D01*
X135562000Y-123989317D01*
X135646544Y-123564284D01*
X135812384Y-123163910D01*
X136053150Y-122803579D01*
X136359579Y-122497150D01*
X136719910Y-122256384D01*
X137120284Y-122090544D01*
X137545317Y-122006000D01*
X137978683Y-122006000D01*
X138403716Y-122090544D01*
X138403716Y-122090544D01*
G37*
G36*
X66622000Y-126406000D02*
X62222000Y-126406000D01*
X62222000Y-122006000D01*
X66622000Y-122006000D01*
X66622000Y-126406000D01*
X66622000Y-126406000D01*
G37*
G36*
X129962000Y-126406000D02*
X125562000Y-126406000D01*
X125562000Y-122006000D01*
X129962000Y-122006000D01*
X129962000Y-126406000D01*
X129962000Y-126406000D01*
G37*
G36*
X201903716Y-122090544D02*
X202304090Y-122256384D01*
X202664421Y-122497150D01*
X202970850Y-122803579D01*
X203211616Y-123163910D01*
X203377456Y-123564284D01*
X203462000Y-123989317D01*
X203462000Y-124422683D01*
X203377456Y-124847716D01*
X203211616Y-125248090D01*
X202970850Y-125608421D01*
X202664421Y-125914850D01*
X202304090Y-126155616D01*
X201903716Y-126321456D01*
X201478683Y-126406000D01*
X201045317Y-126406000D01*
X200620284Y-126321456D01*
X200219910Y-126155616D01*
X199859579Y-125914850D01*
X199553150Y-125608421D01*
X199312384Y-125248090D01*
X199146544Y-124847716D01*
X199062000Y-124422683D01*
X199062000Y-123989317D01*
X199146544Y-123564284D01*
X199312384Y-123163910D01*
X199553150Y-122803579D01*
X199859579Y-122497150D01*
X200219910Y-122256384D01*
X200620284Y-122090544D01*
X201045317Y-122006000D01*
X201478683Y-122006000D01*
X201903716Y-122090544D01*
X201903716Y-122090544D01*
G37*
G36*
X106813716Y-122090544D02*
X107214090Y-122256384D01*
X107574421Y-122497150D01*
X107880850Y-122803579D01*
X108121616Y-123163910D01*
X108287456Y-123564284D01*
X108372000Y-123989317D01*
X108372000Y-124422683D01*
X108287456Y-124847716D01*
X108121616Y-125248090D01*
X107880850Y-125608421D01*
X107574421Y-125914850D01*
X107214090Y-126155616D01*
X106813716Y-126321456D01*
X106388683Y-126406000D01*
X105955317Y-126406000D01*
X105530284Y-126321456D01*
X105129910Y-126155616D01*
X104769579Y-125914850D01*
X104463150Y-125608421D01*
X104222384Y-125248090D01*
X104056544Y-124847716D01*
X103972000Y-124422683D01*
X103972000Y-123989317D01*
X104056544Y-123564284D01*
X104222384Y-123163910D01*
X104463150Y-122803579D01*
X104769579Y-122497150D01*
X105129910Y-122256384D01*
X105530284Y-122090544D01*
X105955317Y-122006000D01*
X106388683Y-122006000D01*
X106813716Y-122090544D01*
X106813716Y-122090544D01*
G37*
G36*
X161712000Y-126406000D02*
X157312000Y-126406000D01*
X157312000Y-122006000D01*
X161712000Y-122006000D01*
X161712000Y-126406000D01*
X161712000Y-126406000D01*
G37*
G36*
X51836448Y-119016257D02*
X52100349Y-119096310D01*
X52343562Y-119226310D01*
X52556739Y-119401261D01*
X52731690Y-119614438D01*
X52861690Y-119857651D01*
X52941743Y-120121552D01*
X52968774Y-120396000D01*
X52941743Y-120670448D01*
X52861690Y-120934349D01*
X52731690Y-121177562D01*
X52556739Y-121390739D01*
X52343562Y-121565690D01*
X52100349Y-121695690D01*
X51836448Y-121775743D01*
X51630777Y-121796000D01*
X51493223Y-121796000D01*
X51287552Y-121775743D01*
X51023651Y-121695690D01*
X50780438Y-121565690D01*
X50567261Y-121390739D01*
X50392310Y-121177562D01*
X50262310Y-120934349D01*
X50182257Y-120670448D01*
X50155226Y-120396000D01*
X50182257Y-120121552D01*
X50262310Y-119857651D01*
X50392310Y-119614438D01*
X50567261Y-119401261D01*
X50780438Y-119226310D01*
X51023651Y-119096310D01*
X51287552Y-119016257D01*
X51493223Y-118996000D01*
X51630777Y-118996000D01*
X51836448Y-119016257D01*
X51836448Y-119016257D01*
G37*
G36*
X21321727Y-119016257D02*
X21490365Y-119049801D01*
X21745149Y-119155336D01*
X21851369Y-119226310D01*
X21974451Y-119308551D01*
X22169449Y-119503549D01*
X22322665Y-119732853D01*
X22428199Y-119987636D01*
X22482000Y-120258111D01*
X22482000Y-120533889D01*
X22428199Y-120804364D01*
X22322665Y-121059147D01*
X22169449Y-121288451D01*
X21974451Y-121483449D01*
X21974448Y-121483451D01*
X21745149Y-121636664D01*
X21490365Y-121742199D01*
X21355126Y-121769100D01*
X21219889Y-121796000D01*
X20944111Y-121796000D01*
X20808874Y-121769100D01*
X20673635Y-121742199D01*
X20418851Y-121636664D01*
X20189552Y-121483451D01*
X20189549Y-121483449D01*
X19994551Y-121288451D01*
X19841335Y-121059147D01*
X19735801Y-120804364D01*
X19682000Y-120533889D01*
X19682000Y-120258111D01*
X19735801Y-119987636D01*
X19841335Y-119732853D01*
X19994551Y-119503549D01*
X20189549Y-119308551D01*
X20312631Y-119226310D01*
X20418851Y-119155336D01*
X20673635Y-119049801D01*
X20842273Y-119016257D01*
X20944111Y-118996000D01*
X21219889Y-118996000D01*
X21321727Y-119016257D01*
X21321727Y-119016257D01*
G37*
G36*
X21356448Y-111396257D02*
X21620349Y-111476310D01*
X21863562Y-111606310D01*
X22076739Y-111781261D01*
X22251690Y-111994438D01*
X22381690Y-112237651D01*
X22461743Y-112501552D01*
X22488774Y-112776000D01*
X22461743Y-113050448D01*
X22381690Y-113314349D01*
X22251690Y-113557562D01*
X22076739Y-113770739D01*
X21863562Y-113945690D01*
X21620349Y-114075690D01*
X21356448Y-114155743D01*
X21150777Y-114176000D01*
X21013223Y-114176000D01*
X20807552Y-114155743D01*
X20543651Y-114075690D01*
X20300438Y-113945690D01*
X20087261Y-113770739D01*
X19912310Y-113557562D01*
X19782310Y-113314349D01*
X19702257Y-113050448D01*
X19675226Y-112776000D01*
X19702257Y-112501552D01*
X19782310Y-112237651D01*
X19912310Y-111994438D01*
X20087261Y-111781261D01*
X20300438Y-111606310D01*
X20543651Y-111476310D01*
X20807552Y-111396257D01*
X21013223Y-111376000D01*
X21150777Y-111376000D01*
X21356448Y-111396257D01*
X21356448Y-111396257D01*
G37*
G36*
X51801727Y-111396257D02*
X51970365Y-111429801D01*
X52225149Y-111535336D01*
X52331369Y-111606310D01*
X52454451Y-111688551D01*
X52649449Y-111883549D01*
X52802665Y-112112853D01*
X52908199Y-112367636D01*
X52962000Y-112638111D01*
X52962000Y-112913889D01*
X52908199Y-113184364D01*
X52802665Y-113439147D01*
X52649449Y-113668451D01*
X52454451Y-113863449D01*
X52454448Y-113863451D01*
X52225149Y-114016664D01*
X51970365Y-114122199D01*
X51835126Y-114149100D01*
X51699889Y-114176000D01*
X51424111Y-114176000D01*
X51288874Y-114149100D01*
X51153635Y-114122199D01*
X50898851Y-114016664D01*
X50669552Y-113863451D01*
X50669549Y-113863449D01*
X50474551Y-113668451D01*
X50321335Y-113439147D01*
X50215801Y-113184364D01*
X50162000Y-112913889D01*
X50162000Y-112638111D01*
X50215801Y-112367636D01*
X50321335Y-112112853D01*
X50474551Y-111883549D01*
X50669549Y-111688551D01*
X50792631Y-111606310D01*
X50898851Y-111535336D01*
X51153635Y-111429801D01*
X51322273Y-111396257D01*
X51424111Y-111376000D01*
X51699889Y-111376000D01*
X51801727Y-111396257D01*
X51801727Y-111396257D01*
G37*
G36*
X161872000Y-94656000D02*
X157472000Y-94656000D01*
X157472000Y-90256000D01*
X161872000Y-90256000D01*
X161872000Y-94656000D01*
X161872000Y-94656000D01*
G37*
G36*
X34712000Y-94656000D02*
X30312000Y-94656000D01*
X30312000Y-90256000D01*
X34712000Y-90256000D01*
X34712000Y-94656000D01*
X34712000Y-94656000D01*
G37*
G36*
X43153716Y-90340544D02*
X43554090Y-90506384D01*
X43914421Y-90747150D01*
X44220850Y-91053579D01*
X44461616Y-91413910D01*
X44627456Y-91814284D01*
X44712000Y-92239317D01*
X44712000Y-92672683D01*
X44627456Y-93097716D01*
X44461616Y-93498090D01*
X44220850Y-93858421D01*
X43914421Y-94164850D01*
X43554090Y-94405616D01*
X43153716Y-94571456D01*
X42728683Y-94656000D01*
X42295317Y-94656000D01*
X41870284Y-94571456D01*
X41469910Y-94405616D01*
X41109579Y-94164850D01*
X40803150Y-93858421D01*
X40562384Y-93498090D01*
X40396544Y-93097716D01*
X40312000Y-92672683D01*
X40312000Y-92239317D01*
X40396544Y-91814284D01*
X40562384Y-91413910D01*
X40803150Y-91053579D01*
X41109579Y-90747150D01*
X41469910Y-90506384D01*
X41870284Y-90340544D01*
X42295317Y-90256000D01*
X42728683Y-90256000D01*
X43153716Y-90340544D01*
X43153716Y-90340544D01*
G37*
G36*
X129962000Y-94656000D02*
X125562000Y-94656000D01*
X125562000Y-90256000D01*
X129962000Y-90256000D01*
X129962000Y-94656000D01*
X129962000Y-94656000D01*
G37*
G36*
X75063716Y-90340544D02*
X75464090Y-90506384D01*
X75824421Y-90747150D01*
X76130850Y-91053579D01*
X76371616Y-91413910D01*
X76537456Y-91814284D01*
X76622000Y-92239317D01*
X76622000Y-92672683D01*
X76537456Y-93097716D01*
X76371616Y-93498090D01*
X76130850Y-93858421D01*
X75824421Y-94164850D01*
X75464090Y-94405616D01*
X75063716Y-94571456D01*
X74638683Y-94656000D01*
X74205317Y-94656000D01*
X73780284Y-94571456D01*
X73379910Y-94405616D01*
X73019579Y-94164850D01*
X72713150Y-93858421D01*
X72472384Y-93498090D01*
X72306544Y-93097716D01*
X72222000Y-92672683D01*
X72222000Y-92239317D01*
X72306544Y-91814284D01*
X72472384Y-91413910D01*
X72713150Y-91053579D01*
X73019579Y-90747150D01*
X73379910Y-90506384D01*
X73780284Y-90340544D01*
X74205317Y-90256000D01*
X74638683Y-90256000D01*
X75063716Y-90340544D01*
X75063716Y-90340544D01*
G37*
G36*
X106653716Y-90340544D02*
X107054090Y-90506384D01*
X107414421Y-90747150D01*
X107720850Y-91053579D01*
X107961616Y-91413910D01*
X108127456Y-91814284D01*
X108212000Y-92239317D01*
X108212000Y-92672683D01*
X108127456Y-93097716D01*
X107961616Y-93498090D01*
X107720850Y-93858421D01*
X107414421Y-94164850D01*
X107054090Y-94405616D01*
X106653716Y-94571456D01*
X106228683Y-94656000D01*
X105795317Y-94656000D01*
X105370284Y-94571456D01*
X104969910Y-94405616D01*
X104609579Y-94164850D01*
X104303150Y-93858421D01*
X104062384Y-93498090D01*
X103896544Y-93097716D01*
X103812000Y-92672683D01*
X103812000Y-92239317D01*
X103896544Y-91814284D01*
X104062384Y-91413910D01*
X104303150Y-91053579D01*
X104609579Y-90747150D01*
X104969910Y-90506384D01*
X105370284Y-90340544D01*
X105795317Y-90256000D01*
X106228683Y-90256000D01*
X106653716Y-90340544D01*
X106653716Y-90340544D01*
G37*
G36*
X98212000Y-94656000D02*
X93812000Y-94656000D01*
X93812000Y-90256000D01*
X98212000Y-90256000D01*
X98212000Y-94656000D01*
X98212000Y-94656000D01*
G37*
G36*
X138403716Y-90340544D02*
X138804090Y-90506384D01*
X139164421Y-90747150D01*
X139470850Y-91053579D01*
X139711616Y-91413910D01*
X139877456Y-91814284D01*
X139962000Y-92239317D01*
X139962000Y-92672683D01*
X139877456Y-93097716D01*
X139711616Y-93498090D01*
X139470850Y-93858421D01*
X139164421Y-94164850D01*
X138804090Y-94405616D01*
X138403716Y-94571456D01*
X137978683Y-94656000D01*
X137545317Y-94656000D01*
X137120284Y-94571456D01*
X136719910Y-94405616D01*
X136359579Y-94164850D01*
X136053150Y-93858421D01*
X135812384Y-93498090D01*
X135646544Y-93097716D01*
X135562000Y-92672683D01*
X135562000Y-92239317D01*
X135646544Y-91814284D01*
X135812384Y-91413910D01*
X136053150Y-91053579D01*
X136359579Y-90747150D01*
X136719910Y-90506384D01*
X137120284Y-90340544D01*
X137545317Y-90256000D01*
X137978683Y-90256000D01*
X138403716Y-90340544D01*
X138403716Y-90340544D01*
G37*
G36*
X193462000Y-94656000D02*
X189062000Y-94656000D01*
X189062000Y-90256000D01*
X193462000Y-90256000D01*
X193462000Y-94656000D01*
X193462000Y-94656000D01*
G37*
G36*
X66622000Y-94656000D02*
X62222000Y-94656000D01*
X62222000Y-90256000D01*
X66622000Y-90256000D01*
X66622000Y-94656000D01*
X66622000Y-94656000D01*
G37*
G36*
X201903716Y-90340544D02*
X202304090Y-90506384D01*
X202664421Y-90747150D01*
X202970850Y-91053579D01*
X203211616Y-91413910D01*
X203377456Y-91814284D01*
X203462000Y-92239317D01*
X203462000Y-92672683D01*
X203377456Y-93097716D01*
X203211616Y-93498090D01*
X202970850Y-93858421D01*
X202664421Y-94164850D01*
X202304090Y-94405616D01*
X201903716Y-94571456D01*
X201478683Y-94656000D01*
X201045317Y-94656000D01*
X200620284Y-94571456D01*
X200219910Y-94405616D01*
X199859579Y-94164850D01*
X199553150Y-93858421D01*
X199312384Y-93498090D01*
X199146544Y-93097716D01*
X199062000Y-92672683D01*
X199062000Y-92239317D01*
X199146544Y-91814284D01*
X199312384Y-91413910D01*
X199553150Y-91053579D01*
X199859579Y-90747150D01*
X200219910Y-90506384D01*
X200620284Y-90340544D01*
X201045317Y-90256000D01*
X201478683Y-90256000D01*
X201903716Y-90340544D01*
X201903716Y-90340544D01*
G37*
G36*
X225212000Y-94656000D02*
X220812000Y-94656000D01*
X220812000Y-90256000D01*
X225212000Y-90256000D01*
X225212000Y-94656000D01*
X225212000Y-94656000D01*
G37*
G36*
X233653716Y-90340544D02*
X234054090Y-90506384D01*
X234414421Y-90747150D01*
X234720850Y-91053579D01*
X234961616Y-91413910D01*
X235127456Y-91814284D01*
X235212000Y-92239317D01*
X235212000Y-92672683D01*
X235127456Y-93097716D01*
X234961616Y-93498090D01*
X234720850Y-93858421D01*
X234414421Y-94164850D01*
X234054090Y-94405616D01*
X233653716Y-94571456D01*
X233228683Y-94656000D01*
X232795317Y-94656000D01*
X232370284Y-94571456D01*
X231969910Y-94405616D01*
X231609579Y-94164850D01*
X231303150Y-93858421D01*
X231062384Y-93498090D01*
X230896544Y-93097716D01*
X230812000Y-92672683D01*
X230812000Y-92239317D01*
X230896544Y-91814284D01*
X231062384Y-91413910D01*
X231303150Y-91053579D01*
X231609579Y-90747150D01*
X231969910Y-90506384D01*
X232370284Y-90340544D01*
X232795317Y-90256000D01*
X233228683Y-90256000D01*
X233653716Y-90340544D01*
X233653716Y-90340544D01*
G37*
G36*
X256962000Y-94656000D02*
X252562000Y-94656000D01*
X252562000Y-90256000D01*
X256962000Y-90256000D01*
X256962000Y-94656000D01*
X256962000Y-94656000D01*
G37*
G36*
X265403716Y-90340544D02*
X265804090Y-90506384D01*
X266164421Y-90747150D01*
X266470850Y-91053579D01*
X266711616Y-91413910D01*
X266877456Y-91814284D01*
X266962000Y-92239317D01*
X266962000Y-92672683D01*
X266877456Y-93097716D01*
X266711616Y-93498090D01*
X266470850Y-93858421D01*
X266164421Y-94164850D01*
X265804090Y-94405616D01*
X265403716Y-94571456D01*
X264978683Y-94656000D01*
X264545317Y-94656000D01*
X264120284Y-94571456D01*
X263719910Y-94405616D01*
X263359579Y-94164850D01*
X263053150Y-93858421D01*
X262812384Y-93498090D01*
X262646544Y-93097716D01*
X262562000Y-92672683D01*
X262562000Y-92239317D01*
X262646544Y-91814284D01*
X262812384Y-91413910D01*
X263053150Y-91053579D01*
X263359579Y-90747150D01*
X263719910Y-90506384D01*
X264120284Y-90340544D01*
X264545317Y-90256000D01*
X264978683Y-90256000D01*
X265403716Y-90340544D01*
X265403716Y-90340544D01*
G37*
G36*
X170313716Y-90340544D02*
X170714090Y-90506384D01*
X171074421Y-90747150D01*
X171380850Y-91053579D01*
X171621616Y-91413910D01*
X171787456Y-91814284D01*
X171872000Y-92239317D01*
X171872000Y-92672683D01*
X171787456Y-93097716D01*
X171621616Y-93498090D01*
X171380850Y-93858421D01*
X171074421Y-94164850D01*
X170714090Y-94405616D01*
X170313716Y-94571456D01*
X169888683Y-94656000D01*
X169455317Y-94656000D01*
X169030284Y-94571456D01*
X168629910Y-94405616D01*
X168269579Y-94164850D01*
X167963150Y-93858421D01*
X167722384Y-93498090D01*
X167556544Y-93097716D01*
X167472000Y-92672683D01*
X167472000Y-92239317D01*
X167556544Y-91814284D01*
X167722384Y-91413910D01*
X167963150Y-91053579D01*
X168269579Y-90747150D01*
X168629910Y-90506384D01*
X169030284Y-90340544D01*
X169455317Y-90256000D01*
X169888683Y-90256000D01*
X170313716Y-90340544D01*
X170313716Y-90340544D01*
G37*
G36*
X149236283Y-74567153D02*
X149607812Y-74721045D01*
X149942183Y-74944465D01*
X150226535Y-75228817D01*
X150449955Y-75563188D01*
X150603847Y-75934717D01*
X150682300Y-76329128D01*
X150682300Y-76731272D01*
X150603847Y-77125683D01*
X150449955Y-77497212D01*
X150226535Y-77831583D01*
X149942183Y-78115935D01*
X149607812Y-78339355D01*
X149236283Y-78493247D01*
X148841872Y-78571700D01*
X148439728Y-78571700D01*
X148045317Y-78493247D01*
X147673788Y-78339355D01*
X147339417Y-78115935D01*
X147055065Y-77831583D01*
X146831645Y-77497212D01*
X146677753Y-77125683D01*
X146599300Y-76731272D01*
X146599300Y-76329128D01*
X146677753Y-75934717D01*
X146831645Y-75563188D01*
X147055065Y-75228817D01*
X147339417Y-74944465D01*
X147673788Y-74721045D01*
X148045317Y-74567153D01*
X148439728Y-74488700D01*
X148841872Y-74488700D01*
X149236283Y-74567153D01*
X149236283Y-74567153D01*
G37*
G36*
X138403716Y-58590544D02*
X138804090Y-58756384D01*
X139164421Y-58997150D01*
X139470850Y-59303579D01*
X139711616Y-59663910D01*
X139877456Y-60064284D01*
X139962000Y-60489317D01*
X139962000Y-60922683D01*
X139877456Y-61347716D01*
X139711616Y-61748090D01*
X139470850Y-62108421D01*
X139164421Y-62414850D01*
X138804090Y-62655616D01*
X138403716Y-62821456D01*
X137978683Y-62906000D01*
X137545317Y-62906000D01*
X137120284Y-62821456D01*
X136719910Y-62655616D01*
X136359579Y-62414850D01*
X136053150Y-62108421D01*
X135812384Y-61748090D01*
X135646544Y-61347716D01*
X135562000Y-60922683D01*
X135562000Y-60489317D01*
X135646544Y-60064284D01*
X135812384Y-59663910D01*
X136053150Y-59303579D01*
X136359579Y-58997150D01*
X136719910Y-58756384D01*
X137120284Y-58590544D01*
X137545317Y-58506000D01*
X137978683Y-58506000D01*
X138403716Y-58590544D01*
X138403716Y-58590544D01*
G37*
G36*
X161712000Y-62906000D02*
X157312000Y-62906000D01*
X157312000Y-58506000D01*
X161712000Y-58506000D01*
X161712000Y-62906000D01*
X161712000Y-62906000D01*
G37*
G36*
X170153716Y-58590544D02*
X170554090Y-58756384D01*
X170914421Y-58997150D01*
X171220850Y-59303579D01*
X171461616Y-59663910D01*
X171627456Y-60064284D01*
X171712000Y-60489317D01*
X171712000Y-60922683D01*
X171627456Y-61347716D01*
X171461616Y-61748090D01*
X171220850Y-62108421D01*
X170914421Y-62414850D01*
X170554090Y-62655616D01*
X170153716Y-62821456D01*
X169728683Y-62906000D01*
X169295317Y-62906000D01*
X168870284Y-62821456D01*
X168469910Y-62655616D01*
X168109579Y-62414850D01*
X167803150Y-62108421D01*
X167562384Y-61748090D01*
X167396544Y-61347716D01*
X167312000Y-60922683D01*
X167312000Y-60489317D01*
X167396544Y-60064284D01*
X167562384Y-59663910D01*
X167803150Y-59303579D01*
X168109579Y-58997150D01*
X168469910Y-58756384D01*
X168870284Y-58590544D01*
X169295317Y-58506000D01*
X169728683Y-58506000D01*
X170153716Y-58590544D01*
X170153716Y-58590544D01*
G37*
G36*
X129962000Y-62906000D02*
X125562000Y-62906000D01*
X125562000Y-58506000D01*
X129962000Y-58506000D01*
X129962000Y-62906000D01*
X129962000Y-62906000D01*
G37*
G36*
X233653716Y-58590544D02*
X234054090Y-58756384D01*
X234414421Y-58997150D01*
X234720850Y-59303579D01*
X234961616Y-59663910D01*
X235127456Y-60064284D01*
X235212000Y-60489317D01*
X235212000Y-60922683D01*
X235127456Y-61347716D01*
X234961616Y-61748090D01*
X234720850Y-62108421D01*
X234414421Y-62414850D01*
X234054090Y-62655616D01*
X233653716Y-62821456D01*
X233228683Y-62906000D01*
X232795317Y-62906000D01*
X232370284Y-62821456D01*
X231969910Y-62655616D01*
X231609579Y-62414850D01*
X231303150Y-62108421D01*
X231062384Y-61748090D01*
X230896544Y-61347716D01*
X230812000Y-60922683D01*
X230812000Y-60489317D01*
X230896544Y-60064284D01*
X231062384Y-59663910D01*
X231303150Y-59303579D01*
X231609579Y-58997150D01*
X231969910Y-58756384D01*
X232370284Y-58590544D01*
X232795317Y-58506000D01*
X233228683Y-58506000D01*
X233653716Y-58590544D01*
X233653716Y-58590544D01*
G37*
G36*
X256962000Y-62906000D02*
X252562000Y-62906000D01*
X252562000Y-58506000D01*
X256962000Y-58506000D01*
X256962000Y-62906000D01*
X256962000Y-62906000D01*
G37*
G36*
X265403716Y-58590544D02*
X265804090Y-58756384D01*
X266164421Y-58997150D01*
X266470850Y-59303579D01*
X266711616Y-59663910D01*
X266877456Y-60064284D01*
X266962000Y-60489317D01*
X266962000Y-60922683D01*
X266877456Y-61347716D01*
X266711616Y-61748090D01*
X266470850Y-62108421D01*
X266164421Y-62414850D01*
X265804090Y-62655616D01*
X265403716Y-62821456D01*
X264978683Y-62906000D01*
X264545317Y-62906000D01*
X264120284Y-62821456D01*
X263719910Y-62655616D01*
X263359579Y-62414850D01*
X263053150Y-62108421D01*
X262812384Y-61748090D01*
X262646544Y-61347716D01*
X262562000Y-60922683D01*
X262562000Y-60489317D01*
X262646544Y-60064284D01*
X262812384Y-59663910D01*
X263053150Y-59303579D01*
X263359579Y-58997150D01*
X263719910Y-58756384D01*
X264120284Y-58590544D01*
X264545317Y-58506000D01*
X264978683Y-58506000D01*
X265403716Y-58590544D01*
X265403716Y-58590544D01*
G37*
G36*
X193462000Y-62906000D02*
X189062000Y-62906000D01*
X189062000Y-58506000D01*
X193462000Y-58506000D01*
X193462000Y-62906000D01*
X193462000Y-62906000D01*
G37*
G36*
X98212000Y-62906000D02*
X93812000Y-62906000D01*
X93812000Y-58506000D01*
X98212000Y-58506000D01*
X98212000Y-62906000D01*
X98212000Y-62906000D01*
G37*
G36*
X106653716Y-58590544D02*
X107054090Y-58756384D01*
X107414421Y-58997150D01*
X107720850Y-59303579D01*
X107961616Y-59663910D01*
X108127456Y-60064284D01*
X108212000Y-60489317D01*
X108212000Y-60922683D01*
X108127456Y-61347716D01*
X107961616Y-61748090D01*
X107720850Y-62108421D01*
X107414421Y-62414850D01*
X107054090Y-62655616D01*
X106653716Y-62821456D01*
X106228683Y-62906000D01*
X105795317Y-62906000D01*
X105370284Y-62821456D01*
X104969910Y-62655616D01*
X104609579Y-62414850D01*
X104303150Y-62108421D01*
X104062384Y-61748090D01*
X103896544Y-61347716D01*
X103812000Y-60922683D01*
X103812000Y-60489317D01*
X103896544Y-60064284D01*
X104062384Y-59663910D01*
X104303150Y-59303579D01*
X104609579Y-58997150D01*
X104969910Y-58756384D01*
X105370284Y-58590544D01*
X105795317Y-58506000D01*
X106228683Y-58506000D01*
X106653716Y-58590544D01*
X106653716Y-58590544D01*
G37*
G36*
X34712000Y-62906000D02*
X30312000Y-62906000D01*
X30312000Y-58506000D01*
X34712000Y-58506000D01*
X34712000Y-62906000D01*
X34712000Y-62906000D01*
G37*
G36*
X66462000Y-62906000D02*
X62062000Y-62906000D01*
X62062000Y-58506000D01*
X66462000Y-58506000D01*
X66462000Y-62906000D01*
X66462000Y-62906000D01*
G37*
G36*
X74903716Y-58590544D02*
X75304090Y-58756384D01*
X75664421Y-58997150D01*
X75970850Y-59303579D01*
X76211616Y-59663910D01*
X76377456Y-60064284D01*
X76462000Y-60489317D01*
X76462000Y-60922683D01*
X76377456Y-61347716D01*
X76211616Y-61748090D01*
X75970850Y-62108421D01*
X75664421Y-62414850D01*
X75304090Y-62655616D01*
X74903716Y-62821456D01*
X74478683Y-62906000D01*
X74045317Y-62906000D01*
X73620284Y-62821456D01*
X73219910Y-62655616D01*
X72859579Y-62414850D01*
X72553150Y-62108421D01*
X72312384Y-61748090D01*
X72146544Y-61347716D01*
X72062000Y-60922683D01*
X72062000Y-60489317D01*
X72146544Y-60064284D01*
X72312384Y-59663910D01*
X72553150Y-59303579D01*
X72859579Y-58997150D01*
X73219910Y-58756384D01*
X73620284Y-58590544D01*
X74045317Y-58506000D01*
X74478683Y-58506000D01*
X74903716Y-58590544D01*
X74903716Y-58590544D01*
G37*
G36*
X225212000Y-62906000D02*
X220812000Y-62906000D01*
X220812000Y-58506000D01*
X225212000Y-58506000D01*
X225212000Y-62906000D01*
X225212000Y-62906000D01*
G37*
G36*
X43153716Y-58590544D02*
X43554090Y-58756384D01*
X43914421Y-58997150D01*
X44220850Y-59303579D01*
X44461616Y-59663910D01*
X44627456Y-60064284D01*
X44712000Y-60489317D01*
X44712000Y-60922683D01*
X44627456Y-61347716D01*
X44461616Y-61748090D01*
X44220850Y-62108421D01*
X43914421Y-62414850D01*
X43554090Y-62655616D01*
X43153716Y-62821456D01*
X42728683Y-62906000D01*
X42295317Y-62906000D01*
X41870284Y-62821456D01*
X41469910Y-62655616D01*
X41109579Y-62414850D01*
X40803150Y-62108421D01*
X40562384Y-61748090D01*
X40396544Y-61347716D01*
X40312000Y-60922683D01*
X40312000Y-60489317D01*
X40396544Y-60064284D01*
X40562384Y-59663910D01*
X40803150Y-59303579D01*
X41109579Y-58997150D01*
X41469910Y-58756384D01*
X41870284Y-58590544D01*
X42295317Y-58506000D01*
X42728683Y-58506000D01*
X43153716Y-58590544D01*
X43153716Y-58590544D01*
G37*
G36*
X201903716Y-58590544D02*
X202304090Y-58756384D01*
X202664421Y-58997150D01*
X202970850Y-59303579D01*
X203211616Y-59663910D01*
X203377456Y-60064284D01*
X203462000Y-60489317D01*
X203462000Y-60922683D01*
X203377456Y-61347716D01*
X203211616Y-61748090D01*
X202970850Y-62108421D01*
X202664421Y-62414850D01*
X202304090Y-62655616D01*
X201903716Y-62821456D01*
X201478683Y-62906000D01*
X201045317Y-62906000D01*
X200620284Y-62821456D01*
X200219910Y-62655616D01*
X199859579Y-62414850D01*
X199553150Y-62108421D01*
X199312384Y-61748090D01*
X199146544Y-61347716D01*
X199062000Y-60922683D01*
X199062000Y-60489317D01*
X199146544Y-60064284D01*
X199312384Y-59663910D01*
X199553150Y-59303579D01*
X199859579Y-58997150D01*
X200219910Y-58756384D01*
X200620284Y-58590544D01*
X201045317Y-58506000D01*
X201478683Y-58506000D01*
X201903716Y-58590544D01*
X201903716Y-58590544D01*
G37*
G36*
X170153716Y-26840544D02*
X170554090Y-27006384D01*
X170914421Y-27247150D01*
X171220850Y-27553579D01*
X171461616Y-27913910D01*
X171627456Y-28314284D01*
X171712000Y-28739317D01*
X171712000Y-29172683D01*
X171627456Y-29597716D01*
X171461616Y-29998090D01*
X171220850Y-30358421D01*
X170914421Y-30664850D01*
X170554090Y-30905616D01*
X170153716Y-31071456D01*
X169728683Y-31156000D01*
X169295317Y-31156000D01*
X168870284Y-31071456D01*
X168469910Y-30905616D01*
X168109579Y-30664850D01*
X167803150Y-30358421D01*
X167562384Y-29998090D01*
X167396544Y-29597716D01*
X167312000Y-29172683D01*
X167312000Y-28739317D01*
X167396544Y-28314284D01*
X167562384Y-27913910D01*
X167803150Y-27553579D01*
X168109579Y-27247150D01*
X168469910Y-27006384D01*
X168870284Y-26840544D01*
X169295317Y-26756000D01*
X169728683Y-26756000D01*
X170153716Y-26840544D01*
X170153716Y-26840544D01*
G37*
G36*
X66462000Y-31156000D02*
X62062000Y-31156000D01*
X62062000Y-26756000D01*
X66462000Y-26756000D01*
X66462000Y-31156000D01*
X66462000Y-31156000D01*
G37*
G36*
X74903716Y-26840544D02*
X75304090Y-27006384D01*
X75664421Y-27247150D01*
X75970850Y-27553579D01*
X76211616Y-27913910D01*
X76377456Y-28314284D01*
X76462000Y-28739317D01*
X76462000Y-29172683D01*
X76377456Y-29597716D01*
X76211616Y-29998090D01*
X75970850Y-30358421D01*
X75664421Y-30664850D01*
X75304090Y-30905616D01*
X74903716Y-31071456D01*
X74478683Y-31156000D01*
X74045317Y-31156000D01*
X73620284Y-31071456D01*
X73219910Y-30905616D01*
X72859579Y-30664850D01*
X72553150Y-30358421D01*
X72312384Y-29998090D01*
X72146544Y-29597716D01*
X72062000Y-29172683D01*
X72062000Y-28739317D01*
X72146544Y-28314284D01*
X72312384Y-27913910D01*
X72553150Y-27553579D01*
X72859579Y-27247150D01*
X73219910Y-27006384D01*
X73620284Y-26840544D01*
X74045317Y-26756000D01*
X74478683Y-26756000D01*
X74903716Y-26840544D01*
X74903716Y-26840544D01*
G37*
G36*
X43153716Y-26840544D02*
X43554090Y-27006384D01*
X43914421Y-27247150D01*
X44220850Y-27553579D01*
X44461616Y-27913910D01*
X44627456Y-28314284D01*
X44712000Y-28739317D01*
X44712000Y-29172683D01*
X44627456Y-29597716D01*
X44461616Y-29998090D01*
X44220850Y-30358421D01*
X43914421Y-30664850D01*
X43554090Y-30905616D01*
X43153716Y-31071456D01*
X42728683Y-31156000D01*
X42295317Y-31156000D01*
X41870284Y-31071456D01*
X41469910Y-30905616D01*
X41109579Y-30664850D01*
X40803150Y-30358421D01*
X40562384Y-29998090D01*
X40396544Y-29597716D01*
X40312000Y-29172683D01*
X40312000Y-28739317D01*
X40396544Y-28314284D01*
X40562384Y-27913910D01*
X40803150Y-27553579D01*
X41109579Y-27247150D01*
X41469910Y-27006384D01*
X41870284Y-26840544D01*
X42295317Y-26756000D01*
X42728683Y-26756000D01*
X43153716Y-26840544D01*
X43153716Y-26840544D01*
G37*
G36*
X98212000Y-31156000D02*
X93812000Y-31156000D01*
X93812000Y-26756000D01*
X98212000Y-26756000D01*
X98212000Y-31156000D01*
X98212000Y-31156000D01*
G37*
G36*
X34712000Y-31156000D02*
X30312000Y-31156000D01*
X30312000Y-26756000D01*
X34712000Y-26756000D01*
X34712000Y-31156000D01*
X34712000Y-31156000D01*
G37*
G36*
X265403716Y-26840544D02*
X265804090Y-27006384D01*
X266164421Y-27247150D01*
X266470850Y-27553579D01*
X266711616Y-27913910D01*
X266877456Y-28314284D01*
X266962000Y-28739317D01*
X266962000Y-29172683D01*
X266877456Y-29597716D01*
X266711616Y-29998090D01*
X266470850Y-30358421D01*
X266164421Y-30664850D01*
X265804090Y-30905616D01*
X265403716Y-31071456D01*
X264978683Y-31156000D01*
X264545317Y-31156000D01*
X264120284Y-31071456D01*
X263719910Y-30905616D01*
X263359579Y-30664850D01*
X263053150Y-30358421D01*
X262812384Y-29998090D01*
X262646544Y-29597716D01*
X262562000Y-29172683D01*
X262562000Y-28739317D01*
X262646544Y-28314284D01*
X262812384Y-27913910D01*
X263053150Y-27553579D01*
X263359579Y-27247150D01*
X263719910Y-27006384D01*
X264120284Y-26840544D01*
X264545317Y-26756000D01*
X264978683Y-26756000D01*
X265403716Y-26840544D01*
X265403716Y-26840544D01*
G37*
G36*
X256962000Y-31156000D02*
X252562000Y-31156000D01*
X252562000Y-26756000D01*
X256962000Y-26756000D01*
X256962000Y-31156000D01*
X256962000Y-31156000D01*
G37*
G36*
X225212000Y-31156000D02*
X220812000Y-31156000D01*
X220812000Y-26756000D01*
X225212000Y-26756000D01*
X225212000Y-31156000D01*
X225212000Y-31156000D01*
G37*
G36*
X201903716Y-26840544D02*
X202304090Y-27006384D01*
X202664421Y-27247150D01*
X202970850Y-27553579D01*
X203211616Y-27913910D01*
X203377456Y-28314284D01*
X203462000Y-28739317D01*
X203462000Y-29172683D01*
X203377456Y-29597716D01*
X203211616Y-29998090D01*
X202970850Y-30358421D01*
X202664421Y-30664850D01*
X202304090Y-30905616D01*
X201903716Y-31071456D01*
X201478683Y-31156000D01*
X201045317Y-31156000D01*
X200620284Y-31071456D01*
X200219910Y-30905616D01*
X199859579Y-30664850D01*
X199553150Y-30358421D01*
X199312384Y-29998090D01*
X199146544Y-29597716D01*
X199062000Y-29172683D01*
X199062000Y-28739317D01*
X199146544Y-28314284D01*
X199312384Y-27913910D01*
X199553150Y-27553579D01*
X199859579Y-27247150D01*
X200219910Y-27006384D01*
X200620284Y-26840544D01*
X201045317Y-26756000D01*
X201478683Y-26756000D01*
X201903716Y-26840544D01*
X201903716Y-26840544D01*
G37*
G36*
X193462000Y-31156000D02*
X189062000Y-31156000D01*
X189062000Y-26756000D01*
X193462000Y-26756000D01*
X193462000Y-31156000D01*
X193462000Y-31156000D01*
G37*
G36*
X106653716Y-26840544D02*
X107054090Y-27006384D01*
X107414421Y-27247150D01*
X107720850Y-27553579D01*
X107961616Y-27913910D01*
X108127456Y-28314284D01*
X108212000Y-28739317D01*
X108212000Y-29172683D01*
X108127456Y-29597716D01*
X107961616Y-29998090D01*
X107720850Y-30358421D01*
X107414421Y-30664850D01*
X107054090Y-30905616D01*
X106653716Y-31071456D01*
X106228683Y-31156000D01*
X105795317Y-31156000D01*
X105370284Y-31071456D01*
X104969910Y-30905616D01*
X104609579Y-30664850D01*
X104303150Y-30358421D01*
X104062384Y-29998090D01*
X103896544Y-29597716D01*
X103812000Y-29172683D01*
X103812000Y-28739317D01*
X103896544Y-28314284D01*
X104062384Y-27913910D01*
X104303150Y-27553579D01*
X104609579Y-27247150D01*
X104969910Y-27006384D01*
X105370284Y-26840544D01*
X105795317Y-26756000D01*
X106228683Y-26756000D01*
X106653716Y-26840544D01*
X106653716Y-26840544D01*
G37*
G36*
X161712000Y-31156000D02*
X157312000Y-31156000D01*
X157312000Y-26756000D01*
X161712000Y-26756000D01*
X161712000Y-31156000D01*
X161712000Y-31156000D01*
G37*
G36*
X233653716Y-26840544D02*
X234054090Y-27006384D01*
X234414421Y-27247150D01*
X234720850Y-27553579D01*
X234961616Y-27913910D01*
X235127456Y-28314284D01*
X235212000Y-28739317D01*
X235212000Y-29172683D01*
X235127456Y-29597716D01*
X234961616Y-29998090D01*
X234720850Y-30358421D01*
X234414421Y-30664850D01*
X234054090Y-30905616D01*
X233653716Y-31071456D01*
X233228683Y-31156000D01*
X232795317Y-31156000D01*
X232370284Y-31071456D01*
X231969910Y-30905616D01*
X231609579Y-30664850D01*
X231303150Y-30358421D01*
X231062384Y-29998090D01*
X230896544Y-29597716D01*
X230812000Y-29172683D01*
X230812000Y-28739317D01*
X230896544Y-28314284D01*
X231062384Y-27913910D01*
X231303150Y-27553579D01*
X231609579Y-27247150D01*
X231969910Y-27006384D01*
X232370284Y-26840544D01*
X232795317Y-26756000D01*
X233228683Y-26756000D01*
X233653716Y-26840544D01*
X233653716Y-26840544D01*
G37*
G36*
X138403716Y-26840544D02*
X138804090Y-27006384D01*
X139164421Y-27247150D01*
X139470850Y-27553579D01*
X139711616Y-27913910D01*
X139877456Y-28314284D01*
X139962000Y-28739317D01*
X139962000Y-29172683D01*
X139877456Y-29597716D01*
X139711616Y-29998090D01*
X139470850Y-30358421D01*
X139164421Y-30664850D01*
X138804090Y-30905616D01*
X138403716Y-31071456D01*
X137978683Y-31156000D01*
X137545317Y-31156000D01*
X137120284Y-31071456D01*
X136719910Y-30905616D01*
X136359579Y-30664850D01*
X136053150Y-30358421D01*
X135812384Y-29998090D01*
X135646544Y-29597716D01*
X135562000Y-29172683D01*
X135562000Y-28739317D01*
X135646544Y-28314284D01*
X135812384Y-27913910D01*
X136053150Y-27553579D01*
X136359579Y-27247150D01*
X136719910Y-27006384D01*
X137120284Y-26840544D01*
X137545317Y-26756000D01*
X137978683Y-26756000D01*
X138403716Y-26840544D01*
X138403716Y-26840544D01*
G37*
G36*
X129962000Y-31156000D02*
X125562000Y-31156000D01*
X125562000Y-26756000D01*
X129962000Y-26756000D01*
X129962000Y-31156000D01*
X129962000Y-31156000D01*
G37*
G36*
X21169483Y-15562953D02*
X21541012Y-15716845D01*
X21875383Y-15940265D01*
X22159735Y-16224617D01*
X22383155Y-16558988D01*
X22537047Y-16930517D01*
X22615500Y-17324928D01*
X22615500Y-17727072D01*
X22537047Y-18121483D01*
X22383155Y-18493012D01*
X22159735Y-18827383D01*
X21875383Y-19111735D01*
X21541012Y-19335155D01*
X21169483Y-19489047D01*
X20775072Y-19567500D01*
X20372928Y-19567500D01*
X19978517Y-19489047D01*
X19606988Y-19335155D01*
X19272617Y-19111735D01*
X18988265Y-18827383D01*
X18764845Y-18493012D01*
X18610953Y-18121483D01*
X18532500Y-17727072D01*
X18532500Y-17324928D01*
X18610953Y-16930517D01*
X18764845Y-16558988D01*
X18988265Y-16224617D01*
X19272617Y-15940265D01*
X19606988Y-15716845D01*
X19978517Y-15562953D01*
X20372928Y-15484500D01*
X20775072Y-15484500D01*
X21169483Y-15562953D01*
X21169483Y-15562953D01*
G37*
G36*
X277201483Y-15562953D02*
X277573012Y-15716845D01*
X277907383Y-15940265D01*
X278191735Y-16224617D01*
X278415155Y-16558988D01*
X278569047Y-16930517D01*
X278647500Y-17324928D01*
X278647500Y-17727072D01*
X278569047Y-18121483D01*
X278415155Y-18493012D01*
X278191735Y-18827383D01*
X277907383Y-19111735D01*
X277573012Y-19335155D01*
X277201483Y-19489047D01*
X276807072Y-19567500D01*
X276404928Y-19567500D01*
X276010517Y-19489047D01*
X275638988Y-19335155D01*
X275304617Y-19111735D01*
X275020265Y-18827383D01*
X274796845Y-18493012D01*
X274642953Y-18121483D01*
X274564500Y-17727072D01*
X274564500Y-17324928D01*
X274642953Y-16930517D01*
X274796845Y-16558988D01*
X275020265Y-16224617D01*
X275304617Y-15940265D01*
X275638988Y-15716845D01*
X276010517Y-15562953D01*
X276404928Y-15484500D01*
X276807072Y-15484500D01*
X277201483Y-15562953D01*
X277201483Y-15562953D01*
G37*
M02*
