G04 #@! TF.GenerationSoftware,KiCad,Pcbnew,(5.0.0)*
G04 #@! TF.CreationDate,2018-12-19T13:39:59-06:00*
G04 #@! TF.ProjectId,Spot_Welder_Hardware,53706F745F57656C6465725F48617264,rev?*
G04 #@! TF.SameCoordinates,Original*
G04 #@! TF.FileFunction,Paste,Top*
G04 #@! TF.FilePolarity,Positive*
%FSLAX46Y46*%
G04 Gerber Fmt 4.6, Leading zero omitted, Abs format (unit mm)*
G04 Created by KiCad (PCBNEW (5.0.0)) date 12/19/18 13:39:59*
%MOMM*%
%LPD*%
G01*
G04 APERTURE LIST*
%ADD10R,1.200000X0.900000*%
%ADD11R,2.500000X6.000000*%
%ADD12R,1.250000X1.500000*%
%ADD13R,1.500000X1.250000*%
%ADD14R,0.750000X1.200000*%
%ADD15R,1.200000X0.750000*%
%ADD16C,5.080000*%
%ADD17R,0.900000X1.200000*%
%ADD18R,0.500000X2.300000*%
%ADD19R,2.000000X2.500000*%
%ADD20R,1.500000X0.450000*%
%ADD21R,1.550000X1.300000*%
%ADD22R,2.150000X1.500000*%
%ADD23R,1.550000X0.600000*%
%ADD24R,0.450000X1.750000*%
%ADD25R,2.000000X7.875000*%
%ADD26R,0.800000X0.900000*%
%ADD27C,0.100000*%
%ADD28C,0.950000*%
G04 APERTURE END LIST*
D10*
G04 #@! TO.C,R20*
X47793000Y-145923000D03*
X45593000Y-145923000D03*
G04 #@! TD*
G04 #@! TO.C,R19*
X47793000Y-147828000D03*
X45593000Y-147828000D03*
G04 #@! TD*
D11*
G04 #@! TO.C,BZ1*
X145542000Y-145456000D03*
X145542000Y-158056000D03*
G04 #@! TD*
D12*
G04 #@! TO.C,C7*
X237998000Y-166624000D03*
X237998000Y-164124000D03*
G04 #@! TD*
G04 #@! TO.C,C11*
X154686000Y-183261000D03*
X154686000Y-180761000D03*
G04 #@! TD*
D13*
G04 #@! TO.C,C15*
X241340000Y-191770000D03*
X243840000Y-191770000D03*
G04 #@! TD*
D12*
G04 #@! TO.C,C19*
X200914000Y-149058000D03*
X200914000Y-146558000D03*
G04 #@! TD*
D13*
G04 #@! TO.C,C23*
X172466000Y-157988000D03*
X174966000Y-157988000D03*
G04 #@! TD*
D12*
G04 #@! TO.C,C24*
X164338000Y-180554000D03*
X164338000Y-178054000D03*
G04 #@! TD*
G04 #@! TO.C,C28*
X237998000Y-175768000D03*
X237998000Y-178268000D03*
G04 #@! TD*
G04 #@! TO.C,C32*
X164338000Y-168362000D03*
X164338000Y-165862000D03*
G04 #@! TD*
D14*
G04 #@! TO.C,C39*
X109982000Y-163576000D03*
X109982000Y-161676000D03*
G04 #@! TD*
D15*
G04 #@! TO.C,C40*
X125222000Y-167386000D03*
X127122000Y-167386000D03*
G04 #@! TD*
D14*
G04 #@! TO.C,C41*
X109982000Y-166116000D03*
X109982000Y-168016000D03*
G04 #@! TD*
G04 #@! TO.C,C42*
X109982000Y-176276000D03*
X109982000Y-174376000D03*
G04 #@! TD*
G04 #@! TO.C,C43*
X70866000Y-141986000D03*
X70866000Y-143886000D03*
G04 #@! TD*
G04 #@! TO.C,C44*
X70866000Y-146436000D03*
X70866000Y-148336000D03*
G04 #@! TD*
G04 #@! TO.C,C46*
X61823600Y-180340000D03*
X61823600Y-182240000D03*
G04 #@! TD*
G04 #@! TO.C,C47*
X64135000Y-182240000D03*
X64135000Y-180340000D03*
G04 #@! TD*
D15*
G04 #@! TO.C,C48*
X69342000Y-166116000D03*
X71242000Y-166116000D03*
G04 #@! TD*
D16*
G04 #@! TO.C,Conn3*
X37363400Y-160529000D03*
X37363400Y-152528000D03*
G04 #@! TD*
D17*
G04 #@! TO.C,D1*
X125222000Y-194986000D03*
X125222000Y-192786000D03*
G04 #@! TD*
G04 #@! TO.C,D2*
X102362000Y-194986000D03*
X102362000Y-192786000D03*
G04 #@! TD*
G04 #@! TO.C,D3*
X127762000Y-194986000D03*
X127762000Y-192786000D03*
G04 #@! TD*
G04 #@! TO.C,D4*
X104902000Y-194986000D03*
X104902000Y-192786000D03*
G04 #@! TD*
G04 #@! TO.C,D5*
X130302000Y-194986000D03*
X130302000Y-192786000D03*
G04 #@! TD*
G04 #@! TO.C,D6*
X99822000Y-194986000D03*
X99822000Y-192786000D03*
G04 #@! TD*
G04 #@! TO.C,D7*
X132842000Y-194986000D03*
X132842000Y-192786000D03*
G04 #@! TD*
G04 #@! TO.C,D11*
X50292000Y-154432000D03*
X50292000Y-156632000D03*
G04 #@! TD*
G04 #@! TO.C,D12*
X83566000Y-142494000D03*
X86866000Y-142494000D03*
G04 #@! TD*
G04 #@! TO.C,D17*
X74930000Y-194986000D03*
X74930000Y-192786000D03*
G04 #@! TD*
G04 #@! TO.C,D18*
X77470000Y-194986000D03*
X77470000Y-192786000D03*
G04 #@! TD*
G04 #@! TO.C,D20*
X80010000Y-194986000D03*
X80010000Y-192786000D03*
G04 #@! TD*
D18*
G04 #@! TO.C,J1*
X58212000Y-188876000D03*
D19*
X55362000Y-188976000D03*
D18*
X59012000Y-188876000D03*
X59812000Y-188876000D03*
X60612000Y-188876000D03*
X61412000Y-188876000D03*
D19*
X55362000Y-194476000D03*
X64262000Y-188976000D03*
X64262000Y-194476000D03*
G04 #@! TD*
D10*
G04 #@! TO.C,L1*
X228727000Y-177546000D03*
X230927000Y-177546000D03*
G04 #@! TD*
G04 #@! TO.C,L2*
X228727000Y-163576000D03*
X230927000Y-163576000D03*
G04 #@! TD*
D17*
G04 #@! TO.C,L3*
X228092000Y-192700000D03*
X228092000Y-190500000D03*
G04 #@! TD*
D10*
G04 #@! TO.C,L4*
X217297000Y-154051000D03*
X219497000Y-154051000D03*
G04 #@! TD*
G04 #@! TO.C,L5*
X210017000Y-149606000D03*
X212217000Y-149606000D03*
G04 #@! TD*
G04 #@! TO.C,L6*
X189017000Y-149606000D03*
X186817000Y-149606000D03*
G04 #@! TD*
G04 #@! TO.C,L7*
X183642000Y-154051000D03*
X181442000Y-154051000D03*
G04 #@! TD*
G04 #@! TO.C,L8*
X172507000Y-190881000D03*
X170307000Y-190881000D03*
G04 #@! TD*
G04 #@! TO.C,L9*
X172507000Y-165481000D03*
X170307000Y-165481000D03*
G04 #@! TD*
G04 #@! TO.C,L10*
X170307000Y-178181000D03*
X172507000Y-178181000D03*
G04 #@! TD*
D20*
G04 #@! TO.C,Q1*
X143002000Y-163236000D03*
X143002000Y-164536000D03*
X145662000Y-163886000D03*
G04 #@! TD*
D17*
G04 #@! TO.C,R1*
X125222000Y-189906000D03*
X125222000Y-187706000D03*
G04 #@! TD*
G04 #@! TO.C,R2*
X140462000Y-163236000D03*
X140462000Y-165436000D03*
G04 #@! TD*
G04 #@! TO.C,R3*
X102362000Y-189906000D03*
X102362000Y-187706000D03*
G04 #@! TD*
D10*
G04 #@! TO.C,R4*
X140462000Y-160696000D03*
X142662000Y-160696000D03*
G04 #@! TD*
D17*
G04 #@! TO.C,R5*
X127762000Y-189906000D03*
X127762000Y-187706000D03*
G04 #@! TD*
G04 #@! TO.C,R6*
X104902000Y-189906000D03*
X104902000Y-187706000D03*
G04 #@! TD*
G04 #@! TO.C,R7*
X130302000Y-189906000D03*
X130302000Y-187706000D03*
G04 #@! TD*
G04 #@! TO.C,R8*
X99822000Y-189906000D03*
X99822000Y-187706000D03*
G04 #@! TD*
G04 #@! TO.C,R9*
X132842000Y-189906000D03*
X132842000Y-187706000D03*
G04 #@! TD*
G04 #@! TO.C,R10*
X132588000Y-152146000D03*
X132588000Y-149946000D03*
G04 #@! TD*
G04 #@! TO.C,R11*
X130556000Y-152146000D03*
X130556000Y-149946000D03*
G04 #@! TD*
G04 #@! TO.C,R15*
X132588000Y-154686000D03*
X132588000Y-156886000D03*
G04 #@! TD*
G04 #@! TO.C,R16*
X130556000Y-154686000D03*
X130556000Y-156886000D03*
G04 #@! TD*
G04 #@! TO.C,R17*
X109982000Y-147406000D03*
X109982000Y-149606000D03*
G04 #@! TD*
G04 #@! TO.C,R18*
X42926000Y-140040000D03*
X42926000Y-142240000D03*
G04 #@! TD*
D10*
G04 #@! TO.C,R21*
X80518000Y-142494000D03*
X78318000Y-142494000D03*
G04 #@! TD*
D17*
G04 #@! TO.C,R22*
X197104000Y-148971000D03*
X197104000Y-146771000D03*
G04 #@! TD*
D10*
G04 #@! TO.C,R23*
X230927000Y-180086000D03*
X228727000Y-180086000D03*
G04 #@! TD*
G04 #@! TO.C,R24*
X107782000Y-152146000D03*
X109982000Y-152146000D03*
G04 #@! TD*
G04 #@! TO.C,R25*
X107782000Y-154686000D03*
X109982000Y-154686000D03*
G04 #@! TD*
G04 #@! TO.C,R26*
X230927000Y-166116000D03*
X228727000Y-166116000D03*
G04 #@! TD*
D17*
G04 #@! TO.C,R27*
X148971000Y-187071000D03*
X148971000Y-184871000D03*
G04 #@! TD*
G04 #@! TO.C,R28*
X230378000Y-190500000D03*
X230378000Y-188300000D03*
G04 #@! TD*
D10*
G04 #@! TO.C,R29*
X219497000Y-156591000D03*
X217297000Y-156591000D03*
G04 #@! TD*
G04 #@! TO.C,R30*
X215097000Y-149606000D03*
X217297000Y-149606000D03*
G04 #@! TD*
G04 #@! TO.C,R31*
X183937000Y-149606000D03*
X181737000Y-149606000D03*
G04 #@! TD*
G04 #@! TO.C,R32*
X183642000Y-156591000D03*
X181442000Y-156591000D03*
G04 #@! TD*
D17*
G04 #@! TO.C,R33*
X241300000Y-189484000D03*
X241300000Y-187284000D03*
G04 #@! TD*
D10*
G04 #@! TO.C,R34*
X170307000Y-193040000D03*
X168107000Y-193040000D03*
G04 #@! TD*
D17*
G04 #@! TO.C,R35*
X74930000Y-187706000D03*
X74930000Y-189906000D03*
G04 #@! TD*
D10*
G04 #@! TO.C,R36*
X170307000Y-168021000D03*
X172507000Y-168021000D03*
G04 #@! TD*
D17*
G04 #@! TO.C,R37*
X77470000Y-187706000D03*
X77470000Y-189906000D03*
G04 #@! TD*
D10*
G04 #@! TO.C,R38*
X172507000Y-180721000D03*
X170307000Y-180721000D03*
G04 #@! TD*
D17*
G04 #@! TO.C,R39*
X80010000Y-187622000D03*
X80010000Y-189822000D03*
G04 #@! TD*
D21*
G04 #@! TO.C,SW1*
X34782000Y-191936000D03*
X26832000Y-191936000D03*
X34782000Y-187436000D03*
X26832000Y-187436000D03*
G04 #@! TD*
D22*
G04 #@! TO.C,SW3*
X122042000Y-188976000D03*
X113792000Y-188976000D03*
G04 #@! TD*
D21*
G04 #@! TO.C,SW4*
X50022000Y-191936000D03*
X42072000Y-191936000D03*
X50022000Y-187436000D03*
X42072000Y-187436000D03*
G04 #@! TD*
D23*
G04 #@! TO.C,U3*
X238445000Y-190881000D03*
X238445000Y-189611000D03*
X238445000Y-188341000D03*
X238445000Y-187071000D03*
X233045000Y-187071000D03*
X233045000Y-188341000D03*
X233045000Y-189611000D03*
X233045000Y-190881000D03*
G04 #@! TD*
D24*
G04 #@! TO.C,U4*
X68961000Y-168910000D03*
X68311000Y-168910000D03*
X67661000Y-168910000D03*
X67011000Y-168910000D03*
X66361000Y-168910000D03*
X65711000Y-168910000D03*
X65061000Y-168910000D03*
X64411000Y-168910000D03*
X63761000Y-168910000D03*
X63111000Y-168910000D03*
X62461000Y-168910000D03*
X61811000Y-168910000D03*
X61161000Y-168910000D03*
X60511000Y-168910000D03*
X60511000Y-176110000D03*
X61161000Y-176110000D03*
X61811000Y-176110000D03*
X62461000Y-176110000D03*
X63111000Y-176110000D03*
X63761000Y-176110000D03*
X64411000Y-176110000D03*
X65061000Y-176110000D03*
X65711000Y-176110000D03*
X66361000Y-176110000D03*
X67011000Y-176110000D03*
X67661000Y-176110000D03*
X68311000Y-176110000D03*
X68961000Y-176110000D03*
G04 #@! TD*
D23*
G04 #@! TO.C,U5*
X151826000Y-185801000D03*
X151826000Y-187071000D03*
X151826000Y-188341000D03*
X151826000Y-189611000D03*
X157226000Y-189611000D03*
X157226000Y-188341000D03*
X157226000Y-187071000D03*
X157226000Y-185801000D03*
G04 #@! TD*
D25*
G04 #@! TO.C,Y1*
X103632000Y-165258500D03*
X103632000Y-177133500D03*
G04 #@! TD*
D17*
G04 #@! TO.C,R40*
X50292000Y-141224000D03*
X50292000Y-143424000D03*
G04 #@! TD*
D26*
G04 #@! TO.C,Q2*
X45842388Y-143198804D03*
X47742388Y-143198804D03*
X46792388Y-141198804D03*
G04 #@! TD*
D10*
G04 #@! TO.C,D10*
X41656000Y-144528000D03*
X41656000Y-147828000D03*
G04 #@! TD*
D27*
G04 #@! TO.C,D8*
G36*
X128839780Y-151622144D02*
X128862835Y-151625563D01*
X128885444Y-151631227D01*
X128907388Y-151639079D01*
X128928458Y-151649044D01*
X128948449Y-151661026D01*
X128967169Y-151674910D01*
X128984439Y-151690562D01*
X129000091Y-151707832D01*
X129013975Y-151726552D01*
X129025957Y-151746543D01*
X129035922Y-151767613D01*
X129043774Y-151789557D01*
X129049438Y-151812166D01*
X129052857Y-151835221D01*
X129054001Y-151858500D01*
X129054001Y-152433500D01*
X129052857Y-152456779D01*
X129049438Y-152479834D01*
X129043774Y-152502443D01*
X129035922Y-152524387D01*
X129025957Y-152545457D01*
X129013975Y-152565448D01*
X129000091Y-152584168D01*
X128984439Y-152601438D01*
X128967169Y-152617090D01*
X128948449Y-152630974D01*
X128928458Y-152642956D01*
X128907388Y-152652921D01*
X128885444Y-152660773D01*
X128862835Y-152666437D01*
X128839780Y-152669856D01*
X128816501Y-152671000D01*
X128341501Y-152671000D01*
X128318222Y-152669856D01*
X128295167Y-152666437D01*
X128272558Y-152660773D01*
X128250614Y-152652921D01*
X128229544Y-152642956D01*
X128209553Y-152630974D01*
X128190833Y-152617090D01*
X128173563Y-152601438D01*
X128157911Y-152584168D01*
X128144027Y-152565448D01*
X128132045Y-152545457D01*
X128122080Y-152524387D01*
X128114228Y-152502443D01*
X128108564Y-152479834D01*
X128105145Y-152456779D01*
X128104001Y-152433500D01*
X128104001Y-151858500D01*
X128105145Y-151835221D01*
X128108564Y-151812166D01*
X128114228Y-151789557D01*
X128122080Y-151767613D01*
X128132045Y-151746543D01*
X128144027Y-151726552D01*
X128157911Y-151707832D01*
X128173563Y-151690562D01*
X128190833Y-151674910D01*
X128209553Y-151661026D01*
X128229544Y-151649044D01*
X128250614Y-151639079D01*
X128272558Y-151631227D01*
X128295167Y-151625563D01*
X128318222Y-151622144D01*
X128341501Y-151621000D01*
X128816501Y-151621000D01*
X128839780Y-151622144D01*
X128839780Y-151622144D01*
G37*
D28*
X128579001Y-152146000D03*
D27*
G36*
X128839780Y-149872144D02*
X128862835Y-149875563D01*
X128885444Y-149881227D01*
X128907388Y-149889079D01*
X128928458Y-149899044D01*
X128948449Y-149911026D01*
X128967169Y-149924910D01*
X128984439Y-149940562D01*
X129000091Y-149957832D01*
X129013975Y-149976552D01*
X129025957Y-149996543D01*
X129035922Y-150017613D01*
X129043774Y-150039557D01*
X129049438Y-150062166D01*
X129052857Y-150085221D01*
X129054001Y-150108500D01*
X129054001Y-150683500D01*
X129052857Y-150706779D01*
X129049438Y-150729834D01*
X129043774Y-150752443D01*
X129035922Y-150774387D01*
X129025957Y-150795457D01*
X129013975Y-150815448D01*
X129000091Y-150834168D01*
X128984439Y-150851438D01*
X128967169Y-150867090D01*
X128948449Y-150880974D01*
X128928458Y-150892956D01*
X128907388Y-150902921D01*
X128885444Y-150910773D01*
X128862835Y-150916437D01*
X128839780Y-150919856D01*
X128816501Y-150921000D01*
X128341501Y-150921000D01*
X128318222Y-150919856D01*
X128295167Y-150916437D01*
X128272558Y-150910773D01*
X128250614Y-150902921D01*
X128229544Y-150892956D01*
X128209553Y-150880974D01*
X128190833Y-150867090D01*
X128173563Y-150851438D01*
X128157911Y-150834168D01*
X128144027Y-150815448D01*
X128132045Y-150795457D01*
X128122080Y-150774387D01*
X128114228Y-150752443D01*
X128108564Y-150729834D01*
X128105145Y-150706779D01*
X128104001Y-150683500D01*
X128104001Y-150108500D01*
X128105145Y-150085221D01*
X128108564Y-150062166D01*
X128114228Y-150039557D01*
X128122080Y-150017613D01*
X128132045Y-149996543D01*
X128144027Y-149976552D01*
X128157911Y-149957832D01*
X128173563Y-149940562D01*
X128190833Y-149924910D01*
X128209553Y-149911026D01*
X128229544Y-149899044D01*
X128250614Y-149889079D01*
X128272558Y-149881227D01*
X128295167Y-149875563D01*
X128318222Y-149872144D01*
X128341501Y-149871000D01*
X128816501Y-149871000D01*
X128839780Y-149872144D01*
X128839780Y-149872144D01*
G37*
D28*
X128579001Y-150396000D03*
G04 #@! TD*
D27*
G04 #@! TO.C,D9*
G36*
X128839780Y-155912144D02*
X128862835Y-155915563D01*
X128885444Y-155921227D01*
X128907388Y-155929079D01*
X128928458Y-155939044D01*
X128948449Y-155951026D01*
X128967169Y-155964910D01*
X128984439Y-155980562D01*
X129000091Y-155997832D01*
X129013975Y-156016552D01*
X129025957Y-156036543D01*
X129035922Y-156057613D01*
X129043774Y-156079557D01*
X129049438Y-156102166D01*
X129052857Y-156125221D01*
X129054001Y-156148500D01*
X129054001Y-156723500D01*
X129052857Y-156746779D01*
X129049438Y-156769834D01*
X129043774Y-156792443D01*
X129035922Y-156814387D01*
X129025957Y-156835457D01*
X129013975Y-156855448D01*
X129000091Y-156874168D01*
X128984439Y-156891438D01*
X128967169Y-156907090D01*
X128948449Y-156920974D01*
X128928458Y-156932956D01*
X128907388Y-156942921D01*
X128885444Y-156950773D01*
X128862835Y-156956437D01*
X128839780Y-156959856D01*
X128816501Y-156961000D01*
X128341501Y-156961000D01*
X128318222Y-156959856D01*
X128295167Y-156956437D01*
X128272558Y-156950773D01*
X128250614Y-156942921D01*
X128229544Y-156932956D01*
X128209553Y-156920974D01*
X128190833Y-156907090D01*
X128173563Y-156891438D01*
X128157911Y-156874168D01*
X128144027Y-156855448D01*
X128132045Y-156835457D01*
X128122080Y-156814387D01*
X128114228Y-156792443D01*
X128108564Y-156769834D01*
X128105145Y-156746779D01*
X128104001Y-156723500D01*
X128104001Y-156148500D01*
X128105145Y-156125221D01*
X128108564Y-156102166D01*
X128114228Y-156079557D01*
X128122080Y-156057613D01*
X128132045Y-156036543D01*
X128144027Y-156016552D01*
X128157911Y-155997832D01*
X128173563Y-155980562D01*
X128190833Y-155964910D01*
X128209553Y-155951026D01*
X128229544Y-155939044D01*
X128250614Y-155929079D01*
X128272558Y-155921227D01*
X128295167Y-155915563D01*
X128318222Y-155912144D01*
X128341501Y-155911000D01*
X128816501Y-155911000D01*
X128839780Y-155912144D01*
X128839780Y-155912144D01*
G37*
D28*
X128579001Y-156436000D03*
D27*
G36*
X128839780Y-154162144D02*
X128862835Y-154165563D01*
X128885444Y-154171227D01*
X128907388Y-154179079D01*
X128928458Y-154189044D01*
X128948449Y-154201026D01*
X128967169Y-154214910D01*
X128984439Y-154230562D01*
X129000091Y-154247832D01*
X129013975Y-154266552D01*
X129025957Y-154286543D01*
X129035922Y-154307613D01*
X129043774Y-154329557D01*
X129049438Y-154352166D01*
X129052857Y-154375221D01*
X129054001Y-154398500D01*
X129054001Y-154973500D01*
X129052857Y-154996779D01*
X129049438Y-155019834D01*
X129043774Y-155042443D01*
X129035922Y-155064387D01*
X129025957Y-155085457D01*
X129013975Y-155105448D01*
X129000091Y-155124168D01*
X128984439Y-155141438D01*
X128967169Y-155157090D01*
X128948449Y-155170974D01*
X128928458Y-155182956D01*
X128907388Y-155192921D01*
X128885444Y-155200773D01*
X128862835Y-155206437D01*
X128839780Y-155209856D01*
X128816501Y-155211000D01*
X128341501Y-155211000D01*
X128318222Y-155209856D01*
X128295167Y-155206437D01*
X128272558Y-155200773D01*
X128250614Y-155192921D01*
X128229544Y-155182956D01*
X128209553Y-155170974D01*
X128190833Y-155157090D01*
X128173563Y-155141438D01*
X128157911Y-155124168D01*
X128144027Y-155105448D01*
X128132045Y-155085457D01*
X128122080Y-155064387D01*
X128114228Y-155042443D01*
X128108564Y-155019834D01*
X128105145Y-154996779D01*
X128104001Y-154973500D01*
X128104001Y-154398500D01*
X128105145Y-154375221D01*
X128108564Y-154352166D01*
X128114228Y-154329557D01*
X128122080Y-154307613D01*
X128132045Y-154286543D01*
X128144027Y-154266552D01*
X128157911Y-154247832D01*
X128173563Y-154230562D01*
X128190833Y-154214910D01*
X128209553Y-154201026D01*
X128229544Y-154189044D01*
X128250614Y-154179079D01*
X128272558Y-154171227D01*
X128295167Y-154165563D01*
X128318222Y-154162144D01*
X128341501Y-154161000D01*
X128816501Y-154161000D01*
X128839780Y-154162144D01*
X128839780Y-154162144D01*
G37*
D28*
X128579001Y-154686000D03*
G04 #@! TD*
D17*
G04 #@! TO.C,R41*
X109016800Y-181270000D03*
X109016800Y-179070000D03*
G04 #@! TD*
G04 #@! TO.C,R42*
X110896400Y-187876000D03*
X110896400Y-190076000D03*
G04 #@! TD*
M02*
