M48
;DRILL file {KiCad (5.0.0)} date 10/03/18 22:38:35
;FORMAT={-:-/ absolute / inch / decimal}
FMAT,2
INCH,TZ
T1C0.0157
T2C0.0300
T3C0.0315
T4C0.0350
T5C0.0354
T6C0.0394
T7C0.0472
T8C0.0787
T9C0.1598
T10C0.2402
T11C0.3600
%
G90
G05
M72
T1
X1.475Y-7.38
X1.56Y-7.56
X2.41Y-7.32
X2.47Y-7.03
X2.48Y-7.245
X2.525Y-7.32
X2.64Y-7.245
X2.7Y-6.79
X2.765Y-6.73
X2.8Y-6.705
X2.88Y-6.85
X3.09Y-5.55
X3.2Y-7.675
X3.82Y-7.52
X3.86Y-7.675
X4.2277Y-7.325
X4.29Y-7.22
X4.29Y-7.42
X4.33Y-6.28
X4.33Y-6.68
X4.33Y-6.8
X4.82Y-7.71
X5.1Y-6.59
X5.14Y-5.84
X5.14Y-6.25
X5.3066Y-7.6766
X5.3166Y-5.46
X5.3166Y-6.1127
X5.35Y-7.71
X5.42Y-5.905
X5.43Y-6.44
X5.53Y-6.6
X5.865Y-7.19
X5.865Y-7.465
X5.9169Y-7.465
X6.005Y-7.25
X6.04Y-7.645
X6.04Y-7.71
X6.18Y-7.12
X6.29Y-7.48
X6.34Y-7.48
X6.38Y-7.48
X6.39Y-6.53
X6.39Y-7.01
X6.55Y-6.53
X6.55Y-7.01
X6.89Y-6.14
X6.89Y-6.31
X7.76Y-5.66
X7.82Y-5.77
X8.Y-5.77
X8.79Y-7.71
X9.25Y-7.365
X9.28Y-6.46
X9.28Y-7.02
X9.32Y-7.365
X9.45Y-7.365
X9.46Y-6.46
X9.46Y-7.02
X9.5465Y-7.4765
X9.55Y-7.65
X9.5611Y-7.36
X9.57Y-7.28
X9.57Y-7.32
X9.59Y-7.42
X9.69Y-7.55
T2
X3.43Y-7.24
X3.53Y-7.24
X3.63Y-7.24
T3
X4.48Y-5.89
X4.48Y-5.99
X4.48Y-6.09
X4.48Y-6.19
X4.48Y-6.29
X4.48Y-6.39
X4.48Y-6.49
X4.48Y-6.59
X4.48Y-6.69
X4.48Y-6.79
X4.48Y-6.89
X4.48Y-6.99
X4.48Y-7.09
X4.48Y-7.19
X4.78Y-5.89
X4.78Y-5.99
X4.78Y-6.09
X4.78Y-6.19
X4.78Y-6.29
X4.78Y-6.39
X4.78Y-6.49
X4.78Y-6.59
X4.78Y-6.69
X4.78Y-6.79
X4.78Y-6.89
X4.78Y-6.99
X4.78Y-7.09
X4.78Y-7.19
T4
X2.665Y-5.615
X2.665Y-5.715
X2.665Y-5.815
T6
X2.68Y-7.44
X2.68Y-7.54
X2.68Y-7.64
X6.98Y-7.265
X7.18Y-7.265
X6.98Y-6.765
X7.18Y-6.765
X8.63Y-6.465
X8.73Y-6.465
X8.83Y-6.465
X8.63Y-7.265
X8.83Y-7.265
X6.98Y-7.015
X7.08Y-7.015
X7.18Y-7.015
X6.98Y-7.515
X7.08Y-7.515
X7.18Y-7.515
X1.74Y-5.375
X1.84Y-5.375
X1.94Y-5.375
X8.63Y-7.015
X8.73Y-7.015
X8.83Y-7.015
X7.63Y-6.065
X7.63Y-6.165
X7.63Y-6.265
X7.88Y-6.065
X7.88Y-6.265
X7.38Y-6.065
X7.38Y-6.165
X7.38Y-6.265
X8.13Y-6.065
X8.13Y-6.165
X8.13Y-6.265
X6.98Y-6.515
X7.08Y-6.515
X7.18Y-6.515
X8.63Y-6.715
X8.83Y-6.715
X8.63Y-7.515
X8.73Y-7.515
X8.83Y-7.515
X8.38Y-6.065
X8.38Y-6.165
X8.38Y-6.265
T7
X0.83Y-4.44
X2.03Y-4.44
X0.83Y-5.04
X2.03Y-5.04
X0.83Y-4.74
X2.03Y-4.74
T8
X1.28Y-2.39
X1.6737Y-2.39
X10.03Y-1.14
X10.4237Y-1.14
X6.28Y-1.14
X6.6737Y-1.14
X3.78Y-2.39
X4.1737Y-2.39
X8.78Y-4.89
X9.1737Y-4.89
X8.78Y-1.14
X9.1737Y-1.14
X5.03Y-4.89
X5.4237Y-4.89
X10.03Y-4.89
X10.4237Y-4.89
X5.03Y-2.39
X5.4237Y-2.39
X7.53Y-4.89
X7.9237Y-4.89
X8.78Y-2.39
X9.1737Y-2.39
X3.7863Y-4.89
X4.18Y-4.89
X6.28Y-4.89
X6.6737Y-4.89
X2.53Y-2.39
X2.9237Y-2.39
X7.53Y-1.14
X7.9237Y-1.14
X6.28Y-2.39
X6.6737Y-2.39
X6.2863Y-3.64
X6.68Y-3.64
X2.53Y-1.14
X2.9237Y-1.14
X3.78Y-3.64
X4.1737Y-3.64
X3.78Y-1.14
X4.1737Y-1.14
X10.03Y-2.39
X10.4237Y-2.39
X2.5363Y-4.89
X2.93Y-4.89
X10.03Y-3.64
X10.4237Y-3.64
X1.28Y-1.14
X1.6737Y-1.14
X5.03Y-3.64
X5.4237Y-3.64
X7.53Y-3.64
X7.9237Y-3.64
X2.5363Y-3.64
X2.93Y-3.64
X5.03Y-1.14
X5.4237Y-1.14
X8.78Y-3.64
X9.1737Y-3.64
X1.28Y-3.64
X1.6737Y-3.64
X7.53Y-2.39
X7.9237Y-2.39
T9
X1.471Y-6.005
X1.471Y-6.32
T10
X1.03Y-6.78
X1.56Y-6.775
T11
X7.88Y-7.041
X10.13Y-7.04
T5
X0.8852Y-5.345G85X0.9048Y-5.345
G05
X0.8852Y-5.53G85X0.9048Y-5.53
G05
X0.8852Y-5.715G85X0.9048Y-5.715
G05
T0
M30
