G04 #@! TF.GenerationSoftware,KiCad,Pcbnew,(5.0.0)*
G04 #@! TF.CreationDate,2018-12-19T13:39:59-06:00*
G04 #@! TF.ProjectId,Spot_Welder_Hardware,53706F745F57656C6465725F48617264,rev?*
G04 #@! TF.SameCoordinates,Original*
G04 #@! TF.FileFunction,Soldermask,Bot*
G04 #@! TF.FilePolarity,Negative*
%FSLAX46Y46*%
G04 Gerber Fmt 4.6, Leading zero omitted, Abs format (unit mm)*
G04 Created by KiCad (PCBNEW (5.0.0)) date 12/19/18 13:39:59*
%MOMM*%
%LPD*%
G01*
G04 APERTURE LIST*
%ADD10C,4.083000*%
%ADD11C,18.688000*%
%ADD12R,4.400000X4.400000*%
%ADD13C,4.400000*%
%ADD14C,10.560000*%
%ADD15C,5.480000*%
%ADD16C,3.850000*%
%ADD17C,1.924000*%
%ADD18R,2.200000X2.200000*%
%ADD19O,2.200000X2.200000*%
%ADD20C,1.300000*%
%ADD21R,2.100000X2.100000*%
%ADD22O,2.100000X2.100000*%
%ADD23C,2.800000*%
%ADD24O,2.800000X2.800000*%
%ADD25O,2.700000X2.100000*%
%ADD26R,2.000000X2.000000*%
%ADD27O,2.000000X2.000000*%
G04 APERTURE END LIST*
D10*
G04 #@! TO.C,REF\002A\002A*
X276606000Y-192786000D03*
G04 #@! TD*
G04 #@! TO.C,REF\002A\002A*
X20574000Y-192786000D03*
G04 #@! TD*
G04 #@! TO.C,REF\002A\002A*
X20574000Y-17526000D03*
G04 #@! TD*
D11*
G04 #@! TO.C,REF\002A\002A*
X257302000Y-178816000D03*
G04 #@! TD*
D12*
G04 #@! TO.C,C1*
X223012000Y-60706000D03*
D13*
X233012000Y-60706000D03*
G04 #@! TD*
D12*
G04 #@! TO.C,C2*
X254762000Y-28956000D03*
D13*
X264762000Y-28956000D03*
G04 #@! TD*
D12*
G04 #@! TO.C,C3*
X223012000Y-92456000D03*
D13*
X233012000Y-92456000D03*
G04 #@! TD*
D12*
G04 #@! TO.C,C4*
X191262000Y-124206000D03*
D13*
X201262000Y-124206000D03*
G04 #@! TD*
D12*
G04 #@! TO.C,C5*
X223012000Y-124206000D03*
D13*
X233012000Y-124206000D03*
G04 #@! TD*
D12*
G04 #@! TO.C,C6*
X254762000Y-60706000D03*
D13*
X264762000Y-60706000D03*
G04 #@! TD*
D12*
G04 #@! TO.C,C8*
X254762000Y-92456000D03*
D13*
X264762000Y-92456000D03*
G04 #@! TD*
D12*
G04 #@! TO.C,C9*
X191262000Y-60706000D03*
D13*
X201262000Y-60706000D03*
G04 #@! TD*
D12*
G04 #@! TO.C,C10*
X96012000Y-92456000D03*
D13*
X106012000Y-92456000D03*
G04 #@! TD*
D12*
G04 #@! TO.C,C12*
X96012000Y-60706000D03*
D13*
X106012000Y-60706000D03*
G04 #@! TD*
D12*
G04 #@! TO.C,C13*
X64422000Y-92456000D03*
D13*
X74422000Y-92456000D03*
G04 #@! TD*
D12*
G04 #@! TO.C,C14*
X64262000Y-28956000D03*
D13*
X74262000Y-28956000D03*
G04 #@! TD*
D12*
G04 #@! TO.C,C16*
X64262000Y-60706000D03*
D13*
X74262000Y-60706000D03*
G04 #@! TD*
D12*
G04 #@! TO.C,C17*
X32512000Y-28956000D03*
D13*
X42512000Y-28956000D03*
G04 #@! TD*
D12*
G04 #@! TO.C,C18*
X127762000Y-60706000D03*
D13*
X137762000Y-60706000D03*
G04 #@! TD*
D12*
G04 #@! TO.C,C20*
X32512000Y-60706000D03*
D13*
X42512000Y-60706000D03*
G04 #@! TD*
D12*
G04 #@! TO.C,C21*
X96012000Y-28956000D03*
D13*
X106012000Y-28956000D03*
G04 #@! TD*
D12*
G04 #@! TO.C,C22*
X127762000Y-28956000D03*
D13*
X137762000Y-28956000D03*
G04 #@! TD*
D12*
G04 #@! TO.C,C25*
X159512000Y-28956000D03*
D13*
X169512000Y-28956000D03*
G04 #@! TD*
D12*
G04 #@! TO.C,C26*
X127762000Y-92456000D03*
D13*
X137762000Y-92456000D03*
G04 #@! TD*
D12*
G04 #@! TO.C,C27*
X96172000Y-124206000D03*
D13*
X106172000Y-124206000D03*
G04 #@! TD*
D12*
G04 #@! TO.C,C29*
X32512000Y-92456000D03*
D13*
X42512000Y-92456000D03*
G04 #@! TD*
D12*
G04 #@! TO.C,C30*
X159512000Y-60706000D03*
D13*
X169512000Y-60706000D03*
G04 #@! TD*
D12*
G04 #@! TO.C,C31*
X127762000Y-124206000D03*
D13*
X137762000Y-124206000D03*
G04 #@! TD*
D12*
G04 #@! TO.C,C33*
X191262000Y-28956000D03*
D13*
X201262000Y-28956000D03*
G04 #@! TD*
D12*
G04 #@! TO.C,C34*
X159512000Y-124206000D03*
D13*
X169512000Y-124206000D03*
G04 #@! TD*
D12*
G04 #@! TO.C,C35*
X191262000Y-92456000D03*
D13*
X201262000Y-92456000D03*
G04 #@! TD*
D12*
G04 #@! TO.C,C36*
X223012000Y-28956000D03*
D13*
X233012000Y-28956000D03*
G04 #@! TD*
D12*
G04 #@! TO.C,C37*
X159672000Y-92456000D03*
D13*
X169672000Y-92456000D03*
G04 #@! TD*
D12*
G04 #@! TO.C,C38*
X254762000Y-124206000D03*
D13*
X264762000Y-124206000D03*
G04 #@! TD*
D12*
G04 #@! TO.C,C45*
X64422000Y-124206000D03*
D13*
X74422000Y-124206000D03*
G04 #@! TD*
D14*
G04 #@! TO.C,Conn1*
X39624000Y-172085000D03*
G04 #@! TD*
G04 #@! TO.C,Conn2*
X26162000Y-172212000D03*
G04 #@! TD*
D15*
G04 #@! TO.C,Conn3*
X37363400Y-160529000D03*
X37363400Y-152528000D03*
G04 #@! TD*
D16*
G04 #@! TO.C,Conn4*
X85852000Y-192532000D03*
X93472000Y-192532000D03*
D17*
X87122000Y-183896000D03*
X89662000Y-183896000D03*
X92202000Y-183896000D03*
G04 #@! TD*
D18*
G04 #@! TO.C,D13*
X224282000Y-184531000D03*
D19*
X219202000Y-184531000D03*
G04 #@! TD*
D18*
G04 #@! TO.C,D14*
X224282000Y-170561000D03*
D19*
X219202000Y-170561000D03*
G04 #@! TD*
D18*
G04 #@! TO.C,D15*
X200152000Y-154051000D03*
D19*
X200152000Y-159131000D03*
G04 #@! TD*
D18*
G04 #@! TO.C,D16*
X177292000Y-171831000D03*
D19*
X182372000Y-171831000D03*
G04 #@! TD*
D18*
G04 #@! TO.C,D19*
X177292000Y-184531000D03*
D19*
X182372000Y-184531000D03*
G04 #@! TD*
D20*
G04 #@! TO.C,J1*
X57612000Y-191726000D03*
X62012000Y-191726000D03*
G04 #@! TD*
D21*
G04 #@! TO.C,J2*
X68072000Y-194056000D03*
D22*
X68072000Y-191516000D03*
X68072000Y-188976000D03*
G04 #@! TD*
D18*
G04 #@! TO.C,Q3*
X44196000Y-136525000D03*
D19*
X46736000Y-136525000D03*
X49276000Y-136525000D03*
G04 #@! TD*
D18*
G04 #@! TO.C,Q4*
X224282000Y-178181000D03*
D19*
X221742000Y-178181000D03*
X219202000Y-178181000D03*
G04 #@! TD*
D18*
G04 #@! TO.C,Q5*
X224282000Y-164211000D03*
D19*
X221742000Y-164211000D03*
X219202000Y-164211000D03*
G04 #@! TD*
D18*
G04 #@! TO.C,Q6*
X224282000Y-190881000D03*
D19*
X221742000Y-190881000D03*
X219202000Y-190881000D03*
G04 #@! TD*
D18*
G04 #@! TO.C,Q7*
X212852000Y-154051000D03*
D19*
X212852000Y-156591000D03*
X212852000Y-159131000D03*
G04 #@! TD*
D18*
G04 #@! TO.C,Q8*
X206502000Y-154051000D03*
D19*
X206502000Y-156591000D03*
X206502000Y-159131000D03*
G04 #@! TD*
D18*
G04 #@! TO.C,Q9*
X193802000Y-154051000D03*
D19*
X193802000Y-156591000D03*
X193802000Y-159131000D03*
G04 #@! TD*
D18*
G04 #@! TO.C,Q10*
X187452000Y-154051000D03*
D19*
X187452000Y-156591000D03*
X187452000Y-159131000D03*
G04 #@! TD*
D18*
G04 #@! TO.C,Q11*
X177292000Y-190881000D03*
D19*
X179832000Y-190881000D03*
X182372000Y-190881000D03*
G04 #@! TD*
D18*
G04 #@! TO.C,Q12*
X177292000Y-165481000D03*
D19*
X179832000Y-165481000D03*
X182372000Y-165481000D03*
G04 #@! TD*
D18*
G04 #@! TO.C,Q13*
X177292000Y-178181000D03*
D19*
X179832000Y-178181000D03*
X182372000Y-178181000D03*
G04 #@! TD*
D23*
G04 #@! TO.C,R12*
X51562000Y-128016000D03*
D24*
X21082000Y-128016000D03*
G04 #@! TD*
D23*
G04 #@! TO.C,R13*
X21082000Y-120396000D03*
D24*
X51562000Y-120396000D03*
G04 #@! TD*
D23*
G04 #@! TO.C,R14*
X51562000Y-112776000D03*
D24*
X21082000Y-112776000D03*
G04 #@! TD*
D25*
G04 #@! TO.C,SW2*
X22733000Y-135762000D03*
X22733000Y-140462000D03*
X22733000Y-145162000D03*
G04 #@! TD*
D17*
G04 #@! TO.C,U1*
X67691000Y-142621000D03*
X67691000Y-145161000D03*
X67691000Y-147701000D03*
G04 #@! TD*
D26*
G04 #@! TO.C,U2*
X113792000Y-149606000D03*
D27*
X121412000Y-182626000D03*
X113792000Y-152146000D03*
X121412000Y-180086000D03*
X113792000Y-154686000D03*
X121412000Y-177546000D03*
X113792000Y-157226000D03*
X121412000Y-175006000D03*
X113792000Y-159766000D03*
X121412000Y-172466000D03*
X113792000Y-162306000D03*
X121412000Y-169926000D03*
X113792000Y-164846000D03*
X121412000Y-167386000D03*
X113792000Y-167386000D03*
X121412000Y-164846000D03*
X113792000Y-169926000D03*
X121412000Y-162306000D03*
X113792000Y-172466000D03*
X121412000Y-159766000D03*
X113792000Y-175006000D03*
X121412000Y-157226000D03*
X113792000Y-177546000D03*
X121412000Y-154686000D03*
X113792000Y-180086000D03*
X121412000Y-152146000D03*
X113792000Y-182626000D03*
X121412000Y-149606000D03*
G04 #@! TD*
D10*
G04 #@! TO.C,REF\002A\002A*
X276606000Y-17272000D03*
G04 #@! TD*
D11*
G04 #@! TO.C,REF\002A\002A*
X200152000Y-178841400D03*
G04 #@! TD*
M02*
